<svg xmlns="http://www.w3.org/2000/svg" xmlns:xlink="http://www.w3.org/1999/xlink" width="574" height="475.684" viewBox="0 0 574 475.684"><defs><style>.a{fill:#3f6da4;}.b{fill:#4080ae;}.c{fill:#4292b7;}.d{fill:#43a5c1;}.e{fill:#44b8ca;}.f{fill:#45cbd4;}.g{fill:#47dddd;}.h{fill:#48f0e7;}.i{fill:#d7d9d8;}.j{fill:url(#a);}.k{fill:#3b3b3d;}.l{fill:#131315;}.m{fill:#505052;}.n{fill:#00e7f4;}.o{fill:#242426;}.p{fill:#7a7a7b;}.q{fill:#2e2e30;}.r{fill:#575758;}.s{fill:#dcdadb;}.t{fill:#160c0d;}.u{fill:#424244;}.v{fill:#484849;}.w{fill:#474749;}.x{fill:#fff;}.y{fill:#0079ff;}.z{fill:url(#d);}.aa{fill:url(#e);}.ab{fill:#3a3b3b;}.ac{fill:#5e5e5e;}.ad{fill:#743b3b;}.ae{fill:#4a4a4a;}.af{fill:#121212;}.ag{fill:#868686;}.ah{fill:#2f2a31;}.ai{fill:#4ca6d4;}.aj{fill:#262626;}.ak{fill:#c3c4c3;}.al{fill:#bf2500;}.am{fill:url(#f);}.an{fill:#a71600;}.ao{fill:url(#g);}.ap{fill:#3388a4;}.aq{fill:url(#h);}.ar{fill:#b0d1dc;}.as{fill:#272229;}.at{fill:#130e16;}.au{fill:#312c33;}.av{fill:#857979;}.aw{fill:#3e3a3e;}.ax{fill:#348672;}.ay{fill:#8dd4ce;}.az{fill:#7f7f7f;}.ba{fill:#9d9d9d;}.bb{fill:#bdbdbd;}.bc{fill:#d1d1d1;}.bd{fill:#b11800;}.be{fill:#8d8878;}.bf{fill:#d10000;}.bg{fill:url(#j);}.bh{fill:url(#k);}.bi{fill:#fcfbfb;}.bj{fill:#252525;}.bk{fill:url(#l);}.bl{fill:url(#m);}.bm{fill:#9f9b98;}.bn{fill:#403b41;}.bo{fill:url(#n);}</style><linearGradient id="a" x1="7.381" y1="0.5" x2="8.381" y2="0.5" gradientUnits="objectBoundingBox"><stop offset="0.041" stop-color="#262526"/><stop offset="0.419" stop-color="#2a292b"/><stop offset="0.976" stop-color="#373639"/></linearGradient><linearGradient id="d" x1="-2.641" y1="0.5" x2="-1.641" y2="0.5" gradientUnits="objectBoundingBox"><stop offset="0" stop-color="#616161"/><stop offset="0.041" stop-color="#747474"/><stop offset="0.619" stop-color="#747474"/><stop offset="0.634" stop-color="#868686"/><stop offset="0.652" stop-color="#979797"/><stop offset="0.666" stop-color="#9d9d9d"/><stop offset="0.707" stop-color="#ccc"/><stop offset="0.977" stop-color="#ccc"/><stop offset="1" stop-color="#e7e7e7"/></linearGradient><linearGradient id="e" x1="-2.642" y1="0.5" x2="-1.642" y2="0.5" gradientUnits="objectBoundingBox"><stop offset="0" stop-color="#1c1c1c"/><stop offset="0.041" stop-color="#262626"/><stop offset="0.619" stop-color="#262626"/><stop offset="0.621" stop-color="#272727"/><stop offset="0.647" stop-color="#383838"/><stop offset="0.666" stop-color="#3e3e3e"/><stop offset="0.707" stop-color="#595959"/><stop offset="0.977" stop-color="#595959"/><stop offset="1" stop-color="#686868"/></linearGradient><linearGradient id="f" x1="0.5" x2="0.5" y2="1" gradientUnits="objectBoundingBox"><stop offset="0" stop-color="#900a00"/><stop offset="0.359" stop-color="#e23000"/><stop offset="0.976" stop-color="#ef2800"/></linearGradient><linearGradient id="g" x1="0.542" y1="0.874" x2="0.297" y2="-0.037" gradientUnits="objectBoundingBox"><stop offset="0" stop-color="#c81200"/><stop offset="0.359" stop-color="#fd3600"/><stop offset="0.976" stop-color="#ff2a00"/></linearGradient><linearGradient id="h" x1="0.879" y1="0.852" x2="0.065" y2="0.038" xlink:href="#g"/><linearGradient id="j" y1="0.5" x2="1" y2="0.5" gradientUnits="objectBoundingBox"><stop offset="0" stop-color="#8a8a8a"/><stop offset="0.063" stop-color="#8b8b8b"/><stop offset="0.085" stop-color="#92918f"/><stop offset="0.101" stop-color="#9e9a97"/><stop offset="0.102" stop-color="#9f9b98"/><stop offset="0.431" stop-color="#9f9b98"/><stop offset="0.432" stop-color="#a09c99"/><stop offset="0.446" stop-color="#b0adaa"/><stop offset="0.462" stop-color="#bbb8b6"/><stop offset="0.485" stop-color="#c1bfbd"/><stop offset="0.549" stop-color="#c3c1bf"/><stop offset="0.621" stop-color="#dcdbd9"/><stop offset="0.846" stop-color="#dcdbd9"/><stop offset="0.968" stop-color="#d8d8d8"/><stop offset="0.987" stop-color="#d6d6d6"/><stop offset="0.994" stop-color="#d0d0cf"/><stop offset="0.999" stop-color="#c6c5c3"/><stop offset="1" stop-color="#c3c1bf"/></linearGradient><linearGradient id="k" x1="-0.007" y1="0.5" x2="0.993" y2="0.5" gradientUnits="objectBoundingBox"><stop offset="0" stop-color="#adadad"/><stop offset="0.063" stop-color="#aeaeae"/><stop offset="0.085" stop-color="#b5b4b2"/><stop offset="0.101" stop-color="#c1bdb9"/><stop offset="0.102" stop-color="#c2beba"/><stop offset="0.431" stop-color="#c2beba"/><stop offset="0.433" stop-color="#c4c0bc"/><stop offset="0.446" stop-color="#d3d0cd"/><stop offset="0.462" stop-color="#dedbd9"/><stop offset="0.485" stop-color="#e4e2e0"/><stop offset="0.549" stop-color="#e6e4e2"/><stop offset="0.621" stop-color="#fffefc"/><stop offset="0.846" stop-color="#fffefc"/><stop offset="0.968" stop-color="#fbfbfb"/><stop offset="0.987" stop-color="#f9f9f9"/><stop offset="0.994" stop-color="#f3f3f2"/><stop offset="0.999" stop-color="#e9e8e6"/><stop offset="1" stop-color="#e6e4e2"/></linearGradient><linearGradient id="l" x1="0.728" y1="0.15" x2="0.232" y2="0.799" gradientUnits="objectBoundingBox"><stop offset="0" stop-color="#ddd"/><stop offset="0.108" stop-color="#ededed"/><stop offset="0.311" stop-color="#e8e8e8"/><stop offset="0.557" stop-color="#d0d0d0"/><stop offset="0.654" stop-color="#cacaca"/><stop offset="0.729" stop-color="#c1c1c1"/><stop offset="0.809" stop-color="#b0b0b0"/><stop offset="0.911" stop-color="#a2a2a2"/><stop offset="1" stop-color="#9e9e9e"/></linearGradient><linearGradient id="m" x1="0.737" y1="0.157" x2="0.228" y2="0.843" xlink:href="#l"/><linearGradient id="n" x1="0.716" y1="0.887" x2="0.384" y2="0.283" xlink:href="#g"/></defs><g transform="translate(-11.729 -72.506)"><g transform="translate(11.729 72.506)"><g transform="translate(0 142.288)"><path class="a" d="M296.94,170.993c-72.04,0-143.924,15.767-198.594,47.334-52.453,30.284-81.34,70.465-81.34,113.138,0,43.067,29.332,83.719,82.6,114.473,110.5,63.792,289.718,64.123,399.509.726,52.453-30.284,81.338-70.462,81.338-113.138,0-43.064-29.332-83.719-82.6-114.468C442.378,187.024,369.58,170.993,296.94,170.993Zm3.58,328.2c-73.6,0-147.345-16.237-203.551-48.687C42,418.771,11.734,376.494,11.729,331.465c0-44.638,29.826-86.443,83.98-117.709,111.256-64.225,292.843-63.9,404.782.731,54.966,31.736,85.238,74.01,85.238,119.039,0,44.638-29.825,86.441-83.98,117.708C446.356,483.214,373.512,499.2,300.519,499.2Z" transform="translate(-11.729 -165.798)"/><path class="b" d="M285.979,182.679c-63.829,0-127.516,13.969-175.954,41.936C63.584,251.428,38.01,286.994,38.01,324.756c0,38.113,25.969,74.095,73.131,101.324,97.9,56.52,256.69,56.813,353.966.644,46.439-26.813,72.015-62.375,72.015-100.14,0-38.108-25.971-74.095-73.131-101.319C414.838,196.883,350.338,182.679,285.979,182.679Zm3.174,290.929c-65.273,0-130.675-14.4-180.521-43.178-48.781-28.164-75.641-65.694-75.646-105.674,0-39.632,26.47-76.743,74.53-104.49,98.667-56.959,259.71-56.671,358.984.647,48.78,28.166,75.645,65.691,75.645,105.671,0,39.633-26.468,76.743-74.528,104.49C418.49,459.435,353.886,473.607,289.153,473.607Z" transform="translate(-0.565 -159.53)"/><path class="c" d="M275.017,194.363c-55.616,0-111.108,12.172-153.314,36.542-40.426,23.341-62.691,54.29-62.691,87.141,0,33.157,22.609,64.471,63.666,88.175,85.305,49.248,223.662,49.5,308.423.561,40.426-23.341,62.691-54.287,62.691-87.143,0-33.154-22.609-64.469-63.664-88.171C387.3,206.74,331.1,194.363,275.017,194.363Zm2.767,253.658c-56.944,0-114-12.563-157.49-37.669-42.594-24.594-66.048-57.374-66.05-92.306,0-34.626,23.111-67.042,65.077-91.272,86.08-49.692,226.578-49.44,313.187.564,42.6,24.594,66.053,57.371,66.053,92.3,0,34.628-23.113,67.042-65.078,91.272C390.623,435.656,334.26,448.021,277.784,448.021Z" transform="translate(10.599 -153.261)"/><path class="d" d="M264.056,206.049c-47.4,0-94.7,10.374-130.675,31.144-34.414,19.87-53.368,46.2-53.368,74.145,0,28.2,19.248,54.846,54.2,75.024,72.71,41.978,190.637,42.2,262.881.479,34.414-19.869,53.368-46.2,53.368-74.144,0-28.2-19.248-54.846-54.2-75.022C359.758,216.6,311.854,206.049,264.056,206.049Zm2.361,216.385c-48.617,0-97.333-10.727-134.46-32.162C95.55,369.251,75.5,341.22,75.5,311.339c0-29.622,19.756-57.344,55.626-78.054,73.491-42.426,193.447-42.209,267.391.482,36.408,21.02,56.458,49.05,56.458,78.931,0,29.622-19.756,57.344-55.626,78.054C362.755,411.877,314.636,422.434,266.417,422.434Z" transform="translate(21.763 -146.993)"/><path class="e" d="M253.1,217.734c-39.191,0-78.294,8.578-108.035,25.75-28.4,16.4-44.044,38.114-44.044,61.146,0,23.247,15.885,45.222,44.732,61.875,60.114,34.706,157.609,34.885,217.337.4,28.4-16.4,44.044-38.111,44.044-61.146,0-23.244-15.886-45.22-44.732-61.874C332.219,226.456,292.613,217.734,253.1,217.734Zm1.954,179.113c-40.289,0-80.661-8.887-111.43-26.653-30.222-17.45-46.861-40.733-46.863-65.565,0-24.617,16.4-47.644,46.175-64.836,60.9-35.16,160.315-34.979,221.594.4,30.222,17.45,46.864,40.732,46.864,65.563,0,24.618-16.4,47.645-46.176,64.835C334.889,388.1,295.01,396.847,255.051,396.847Z" transform="translate(32.927 -140.725)"/><path class="f" d="M242.136,229.42c-30.979,0-61.886,6.779-85.395,20.354C134.351,262.7,122.02,279.8,122.02,297.92c0,18.292,12.523,35.6,35.265,48.727,47.519,27.433,124.583,27.575,171.8.314,22.39-12.926,34.721-30.025,34.721-48.147,0-18.292-12.525-35.6-35.265-48.727C304.679,236.315,273.372,229.42,242.136,229.42Zm1.548,141.84c-31.963,0-63.991-7.051-88.4-21.144-24.034-13.878-37.268-32.413-37.269-52.2,0-19.611,13.042-37.944,36.725-51.617,48.316-27.894,127.182-27.749,175.8.316,24.034,13.878,37.269,32.412,37.269,52.195,0,19.611-13.042,37.943-36.725,51.615C307.023,364.319,275.386,371.26,243.684,371.26Z" transform="translate(44.091 -134.456)"/><path class="g" d="M231.175,241.1c-22.766,0-45.478,4.983-62.755,14.957-16.377,9.456-25.4,21.938-25.4,35.149,0,13.338,9.163,25.972,25.8,35.578,34.922,20.163,91.555,20.267,126.252.232,16.377-9.455,25.4-21.938,25.4-35.149,0-13.336-9.163-25.972-25.8-35.576C277.139,246.173,254.13,241.1,231.175,241.1Zm1.141,104.568c-23.634,0-47.319-5.213-65.368-15.635-17.848-10.306-27.676-24.092-27.676-38.827,0-14.605,9.685-28.243,27.273-38.4,35.729-20.628,94.05-20.518,130,.232,17.848,10.307,27.676,24.093,27.676,38.827,0,14.605-9.685,28.245-27.273,38.4C279.156,340.542,255.761,345.673,232.316,345.673Z" transform="translate(55.254 -128.188)"/><path class="h" d="M220.214,252.79c-14.553,0-29.07,3.185-40.115,9.561-10.364,5.983-16.072,13.85-16.072,22.152,0,8.381,5.8,16.347,16.332,22.428,22.327,12.891,58.529,12.956,80.71.149,10.365-5.985,16.074-13.85,16.074-22.152,0-8.382-5.8-16.348-16.333-22.428C249.6,256.03,234.889,252.79,220.214,252.79Zm.735,67.3c-15.307,0-30.649-3.377-42.338-10.126-11.662-6.735-18.083-15.773-18.083-25.457,0-9.6,6.329-18.545,17.823-25.181,23.14-13.361,60.917-13.287,84.2.149,11.662,6.734,18.081,15.773,18.081,25.457,0,9.6-6.328,18.545-17.822,25.179C251.29,316.763,236.137,320.086,220.949,320.086Z" transform="translate(66.418 -121.919)"/></g><g transform="translate(237.466 125.987)"><g transform="translate(0 0)"><g transform="translate(0)"><path class="i" d="M205.318,305.847l-3.14-47.592,24.786-2.416,0,0c6.972-1.08,15.665-.1,24.449,3.189,17.636,6.61,28.946,20.055,25.262,30.028-1.85,5.007-7.129,8.187-14.158,9.276h0Z" transform="translate(-149.174 -102.43)"/><path class="j" d="M167.524,194.219l95.58-.41v117.45h0c-.076,7.033-4.778,14.067-14.1,19.449-18.722,10.809-48.981,10.864-67.585.122-9.34-5.392-13.966-12.481-13.89-19.571h0Z" transform="translate(-167.374 -134.787)"/><path class="k" d="M167.524,248.547l95.58-.409v23.029h0c-.076,7.033-4.778,14.067-14.1,19.449-18.722,10.809-48.981,10.862-67.585.122-9.34-5.393-13.966-12.482-13.89-19.571h0Z" transform="translate(-167.374 -106.254)"/><path class="l" d="M167.524,248.009l95.58-.41v23.029h0c-.076,7.033-4.778,14.067-14.1,19.449-18.722,10.809-48.981,10.864-67.585.122-9.34-5.393-13.966-12.481-13.89-19.571h0Z" transform="translate(-167.374 -106.537)"/><path class="j" d="M167.524,185.006l95.58-.41v117.45h0c-.076,7.033-4.778,14.067-14.1,19.449-18.722,10.809-48.981,10.864-67.585.122-9.34-5.393-13.966-12.481-13.89-19.571h0Z" transform="translate(-167.374 -139.625)"/><path class="k" d="M167.524,175.286l95.58-.409v23.029h0c-.076,7.033-4.778,14.067-14.1,19.449-18.722,10.807-48.981,10.862-67.585.122-9.34-5.393-13.966-12.482-13.89-19.571h0Z" transform="translate(-167.374 -144.729)"/><path class="l" d="M167.524,174.678l95.58-.41V197.3h0c-.076,7.033-4.778,14.067-14.1,19.449-18.722,10.809-48.981,10.864-67.585.122-9.34-5.393-13.966-12.481-13.89-19.571h0Z" transform="translate(-167.374 -145.049)"/><path class="j" d="M167.524,173.55l95.58-.41v23.029h0c-.076,7.033-4.778,14.067-14.1,19.451-18.722,10.809-48.981,10.862-67.585.122-9.34-5.393-13.966-12.482-13.89-19.573h0Z" transform="translate(-167.374 -145.642)"/><ellipse class="m" cx="47.791" cy="27.591" rx="47.791" ry="27.591" transform="translate(0 0.518) rotate(-0.311)"/><path class="n" d="M181.927,201.59c18.058,10.426,47.43,10.373,65.6-.119s18.264-27.449.2-37.875-47.43-10.373-65.6.117S163.869,191.163,181.927,201.59Z" transform="translate(-166.891 -154.743)"/><path class="o" d="M183.273,199.347c16.623,9.6,43.66,9.549,60.388-.11s16.812-25.268.189-34.864-43.66-9.549-60.388.108S166.649,189.749,183.273,199.347Z" transform="translate(-165.622 -154.01)"/><g transform="translate(8.512 3.383)"><ellipse class="p" cx="39.305" cy="22.692" rx="39.305" ry="22.692" transform="matrix(1, -0.005, 0.005, 1, 0, 0.426)"/><path class="m" d="M185.236,195.514c14.983,8.649,39.351,8.605,54.428-.1s15.153-22.772.171-31.423-39.351-8.607-54.428.1S170.254,186.863,185.236,195.514Z" transform="translate(-172.459 -157.222)"/><g transform="translate(50.172 29.583)"><path class="q" d="M220.8,185.341c3.438-1.964,3.493-5.155.12-7.115a13.7,13.7,0,0,0-12.409-.031c-3.458,1.98-3.485,5.166-.061,7.161A13.545,13.545,0,0,0,220.8,185.341Z" transform="translate(-205.902 -176.725)"/><path class="r" d="M209.267,179.032a10.956,10.956,0,0,1,9.926.023c2.7,1.569,2.654,4.121-.1,5.692a10.835,10.835,0,0,1-9.879.012C206.48,183.164,206.5,180.615,209.267,179.032Z" transform="translate(-205.231 -176.132)"/><g transform="translate(3.703 2.837)"><path class="s" d="M211.362,180.339a7.345,7.345,0,0,1,1.2-.548,10.1,10.1,0,0,1,2.639-.544,11.742,11.742,0,0,1,1.409-.018.7.7,0,0,0,.52-.15.2.2,0,0,0,.018-.316.6.6,0,0,0-.412-.16,12.988,12.988,0,0,0-3.421.278,10.459,10.459,0,0,0-1.42.415,8.773,8.773,0,0,0-1.1.49,6.609,6.609,0,0,0-.929.6,4.694,4.694,0,0,0-.92.923,3.141,3.141,0,0,0-.551,1.156,2.507,2.507,0,0,0-.041.97c.026.172.287.3.595.282.282-.014.508-.165.488-.331a2.425,2.425,0,0,1,.015-.735,2.62,2.62,0,0,1,.422-1,3.676,3.676,0,0,1,.586-.663A5.363,5.363,0,0,1,211.362,180.339Z" transform="translate(-208.33 -178.585)"/><path class="s" d="M211.346,180.382a3.232,3.232,0,0,0-1.425,1.495,1.867,1.867,0,0,0-.13,1c.024.166.275.293.564.284s.528-.151.522-.322c0-.113-.018-.226-.011-.339a1.819,1.819,0,0,1,.578-1.167,3.672,3.672,0,0,1,1.15-.76,6.573,6.573,0,0,1,2.459-.523c.2,0,.407,0,.61,0a.731.731,0,0,0,.488-.134.2.2,0,0,0,.043-.326.589.589,0,0,0-.424-.166,9.207,9.207,0,0,0-2.381.186,7.345,7.345,0,0,0-1.266.383A6,6,0,0,0,211.346,180.382Z" transform="translate(-207.572 -178.147)"/><path class="s" d="M212.1,180.863a1.546,1.546,0,0,0-.882,1.38.294.294,0,0,0,.095.226.819.819,0,0,0,.728.1c.2-.072.287-.175.271-.31a.887.887,0,0,1,.349-.793,2.664,2.664,0,0,1,1.6-.573c.151-.011.307-.008.459,0a.649.649,0,0,0,.554-.217c.078-.137-.011-.285-.215-.361a.889.889,0,0,0-.276-.052,5.473,5.473,0,0,0-1.728.2A4.341,4.341,0,0,0,212.1,180.863Z" transform="translate(-206.815 -177.71)"/><path class="s" d="M214.517,182.16c.429-.246.436-.644.015-.889a1.716,1.716,0,0,0-1.551,0c-.433.247-.436.645-.008.9A1.7,1.7,0,0,0,214.517,182.16Z" transform="translate(-206.059 -177.273)"/></g></g><g transform="translate(3.803 2.337)"><path class="t" d="M182.666,165.3a4.392,4.392,0,0,0,3.97-.008,1.21,1.21,0,0,0,.012-2.292,4.388,4.388,0,0,0-3.97.006A1.211,1.211,0,0,0,182.666,165.3Z" transform="translate(-172.165 -156.936)"/><path class="t" d="M194.828,174.048c1.522.163,2.994-.416,3.288-1.3s-.7-1.727-2.225-1.891-3,.416-3.288,1.3S193.3,173.883,194.828,174.048Z" transform="translate(-166.545 -152.574)"/><path class="t" d="M196.487,170.525c.246.883,1.685,1.481,3.217,1.333s2.575-.982,2.329-1.865-1.684-1.479-3.215-1.333S196.243,169.642,196.487,170.525Z" transform="translate(-164.496 -153.727)"/><path class="t" d="M202.78,170.2c-1.356.439-1.842,1.429-1.089,2.208a4.063,4.063,0,0,0,3.819.615c1.354-.441,1.842-1.429,1.087-2.208A4.057,4.057,0,0,0,202.78,170.2Z" transform="translate(-161.931 -153.016)"/><path class="t" d="M205.171,174.035a4.342,4.342,0,0,0-3.95-.221c-1.2.569-1.386,1.591-.409,2.282a4.342,4.342,0,0,0,3.95.221C205.966,175.75,206.149,174.728,205.171,174.035Z" transform="translate(-162.536 -151.202)"/><path class="t" d="M199.985,176.133c.8-.772.365-1.765-.967-2.221a4.139,4.139,0,0,0-3.851.572c-.8.772-.365,1.765.965,2.221A4.147,4.147,0,0,0,199.985,176.133Z" transform="translate(-165.381 -151.074)"/><path class="t" d="M189.519,174.411c1.55.017,2.838-.694,2.878-1.589s-1.185-1.635-2.735-1.652-2.84.694-2.88,1.589S187.968,174.394,189.519,174.411Z" transform="translate(-169.575 -152.397)"/><path class="t" d="M192.173,177.18c1.362-.433,1.865-1.418,1.124-2.2a4.036,4.036,0,0,0-3.808-.636c-1.362.432-1.865,1.418-1.124,2.2A4.04,4.04,0,0,0,192.173,177.18Z" transform="translate(-168.923 -150.837)"/><path class="t" d="M196.875,178.8c.81-.767.394-1.763-.929-2.225a4.158,4.158,0,0,0-3.86.551c-.81.767-.393,1.763.929,2.225A4.158,4.158,0,0,0,196.875,178.8Z" transform="translate(-167.006 -149.679)"/><path class="t" d="M202.369,178.845c.04-.9-1.185-1.635-2.735-1.652s-2.84.694-2.878,1.589,1.184,1.635,2.735,1.652S202.329,179.74,202.369,178.845Z" transform="translate(-164.337 -149.233)"/><path class="t" d="M207.181,177.3a4.04,4.04,0,0,0-3.808-.636c-1.362.433-1.865,1.42-1.124,2.2a4.038,4.038,0,0,0,3.807.636C207.419,179.066,207.922,178.081,207.181,177.3Z" transform="translate(-161.632 -149.619)"/><path class="t" d="M210.021,174.57a4.158,4.158,0,0,0-3.86.551c-.808.766-.393,1.763.93,2.225a4.158,4.158,0,0,0,3.86-.551C211.762,176.028,211.345,175.032,210.021,174.57Z" transform="translate(-159.614 -150.733)"/><path class="t" d="M210.131,171.4c-1.551-.018-2.84.694-2.88,1.589s1.185,1.635,2.735,1.652,2.84-.694,2.88-1.589S211.68,171.415,210.131,171.4Z" transform="translate(-158.825 -152.277)"/><path class="t" d="M207.477,168.63c-1.362.433-1.867,1.418-1.126,2.2a4.038,4.038,0,0,0,3.808.636c1.362-.433,1.865-1.418,1.126-2.2A4.037,4.037,0,0,0,207.477,168.63Z" transform="translate(-159.477 -153.837)"/><path class="t" d="M202.773,167.007c-.81.766-.393,1.763.929,2.225a4.165,4.165,0,0,0,3.862-.551c.808-.767.393-1.763-.93-2.225A4.154,4.154,0,0,0,202.773,167.007Z" transform="translate(-161.394 -154.995)"/><path class="t" d="M197.279,166.963c-.04.9,1.185,1.635,2.735,1.653s2.84-.7,2.88-1.591-1.185-1.633-2.736-1.652S197.319,166.07,197.279,166.963Z" transform="translate(-164.062 -155.441)"/><path class="t" d="M185.195,176.869c1.5-.233,2.391-1.124,1.995-1.989s-1.932-1.374-3.432-1.139-2.393,1.124-2,1.989S183.7,177.1,185.195,176.869Z" transform="translate(-172.261 -151.076)"/><path class="t" d="M188.394,179.51c1.272-.516,1.586-1.527.7-2.259a4.25,4.25,0,0,0-3.909-.39c-1.272.515-1.588,1.527-.7,2.259A4.25,4.25,0,0,0,188.394,179.51Z" transform="translate(-171.045 -149.563)"/><path class="t" d="M192.972,181.356c.894-.735.59-1.746-.677-2.257a4.266,4.266,0,0,0-3.912.406c-.894.735-.59,1.745.677,2.256A4.267,4.267,0,0,0,192.972,181.356Z" transform="translate(-169.004 -148.385)"/><path class="t" d="M198.377,182.181c.406-.866-.477-1.752-1.975-1.983s-3.038.288-3.445,1.153.479,1.754,1.975,1.983S197.972,183.048,198.377,182.181Z" transform="translate(-166.384 -147.683)"/><path class="t" d="M203.956,181.888c-.13-.892-1.489-1.55-3.034-1.469s-2.692.869-2.562,1.762,1.49,1.548,3.035,1.467S204.088,182.779,203.956,181.888Z" transform="translate(-163.499 -147.542)"/><path class="t" d="M215.89,172.059c-1.543-.075-2.91.587-3.05,1.481s1,1.675,2.544,1.751,2.91-.587,3.049-1.479S217.435,172.135,215.89,172.059Z" transform="translate(-155.896 -151.933)"/><path class="t" d="M214.456,168.94c-1.5.235-2.393,1.126-2,1.989s1.932,1.376,3.432,1.141,2.393-1.126,2-1.989S215.955,168.7,214.456,168.94Z" transform="translate(-156.139 -153.598)"/><path class="t" d="M211.256,166.3c-1.274.516-1.588,1.528-.7,2.259a4.247,4.247,0,0,0,3.908.392c1.274-.516,1.588-1.528.7-2.259A4.247,4.247,0,0,0,211.256,166.3Z" transform="translate(-157.354 -155.111)"/><path class="t" d="M206.677,164.454c-.894.735-.59,1.745.677,2.257a4.27,4.27,0,0,0,3.914-.406c.894-.735.59-1.745-.677-2.257A4.27,4.27,0,0,0,206.677,164.454Z" transform="translate(-159.396 -156.289)"/><path class="t" d="M201.272,163.629c-.406.865.479,1.752,1.975,1.981s3.038-.287,3.445-1.153-.479-1.752-1.975-1.981S201.679,162.762,201.272,163.629Z" transform="translate(-162.017 -156.991)"/><path class="t" d="M179.813,168.133a4.116,4.116,0,0,0,3.839-.6c.779-.776.323-1.768-1.016-2.212a4.115,4.115,0,0,0-3.839.6C178.018,166.7,178.472,167.688,179.813,168.133Z" transform="translate(-173.968 -155.581)"/><path class="t" d="M178.323,171.294c1.5.229,3.04-.287,3.445-1.152s-.477-1.754-1.975-1.983-3.038.287-3.444,1.153S176.827,171.065,178.323,171.294Z" transform="translate(-175.106 -154.006)"/><path class="t" d="M178.3,174.565c1.551,0,2.812-.731,2.817-1.626s-1.249-1.62-2.8-1.617-2.811.732-2.815,1.627S176.748,174.568,178.3,174.565Z" transform="translate(-175.5 -152.317)"/><path class="t" d="M179.741,177.722c1.5-.235,2.393-1.126,2-1.989s-1.932-1.374-3.432-1.141-2.393,1.126-2,1.989S178.242,177.957,179.741,177.722Z" transform="translate(-175.124 -150.629)"/><path class="t" d="M182.553,180.551c1.347-.45,1.812-1.441,1.04-2.216a4.087,4.087,0,0,0-3.833-.586c-1.345.45-1.81,1.441-1.039,2.216A4.088,4.088,0,0,0,182.553,180.551Z" transform="translate(-174.004 -149.057)"/><path class="t" d="M186.541,182.859a1.21,1.21,0,0,0,.012-2.292,4.383,4.383,0,0,0-3.97.008,1.21,1.21,0,0,0-.014,2.292A4.386,4.386,0,0,0,186.541,182.859Z" transform="translate(-172.215 -147.709)"/><path class="t" d="M191.435,184.489c.779-.776.325-1.768-1.016-2.213a4.111,4.111,0,0,0-3.839.6c-.779.776-.325,1.766,1.016,2.212A4.115,4.115,0,0,0,191.435,184.489Z" transform="translate(-169.881 -146.677)"/><path class="t" d="M196.9,185.329c.406-.866-.477-1.752-1.974-1.983s-3.04.288-3.445,1.153.477,1.752,1.974,1.981S196.494,186.194,196.9,185.329Z" transform="translate(-167.159 -146.03)"/><path class="t" d="M202.565,185.323c.006-.9-1.248-1.62-2.8-1.617s-2.812.731-2.817,1.626,1.249,1.62,2.8,1.617S202.56,186.218,202.565,185.323Z" transform="translate(-164.235 -145.813)"/><path class="t" d="M208.043,184.469c-.4-.863-1.932-1.374-3.432-1.139s-2.393,1.126-2,1.989,1.934,1.374,3.433,1.141S208.439,185.334,208.043,184.469Z" transform="translate(-161.309 -146.04)"/><path class="t" d="M221.326,174.516c-1.5-.23-3.04.287-3.445,1.152s.479,1.754,1.975,1.981,3.04-.287,3.445-1.151S222.823,174.745,221.326,174.516Z" transform="translate(-153.294 -150.668)"/><path class="t" d="M221.349,171.245c-1.551,0-2.811.731-2.815,1.626s1.248,1.618,2.8,1.615,2.811-.731,2.815-1.626S222.9,171.242,221.349,171.245Z" transform="translate(-152.899 -152.357)"/><path class="t" d="M219.908,168.088c-1.5.233-2.393,1.124-2,1.989s1.934,1.374,3.433,1.139,2.393-1.124,2-1.989S221.407,167.853,219.908,168.088Z" transform="translate(-153.276 -154.045)"/><path class="t" d="M217.1,165.258c-1.345.45-1.81,1.443-1.04,2.218a4.092,4.092,0,0,0,3.833.586c1.345-.45,1.81-1.443,1.04-2.216A4.092,4.092,0,0,0,217.1,165.258Z" transform="translate(-154.396 -155.617)"/><path class="t" d="M213.107,162.95a1.211,1.211,0,0,0-.012,2.294,4.4,4.4,0,0,0,3.972-.008,1.21,1.21,0,0,0,.012-2.292A4.391,4.391,0,0,0,213.107,162.95Z" transform="translate(-156.184 -156.965)"/><path class="t" d="M208.214,161.321c-.779.776-.325,1.768,1.016,2.213a4.115,4.115,0,0,0,3.839-.6c.779-.776.325-1.768-1.016-2.213A4.116,4.116,0,0,0,208.214,161.321Z" transform="translate(-158.519 -157.997)"/><path class="t" d="M202.749,160.481c-.406.865.477,1.752,1.975,1.981s3.038-.287,3.444-1.152-.477-1.754-1.974-1.983S203.155,159.614,202.749,160.481Z" transform="translate(-161.241 -158.644)"/><path class="t" d="M197.084,160.487c0,.9,1.248,1.618,2.8,1.615s2.812-.731,2.817-1.626-1.248-1.618-2.8-1.615S197.089,159.592,197.084,160.487Z" transform="translate(-164.164 -158.861)"/><path class="t" d="M191.606,161.34c.4.865,1.934,1.374,3.433,1.141s2.392-1.126,1.995-1.989-1.932-1.376-3.432-1.141S191.21,160.476,191.606,161.34Z" transform="translate(-167.091 -158.634)"/><path class="t" d="M186.688,162.981a4.092,4.092,0,0,0,3.833.586c1.345-.45,1.812-1.441,1.04-2.216a4.087,4.087,0,0,0-3.833-.586C186.383,161.215,185.918,162.206,186.688,162.981Z" transform="translate(-169.819 -157.977)"/></g><g transform="translate(11.625 6.936)"><path class="q" d="M190.017,176.2l15.424-8.906c1.932-1.116,1.69-3.066-.541-4.354h0c-2.233-1.289-5.61-1.428-7.542-.313l-15.424,8.9c-1.932,1.116-1.69,3.067.541,4.356h0C184.708,177.178,188.084,177.318,190.017,176.2Z" transform="translate(-180.629 -161.876)"/><path class="u" d="M189.438,175.97l15.6-9.008c1.762-1.017,1.54-2.794-.494-3.97h0a7.644,7.644,0,0,0-6.876-.285l-15.6,9.009c-1.762,1.017-1.54,2.794.494,3.97h0A7.639,7.639,0,0,0,189.438,175.97Z" transform="translate(-180.497 -161.8)"/><path class="q" d="M191.779,167.073a6.917,6.917,0,0,0,6.258-.012c1.734-1,1.742-2.619.02-3.613a6.913,6.913,0,0,0-6.258.012C190.065,164.46,190.057,166.077,191.779,167.073Z" transform="translate(-175.448 -161.441)"/><path class="q" d="M183.236,172a6.917,6.917,0,0,0,6.258-.012c1.734-1,1.742-2.619.02-3.613a6.917,6.917,0,0,0-6.258.012C181.522,169.392,181.514,171.01,183.236,172Z" transform="translate(-179.935 -158.851)"/><path class="v" d="M183.425,171.841a6.114,6.114,0,0,0,5.529-.009c1.533-.885,1.54-2.315.018-3.194a6.113,6.113,0,0,0-5.53.011C181.909,169.532,181.9,170.962,183.425,171.841Z" transform="translate(-179.758 -158.67)"/><path class="v" d="M191.966,166.909a6.113,6.113,0,0,0,5.53-.011c1.533-.885,1.54-2.314.018-3.192a6.118,6.118,0,0,0-5.53.009C190.453,164.6,190.444,166.03,191.966,166.909Z" transform="translate(-175.271 -161.26)"/><path class="r" d="M192.146,166.486a5.346,5.346,0,0,0,4.836-.009c1.339-.773,1.347-2.022.015-2.793a5.35,5.35,0,0,0-4.836.009C190.822,164.467,190.816,165.717,192.146,166.486Z" transform="translate(-175.102 -161.228)"/><path class="r" d="M183.588,171.427a5.346,5.346,0,0,0,4.836-.009c1.339-.773,1.345-2.022.014-2.791a5.338,5.338,0,0,0-4.835.009C182.263,169.409,182.257,170.658,183.588,171.427Z" transform="translate(-179.597 -158.633)"/><path class="s" d="M193.8,165.905l1.976-1.141-1.669-.963-1.975,1.141Z" transform="translate(-174.587 -160.865)"/></g></g><path class="s" d="M185.258,170.9l1.976-1.141-1.669-.963-1.975,1.14Z" transform="translate(-158.937 -147.921)"/></g><g transform="translate(0.881 101.729)"><g transform="translate(92.658)"><path d="M228.755,223.864c0,1.135.4,2.054.9,2.054s.9-.92.9-2.054-.4-2.054-.9-2.054S228.755,222.73,228.755,223.864Z" transform="translate(-228.755 -221.81)"/><path d="M228.755,227.863c0,1.135.4,2.054.9,2.054s.9-.92.9-2.054-.4-2.056-.9-2.056S228.755,226.727,228.755,227.863Z" transform="translate(-228.755 -219.711)"/><path d="M228.755,231.859c0,1.135.4,2.056.9,2.056s.9-.921.9-2.056-.4-2.054-.9-2.054S228.755,230.725,228.755,231.859Z" transform="translate(-228.755 -217.611)"/><path d="M228.755,235.857c0,1.135.4,2.054.9,2.054s.9-.92.9-2.054-.4-2.054-.9-2.054S228.755,234.723,228.755,235.857Z" transform="translate(-228.755 -215.511)"/><path d="M228.755,239.856c0,1.135.4,2.054.9,2.054s.9-.92.9-2.054-.4-2.056-.9-2.056S228.755,238.72,228.755,239.856Z" transform="translate(-228.755 -213.412)"/><path d="M228.755,243.852c0,1.135.4,2.056.9,2.056s.9-.921.9-2.056-.4-2.054-.9-2.054S228.755,242.718,228.755,243.852Z" transform="translate(-228.755 -211.313)"/><path d="M228.755,247.85c0,1.135.4,2.054.9,2.054s.9-.92.9-2.054-.4-2.054-.9-2.054S228.755,246.716,228.755,247.85Z" transform="translate(-228.755 -209.213)"/><path d="M228.755,251.849c0,1.135.4,2.054.9,2.054s.9-.92.9-2.054-.4-2.056-.9-2.056S228.755,250.714,228.755,251.849Z" transform="translate(-228.755 -207.114)"/><path d="M228.755,255.845c0,1.136.4,2.056.9,2.056s.9-.92.9-2.056-.4-2.054-.9-2.054S228.755,254.711,228.755,255.845Z" transform="translate(-228.755 -205.014)"/></g><g transform="translate(90.34 10.403)"><path d="M227.235,230.685c0,1.135.4,2.056.9,2.056s.9-.921.9-2.056-.4-2.054-.9-2.054S227.235,229.551,227.235,230.685Z" transform="translate(-227.235 -228.631)"/><path d="M227.235,234.69c0,1.135.4,2.054.9,2.054s.9-.92.9-2.054-.4-2.054-.9-2.054S227.235,233.556,227.235,234.69Z" transform="translate(-227.235 -226.528)"/><path d="M227.235,238.7c0,1.135.4,2.054.9,2.054s.9-.92.9-2.054-.4-2.056-.9-2.056S227.235,237.56,227.235,238.7Z" transform="translate(-227.235 -224.425)"/><path d="M227.235,242.7c0,1.135.4,2.056.9,2.056s.9-.921.9-2.056-.4-2.054-.9-2.054S227.235,241.565,227.235,242.7Z" transform="translate(-227.235 -222.321)"/><path d="M227.235,246.7c0,1.135.4,2.054.9,2.054s.9-.92.9-2.054-.4-2.054-.9-2.054S227.235,245.57,227.235,246.7Z" transform="translate(-227.235 -220.218)"/><path d="M227.235,250.71c0,1.135.4,2.054.9,2.054s.9-.92.9-2.054-.4-2.056-.9-2.056S227.235,249.575,227.235,250.71Z" transform="translate(-227.235 -218.115)"/><path d="M227.235,254.713c0,1.136.4,2.056.9,2.056s.9-.92.9-2.056-.4-2.054-.9-2.054S227.235,253.579,227.235,254.713Z" transform="translate(-227.235 -216.012)"/><path d="M227.235,258.718c0,1.135.4,2.054.9,2.054s.9-.92.9-2.054-.4-2.054-.9-2.054S227.235,257.584,227.235,258.718Z" transform="translate(-227.235 -213.909)"/></g><g transform="translate(88.021 8.591)"><path d="M225.715,229.5c0,1.136.4,2.056.9,2.056s.9-.92.9-2.056-.4-2.054-.9-2.054S225.715,228.363,225.715,229.5Z" transform="translate(-225.715 -227.443)"/><path d="M225.715,233.5c0,1.135.4,2.054.9,2.054s.9-.92.9-2.054-.4-2.054-.9-2.054S225.715,232.361,225.715,233.5Z" transform="translate(-225.715 -225.343)"/><path d="M225.715,237.493c0,1.135.4,2.054.9,2.054s.9-.92.9-2.054-.4-2.054-.9-2.054S225.715,236.359,225.715,237.493Z" transform="translate(-225.715 -223.244)"/><path d="M225.715,241.492c0,1.135.4,2.054.9,2.054s.9-.92.9-2.054-.4-2.056-.9-2.056S225.715,240.356,225.715,241.492Z" transform="translate(-225.715 -221.144)"/><path d="M225.715,245.488c0,1.135.4,2.056.9,2.056s.9-.921.9-2.056-.4-2.054-.9-2.054S225.715,244.354,225.715,245.488Z" transform="translate(-225.715 -219.045)"/><path d="M225.715,249.486c0,1.135.4,2.054.9,2.054s.9-.92.9-2.054-.4-2.054-.9-2.054S225.715,248.352,225.715,249.486Z" transform="translate(-225.715 -216.945)"/><path d="M225.715,253.485c0,1.135.4,2.054.9,2.054s.9-.92.9-2.054-.4-2.056-.9-2.056S225.715,252.35,225.715,253.485Z" transform="translate(-225.715 -214.846)"/><path d="M225.715,257.481c0,1.135.4,2.056.9,2.056s.9-.921.9-2.056-.4-2.054-.9-2.054S225.715,256.347,225.715,257.481Z" transform="translate(-225.715 -212.746)"/><path d="M225.715,261.479c0,1.135.4,2.054.9,2.054s.9-.92.9-2.054-.4-2.054-.9-2.054S225.715,260.345,225.715,261.479Z" transform="translate(-225.715 -210.647)"/></g><g transform="translate(85.328 13.371)"><path d="M223.949,232.631c0,1.135.468,2.054,1.046,2.054s1.046-.92,1.046-2.054-.47-2.054-1.046-2.054S223.949,231.5,223.949,232.631Z" transform="translate(-223.949 -230.577)"/><path d="M223.949,236.637c0,1.133.468,2.054,1.046,2.054s1.046-.921,1.046-2.054-.47-2.056-1.046-2.056S223.949,235.5,223.949,236.637Z" transform="translate(-223.949 -228.474)"/><path d="M223.949,240.64c0,1.135.468,2.054,1.046,2.054s1.046-.92,1.046-2.054-.47-2.054-1.046-2.054S223.949,239.506,223.949,240.64Z" transform="translate(-223.949 -226.371)"/><path d="M223.949,244.645c0,1.135.468,2.054,1.046,2.054s1.046-.92,1.046-2.054-.47-2.054-1.046-2.054S223.949,243.511,223.949,244.645Z" transform="translate(-223.949 -224.267)"/><path d="M223.949,248.651c0,1.135.468,2.054,1.046,2.054s1.046-.92,1.046-2.054-.47-2.056-1.046-2.056S223.949,247.515,223.949,248.651Z" transform="translate(-223.949 -222.165)"/><path d="M223.949,252.654c0,1.135.468,2.056,1.046,2.056s1.046-.921,1.046-2.056-.47-2.054-1.046-2.054S223.949,251.52,223.949,252.654Z" transform="translate(-223.949 -220.061)"/><path d="M223.949,256.659c0,1.135.468,2.054,1.046,2.054s1.046-.92,1.046-2.054-.47-2.054-1.046-2.054S223.949,255.525,223.949,256.659Z" transform="translate(-223.949 -217.958)"/><path d="M223.949,260.665c0,1.135.468,2.054,1.046,2.054s1.046-.92,1.046-2.054-.47-2.056-1.046-2.056S223.949,259.53,223.949,260.665Z" transform="translate(-223.949 -215.855)"/></g><g transform="translate(82.633 12.458)"><path d="M222.182,232.034c0,1.135.468,2.054,1.046,2.054s1.046-.92,1.046-2.054-.468-2.056-1.046-2.056S222.182,230.9,222.182,232.034Z" transform="translate(-222.182 -229.978)"/><path d="M222.182,236.03c0,1.135.468,2.054,1.046,2.054s1.046-.92,1.046-2.054-.468-2.054-1.046-2.054S222.182,234.9,222.182,236.03Z" transform="translate(-222.182 -227.878)"/><path d="M222.182,240.028c0,1.135.468,2.054,1.046,2.054s1.046-.92,1.046-2.054-.468-2.054-1.046-2.054S222.182,238.894,222.182,240.028Z" transform="translate(-222.182 -225.779)"/><path d="M222.182,244.027c0,1.135.468,2.054,1.046,2.054s1.046-.92,1.046-2.054-.468-2.056-1.046-2.056S222.182,242.892,222.182,244.027Z" transform="translate(-222.182 -223.679)"/><path d="M222.182,248.023c0,1.135.468,2.056,1.046,2.056s1.046-.921,1.046-2.056-.468-2.054-1.046-2.054S222.182,246.889,222.182,248.023Z" transform="translate(-222.182 -221.58)"/><path d="M222.182,252.021c0,1.135.468,2.054,1.046,2.054s1.046-.92,1.046-2.054-.468-2.054-1.046-2.054S222.182,250.887,222.182,252.021Z" transform="translate(-222.182 -219.48)"/><path d="M222.182,256.02c0,1.135.468,2.054,1.046,2.054s1.046-.92,1.046-2.054-.468-2.056-1.046-2.056S222.182,254.885,222.182,256.02Z" transform="translate(-222.182 -217.381)"/><path d="M222.182,260.016c0,1.135.468,2.056,1.046,2.056s1.046-.921,1.046-2.056-.468-2.054-1.046-2.054S222.182,258.882,222.182,260.016Z" transform="translate(-222.182 -215.281)"/><path d="M222.182,264.014c0,1.135.468,2.054,1.046,2.054s1.046-.92,1.046-2.054-.468-2.054-1.046-2.054S222.182,262.88,222.182,264.014Z" transform="translate(-222.182 -213.182)"/></g><g transform="translate(78.835 18.392)"><path d="M219.692,235.925c0,1.135.659,2.054,1.475,2.054s1.475-.92,1.475-2.054-.662-2.056-1.475-2.056S219.692,234.79,219.692,235.925Z" transform="translate(-219.692 -233.869)"/><path d="M219.692,239.928c0,1.135.659,2.056,1.475,2.056s1.475-.921,1.475-2.056-.662-2.054-1.475-2.054S219.692,238.794,219.692,239.928Z" transform="translate(-219.692 -231.766)"/><path d="M219.692,243.933c0,1.135.659,2.054,1.475,2.054s1.475-.92,1.475-2.054-.662-2.054-1.475-2.054S219.692,242.8,219.692,243.933Z" transform="translate(-219.692 -229.662)"/><path d="M219.692,247.939c0,1.135.659,2.054,1.475,2.054s1.475-.92,1.475-2.054-.662-2.056-1.475-2.056S219.692,246.8,219.692,247.939Z" transform="translate(-219.692 -227.559)"/><path d="M219.692,251.942c0,1.136.659,2.056,1.475,2.056s1.475-.92,1.475-2.056-.662-2.054-1.475-2.054S219.692,250.808,219.692,251.942Z" transform="translate(-219.692 -225.456)"/><path d="M219.692,255.947c0,1.135.659,2.054,1.475,2.054s1.475-.92,1.475-2.054-.662-2.054-1.475-2.054S219.692,254.813,219.692,255.947Z" transform="translate(-219.692 -223.353)"/><path d="M219.692,259.952c0,1.135.659,2.054,1.475,2.054s1.475-.92,1.475-2.054-.662-2.054-1.475-2.054S219.692,258.818,219.692,259.952Z" transform="translate(-219.692 -221.249)"/><path d="M219.692,263.958c0,1.135.659,2.054,1.475,2.054s1.475-.92,1.475-2.054-.662-2.056-1.475-2.056S219.692,262.823,219.692,263.958Z" transform="translate(-219.692 -219.147)"/></g><g transform="translate(75.036 16.179)"><path d="M217.2,234.474c0,1.135.66,2.054,1.475,2.054s1.475-.92,1.475-2.054-.66-2.056-1.475-2.056S217.2,233.338,217.2,234.474Z" transform="translate(-217.201 -232.418)"/><path d="M217.2,238.47c0,1.135.66,2.056,1.475,2.056s1.475-.921,1.475-2.056-.66-2.054-1.475-2.054S217.2,237.336,217.2,238.47Z" transform="translate(-217.201 -230.318)"/><path d="M217.2,242.468c0,1.135.66,2.054,1.475,2.054s1.475-.92,1.475-2.054-.66-2.054-1.475-2.054S217.2,241.334,217.2,242.468Z" transform="translate(-217.201 -228.219)"/><path d="M217.2,246.467c0,1.135.66,2.054,1.475,2.054s1.475-.92,1.475-2.054-.66-2.056-1.475-2.056S217.2,245.332,217.2,246.467Z" transform="translate(-217.201 -226.119)"/><path d="M217.2,250.463c0,1.135.66,2.056,1.475,2.056s1.475-.921,1.475-2.056-.66-2.054-1.475-2.054S217.2,249.329,217.2,250.463Z" transform="translate(-217.201 -224.02)"/><path d="M217.2,254.461c0,1.135.66,2.054,1.475,2.054s1.475-.92,1.475-2.054-.66-2.054-1.475-2.054S217.2,253.327,217.2,254.461Z" transform="translate(-217.201 -221.92)"/><path d="M217.2,258.459c0,1.135.66,2.054,1.475,2.054s1.475-.92,1.475-2.054-.66-2.054-1.475-2.054S217.2,257.325,217.2,258.459Z" transform="translate(-217.201 -219.82)"/><path d="M217.2,262.456c0,1.135.66,2.056,1.475,2.056s1.475-.921,1.475-2.056-.66-2.054-1.475-2.054S217.2,261.322,217.2,262.456Z" transform="translate(-217.201 -217.721)"/><path d="M217.2,266.454c0,1.135.66,2.056,1.475,2.056s1.475-.921,1.475-2.056-.66-2.054-1.475-2.054S217.2,265.32,217.2,266.454Z" transform="translate(-217.201 -215.622)"/></g><g transform="translate(71.237 21.202)"><path d="M214.71,237.767c0,1.135.662,2.054,1.475,2.054s1.476-.92,1.476-2.054-.66-2.056-1.476-2.056S214.71,236.631,214.71,237.767Z" transform="translate(-214.71 -235.711)"/><path d="M214.71,241.77c0,1.135.662,2.056,1.475,2.056s1.476-.921,1.476-2.056-.66-2.054-1.476-2.054S214.71,240.636,214.71,241.77Z" transform="translate(-214.71 -233.608)"/><path d="M214.71,245.775c0,1.135.662,2.054,1.475,2.054s1.476-.92,1.476-2.054-.66-2.054-1.476-2.054S214.71,244.641,214.71,245.775Z" transform="translate(-214.71 -231.504)"/><path d="M214.71,249.781c0,1.135.662,2.054,1.475,2.054s1.476-.92,1.476-2.054-.66-2.056-1.476-2.056S214.71,248.645,214.71,249.781Z" transform="translate(-214.71 -229.401)"/><path d="M214.71,253.784c0,1.135.662,2.056,1.475,2.056s1.476-.921,1.476-2.056-.66-2.054-1.476-2.054S214.71,252.65,214.71,253.784Z" transform="translate(-214.71 -227.298)"/><path d="M214.71,257.789c0,1.135.662,2.054,1.475,2.054s1.476-.92,1.476-2.054-.66-2.054-1.476-2.054S214.71,256.655,214.71,257.789Z" transform="translate(-214.71 -225.195)"/><path d="M214.71,261.795c0,1.135.662,2.054,1.475,2.054s1.476-.92,1.476-2.054-.66-2.056-1.476-2.056S214.71,260.66,214.71,261.795Z" transform="translate(-214.71 -223.092)"/><path d="M214.71,265.8c0,1.136.662,2.056,1.475,2.056s1.476-.92,1.476-2.056-.66-2.054-1.476-2.054S214.71,264.664,214.71,265.8Z" transform="translate(-214.71 -220.989)"/></g><g transform="translate(65.946 19.689)"><path d="M211.241,236.773a2.054,2.054,0,1,0,2.054-2.054A2.054,2.054,0,0,0,211.241,236.773Z" transform="translate(-211.241 -234.719)"/><path d="M211.241,240.772a2.054,2.054,0,1,0,2.054-2.056A2.054,2.054,0,0,0,211.241,240.772Z" transform="translate(-211.241 -232.62)"/><path d="M211.241,244.768a2.054,2.054,0,1,0,2.054-2.054A2.056,2.056,0,0,0,211.241,244.768Z" transform="translate(-211.241 -230.52)"/><path d="M211.241,248.766a2.054,2.054,0,1,0,2.054-2.054A2.054,2.054,0,0,0,211.241,248.766Z" transform="translate(-211.241 -228.42)"/><path d="M211.241,252.765a2.054,2.054,0,1,0,2.054-2.056A2.054,2.054,0,0,0,211.241,252.765Z" transform="translate(-211.241 -226.321)"/><path d="M211.241,256.761a2.054,2.054,0,1,0,2.054-2.054A2.055,2.055,0,0,0,211.241,256.761Z" transform="translate(-211.241 -224.222)"/><path d="M211.241,260.759A2.054,2.054,0,1,0,213.3,258.7,2.054,2.054,0,0,0,211.241,260.759Z" transform="translate(-211.241 -222.122)"/><path d="M211.241,264.758A2.054,2.054,0,1,0,213.3,262.7,2.054,2.054,0,0,0,211.241,264.758Z" transform="translate(-211.241 -220.023)"/><path d="M211.241,268.756A2.054,2.054,0,1,0,213.3,266.7,2.054,2.054,0,0,0,211.241,268.756Z" transform="translate(-211.241 -217.923)"/></g><g transform="translate(60.653 24.709)"><path d="M207.771,240.067a2.054,2.054,0,1,0,2.054-2.056A2.054,2.054,0,0,0,207.771,240.067Z" transform="translate(-207.771 -238.011)"/><path d="M207.771,244.072a2.054,2.054,0,1,0,2.054-2.056A2.054,2.054,0,0,0,207.771,244.072Z" transform="translate(-207.771 -235.908)"/><path d="M207.771,248.075a2.054,2.054,0,1,0,2.054-2.054A2.054,2.054,0,0,0,207.771,248.075Z" transform="translate(-207.771 -233.804)"/><path d="M207.771,252.08a2.054,2.054,0,1,0,2.054-2.054A2.054,2.054,0,0,0,207.771,252.08Z" transform="translate(-207.771 -231.701)"/><path d="M207.771,256.086a2.054,2.054,0,1,0,2.054-2.056A2.054,2.054,0,0,0,207.771,256.086Z" transform="translate(-207.771 -229.598)"/><path d="M207.771,260.089a2.054,2.054,0,1,0,2.054-2.054A2.056,2.056,0,0,0,207.771,260.089Z" transform="translate(-207.771 -227.495)"/><path d="M207.771,264.094a2.054,2.054,0,1,0,2.054-2.054A2.054,2.054,0,0,0,207.771,264.094Z" transform="translate(-207.771 -225.391)"/><path d="M207.771,268.1a2.054,2.054,0,1,0,2.054-2.056A2.054,2.054,0,0,0,207.771,268.1Z" transform="translate(-207.771 -223.289)"/></g><g transform="translate(55.361 21.743)"><path d="M204.3,238.12a2.054,2.054,0,1,0,2.054-2.054A2.056,2.056,0,0,0,204.3,238.12Z" transform="translate(-204.301 -236.066)"/><path d="M204.3,242.118a2.054,2.054,0,1,0,2.054-2.054A2.054,2.054,0,0,0,204.3,242.118Z" transform="translate(-204.301 -233.966)"/><path d="M204.3,246.117a2.054,2.054,0,1,0,2.054-2.056A2.054,2.054,0,0,0,204.3,246.117Z" transform="translate(-204.301 -231.867)"/><path d="M204.3,250.113a2.054,2.054,0,1,0,2.054-2.054A2.056,2.056,0,0,0,204.3,250.113Z" transform="translate(-204.301 -229.767)"/><path d="M204.3,254.111a2.054,2.054,0,1,0,2.054-2.054A2.054,2.054,0,0,0,204.3,254.111Z" transform="translate(-204.301 -227.668)"/><path d="M204.3,258.11a2.054,2.054,0,1,0,2.054-2.056A2.054,2.054,0,0,0,204.3,258.11Z" transform="translate(-204.301 -225.569)"/><path d="M204.3,262.106a2.054,2.054,0,1,0,2.054-2.054A2.056,2.056,0,0,0,204.3,262.106Z" transform="translate(-204.301 -223.469)"/><path d="M204.3,266.1a2.054,2.054,0,1,0,2.054-2.054A2.054,2.054,0,0,0,204.3,266.1Z" transform="translate(-204.301 -221.369)"/><path d="M204.3,270.1a2.054,2.054,0,1,0,2.054-2.054A2.054,2.054,0,0,0,204.3,270.1Z" transform="translate(-204.301 -219.27)"/></g><g transform="translate(50.069 25.85)"><path d="M200.831,240.813a2.054,2.054,0,1,0,2.054-2.054A2.054,2.054,0,0,0,200.831,240.813Z" transform="translate(-200.831 -238.759)"/><path d="M200.831,244.819a2.054,2.054,0,1,0,2.054-2.056A2.054,2.054,0,0,0,200.831,244.819Z" transform="translate(-200.831 -236.656)"/><path d="M200.831,248.824a2.054,2.054,0,1,0,2.054-2.056A2.054,2.054,0,0,0,200.831,248.824Z" transform="translate(-200.831 -234.553)"/><path d="M200.831,252.827a2.054,2.054,0,1,0,2.054-2.054A2.054,2.054,0,0,0,200.831,252.827Z" transform="translate(-200.831 -232.449)"/><path d="M200.831,256.832a2.054,2.054,0,1,0,2.054-2.054A2.054,2.054,0,0,0,200.831,256.832Z" transform="translate(-200.831 -230.346)"/><path d="M200.831,260.838a2.054,2.054,0,1,0,2.054-2.056A2.054,2.054,0,0,0,200.831,260.838Z" transform="translate(-200.831 -228.243)"/><path d="M200.831,264.841a2.054,2.054,0,1,0,2.054-2.054A2.056,2.056,0,0,0,200.831,264.841Z" transform="translate(-200.831 -226.14)"/><path d="M200.831,268.846a2.054,2.054,0,1,0,2.054-2.054A2.054,2.054,0,0,0,200.831,268.846Z" transform="translate(-200.831 -224.037)"/></g><g transform="translate(44.776 22.882)"><path d="M197.361,238.867a2.055,2.055,0,1,0,2.054-2.054A2.056,2.056,0,0,0,197.361,238.867Z" transform="translate(-197.361 -236.813)"/><path d="M197.361,242.865a2.055,2.055,0,1,0,2.054-2.054A2.056,2.056,0,0,0,197.361,242.865Z" transform="translate(-197.361 -234.713)"/><path d="M197.361,246.863a2.055,2.055,0,1,0,2.054-2.054A2.054,2.054,0,0,0,197.361,246.863Z" transform="translate(-197.361 -232.614)"/><path d="M197.361,250.86a2.055,2.055,0,1,0,2.054-2.054A2.055,2.055,0,0,0,197.361,250.86Z" transform="translate(-197.361 -230.514)"/><path d="M197.361,254.858a2.055,2.055,0,1,0,2.054-2.054A2.056,2.056,0,0,0,197.361,254.858Z" transform="translate(-197.361 -228.415)"/><path d="M197.361,258.856a2.055,2.055,0,1,0,2.054-2.054A2.054,2.054,0,0,0,197.361,258.856Z" transform="translate(-197.361 -226.315)"/><path d="M197.361,262.855a2.055,2.055,0,1,0,2.054-2.056A2.054,2.054,0,0,0,197.361,262.855Z" transform="translate(-197.361 -224.216)"/><path d="M197.361,266.851a2.055,2.055,0,1,0,2.054-2.054A2.056,2.056,0,0,0,197.361,266.851Z" transform="translate(-197.361 -222.116)"/><path d="M197.361,270.849a2.055,2.055,0,1,0,2.054-2.054A2.054,2.054,0,0,0,197.361,270.849Z" transform="translate(-197.361 -220.017)"/></g><g transform="translate(39.484 25.85)"><path d="M193.891,240.813a2.055,2.055,0,1,0,2.054-2.054A2.054,2.054,0,0,0,193.891,240.813Z" transform="translate(-193.891 -238.759)"/><path d="M193.891,244.819a2.055,2.055,0,1,0,2.054-2.056A2.054,2.054,0,0,0,193.891,244.819Z" transform="translate(-193.891 -236.656)"/><path d="M193.891,248.824a2.055,2.055,0,1,0,2.054-2.056A2.054,2.054,0,0,0,193.891,248.824Z" transform="translate(-193.891 -234.553)"/><path d="M193.891,252.827a2.055,2.055,0,1,0,2.054-2.054A2.054,2.054,0,0,0,193.891,252.827Z" transform="translate(-193.891 -232.449)"/><path d="M193.891,256.832a2.055,2.055,0,1,0,2.054-2.054A2.054,2.054,0,0,0,193.891,256.832Z" transform="translate(-193.891 -230.346)"/><path d="M193.891,260.838a2.055,2.055,0,1,0,2.054-2.056A2.054,2.054,0,0,0,193.891,260.838Z" transform="translate(-193.891 -228.243)"/><path d="M193.891,264.841a2.055,2.055,0,1,0,2.054-2.054A2.056,2.056,0,0,0,193.891,264.841Z" transform="translate(-193.891 -226.14)"/><path d="M193.891,268.846a2.055,2.055,0,1,0,2.054-2.054A2.054,2.054,0,0,0,193.891,268.846Z" transform="translate(-193.891 -224.037)"/></g><g transform="translate(34.192 21.743)"><path d="M190.421,238.12a2.055,2.055,0,1,0,2.054-2.054A2.056,2.056,0,0,0,190.421,238.12Z" transform="translate(-190.421 -236.066)"/><path d="M190.421,242.118a2.055,2.055,0,1,0,2.054-2.054A2.054,2.054,0,0,0,190.421,242.118Z" transform="translate(-190.421 -233.966)"/><path d="M190.421,246.117a2.055,2.055,0,1,0,2.054-2.056A2.054,2.054,0,0,0,190.421,246.117Z" transform="translate(-190.421 -231.867)"/><path d="M190.421,250.113a2.055,2.055,0,1,0,2.054-2.054A2.056,2.056,0,0,0,190.421,250.113Z" transform="translate(-190.421 -229.767)"/><path d="M190.421,254.111a2.055,2.055,0,1,0,2.054-2.054A2.054,2.054,0,0,0,190.421,254.111Z" transform="translate(-190.421 -227.668)"/><path d="M190.421,258.11a2.055,2.055,0,1,0,2.054-2.056A2.054,2.054,0,0,0,190.421,258.11Z" transform="translate(-190.421 -225.569)"/><path d="M190.421,262.106a2.055,2.055,0,1,0,2.054-2.054A2.056,2.056,0,0,0,190.421,262.106Z" transform="translate(-190.421 -223.469)"/><path d="M190.421,266.1a2.055,2.055,0,1,0,2.054-2.054A2.054,2.054,0,0,0,190.421,266.1Z" transform="translate(-190.421 -221.369)"/><path d="M190.421,270.1a2.055,2.055,0,1,0,2.054-2.054A2.054,2.054,0,0,0,190.421,270.1Z" transform="translate(-190.421 -219.27)"/></g><g transform="translate(29.201 24.709)"><path d="M187.149,240.067a1.91,1.91,0,1,0,1.9-2.056A1.983,1.983,0,0,0,187.149,240.067Z" transform="translate(-187.149 -238.011)"/><path d="M187.149,244.072a1.91,1.91,0,1,0,1.9-2.056A1.983,1.983,0,0,0,187.149,244.072Z" transform="translate(-187.149 -235.908)"/><path d="M187.149,248.075a1.91,1.91,0,1,0,1.9-2.054A1.983,1.983,0,0,0,187.149,248.075Z" transform="translate(-187.149 -233.804)"/><path d="M187.149,252.08a1.91,1.91,0,1,0,1.9-2.054A1.983,1.983,0,0,0,187.149,252.08Z" transform="translate(-187.149 -231.701)"/><path d="M187.149,256.086a1.91,1.91,0,1,0,1.9-2.056A1.983,1.983,0,0,0,187.149,256.086Z" transform="translate(-187.149 -229.598)"/><path d="M187.149,260.089a1.91,1.91,0,1,0,1.9-2.054A1.985,1.985,0,0,0,187.149,260.089Z" transform="translate(-187.149 -227.495)"/><path d="M187.149,264.094a1.91,1.91,0,1,0,1.9-2.054A1.983,1.983,0,0,0,187.149,264.094Z" transform="translate(-187.149 -225.391)"/><path d="M187.149,268.1a1.91,1.91,0,1,0,1.9-2.056A1.983,1.983,0,0,0,187.149,268.1Z" transform="translate(-187.149 -223.289)"/></g><g transform="translate(24.899 19.689)"><path d="M184.328,236.773a1.653,1.653,0,1,0,1.6-2.054A1.872,1.872,0,0,0,184.328,236.773Z" transform="translate(-184.328 -234.719)"/><path d="M184.328,240.772a1.653,1.653,0,1,0,1.6-2.056A1.872,1.872,0,0,0,184.328,240.772Z" transform="translate(-184.328 -232.62)"/><path d="M184.328,244.768a1.653,1.653,0,1,0,1.6-2.054A1.873,1.873,0,0,0,184.328,244.768Z" transform="translate(-184.328 -230.52)"/><path d="M184.328,248.766a1.653,1.653,0,1,0,1.6-2.054A1.872,1.872,0,0,0,184.328,248.766Z" transform="translate(-184.328 -228.42)"/><path d="M184.328,252.765a1.653,1.653,0,1,0,1.6-2.056A1.872,1.872,0,0,0,184.328,252.765Z" transform="translate(-184.328 -226.321)"/><path d="M184.328,256.761a1.653,1.653,0,1,0,1.6-2.054A1.872,1.872,0,0,0,184.328,256.761Z" transform="translate(-184.328 -224.222)"/><path d="M184.328,260.759a1.653,1.653,0,1,0,1.6-2.054A1.872,1.872,0,0,0,184.328,260.759Z" transform="translate(-184.328 -222.122)"/><path d="M184.328,264.758a1.653,1.653,0,1,0,1.6-2.056A1.872,1.872,0,0,0,184.328,264.758Z" transform="translate(-184.328 -220.023)"/><path d="M184.328,268.756a1.653,1.653,0,1,0,1.6-2.056A1.872,1.872,0,0,0,184.328,268.756Z" transform="translate(-184.328 -217.923)"/></g><g transform="translate(20.77 21.202)"><path d="M181.621,237.767a1.653,1.653,0,1,0,1.6-2.056A1.872,1.872,0,0,0,181.621,237.767Z" transform="translate(-181.621 -235.711)"/><path d="M181.621,241.77a1.653,1.653,0,1,0,1.6-2.054A1.873,1.873,0,0,0,181.621,241.77Z" transform="translate(-181.621 -233.608)"/><path d="M181.621,245.775a1.653,1.653,0,1,0,1.6-2.054A1.872,1.872,0,0,0,181.621,245.775Z" transform="translate(-181.621 -231.504)"/><path d="M181.621,249.781a1.653,1.653,0,1,0,1.6-2.056A1.872,1.872,0,0,0,181.621,249.781Z" transform="translate(-181.621 -229.401)"/><path d="M181.621,253.784a1.653,1.653,0,1,0,1.6-2.054A1.873,1.873,0,0,0,181.621,253.784Z" transform="translate(-181.621 -227.298)"/><path d="M181.621,257.789a1.653,1.653,0,1,0,1.6-2.054A1.872,1.872,0,0,0,181.621,257.789Z" transform="translate(-181.621 -225.195)"/><path d="M181.621,261.795a1.653,1.653,0,1,0,1.6-2.056A1.872,1.872,0,0,0,181.621,261.795Z" transform="translate(-181.621 -223.092)"/><path d="M181.621,265.8a1.653,1.653,0,1,0,1.6-2.054A1.872,1.872,0,0,0,181.621,265.8Z" transform="translate(-181.621 -220.989)"/></g><g transform="translate(16.641 16.179)"><path d="M178.914,234.474a1.653,1.653,0,1,0,1.6-2.056A1.872,1.872,0,0,0,178.914,234.474Z" transform="translate(-178.914 -232.418)"/><path d="M178.914,238.47a1.653,1.653,0,1,0,1.6-2.054A1.873,1.873,0,0,0,178.914,238.47Z" transform="translate(-178.914 -230.318)"/><path d="M178.914,242.468a1.653,1.653,0,1,0,1.6-2.054A1.872,1.872,0,0,0,178.914,242.468Z" transform="translate(-178.914 -228.219)"/><path d="M178.914,246.467a1.653,1.653,0,1,0,1.6-2.056A1.872,1.872,0,0,0,178.914,246.467Z" transform="translate(-178.914 -226.119)"/><path d="M178.914,250.463a1.653,1.653,0,1,0,1.6-2.054A1.873,1.873,0,0,0,178.914,250.463Z" transform="translate(-178.914 -224.02)"/><path d="M178.914,254.461a1.653,1.653,0,1,0,1.6-2.054A1.872,1.872,0,0,0,178.914,254.461Z" transform="translate(-178.914 -221.92)"/><path d="M178.914,258.459a1.653,1.653,0,1,0,1.6-2.054A1.872,1.872,0,0,0,178.914,258.459Z" transform="translate(-178.914 -219.82)"/><path d="M178.914,262.456a1.653,1.653,0,1,0,1.6-2.054A1.873,1.873,0,0,0,178.914,262.456Z" transform="translate(-178.914 -217.721)"/><path d="M178.914,266.454a1.653,1.653,0,1,0,1.6-2.054A1.873,1.873,0,0,0,178.914,266.454Z" transform="translate(-178.914 -215.622)"/></g><g transform="translate(13.164 18.392)"><path d="M176.634,235.925c0,1.135.572,2.054,1.278,2.054s1.277-.92,1.277-2.054-.572-2.056-1.277-2.056S176.634,234.79,176.634,235.925Z" transform="translate(-176.634 -233.869)"/><path d="M176.634,239.928c0,1.135.572,2.056,1.278,2.056s1.277-.921,1.277-2.056-.572-2.054-1.277-2.054S176.634,238.794,176.634,239.928Z" transform="translate(-176.634 -231.766)"/><path d="M176.634,243.933c0,1.135.572,2.054,1.278,2.054s1.277-.92,1.277-2.054-.572-2.054-1.277-2.054S176.634,242.8,176.634,243.933Z" transform="translate(-176.634 -229.662)"/><path d="M176.634,247.939c0,1.135.572,2.054,1.278,2.054s1.277-.92,1.277-2.054-.572-2.056-1.277-2.056S176.634,246.8,176.634,247.939Z" transform="translate(-176.634 -227.559)"/><path d="M176.634,251.942c0,1.136.572,2.056,1.278,2.056s1.277-.92,1.277-2.056-.572-2.054-1.277-2.054S176.634,250.808,176.634,251.942Z" transform="translate(-176.634 -225.456)"/><path d="M176.634,255.947c0,1.135.572,2.054,1.278,2.054s1.277-.92,1.277-2.054-.572-2.054-1.277-2.054S176.634,254.813,176.634,255.947Z" transform="translate(-176.634 -223.353)"/><path d="M176.634,259.952c0,1.135.572,2.054,1.278,2.054s1.277-.92,1.277-2.054-.572-2.054-1.277-2.054S176.634,258.818,176.634,259.952Z" transform="translate(-176.634 -221.249)"/><path d="M176.634,263.958c0,1.135.572,2.054,1.278,2.054s1.277-.92,1.277-2.054-.572-2.056-1.277-2.056S176.634,262.823,176.634,263.958Z" transform="translate(-176.634 -219.147)"/></g><g transform="translate(9.872 12.458)"><path d="M174.476,232.034c0,1.135.572,2.054,1.278,2.054s1.278-.92,1.278-2.054-.573-2.056-1.278-2.056S174.476,230.9,174.476,232.034Z" transform="translate(-174.476 -229.978)"/><path d="M174.476,236.03c0,1.135.572,2.054,1.278,2.054s1.278-.92,1.278-2.054-.573-2.054-1.278-2.054S174.476,234.9,174.476,236.03Z" transform="translate(-174.476 -227.878)"/><path d="M174.476,240.028c0,1.135.572,2.054,1.278,2.054s1.278-.92,1.278-2.054-.573-2.054-1.278-2.054S174.476,238.894,174.476,240.028Z" transform="translate(-174.476 -225.779)"/><path d="M174.476,244.027c0,1.135.572,2.054,1.278,2.054s1.278-.92,1.278-2.054-.573-2.056-1.278-2.056S174.476,242.892,174.476,244.027Z" transform="translate(-174.476 -223.679)"/><path d="M174.476,248.023c0,1.135.572,2.056,1.278,2.056s1.278-.921,1.278-2.056-.573-2.054-1.278-2.054S174.476,246.889,174.476,248.023Z" transform="translate(-174.476 -221.58)"/><path d="M174.476,252.021c0,1.135.572,2.054,1.278,2.054s1.278-.92,1.278-2.054-.573-2.054-1.278-2.054S174.476,250.887,174.476,252.021Z" transform="translate(-174.476 -219.48)"/><path d="M174.476,256.02c0,1.135.572,2.054,1.278,2.054s1.278-.92,1.278-2.054-.573-2.056-1.278-2.056S174.476,254.885,174.476,256.02Z" transform="translate(-174.476 -217.381)"/><path d="M174.476,260.016c0,1.135.572,2.056,1.278,2.056s1.278-.921,1.278-2.056-.573-2.054-1.278-2.054S174.476,258.882,174.476,260.016Z" transform="translate(-174.476 -215.281)"/><path d="M174.476,264.014c0,1.135.572,2.054,1.278,2.054s1.278-.92,1.278-2.054-.573-2.054-1.278-2.054S174.476,262.88,174.476,264.014Z" transform="translate(-174.476 -213.182)"/></g><g transform="translate(7.258 13.371)"><path d="M172.762,232.631c0,1.135.421,2.054.94,2.054s.94-.92.94-2.054-.421-2.054-.94-2.054S172.762,231.5,172.762,232.631Z" transform="translate(-172.762 -230.577)"/><path d="M172.762,236.637c0,1.133.421,2.054.94,2.054s.94-.921.94-2.054-.421-2.056-.94-2.056S172.762,235.5,172.762,236.637Z" transform="translate(-172.762 -228.474)"/><path d="M172.762,240.64c0,1.135.421,2.054.94,2.054s.94-.92.94-2.054-.421-2.054-.94-2.054S172.762,239.506,172.762,240.64Z" transform="translate(-172.762 -226.371)"/><path d="M172.762,244.645c0,1.135.421,2.054.94,2.054s.94-.92.94-2.054-.421-2.054-.94-2.054S172.762,243.511,172.762,244.645Z" transform="translate(-172.762 -224.267)"/><path d="M172.762,248.651c0,1.135.421,2.054.94,2.054s.94-.92.94-2.054-.421-2.056-.94-2.056S172.762,247.515,172.762,248.651Z" transform="translate(-172.762 -222.165)"/><path d="M172.762,252.654c0,1.135.421,2.056.94,2.056s.94-.921.94-2.056-.421-2.054-.94-2.054S172.762,251.52,172.762,252.654Z" transform="translate(-172.762 -220.061)"/><path d="M172.762,256.659c0,1.135.421,2.054.94,2.054s.94-.92.94-2.054-.421-2.054-.94-2.054S172.762,255.525,172.762,256.659Z" transform="translate(-172.762 -217.958)"/><path d="M172.762,260.665c0,1.135.421,2.054.94,2.054s.94-.92.94-2.054-.421-2.056-.94-2.056S172.762,259.53,172.762,260.665Z" transform="translate(-172.762 -215.855)"/></g><g transform="translate(4.838 8.591)"><path d="M171.175,229.5c0,1.136.421,2.056.939,2.056s.94-.92.94-2.056-.419-2.054-.94-2.054S171.175,228.363,171.175,229.5Z" transform="translate(-171.175 -227.443)"/><path d="M171.175,233.5c0,1.135.421,2.054.939,2.054s.94-.92.94-2.054-.419-2.054-.94-2.054S171.175,232.361,171.175,233.5Z" transform="translate(-171.175 -225.343)"/><path d="M171.175,237.493c0,1.135.421,2.054.939,2.054s.94-.92.94-2.054-.419-2.054-.94-2.054S171.175,236.359,171.175,237.493Z" transform="translate(-171.175 -223.244)"/><path d="M171.175,241.492c0,1.135.421,2.054.939,2.054s.94-.92.94-2.054-.419-2.056-.94-2.056S171.175,240.356,171.175,241.492Z" transform="translate(-171.175 -221.144)"/><path d="M171.175,245.488c0,1.135.421,2.056.939,2.056s.94-.921.94-2.056-.419-2.054-.94-2.054S171.175,244.354,171.175,245.488Z" transform="translate(-171.175 -219.045)"/><path d="M171.175,249.486c0,1.135.421,2.054.939,2.054s.94-.92.94-2.054-.419-2.054-.94-2.054S171.175,248.352,171.175,249.486Z" transform="translate(-171.175 -216.945)"/><path d="M171.175,253.485c0,1.135.421,2.054.939,2.054s.94-.92.94-2.054-.419-2.056-.94-2.056S171.175,252.35,171.175,253.485Z" transform="translate(-171.175 -214.846)"/><path d="M171.175,257.481c0,1.135.421,2.056.939,2.056s.94-.921.94-2.056-.419-2.054-.94-2.054S171.175,256.347,171.175,257.481Z" transform="translate(-171.175 -212.746)"/><path d="M171.175,261.479c0,1.135.421,2.054.939,2.054s.94-.92.94-2.054-.419-2.054-.94-2.054S171.175,260.345,171.175,261.479Z" transform="translate(-171.175 -210.647)"/></g><g transform="translate(2.419 10.403)"><path d="M169.589,230.685c0,1.135.421,2.056.94,2.056s.939-.921.939-2.056-.421-2.054-.939-2.054S169.589,229.551,169.589,230.685Z" transform="translate(-169.589 -228.631)"/><path d="M169.589,234.69c0,1.135.421,2.054.94,2.054s.939-.92.939-2.054-.421-2.054-.939-2.054S169.589,233.556,169.589,234.69Z" transform="translate(-169.589 -226.528)"/><path d="M169.589,238.7c0,1.135.421,2.054.94,2.054s.939-.92.939-2.054-.421-2.056-.939-2.056S169.589,237.56,169.589,238.7Z" transform="translate(-169.589 -224.425)"/><path d="M169.589,242.7c0,1.135.421,2.056.94,2.056s.939-.921.939-2.056-.421-2.054-.939-2.054S169.589,241.565,169.589,242.7Z" transform="translate(-169.589 -222.321)"/><path d="M169.589,246.7c0,1.135.421,2.054.94,2.054s.939-.92.939-2.054-.421-2.054-.939-2.054S169.589,245.57,169.589,246.7Z" transform="translate(-169.589 -220.218)"/><path d="M169.589,250.71c0,1.135.421,2.054.94,2.054s.939-.92.939-2.054-.421-2.056-.939-2.056S169.589,249.575,169.589,250.71Z" transform="translate(-169.589 -218.115)"/><path d="M169.589,254.713c0,1.136.421,2.056.94,2.056s.939-.92.939-2.056-.421-2.054-.939-2.054S169.589,253.579,169.589,254.713Z" transform="translate(-169.589 -216.012)"/><path d="M169.589,258.718c0,1.135.421,2.054.94,2.054s.939-.92.939-2.054-.421-2.054-.939-2.054S169.589,257.584,169.589,258.718Z" transform="translate(-169.589 -213.909)"/></g><path d="M168,223.864c0,1.135.419,2.054.939,2.054s.94-.92.94-2.054-.421-2.054-.94-2.054S168,222.73,168,223.864Z" transform="translate(-168.003 -221.81)"/><path d="M168,227.863c0,1.135.419,2.054.939,2.054s.94-.92.94-2.054-.421-2.056-.94-2.056S168,226.727,168,227.863Z" transform="translate(-168.003 -219.711)"/><path d="M168,231.859c0,1.135.419,2.056.939,2.056s.94-.921.94-2.056-.421-2.054-.94-2.054S168,230.725,168,231.859Z" transform="translate(-168.003 -217.611)"/><path d="M168,235.857c0,1.135.419,2.054.939,2.054s.94-.92.94-2.054-.421-2.054-.94-2.054S168,234.723,168,235.857Z" transform="translate(-168.003 -215.511)"/><path d="M168,239.856c0,1.135.419,2.054.939,2.054s.94-.92.94-2.054-.421-2.056-.94-2.056S168,238.72,168,239.856Z" transform="translate(-168.003 -213.412)"/><path d="M168,243.852c0,1.135.419,2.056.939,2.056s.94-.921.94-2.056-.421-2.054-.94-2.054S168,242.718,168,243.852Z" transform="translate(-168.003 -211.313)"/><path d="M168,247.85c0,1.135.419,2.054.939,2.054s.94-.92.94-2.054-.421-2.054-.94-2.054S168,246.716,168,247.85Z" transform="translate(-168.003 -209.213)"/><path d="M168,251.849c0,1.135.419,2.054.939,2.054s.94-.92.94-2.054-.421-2.056-.94-2.056S168,250.714,168,251.849Z" transform="translate(-168.003 -207.114)"/><path d="M168,255.845c0,1.136.419,2.056.939,2.056s.94-.92.94-2.056-.421-2.054-.94-2.054S168,254.711,168,255.845Z" transform="translate(-168.003 -205.014)"/></g></g><g transform="translate(13.55 89.538)"><path class="w" d="M177.618,215.757v1.54l4.5,2.738v-1.54a5.6,5.6,0,0,0-2.251-4.38,1.389,1.389,0,0,0-1.591-.087A2.077,2.077,0,0,0,177.618,215.757Z" transform="translate(-175.623 -213.817)"/><path class="w" d="M182.119,219.208l-4.5-2.738v1.235a5.587,5.587,0,0,0,2.25,4.379c1.245.758,2.251.024,2.251-1.641Z" transform="translate(-175.623 -212.424)"/><path class="w" d="M181.086,218.9a1.519,1.519,0,0,0,.6,1.188c.334.2.6,0,.6-.454a1.515,1.515,0,0,0-.6-1.188C181.356,218.24,181.086,218.445,181.086,218.9Z" transform="translate(-173.802 -211.429)"/><path class="w" d="M176.31,215.991a1.519,1.519,0,0,0,.6,1.188c.332.2.6,0,.6-.454a1.519,1.519,0,0,0-.6-1.188C176.58,215.335,176.31,215.538,176.31,215.991Z" transform="translate(-176.31 -212.955)"/><path class="w" d="M178.766,223.961l1,.607v-3.381l-1-.606Z" transform="translate(-175.02 -210.265)"/><path class="w" d="M178.184,222.115v1.478l2.775,1.688V223.8Z" transform="translate(-175.326 -209.459)"/><g transform="translate(4.245 7.681)"><path class="w" d="M179.093,222.4c1.269.772,2.26.869,2.95.29,1.141-.961,1.01-3.427,1-3.531l-.621-.31c0,.021.113,2.2-.843,3-.566.473-1.4.378-2.489-.282Z" transform="translate(-179.093 -218.853)"/></g><g transform="translate(0.285 3.182)"><path class="w" d="M180.456,223.953v-.831a6.48,6.48,0,0,1-2.492-2.753,9.016,9.016,0,0,1-.84-4.022l-.619-.444a10.443,10.443,0,0,0,1,4.751A7.733,7.733,0,0,0,180.456,223.953Z" transform="translate(-176.497 -215.903)"/></g></g></g><g transform="translate(258.419 0)"><g transform="translate(26.48 57.155)"><g transform="translate(0 31.136)"><rect class="x" width="3.266" height="5.779"/><rect class="x" width="3.266" height="5.78" transform="translate(0 10.366)"/><rect class="x" width="3.266" height="5.779" transform="translate(0 20.698)"/></g><rect class="x" width="3.266" height="5.78"/><rect class="x" width="3.266" height="5.78" transform="translate(0 10.366)"/><rect class="x" width="3.266" height="5.78" transform="translate(0 20.698)"/></g><g transform="translate(0)"><g transform="translate(0)"><circle class="y" cx="24.088" cy="24.088" r="24.088" transform="translate(0 47.553) rotate(-80.783)"/><path class="x" d="M204.976,152.643a4,4,0,1,1-4-4A4,4,0,0,1,204.976,152.643Z" transform="translate(-172.861 -32.521)"/><path class="x" d="M208.077,124.958A25.538,25.538,0,1,1,233.615,99.42,25.567,25.567,0,0,1,208.077,124.958Zm0-48.174A22.636,22.636,0,1,0,230.712,99.42,22.664,22.664,0,0,0,208.077,76.783Z" transform="translate(-180.442 -71.784)"/></g><g transform="translate(17.512 10.113)"><path class="x" d="M206.5,86.241v3.673l-10.731.146V86.389c0-3.961,2.4-7.213,5.369-7.252a4.7,4.7,0,0,1,3.792,2.047A8.454,8.454,0,0,1,206.5,86.241Z" transform="translate(-191.008 -79.137)"/><path class="x" d="M195.764,87.235l10.731-.148v2.945c0,3.97-2.4,7.213-5.363,7.254s-5.369-3.137-5.369-7.106Z" transform="translate(-191.008 -74.961)"/><path class="x" d="M195.522,88.186c0,1.081-.644,1.967-1.438,1.978s-1.438-.856-1.438-1.937.645-1.966,1.438-1.977S195.522,87.107,195.522,88.186Z" transform="translate(-192.646 -75.4)"/><path class="x" d="M206.909,88.032c0,1.081-.644,1.966-1.437,1.977s-1.438-.857-1.438-1.937.644-1.966,1.438-1.978S206.909,86.95,206.909,88.032Z" transform="translate(-186.665 -75.483)"/><path class="x" d="M200.88,103.318l-2.376.033V95.291l2.376-.033Z" transform="translate(-189.57 -70.67)"/><path class="x" d="M203.73,99.744v3.523l-6.615.091V99.836Z" transform="translate(-190.299 -68.314)"/><g transform="translate(0.682 12.737)"><path class="x" d="M202.534,100.82a7.954,7.954,0,0,1-7.033-3.493c-2.718-3.908-2.405-9.6-2.39-9.839l1.478.139c0,.05-.268,5.088,2.01,8.352a6.686,6.686,0,0,0,5.934,2.858Z" transform="translate(-193.093 -87.488)"/></g><g transform="translate(10.123 12.476)"><path class="x" d="M199.283,100.909V98.927a6.9,6.9,0,0,0,5.942-3.032c2.283-3.345,2.007-8.344,2-8.4l1.476-.181c.015.239.328,5.924-2.391,9.906A8.2,8.2,0,0,1,199.283,100.909Z" transform="translate(-199.283 -87.317)"/></g></g></g></g></g><g transform="translate(318.022 370.826)"><path class="i" d="M365.189,277.452l56.662,32.714c4.027,2.324,3.517,6.423-1.132,9.105l-123.48,71.292c-4.649,2.684-26.54,0-26.54,0l-41.166-31.847c-4.027-2.324-3.517-6.421,1.132-9.105l118.754-71.5C354.068,275.422,361.164,275.128,365.189,277.452Z" transform="translate(-222.101 -270.405)"/><g transform="translate(0 0)"><path class="z" d="M212.633,352.367l-.012,0v-9.3l8.989.639,3.145-.6,115.122-66.466c4.649-2.684,11.745-2.979,15.772-.654l50.095,28.924,9.282-1.759v9.513l-.009,0c-.006,1.789-1.3,3.676-3.837,5.141L287.7,389.107c-4.647,2.683-11.745,2.977-15.77.653l-56.662-32.714C213.145,355.823,212.3,354.107,212.633,352.367Z" transform="translate(-212.549 -267.975)"/><path class="aa" d="M411.159,310.8,287.677,382.094c-4.647,2.684-11.745,2.977-15.77.653l-56.662-32.714a4.933,4.933,0,0,1-2.645-3.314v-1.264c.006-.034,0-.067.012-.1l-.012,0v-2.283l8.989.639,3.145-.6,115.122-66.466c4.649-2.684,11.745-2.979,15.772-.654l50.095,28.924,9.282-1.759v2.5l-.009,0C414.99,307.452,413.7,309.337,411.159,310.8Z" transform="translate(-212.528 -264.78)"/><path class="ab" d="M383.936,299.187l-118.79,68.6V365l118.79-68.6Z" transform="translate(-184.932 -253.243)"/><path class="ac" d="M355.653,269.67l56.662,32.714c4.025,2.324,3.516,6.423-1.133,9.105L287.7,382.781c-4.647,2.684-11.745,2.979-15.77.654l-56.662-32.714c-4.026-2.324-3.517-6.423,1.132-9.105l123.48-71.292C344.53,267.64,351.627,267.345,355.653,269.67Z" transform="translate(-212.553 -268.102)"/><path class="ab" d="M408.488,310.487v.02L289.7,379.09l-71.3-41.165,118.414-68.366h.785Z" transform="translate(-209.483 -267.337)"/><path class="ab" d="M337.01,289.962a4.158,4.158,0,0,1-3.752-.014,1.171,1.171,0,0,1,0-2.176,4.156,4.156,0,0,1,3.753.014A1.171,1.171,0,0,1,337.01,289.962Z" transform="translate(-149.548 -258.003)"/><path class="ad" d="M332.248,287.391a2.854,2.854,0,0,1-2.581,0,.786.786,0,0,1-.008-1.49,2.855,2.855,0,0,1,2.581,0A.787.787,0,0,1,332.248,287.391Z" transform="translate(-151.329 -258.917)"/><path class="ae" d="M244.5,337.952l-13.3-7.678c-1.653-.955-1.446-2.622.462-3.723h0a7.163,7.163,0,0,1,6.448-.267l13.3,7.676c1.652.955,1.444,2.622-.464,3.723h0A7.168,7.168,0,0,1,244.5,337.952Z" transform="translate(-203.346 -237.884)"/><path class="af" d="M251.408,335.672l-13.3-7.678a7.168,7.168,0,0,0-6.448.268,3.534,3.534,0,0,0-1.324,1.228c-.593-.93-.131-2.1,1.324-2.939a7.163,7.163,0,0,1,6.448-.267l13.3,7.676a1.731,1.731,0,0,1,.86,2.494A2.474,2.474,0,0,0,251.408,335.672Z" transform="translate(-203.345 -237.884)"/><g transform="translate(26.241 100.189)"><path class="ag" d="M229.758,334.834a2.98,2.98,0,0,0,.348,1.324,2.353,2.353,0,0,0,.843.95l6.872,3.97c.656.378,1.188-.024,1.188-.9a3.087,3.087,0,0,0-.02-.311,3.221,3.221,0,0,0-.328-1.011,2.37,2.37,0,0,0-.84-.95l-6.442-3.72-.43-.249C230.29,333.556,229.758,333.958,229.758,334.834Z" transform="translate(-229.758 -333.792)"/><path class="ab" d="M230.821,334.048a3.2,3.2,0,0,0,.326,1.013,2.361,2.361,0,0,0,.845.952l6.439,3.717a3.22,3.22,0,0,0-.328-1.011,2.37,2.37,0,0,0-.84-.95Z" transform="translate(-229.2 -333.657)"/></g><path class="ah" d="M372.852,291.068l-35.871-20.71L219.16,336.835l37.211,21.484Z" transform="translate(-209.083 -266.917)"/><path class="ai" d="M406.942,311.016,290.461,378.267,219.16,337.1,335.641,269.85Z" transform="translate(-210.588 -266.119)"/><g transform="translate(75.994 41.717)"><path class="x" d="M301.1,307.057a48.086,48.086,0,0,0-7.922-3.63,66.857,66.857,0,0,0-17.453-3.59,77.932,77.932,0,0,0-9.323-.134,4.662,4.662,0,0,1-3.441-.979,1.311,1.311,0,0,1-.116-2.093,3.918,3.918,0,0,1,2.727-1.059,84.015,84.015,0,0,1,10.2.079,82.8,82.8,0,0,1,12.421,1.754,70.723,70.723,0,0,1,9.388,2.742,59.838,59.838,0,0,1,7.24,3.244,43.4,43.4,0,0,1,6.15,3.955,30.961,30.961,0,0,1,6.081,6.1,20.822,20.822,0,0,1,3.642,7.644,16.837,16.837,0,0,1,.276,6.413c-.174,1.147-1.9,1.963-3.938,1.865-1.868-.09-3.36-1.083-3.229-2.19a16.169,16.169,0,0,0-.1-4.858,17.321,17.321,0,0,0-2.8-6.615,24.262,24.262,0,0,0-3.877-4.392A34.694,34.694,0,0,0,301.1,307.057Z" transform="translate(-262.379 -295.454)"/><path class="x" d="M295.745,307.33c4.557,2.668,7.823,6.014,9.429,9.889a12.4,12.4,0,0,1,.853,6.625c-.16,1.1-1.813,1.939-3.729,1.881-1.957-.061-3.493-1-3.455-2.123.026-.747.119-1.5.07-2.244a12.017,12.017,0,0,0-3.824-7.721,24.285,24.285,0,0,0-7.6-5.018,43.327,43.327,0,0,0-16.258-3.458c-1.342-.041-2.692,0-4.039.023a4.863,4.863,0,0,1-3.232-.882c-.842-.685-.943-1.421-.282-2.161a3.908,3.908,0,0,1,2.8-1.1,61.053,61.053,0,0,1,15.754,1.225A49.972,49.972,0,0,1,290.6,304.8,40.915,40.915,0,0,1,295.745,307.33Z" transform="translate(-261.924 -292.561)"/><path class="x" d="M285.305,310.521c3.839,2.3,6.011,5.451,5.834,9.127a1.97,1.97,0,0,1-.63,1.5,5.429,5.429,0,0,1-4.81.642c-1.313-.479-1.9-1.158-1.794-2.045A5.859,5.859,0,0,0,281.6,314.5c-2.513-2.193-6.053-3.474-10.577-3.795-1-.072-2.03-.055-3.043-.03-1.594.04-3.156-.554-3.66-1.432-.52-.9.072-1.882,1.426-2.391a5.86,5.86,0,0,1,1.82-.342A36.222,36.222,0,0,1,279,307.794,28.465,28.465,0,0,1,285.305,310.521Z" transform="translate(-261.46 -289.67)"/><path class="x" d="M264.984,319.094c-2.841-1.624-2.887-4.261-.1-5.881a11.324,11.324,0,0,1,10.255-.026c2.857,1.637,2.88,4.269.05,5.919A11.2,11.2,0,0,1,264.984,319.094Z" transform="translate(-262.146 -286.779)"/></g><path class="aj" d="M382.39,298.878,265.909,366.129v-2.037L382.39,296.841Z" transform="translate(-184.531 -253.009)"/><path class="ab" d="M331.685,287.957l-16.71-9.647c-.453-.261-.4-.717.127-1.019h0a1.963,1.963,0,0,1,1.763-.073l16.711,9.648c.451.261.395.717-.127,1.017h0A1.956,1.956,0,0,1,331.685,287.957Z" transform="translate(-158.923 -263.406)"/></g></g><g transform="translate(129.747 321.932)"><path class="ak" d="M176.479,305.874,122.7,277.646c-.776,0-30.641,7.359-33.466,17.227s42.736,31.457,56.107,37.118,37.86-8.209,42.955-15.424S176.479,305.874,176.479,305.874Z" transform="translate(-89.109 -214.196)"/><path class="al" d="M113.175,291.41l8.047-4.226s29.558,12.859,31.42,16.409,6.808,6.255,1.222,7.432-14.372.1-16.875-.377-14.2-7.231-15.825-8.8S113.175,291.41,113.175,291.41Z" transform="translate(-76.469 -209.187)"/><g transform="translate(21.014 4.995)"><path class="am" d="M154.441,335.786c-2.367,0-17.134-7.078-19.9-8.045-17.759-6.2-29.913-34.667-31.625-57.518-.808-10.824,17.311-19.7,22.551-24.943a21.4,21.4,0,0,1,15.572-5.939h0c.351,0,10.893.285,24.525,13.547l-2.921,3c-12.333-12-21.7-12.365-21.8-12.366-.178-.011-7.315-.424-12.453,4.756-4.313,4.345-6.139,11.378-5.427,20.9,1.553,20.741,23.017,45.542,39.5,51.3,5.933,2.07,10.446,1.5,13.411-1.708l3.076,2.845c-.278.3-.563.583-.859.851C175.593,324.738,158.094,335.786,154.441,335.786Z" transform="translate(-102.887 -239.32)"/></g><path class="an" d="M126.669,289.648a9,9,0,0,1,7.76,2.457c1.76,1.919,1.139,3.929-1.386,4.49a9,9,0,0,1-7.76-2.457C123.523,292.22,124.143,290.21,126.669,289.648Z" transform="translate(-70.636 -207.969)"/><g transform="translate(27.628 0)"><path class="ao" d="M140.338,245.893c-5.045,3.134-11.77,7.742-12.1,7.554-4.153-2.367-21.017.517-21.017.517l12.616-14.34Z" transform="translate(-107.223 -234.164)"/><path class="ap" d="M131.567,245.513l-2.632-.816c2.822-1.756,5.125-3.04,5.486-2.758C134.686,242.142,133.4,243.6,131.567,245.513Z" transform="translate(-95.82 -232.969)"/><path class="aq" d="M174.029,279.72l.262.044L163.51,253.3l-8.924-2.727c-.685-.647-1.138-1.045-1.26-1.15l-.959.473-18.4-5.622c-3.9,4.059-10.28,10.155-9.543,10.782,7.084,6,18.415,16.512,21.4,19.29,5.84,7.772,11.459,17.73,11.788,27.584.293,8.63,1.479,15.571-.894,21.478a21.971,21.971,0,0,1-3.058-.39,20.231,20.231,0,0,1-1.83,3.909c1.522.363.506,2.5,1.945,2.584.447.029-7.586,7.167-7.153,7.167,2.234,0,14.788-8.672,17.3-10.086,5.195-2.918,12.569-7.624,13.631-23.515A56.566,56.566,0,0,0,174.029,279.72Z" transform="translate(-98.22 -231.725)"/><g transform="translate(11.737)"><path class="ar" d="M118.45,249.284l27.26,15.738c4.968,2.867,13.338,2.686,18.7-.407s5.672-7.926.7-10.794l-27.26-15.74c-4.968-2.867-13.338-2.686-18.7.407-2.68,1.548-4.1,3.528-4.225,5.482S115.967,247.85,118.45,249.284Z" transform="translate(-114.919 -236.044)"/><path class="as" d="M119.637,248.417,145.5,263.346c4.713,2.721,12.377,2.709,17.119-.029s4.763-7.162.05-9.883L136.806,238.5c-4.713-2.721-12.377-2.709-17.119.029-2.372,1.37-3.561,3.159-3.57,4.948S117.282,247.058,119.637,248.417Z" transform="translate(-114.29 -235.82)"/><path class="ah" d="M119.637,248.417,145.5,263.346c4.713,2.721,12.377,2.709,17.119-.029s4.763-7.162.05-9.883L136.806,238.5c-4.713-2.721-12.377-2.709-17.119.029-2.372,1.37-3.561,3.159-3.57,4.948S117.282,247.058,119.637,248.417Z" transform="translate(-114.29 -235.82)"/><path class="as" d="M118.458,238.534l42.926,24.783c4.742-2.738,4.763-7.162.05-9.883L135.577,238.5C130.864,235.784,123.2,235.8,118.458,238.534Z" transform="translate(-113.06 -235.82)"/><path class="as" d="M130.567,252.263l12.9-7.448-11.333-6.543-12.9,7.448Z" transform="translate(-112.653 -234.875)"/><path class="at" d="M137.156,255.264a9.649,9.649,0,0,0,2.5.979,13.66,13.66,0,0,0,6.7-.072,9.692,9.692,0,0,0,2.276-.93,5.784,5.784,0,0,0,1.621-1.33c1.3-1.6.959-3.532-1.039-4.942a6.273,6.273,0,0,0-.543-.351,9.694,9.694,0,0,0-2.536-.987c-.2-.049-.389-.092-.59-.13a13.816,13.816,0,0,0-4.971-.037,11.306,11.306,0,0,0-2.37.68,8.433,8.433,0,0,0-1.005.494,6.925,6.925,0,0,0-.842.567c-2.132,1.695-2.068,4.019.2,5.658A6.079,6.079,0,0,0,137.156,255.264Z" transform="translate(-104.478 -230.155)"/><path class="au" d="M137.477,254.727a8.6,8.6,0,0,0,2.224.872,12.192,12.192,0,0,0,5.971-.063,8.736,8.736,0,0,0,2.029-.83,5.2,5.2,0,0,0,1.444-1.185c1.159-1.428.856-3.15-.926-4.406a5.718,5.718,0,0,0-.483-.311,8.667,8.667,0,0,0-2.26-.88c-.175-.043-.348-.081-.528-.114a12.313,12.313,0,0,0-4.429-.034,10.1,10.1,0,0,0-2.112.605,7.9,7.9,0,0,0-.9.441,6.052,6.052,0,0,0-.749.506c-1.9,1.51-1.844,3.583.175,5.042A5.118,5.118,0,0,0,137.477,254.727Z" transform="translate(-104.175 -229.98)"/><g transform="translate(31.199 17.612)"><path class="av" d="M140.275,251.705l1.139,0,.011-.11.038-.226,1.714-3.558a12.313,12.313,0,0,0-4.429-.034l1.5,3.7.015.116Z" transform="translate(-133.604 -247.592)"/><path class="av" d="M138.5,254.335a12.377,12.377,0,0,0,4.906-.015l-1.521-3.378-.151-.336-.181-.375-.012-.041-1.135,0-.012.041-.262.544-.166.361Z" transform="translate(-133.733 -246.228)"/><path class="aw" d="M140.068,250.6l.194.393.078.149.14.276.432-.009,6.418-.137a2.149,2.149,0,0,0,.043-.419,2.7,2.7,0,0,0-.509-1.55l-6.04,1.156Z" transform="translate(-132.91 -246.693)"/><path class="aw" d="M135.375,250.5a2.662,2.662,0,0,0,.494,1.53l5.9-.83,1.171-.16-.14-.276-.078-.149-.194-.393-.561-.02-6.543-.174A2.224,2.224,0,0,0,135.375,250.5Z" transform="translate(-135.375 -246.313)"/></g><path class="ax" d="M130.282,251.509l11.88-6.859-10.411-6.011-11.88,6.859Z" transform="translate(-112.318 -234.681)"/><path class="ay" d="M130.06,250.9l10.634-6.14-9.269-5.352-10.634,6.14Z" transform="translate(-111.835 -234.275)"/></g></g><g transform="translate(33.591 27.971)"><path class="an" d="M166.686,308.037a43.052,43.052,0,0,1-1.774,10.054c-.084.279-.168.558-.265.824a25.792,25.792,0,0,1-1.411,3.352,17.848,17.848,0,0,1-10.181,9.287,18.992,18.992,0,0,1-6.326,1.033c-10.487,0-23.293-7.513-35.6-21.142l3.114-2.808c13.533,15.012,27.874,22.274,37.426,18.964a13.324,13.324,0,0,0,7.107-5.991,20.231,20.231,0,0,0,1.83-3.909,36.824,36.824,0,0,0,1.9-9.944c1.885-28.571-22.539-49.979-22.791-50.2l1.4-1.62,1.341-1.55C143.532,255.305,168.724,277.341,166.686,308.037Z" transform="translate(-111.133 -254.384)"/></g><g transform="translate(18.936 15.279)"><path class="an" d="M151.7,332.622a23.577,23.577,0,0,1-7.724-1.447c-17.759-6.2-40.585-32.09-42.295-54.937-.81-10.824,1.438-18.972,6.679-24.217a21.418,21.418,0,0,1,15.571-5.938h0c.351,0,10.893.285,24.525,13.545l-2.922,3c-12.331-11.994-21.7-12.363-21.8-12.365-.18-.009-7.313-.426-12.453,4.754-4.313,4.347-6.139,11.379-5.425,20.9,1.55,20.739,23.015,45.54,39.5,51.3,5.931,2.068,10.448,1.5,13.409-1.708l3.078,2.845A13.292,13.292,0,0,1,151.7,332.622Z" transform="translate(-101.524 -246.062)"/></g><g transform="translate(54.824 79.99)"><path class="az" d="M127.435,289.648a9,9,0,0,1,7.76,2.457c1.031,1.122,1.669,1.649,1.162,2.526-.037.064-.5.755-.544.816a3.284,3.284,0,0,1-2,1.148,8.993,8.993,0,0,1-7.759-2.457,3.446,3.446,0,0,1-.994-1.98c-.009-.114.041-1.15.05-1.261C125.18,289.883,125.955,289.978,127.435,289.648Z" transform="translate(-125.054 -287.959)"/><path class="ba" d="M127.562,289.05c2.628-.584,6.311.2,8.141,2.2s1.116,4.444-1.51,5.029a9.356,9.356,0,0,1-8.073-2.556,3.343,3.343,0,0,1-1.039-2.361,2.045,2.045,0,0,1,.076-.465,2.792,2.792,0,0,1,.853-1.5A4.628,4.628,0,0,1,127.562,289.05Z" transform="translate(-125.041 -288.296)"/><path class="bb" d="M127.673,288.638a8.994,8.994,0,0,1,7.759,2.456c1.76,1.919,1.139,3.93-1.386,4.492a9,9,0,0,1-7.759-2.457C124.527,291.209,125.147,289.2,127.673,288.638Z" transform="translate(-124.933 -288.49)"/><path class="bc" d="M127.913,289.06a7.31,7.31,0,0,1,6.2,1.894c.032.031.063.064.093.1,1.426,1.554.923,3.183-1.124,3.639a7.305,7.305,0,0,1-6.236-1.937c-.018-.017-.035-.037-.052-.055s-.059-.066-.087-.1C125.385,291.075,125.911,289.505,127.913,289.06Z" transform="translate(-124.569 -288.254)"/></g></g><g transform="translate(83.177 380.358)"><g transform="translate(0 0)"><path class="bd" d="M106.5,320.276a14.705,14.705,0,0,1-3.927,6.317,12.033,12.033,0,0,1-9.081,3.5c-10.5-.352-21.652-12.095-22.283-12.77l-.026-.029,16.237-9.374C87.519,308.03,96.8,318.021,106.5,320.276Z" transform="translate(-51.955 -256.723)"/><g transform="translate(0 4.633)"><path class="be" d="M87.85,306.33s23.044,16.843,26.48,17.114,14.84,5.628,14.132,7.017-21.025,15.075-27.7,13.226-37.925-14.042-41.808-20.244S81.831,302.014,87.85,306.33Z" transform="translate(-58.575 -262.589)"/><path class="am" d="M109.525,328.756l-1.155,2.985c-1.4,1.244-9.9,8.373-16.237,9.377l1.155-2.985c-8.841-3.421-27.453-16.7-28.538-35.9-.39-6.9.892-11.716,3.816-14.314a9.06,9.06,0,0,1,6.969-2.025l5.844-.616a30.709,30.709,0,0,0-.392,7.582C82.072,312.059,100.684,325.334,109.525,328.756Z" transform="translate(-55.367 -273.245)"/><path class="an" d="M80.994,312.6a6.691,6.691,0,0,1,5.913,1.277c1.435,1.3,1.116,2.828-.712,3.419a6.686,6.686,0,0,1-5.913-1.277C78.846,314.724,79.165,313.193,80.994,312.6Z" transform="translate(-47.646 -259.019)"/><path class="bf" d="M93.688,342.278l-1.155,2.985C81,338.329,76.165,331.719,71.873,327.1c-4.981-5.373-7.293-12.784-7.928-24-.18-3.206.663-4.35,1.164-6.811a21.357,21.357,0,0,1,3.032-7.6l0,0c.529-.686,15.507-8.861,15.776-9.057a12.275,12.275,0,0,1,8.831-2.1l-.58,3.148a9.042,9.042,0,0,0-6.967,2.025,11.055,11.055,0,0,0-3.2,5.716c-.084.328-.163.667-.23,1.016l-5.844.616a9.06,9.06,0,0,0-6.969,2.025c-2.924,2.6-4.206,7.412-3.816,14.314C66.235,325.577,84.847,338.857,93.688,342.278Z" transform="translate(-55.767 -277.39)"/></g><g transform="translate(6.116 14.006)"><path class="an" d="M94.39,339.05l-1.155,2.985a54.706,54.706,0,0,1-18.888-13.348c-4.984-5.373-11.056-14.131-11.691-25.353-.451-7.957,1.208-13.653,4.929-16.923a10.343,10.343,0,0,1,1.257-.958l0,0a12.326,12.326,0,0,1,8.37-1.783l5.5,1.516,2.593.715-2.823.3-5.845.616a9.06,9.06,0,0,0-6.969,2.025c-2.924,2.6-4.206,7.412-3.816,14.314C66.937,322.349,85.548,335.629,94.39,339.05Z" transform="translate(-62.584 -283.535)"/></g><g transform="translate(14.679)"><path class="bg" d="M121.077,296.073l.015-.017a8.058,8.058,0,0,0,2.306-5.582,6.109,6.109,0,0,0-2.472-4.505l-12.063-.718-9.179-5.3c-2.747-1.585-6.941-1.759-9.32-.386l-9.68,5.59-10.12-.6s-2.366,1.309-2.364,5.019a6.665,6.665,0,0,0,2.724,5.709h0a6.539,6.539,0,0,0,1,.7l19.817,11.44c2.747,1.586,6.941,1.76,9.32.387l19.112-11.035a4.087,4.087,0,0,0,.853-.647Z" transform="translate(-68.199 -272.101)"/><path class="bh" d="M123.362,291.723a6.174,6.174,0,0,0-2.46-4.109l-2.811-.168-18.25-10.539c-2.925-1.688-7.4-1.874-9.93-.412l-17.036,9.84-2.33-.14a5.693,5.693,0,0,0-2.21,3.879,2.689,2.689,0,0,0-.085.888v.015a3.867,3.867,0,0,0,2.176,2.915l5.681,3.281,15.432,8.91c2.927,1.688,7.4,1.873,9.93.412l15.442-8.921,4.756-2.744a3.191,3.191,0,0,0,1.646-1.951,5.362,5.362,0,0,0,.079-.756C123.387,291.985,123.379,291.853,123.362,291.723Z" transform="translate(-68.176 -273.744)"/><path class="bi" d="M100.56,303.521l19.112-11.035c2.378-1.373,2.077-3.795-.67-5.381l-19.817-11.44c-2.747-1.586-6.941-1.76-9.32-.386L70.755,286.314c-2.379,1.373-2.079,3.795.668,5.379L91.24,303.135C93.986,304.721,98.181,304.9,100.56,303.521Z" transform="translate(-67.7 -274.352)"/><path class="as" d="M99.574,302.542l18.4-10.624c2.1-1.213,1.833-3.349-.59-4.748L98.109,276.042c-2.424-1.4-6.124-1.553-8.224-.342l-18.4,10.624c-2.1,1.213-1.833,3.348.59,4.748L91.35,302.2C93.773,303.6,97.475,303.753,99.574,302.542Z" transform="translate(-67.216 -274.073)"/><path class="bj" d="M117.774,291.463l-9.589,5.53-8.57,4.949c-2.076,1.2-5.729,1.048-8.126-.331l-19.021-10.98c-2.4-1.389-2.657-3.5-.581-4.69l8.375-4.846h.02l9.766-5.645c2.074-1.194,5.727-1.039,8.114.342l19.031,10.978C119.58,288.152,119.85,290.269,117.774,291.463Z" transform="translate(-66.998 -274.197)"/><path class="bj" d="M96.891,300.491l18.15-10.478c1.277-.738,1.115-2.038-.36-2.89l-18.9-10.91a5.582,5.582,0,0,0-5-.206L72.633,286.486c-1.278.737-1.116,2.038.358,2.889l18.9,10.91A5.578,5.578,0,0,0,96.891,300.491Z" transform="translate(-66.323 -273.744)"/><path class="ai" d="M96.474,298.507l16.2-9.355c1.278-.737,1.116-2.038-.358-2.889L95.747,276.7a5.587,5.587,0,0,0-5-.207l-16.2,9.355c-1.277.737-1.115,2.038.36,2.889L91.47,298.3A5.587,5.587,0,0,0,96.474,298.507Z" transform="translate(-65.321 -273.491)"/><g transform="translate(16.579 7.361)"><path class="x" d="M85.768,283.053a16.05,16.05,0,0,1,2.646-1.211,22.371,22.371,0,0,1,5.828-1.2,26.515,26.515,0,0,1,3.114-.044,1.546,1.546,0,0,0,1.148-.328.436.436,0,0,0,.04-.7,1.3,1.3,0,0,0-.911-.354,28.657,28.657,0,0,0-7.556.612,23.674,23.674,0,0,0-3.136.917,19.8,19.8,0,0,0-2.417,1.083,14.509,14.509,0,0,0-2.053,1.321,10.306,10.306,0,0,0-2.032,2.038,6.982,6.982,0,0,0-1.217,2.553,5.631,5.631,0,0,0-.092,2.141c.058.383.634.656,1.315.624.624-.03,1.123-.363,1.078-.732a5.413,5.413,0,0,1,.034-1.623,5.79,5.79,0,0,1,.935-2.208,8.1,8.1,0,0,1,1.295-1.467A11.605,11.605,0,0,1,85.768,283.053Z" transform="translate(-79.069 -279.179)"/><path class="x" d="M85.731,283.145a7.152,7.152,0,0,0-3.148,3.3,4.133,4.133,0,0,0-.285,2.213c.053.369.605.647,1.246.628s1.165-.336,1.153-.709c-.008-.25-.04-.5-.023-.749a4.008,4.008,0,0,1,1.277-2.579,8.122,8.122,0,0,1,2.538-1.676,14.486,14.486,0,0,1,5.43-1.155c.448-.014.9,0,1.35.008a1.615,1.615,0,0,0,1.078-.294c.282-.229.316-.474.095-.721a1.308,1.308,0,0,0-.936-.368,20.42,20.42,0,0,0-5.26.409,16.739,16.739,0,0,0-2.794.846A13.737,13.737,0,0,0,85.731,283.145Z" transform="translate(-77.396 -278.212)"/><path class="x" d="M87.391,284.21a3.415,3.415,0,0,0-1.949,3.049.658.658,0,0,0,.21.5,1.808,1.808,0,0,0,1.606.215c.439-.16.634-.387.6-.683a1.955,1.955,0,0,1,.772-1.751,5.86,5.86,0,0,1,3.532-1.267c.334-.024.679-.018,1.016-.011a1.438,1.438,0,0,0,1.223-.477c.174-.3-.024-.63-.477-.8a1.926,1.926,0,0,0-.607-.114,12.079,12.079,0,0,0-3.819.43A9.61,9.61,0,0,0,87.391,284.21Z" transform="translate(-75.724 -277.247)"/><path class="x" d="M92.734,287.074c.95-.543.964-1.423.034-1.964a3.783,3.783,0,0,0-3.424-.009c-.955.548-.962,1.426-.017,1.977A3.735,3.735,0,0,0,92.734,287.074Z" transform="translate(-74.052 -276.281)"/></g><path class="ah" d="M108.185,294.79l-8.57,4.949c-2.076,1.2-5.729,1.048-8.126-.331l-19.021-10.98c-2.4-1.389-2.657-3.5-.581-4.69l8.375-4.846h.02l.188-.032s2.878-.625,13.228,5.337C101.1,288.462,105.945,291.3,108.185,294.79Z" transform="translate(-66.998 -271.994)"/></g><g transform="translate(23.61 22.502)"><path class="bk" d="M74.713,291.109a6.243,6.243,0,0,0,2.831,4.885c.917.528,1.368.882,1.885.406.038-.034.436-.453.471-.491a2.281,2.281,0,0,0,.476-1.53,6.236,6.236,0,0,0-2.832-4.884,2.392,2.392,0,0,0-1.49-.375c-.079.011-.772.2-.846.223C74.531,289.547,74.713,290.056,74.713,291.109Z" transform="translate(-73.721 -289.106)"/><path class="bl" d="M74.323,291.292a6.443,6.443,0,0,0,2.715,5.181,1.971,1.971,0,0,0,3.177-1.78,6.488,6.488,0,0,0-2.947-5.08,2.32,2.32,0,0,0-1.755-.349,1.46,1.46,0,0,0-.3.122,1.936,1.936,0,0,0-.888.8A3.2,3.2,0,0,0,74.323,291.292Z" transform="translate(-73.944 -289.052)"/><path class="bm" d="M74.055,291.421a6.242,6.242,0,0,0,2.832,4.884c1.563.9,2.832.18,2.832-1.615a6.242,6.242,0,0,0-2.832-4.884C75.324,288.9,74.055,289.626,74.055,291.421Z" transform="translate(-74.055 -288.942)"/><path class="bn" d="M74.188,291.663a5.072,5.072,0,0,0,2.215,3.909l.079.049c1.267.731,2.3.145,2.3-1.309a5.065,5.065,0,0,0-2.251-3.93c-.014-.011-.031-.018-.044-.027l-.079-.044C75.172,289.647,74.188,290.24,74.188,291.663Z" transform="translate(-73.985 -288.615)"/></g><g transform="translate(19.251 22.722)"><path class="bo" d="M121,329.339a16.462,16.462,0,0,1-3.683,2.671c-2.17,1.144-15.221,10.069-17.811,10.091H99.5c-.2,0-5.575-.938-5.771-.943a58.563,58.563,0,0,1-5.965-1.019c-10.637-2.3-15.97-12.229-16.567-13.011.631.676,11.787,12.418,22.283,12.77a12.033,12.033,0,0,0,9.081-3.5,14.705,14.705,0,0,0,3.927-6.317c.384.091.772.169,1.158.233.692.113.85-2.633,1.429-6.177.648-3.972-6.561-24.954-6.819-25.5l-.006-.008,16.237-9.375a64.583,64.583,0,0,1,6.584,14.665C128.347,314.9,126.942,323.692,121,329.339Z" transform="translate(-71.197 -289.25)"/></g><g transform="translate(16.866 32.097)"><path class="an" d="M105.588,335.488a15.884,15.884,0,0,1-5.257,3.384,15.334,15.334,0,0,1-5.552,1.007q-.293,0-.59-.009c-12.1-.413-24.052-13.287-24.555-13.835l2.359-2.164.026.029c.631.676,11.787,12.418,22.283,12.77a12.033,12.033,0,0,0,9.081-3.5,14.7,14.7,0,0,0,3.927-6.317c3.94-12.378-6.807-29.532-6.938-29.737l2.7-1.719.006.008a64.824,64.824,0,0,1,6.578,14.659C112.931,321.049,111.525,329.842,105.588,335.488Z" transform="translate(-69.633 -295.397)"/></g><g transform="translate(32.787 56.816)"><path class="az" d="M81.709,312.6a6.687,6.687,0,0,1,5.912,1.277c.842.76,1.35,1.1,1.037,1.788-.023.05-.319.593-.346.642a2.446,2.446,0,0,1-1.4.99A6.686,6.686,0,0,1,81,316.021a2.563,2.563,0,0,1-.872-1.4c-.015-.084-.05-.854-.052-.936C80.057,312.932,80.636,312.949,81.709,312.6Z" transform="translate(-80.072 -311.202)"/><path class="ba" d="M81.747,312.165a6.909,6.909,0,0,1,6.177,1.059c1.493,1.348,1.136,3.21-.767,3.825a6.951,6.951,0,0,1-6.15-1.327,2.485,2.485,0,0,1-.933-1.675,1.481,1.481,0,0,1,.024-.349,2.084,2.084,0,0,1,.526-1.17C80.891,312.3,81.312,312.305,81.747,312.165Z" transform="translate(-80.072 -311.466)"/><path class="bb" d="M81.8,311.837a6.682,6.682,0,0,1,5.913,1.277c1.435,1.3,1.116,2.826-.712,3.418a6.683,6.683,0,0,1-5.912-1.277C79.655,313.959,79.974,312.429,81.8,311.837Z" transform="translate(-80.009 -311.604)"/><path class="bc" d="M82.022,312.114a5.433,5.433,0,0,1,4.716.968c.026.021.05.044.075.066,1.164,1.051.9,2.291-.577,2.77a5.425,5.425,0,0,1-4.749-1,.519.519,0,0,1-.043-.037l-.07-.066C80.291,313.781,80.571,312.582,82.022,312.114Z" transform="translate(-79.734 -311.435)"/></g></g></g></g></svg>