<svg xmlns="http://www.w3.org/2000/svg" xmlns:xlink="http://www.w3.org/1999/xlink" width="1680.5" height="845.502" viewBox="0 0 1680.5 845.502"><defs><style>.a{fill:#fff;stroke:#707070;}.b{clip-path:url(#a);}</style><clipPath id="a"><rect class="a" width="1680.5" height="845.502" transform="translate(0 3815)"/></clipPath></defs><g class="b" transform="translate(0 -3815)"><g transform="translate(0 3814.798)"><g transform="translate(0 0)"><ellipse cx="25.483" cy="25.305" rx="25.483" ry="25.305" transform="translate(13.516 11.851)"/><ellipse cx="33.858" cy="33.621" rx="33.858" ry="33.621" transform="translate(101.295 3.535)"/><ellipse cx="17.555" cy="17.431" rx="17.555" ry="17.431" transform="translate(213.752 19.725)"/><ellipse cx="37.418" cy="37.156" rx="37.418" ry="37.156" transform="translate(283.701)"/><ellipse cx="14.711" cy="14.608" rx="14.711" ry="14.608" transform="translate(400.204 22.548)"/><ellipse cx="14.562" cy="14.459" rx="14.562" ry="14.459" transform="translate(494.46 22.697)"/><ellipse cx="35.822" cy="35.571" rx="35.822" ry="35.571" transform="translate(567.441 1.585)"/><ellipse cx="14.999" cy="14.895" rx="14.999" ry="14.895" transform="translate(682.241 22.261)"/><ellipse cx="26.356" cy="26.172" rx="26.356" ry="26.172" transform="translate(765.006 10.984)"/><ellipse cx="26.349" cy="26.164" rx="26.349" ry="26.164" transform="translate(859.092 10.992)"/><ellipse cx="15.878" cy="15.766" rx="15.878" ry="15.766" transform="translate(963.681 21.39)"/><ellipse cx="33.651" cy="33.415" rx="33.651" ry="33.415" transform="translate(1039.903 3.741)"/><ellipse cx="17.34" cy="17.219" rx="17.34" ry="17.219" transform="translate(1150.418 19.937)"/><ellipse cx="35.651" cy="35.402" rx="35.651" ry="35.402" transform="translate(1226.002 1.754)"/><ellipse cx="35.823" cy="35.572" rx="35.823" ry="35.572" transform="translate(1319.883 1.584)"/><ellipse cx="26.014" cy="25.831" rx="26.014" ry="25.831" transform="translate(1419.507 11.325)"/><ellipse cx="25.749" cy="25.569" rx="25.749" ry="25.569" transform="translate(1515.925 11.586)"/><ellipse cx="33.764" cy="33.527" rx="33.764" ry="33.527" transform="translate(1604.065 3.628)"/><ellipse cx="31.349" cy="31.13" rx="31.349" ry="31.13" transform="translate(7.65 102.27)"/><ellipse cx="26.239" cy="26.055" rx="26.239" ry="26.055" transform="translate(108.915 107.345)"/><ellipse cx="13.544" cy="13.45" rx="13.544" ry="13.45" transform="translate(217.763 119.95)"/><ellipse cx="16.669" cy="16.552" rx="16.669" ry="16.552" transform="translate(304.164 116.848)"/><ellipse cx="36.839" cy="36.581" rx="36.839" ry="36.581" transform="translate(378.325 96.82)"/><ellipse cx="23.345" cy="23.182" rx="23.345" ry="23.182" transform="translate(485.752 110.218)"/><ellipse cx="14.741" cy="14.639" rx="14.741" ry="14.639" transform="translate(588.39 118.762)"/><ellipse cx="18.556" cy="18.425" rx="18.556" ry="18.425" transform="translate(678.698 114.975)"/><ellipse cx="19.858" cy="19.719" rx="19.858" ry="19.719" transform="translate(771.496 113.682)"/><ellipse cx="33.481" cy="33.247" rx="33.481" ry="33.247" transform="translate(851.951 100.153)"/><ellipse cx="17.899" cy="17.773" rx="17.899" ry="17.773" transform="translate(961.653 115.627)"/><ellipse cx="22.366" cy="22.209" rx="22.366" ry="22.209" transform="translate(1051.259 111.191)"/><ellipse cx="35.445" cy="35.197" rx="35.445" ry="35.197" transform="translate(1132.154 98.203)"/><ellipse cx="31.211" cy="30.993" rx="31.211" ry="30.993" transform="translate(1230.493 102.407)"/><ellipse cx="26.975" cy="26.785" rx="26.975" ry="26.785" transform="translate(1328.855 106.615)"/><ellipse cx="19.837" cy="19.698" rx="19.837" ry="19.698" transform="translate(1425.683 113.703)"/><ellipse cx="25.71" cy="25.53" rx="25.71" ry="25.53" transform="translate(1515.965 107.87)"/><ellipse cx="29.889" cy="29.679" rx="29.889" ry="29.679" transform="translate(1607.94 103.721)"/><ellipse cx="13.31" cy="13.216" rx="13.31" ry="13.216" transform="translate(25.69 216.429)"/><ellipse cx="14.352" cy="14.251" rx="14.352" ry="14.251" transform="translate(120.802 215.393)"/><ellipse cx="12.016" cy="11.933" rx="12.016" ry="11.933" transform="translate(219.291 217.712)"/><ellipse cx="31.295" cy="31.077" rx="31.295" ry="31.077" transform="translate(289.739 198.568)"/><ellipse cx="23.153" cy="22.99" rx="23.153" ry="22.99" transform="translate(391.855 206.654)"/><ellipse cx="29.072" cy="28.868" rx="29.072" ry="28.868" transform="translate(480.075 200.777)"/><ellipse cx="31.686" cy="31.465" rx="31.686" ry="31.465" transform="translate(571.551 198.18)"/><ellipse cx="27.669" cy="27.476" rx="27.669" ry="27.476" transform="translate(669.619 202.168)"/><ellipse cx="28.892" cy="28.69" rx="28.892" ry="28.69" transform="translate(762.473 200.954)"/><ellipse cx="16.44" cy="16.324" rx="16.44" ry="16.324" transform="translate(869.014 213.321)"/><ellipse cx="36.057" cy="35.805" rx="36.057" ry="35.805" transform="translate(943.427 193.84)"/><ellipse cx="30.545" cy="30.331" rx="30.545" ry="30.331" transform="translate(1043.029 199.314)"/><ellipse cx="15.978" cy="15.867" rx="15.978" ry="15.867" transform="translate(1151.791 213.778)"/><ellipse cx="15.419" cy="15.311" rx="15.419" ry="15.311" transform="translate(1246.462 214.333)"/><ellipse cx="25.564" cy="25.386" rx="25.564" ry="25.386" transform="translate(1330.285 204.259)"/><ellipse cx="38.145" cy="37.877" rx="38.145" ry="37.877" transform="translate(1407.376 191.768)"/><ellipse cx="25.845" cy="25.664" rx="25.845" ry="25.664" transform="translate(1515.83 203.981)"/><ellipse cx="12.485" cy="12.398" rx="12.485" ry="12.398" transform="translate(1625.343 217.247)"/><ellipse cx="18.071" cy="17.945" rx="18.071" ry="17.945" transform="translate(20.928 304.189)"/><ellipse cx="28.475" cy="28.276" rx="28.475" ry="28.276" transform="translate(106.678 293.939)"/><ellipse cx="13.251" cy="13.158" rx="13.251" ry="13.158" transform="translate(218.056 312.731)"/><ellipse cx="25.663" cy="25.482" rx="25.663" ry="25.482" transform="translate(295.293 296.71)"/><ellipse cx="31.736" cy="31.514" rx="31.736" ry="31.514" transform="translate(383.369 290.726)"/><ellipse cx="20.86" cy="20.714" rx="20.86" ry="20.714" transform="translate(488.215 301.442)"/><ellipse cx="25.178" cy="25.002" rx="25.178" ry="25.002" transform="translate(578.017 297.187)"/><ellipse cx="32.105" cy="31.88" rx="32.105" ry="31.88" transform="translate(665.2 290.364)"/><ellipse cx="34.463" cy="34.221" rx="34.463" ry="34.221" transform="translate(756.909 288.041)"/><ellipse cx="14.167" cy="14.067" rx="14.167" ry="14.067" transform="translate(871.29 311.822)"/><ellipse cx="34.435" cy="34.194" rx="34.435" ry="34.194" transform="translate(945.054 288.068)"/><ellipse cx="29.838" cy="29.629" rx="29.838" ry="29.629" transform="translate(1043.74 292.597)"/><ellipse cx="24.377" cy="24.205" rx="24.377" ry="24.205" transform="translate(1143.32 297.978)"/><ellipse cx="18.9" cy="18.768" rx="18.9" ry="18.768" transform="translate(1242.943 303.372)"/><ellipse cx="38.254" cy="37.986" rx="38.254" ry="37.986" transform="translate(1317.418 284.307)"/><ellipse cx="36.091" cy="35.838" rx="36.091" ry="35.838" transform="translate(1409.43 286.437)"/><ellipse cx="18.147" cy="18.019" rx="18.147" ry="18.019" transform="translate(1523.528 304.116)"/><ellipse cx="37.153" cy="36.893" rx="37.153" ry="36.893" transform="translate(1600.676 285.391)"/><ellipse cx="23.672" cy="23.507" rx="23.672" ry="23.507" transform="translate(15.327 393.734)"/><ellipse cx="23.874" cy="23.706" rx="23.874" ry="23.706" transform="translate(111.28 393.536)"/><ellipse cx="14.746" cy="14.642" rx="14.746" ry="14.642" transform="translate(216.561 402.542)"/><ellipse cx="30.689" cy="30.474" rx="30.689" ry="30.474" transform="translate(290.336 386.811)"/><ellipse cx="21.358" cy="21.209" rx="21.358" ry="21.209" transform="translate(393.63 396.017)"/><ellipse cx="33.732" cy="33.496" rx="33.732" ry="33.496" transform="translate(475.456 383.809)"/><ellipse cx="14.728" cy="14.624" rx="14.728" ry="14.624" transform="translate(588.404 402.56)"/><ellipse cx="18.971" cy="18.837" rx="18.971" ry="18.837" transform="translate(678.284 398.374)"/><ellipse cx="22.225" cy="22.069" rx="22.225" ry="22.069" transform="translate(769.132 395.162)"/><ellipse cx="33.673" cy="33.438" rx="33.673" ry="33.438" transform="translate(851.759 383.867)"/><ellipse cx="32.463" cy="32.236" rx="32.463" ry="32.236" transform="translate(947.034 385.061)"/><ellipse cx="31.994" cy="31.77" rx="31.994" ry="31.77" transform="translate(1041.571 385.524)"/><ellipse cx="23.103" cy="22.942" rx="23.103" ry="22.942" transform="translate(1144.605 394.295)"/><ellipse cx="14.353" cy="14.253" rx="14.353" ry="14.253" transform="translate(1247.539 402.929)"/><ellipse cx="20.523" cy="20.379" rx="20.523" ry="20.379" transform="translate(1335.395 396.841)"/><ellipse cx="28.476" cy="28.276" rx="28.476" ry="28.276" transform="translate(1417.046 388.995)"/><ellipse cx="33.75" cy="33.513" rx="33.75" ry="33.513" transform="translate(1507.925 383.792)"/><ellipse cx="18.284" cy="18.157" rx="18.284" ry="18.157" transform="translate(1619.545 399.05)"/><ellipse cx="38.999" cy="38.725" rx="38.999" ry="38.725" transform="translate(0 473.655)"/><ellipse cx="26.738" cy="26.551" rx="26.738" ry="26.551" transform="translate(108.416 485.768)"/><ellipse cx="34.708" cy="34.464" rx="34.708" ry="34.464" transform="translate(196.6 477.895)"/><ellipse cx="34.73" cy="34.487" rx="34.73" ry="34.487" transform="translate(286.352 477.872)"/><ellipse cx="33.714" cy="33.477" rx="33.714" ry="33.477" transform="translate(381.414 478.877)"/><ellipse cx="18.424" cy="18.295" rx="18.424" ry="18.295" transform="translate(490.63 493.982)"/><ellipse cx="19.747" cy="19.609" rx="19.747" ry="19.609" transform="translate(583.415 492.675)"/><ellipse cx="16.9" cy="16.781" rx="16.9" ry="16.781" transform="translate(680.348 495.489)"/><ellipse cx="34.821" cy="34.577" rx="34.821" ry="34.577" transform="translate(756.551 477.782)"/><ellipse cx="27.984" cy="27.788" rx="27.984" ry="27.788" transform="translate(857.455 484.536)"/><ellipse cx="13.366" cy="13.272" rx="13.366" ry="13.272" transform="translate(966.202 498.98)"/><ellipse cx="15.04" cy="14.934" rx="15.04" ry="14.934" transform="translate(1058.63 497.326)"/><ellipse cx="28.534" cy="28.335" rx="28.534" ry="28.335" transform="translate(1139.126 483.992)"/><ellipse cx="27.902" cy="27.706" rx="27.902" ry="27.706" transform="translate(1233.839 484.619)"/><ellipse cx="27.542" cy="27.35" rx="27.542" ry="27.35" transform="translate(1328.28 484.973)"/><ellipse cx="28.561" cy="28.361" rx="28.561" ry="28.361" transform="translate(1416.96 483.967)"/><ellipse cx="29.671" cy="29.463" rx="29.671" ry="29.463" transform="translate(1512.004 482.87)"/><ellipse cx="35.454" cy="35.205" rx="35.454" ry="35.205" transform="translate(1602.375 477.157)"/><ellipse cx="34.469" cy="34.227" rx="34.469" ry="34.227" transform="translate(4.53 573.178)"/><ellipse cx="21.05" cy="20.902" rx="21.05" ry="20.902" transform="translate(114.104 586.455)"/><ellipse cx="35.698" cy="35.447" rx="35.698" ry="35.447" transform="translate(195.609 571.962)"/><ellipse cx="23.727" cy="23.561" rx="23.727" ry="23.561" transform="translate(297.203 583.806)"/><ellipse cx="20.172" cy="20.031" rx="20.172" ry="20.031" transform="translate(394.803 587.323)"/><ellipse cx="25.037" cy="24.862" rx="25.037" ry="24.862" transform="translate(484.075 582.509)"/><ellipse cx="13.691" cy="13.595" rx="13.691" ry="13.595" transform="translate(589.434 593.737)"/><ellipse cx="36.533" cy="36.277" rx="36.533" ry="36.277" transform="translate(660.788 571.136)"/><ellipse cx="34.708" cy="34.466" rx="34.708" ry="34.466" transform="translate(756.664 572.941)"/><ellipse cx="15.823" cy="15.712" rx="15.823" ry="15.712" transform="translate(869.631 591.627)"/><ellipse cx="30.893" cy="30.677" rx="30.893" ry="30.677" transform="translate(948.61 576.716)"/><ellipse cx="29.022" cy="28.819" rx="29.022" ry="28.819" transform="translate(1044.562 578.566)"/><ellipse cx="36.374" cy="36.118" rx="36.374" ry="36.118" transform="translate(1131.217 571.294)"/><ellipse cx="24.213" cy="24.044" rx="24.213" ry="24.044" transform="translate(1237.57 583.325)"/><ellipse cx="33.89" cy="33.652" rx="33.89" ry="33.652" transform="translate(1321.843 573.751)"/><ellipse cx="33.798" cy="33.561" rx="33.798" ry="33.561" transform="translate(1411.723 573.841)"/><ellipse cx="31.657" cy="31.435" rx="31.657" ry="31.435" transform="translate(1510.017 575.961)"/><ellipse cx="12.697" cy="12.608" rx="12.697" ry="12.608" transform="translate(1625.132 594.721)"/><ellipse cx="16.415" cy="16.3" rx="16.415" ry="16.3" transform="translate(22.584 686.115)"/><ellipse cx="31.67" cy="31.449" rx="31.67" ry="31.449" transform="translate(103.483 670.998)"/><ellipse cx="29.025" cy="28.821" rx="29.025" ry="28.821" transform="translate(202.283 673.62)"/><ellipse cx="37.817" cy="37.552" rx="37.817" ry="37.552" transform="translate(283.307 664.908)"/><ellipse cx="19.509" cy="19.373" rx="19.509" ry="19.373" transform="translate(395.459 683.047)"/><ellipse cx="22.976" cy="22.815" rx="22.976" ry="22.815" transform="translate(486.118 679.613)"/><ellipse cx="37.024" cy="36.764" rx="37.024" ry="36.764" transform="translate(566.246 665.694)"/><ellipse cx="31.514" cy="31.292" rx="31.514" ry="31.292" transform="translate(665.788 671.154)"/><ellipse cx="35.123" cy="34.878" rx="35.123" ry="34.878" transform="translate(756.249 667.577)"/><ellipse cx="38.019" cy="37.753" rx="38.019" ry="37.753" transform="translate(847.407 664.707)"/><ellipse cx="23.071" cy="22.909" rx="23.071" ry="22.909" transform="translate(956.462 679.518)"/><ellipse cx="22.971" cy="22.81" rx="22.971" ry="22.81" transform="translate(1050.65 679.618)"/><ellipse cx="28.285" cy="28.087" rx="28.285" ry="28.087" transform="translate(1139.377 674.352)"/><ellipse cx="18.409" cy="18.28" rx="18.409" ry="18.28" transform="translate(1243.439 684.138)"/><ellipse cx="23.654" cy="23.487" rx="23.654" ry="23.487" transform="translate(1332.221 678.942)"/><ellipse cx="17.058" cy="16.939" rx="17.058" ry="16.939" transform="translate(1428.462 685.477)"/><ellipse cx="13.039" cy="12.948" rx="13.039" ry="12.948" transform="translate(1528.636 689.459)"/><ellipse cx="14.758" cy="14.655" rx="14.758" ry="14.655" transform="translate(1623.07 687.755)"/><ellipse cx="31.572" cy="31.351" rx="31.572" ry="31.351" transform="translate(7.427 766.147)"/><ellipse cx="13.526" cy="13.432" rx="13.526" ry="13.432" transform="translate(121.627 784.054)"/><ellipse cx="24.108" cy="23.939" rx="24.108" ry="23.939" transform="translate(207.199 773.553)"/><ellipse cx="30.252" cy="30.04" rx="30.252" ry="30.04" transform="translate(290.767 767.457)"/><ellipse cx="38.802" cy="38.531" rx="38.802" ry="38.531" transform="translate(376.384 758.973)"/><ellipse cx="25.444" cy="25.266" rx="25.444" ry="25.266" transform="translate(483.672 772.228)"/><ellipse cx="35.698" cy="35.447" rx="35.698" ry="35.447" transform="translate(567.563 762.054)"/><ellipse cx="16.957" cy="16.839" rx="16.957" ry="16.839" transform="translate(680.291 780.649)"/><ellipse cx="29.363" cy="29.157" rx="29.363" ry="29.157" transform="translate(762.002 768.34)"/><ellipse cx="29.547" cy="29.339" rx="29.547" ry="29.339" transform="translate(855.891 768.158)"/><ellipse cx="22.618" cy="22.46" rx="22.618" ry="22.46" transform="translate(956.916 775.032)"/><ellipse cx="33.274" cy="33.041" rx="33.274" ry="33.041" transform="translate(1040.283 764.459)"/><ellipse cx="15.987" cy="15.875" rx="15.987" ry="15.875" transform="translate(1151.782 781.612)"/><ellipse cx="33.2" cy="32.968" rx="33.2" ry="32.968" transform="translate(1228.481 764.532)"/><ellipse cx="20.41" cy="20.266" rx="20.41" ry="20.266" transform="translate(1335.51 777.224)"/><ellipse cx="17.403" cy="17.281" rx="17.403" ry="17.281" transform="translate(1428.118 780.207)"/><ellipse cx="27.215" cy="27.025" rx="27.215" ry="27.025" transform="translate(1514.46 770.47)"/><ellipse cx="37.432" cy="37.169" rx="37.432" ry="37.169" transform="translate(1600.397 760.333)"/><ellipse cx="19.267" cy="19.132" rx="19.267" ry="19.132" transform="translate(19.733 873.427)"/><ellipse cx="32.328" cy="32.102" rx="32.328" ry="32.102" transform="translate(102.825 860.448)"/><ellipse cx="13.399" cy="13.306" rx="13.399" ry="13.306" transform="translate(217.908 879.257)"/><ellipse cx="31.658" cy="31.436" rx="31.658" ry="31.436" transform="translate(289.381 861.114)"/><ellipse cx="22.582" cy="22.424" rx="22.582" ry="22.424" transform="translate(392.42 870.132)"/><ellipse cx="31.493" cy="31.273" rx="31.493" ry="31.273" transform="translate(477.675 861.277)"/><ellipse cx="36.26" cy="36.005" rx="36.26" ry="36.005" transform="translate(567.006 856.541)"/><ellipse cx="30.226" cy="30.015" rx="30.226" ry="30.015" transform="translate(667.071 862.536)"/><ellipse cx="15.777" cy="15.667" rx="15.777" ry="15.667" transform="translate(775.572 876.894)"/><ellipse cx="19.198" cy="19.064" rx="19.198" ry="19.064" transform="translate(866.252 873.495)"/><ellipse cx="21.131" cy="20.983" rx="21.131" ry="20.983" transform="translate(958.409 871.574)"/><ellipse cx="32.184" cy="31.958" rx="32.184" ry="31.958" transform="translate(1041.38 860.591)"/><ellipse cx="32.031" cy="31.807" rx="32.031" ry="31.807" transform="translate(1135.597 860.742)"/><ellipse cx="28.783" cy="28.581" rx="28.783" ry="28.581" transform="translate(1232.949 863.971)"/><ellipse cx="25.99" cy="25.808" rx="25.99" ry="25.808" transform="translate(1329.853 866.746)"/><ellipse cx="18.833" cy="18.701" rx="18.833" ry="18.701" transform="translate(1426.687 873.857)"/><ellipse cx="24.887" cy="24.713" rx="24.887" ry="24.713" transform="translate(1516.787 867.841)"/><ellipse cx="31.297" cy="31.077" rx="31.297" ry="31.077" transform="translate(1606.532 861.473)"/><ellipse cx="26.392" cy="26.207" rx="26.392" ry="26.207" transform="translate(12.607 961.406)"/><ellipse cx="12.949" cy="12.858" rx="12.949" ry="12.858" transform="translate(122.205 974.783)"/><ellipse cx="36.878" cy="36.62" rx="36.878" ry="36.62" transform="translate(194.429 950.97)"/><ellipse cx="19.223" cy="19.089" rx="19.223" ry="19.089" transform="translate(301.644 968.539)"/><ellipse cx="28.201" cy="28.004" rx="28.201" ry="28.004" transform="translate(386.864 959.605)"/><ellipse cx="30.379" cy="30.166" rx="30.379" ry="30.166" transform="translate(478.779 957.438)"/><ellipse cx="17.086" cy="16.966" rx="17.086" ry="16.966" transform="translate(586.06 970.666)"/><ellipse cx="13.846" cy="13.75" rx="13.846" ry="13.75" transform="translate(683.39 973.889)"/><ellipse cx="25.55" cy="25.371" rx="25.55" ry="25.371" transform="translate(765.811 962.243)"/><ellipse cx="16.37" cy="16.255" rx="16.37" ry="16.255" transform="translate(869.084 971.378)"/><ellipse cx="16.259" cy="16.145" rx="16.259" ry="16.145" transform="translate(963.299 971.489)"/><ellipse cx="38.537" cy="38.267" rx="38.537" ry="38.267" transform="translate(1034.986 949.32)"/><ellipse cx="21.239" cy="21.09" rx="21.239" ry="21.09" transform="translate(1146.485 966.533)"/><ellipse cx="35.803" cy="35.552" rx="35.803" ry="35.552" transform="translate(1225.848 952.041)"/><ellipse cx="38.989" cy="38.716" rx="38.989" ry="38.716" transform="translate(1316.673 948.87)"/><ellipse cx="25.303" cy="25.127" rx="25.303" ry="25.127" transform="translate(1420.217 962.488)"/><ellipse cx="36.967" cy="36.707" rx="36.967" ry="36.707" transform="translate(1504.708 950.883)"/><ellipse cx="23.873" cy="23.706" rx="23.873" ry="23.706" transform="translate(1613.955 963.912)"/><ellipse cx="34.503" cy="34.261" rx="34.503" ry="34.261" transform="translate(4.496 1048.382)"/><ellipse cx="28.669" cy="28.467" rx="28.669" ry="28.467" transform="translate(106.485 1054.196)"/><ellipse cx="32.004" cy="31.779" rx="32.004" ry="31.779" transform="translate(199.303 1050.873)"/><ellipse cx="28.136" cy="27.939" rx="28.136" ry="27.939" transform="translate(292.853 1054.726)"/><ellipse cx="37.701" cy="37.437" rx="37.701" ry="37.437" transform="translate(377.472 1045.194)"/><ellipse cx="20.77" cy="20.626" rx="20.77" ry="20.626" transform="translate(488.305 1062.066)"/><ellipse cx="18.465" cy="18.336" rx="18.465" ry="18.336" transform="translate(584.689 1064.364)"/><ellipse cx="28.566" cy="28.366" rx="28.566" ry="28.366" transform="translate(668.725 1054.298)"/><ellipse cx="33.992" cy="33.753" rx="33.992" ry="33.753" transform="translate(757.38 1048.892)"/><ellipse cx="16.19" cy="16.077" rx="16.19" ry="16.077" transform="translate(869.264 1066.63)"/><ellipse cx="36.631" cy="36.375" rx="36.631" ry="36.375" transform="translate(942.85 1046.26)"/><ellipse cx="35.756" cy="35.506" rx="35.756" ry="35.506" transform="translate(1037.785 1047.133)"/><ellipse cx="25.407" cy="25.229" rx="25.407" ry="25.229" transform="translate(1142.281 1057.447)"/><ellipse cx="30.629" cy="30.415" rx="30.629" ry="30.415" transform="translate(1231.082 1052.242)"/><ellipse cx="34.401" cy="34.16" rx="34.401" ry="34.16" transform="translate(1321.325 1048.483)"/><ellipse cx="18.124" cy="17.997" rx="18.124" ry="17.997" transform="translate(1427.396 1064.703)"/><ellipse cx="24.877" cy="24.702" rx="24.877" ry="24.702" transform="translate(1516.798 1057.975)"/><ellipse cx="16.254" cy="16.14" rx="16.254" ry="16.14" transform="translate(1621.575 1066.568)"/><ellipse cx="28.648" cy="28.446" rx="28.648" ry="28.446" transform="translate(10.352 1149.273)"/><ellipse cx="24.604" cy="24.432" rx="24.604" ry="24.432" transform="translate(110.549 1153.308)"/><ellipse cx="34.427" cy="34.185" rx="34.427" ry="34.185" transform="translate(196.88 1143.505)"/><ellipse cx="27.201" cy="27.011" rx="27.201" ry="27.011" transform="translate(293.776 1150.716)"/><ellipse cx="36.278" cy="36.025" rx="36.278" ry="36.025" transform="translate(378.879 1141.657)"/><ellipse cx="27.091" cy="26.902" rx="27.091" ry="26.902" transform="translate(482.038 1150.825)"/><ellipse cx="30.868" cy="30.651" rx="30.868" ry="30.651" transform="translate(572.363 1147.058)"/><ellipse cx="18.335" cy="18.206" rx="18.335" ry="18.206" transform="translate(678.919 1159.564)"/><ellipse cx="26.867" cy="26.678" rx="26.867" ry="26.678" transform="translate(764.496 1151.051)"/><ellipse cx="15.603" cy="15.495" rx="15.603" ry="15.495" transform="translate(869.852 1162.289)"/><ellipse cx="32.753" cy="32.523" rx="32.753" ry="32.523" transform="translate(946.743 1145.175)"/><ellipse cx="18.935" cy="18.802" rx="18.935" ry="18.802" transform="translate(1054.712 1158.966)"/><ellipse cx="16.893" cy="16.775" rx="16.893" ry="16.775" transform="translate(1150.869 1161.002)"/><ellipse cx="27.371" cy="27.18" rx="27.371" ry="27.18" transform="translate(1234.376 1150.546)"/><ellipse cx="18.288" cy="18.16" rx="18.288" ry="18.16" transform="translate(1337.66 1159.611)"/><ellipse cx="18.832" cy="18.699" rx="18.832" ry="18.699" transform="translate(1426.689 1159.069)"/><ellipse cx="35.22" cy="34.974" rx="35.22" ry="34.974" transform="translate(1506.455 1142.713)"/><ellipse cx="23.425" cy="23.261" rx="23.425" ry="23.261" transform="translate(1614.404 1154.484)"/><ellipse cx="12.904" cy="12.814" rx="12.904" ry="12.814" transform="translate(26.095 1260.061)"/><ellipse cx="33.107" cy="32.874" rx="33.107" ry="32.874" transform="translate(102.047 1239.873)"/><ellipse cx="29.766" cy="29.557" rx="29.766" ry="29.557" transform="translate(201.542 1243.211)"/><ellipse cx="31.707" cy="31.485" rx="31.707" ry="31.485" transform="translate(289.332 1241.271)"/><ellipse cx="23.665" cy="23.498" rx="23.665" ry="23.498" transform="translate(391.349 1249.309)"/><ellipse cx="25.669" cy="25.489" rx="25.669" ry="25.489" transform="translate(483.448 1247.306)"/><ellipse cx="26.973" cy="26.784" rx="26.973" ry="26.784" transform="translate(576.234 1246.002)"/><ellipse cx="30.744" cy="30.528" rx="30.744" ry="30.528" transform="translate(666.555 1242.234)"/><ellipse cx="32.726" cy="32.498" rx="32.726" ry="32.498" transform="translate(758.644 1240.252)"/><ellipse cx="20.787" cy="20.642" rx="20.787" ry="20.642" transform="translate(864.661 1252.184)"/><ellipse cx="22.746" cy="22.586" rx="22.746" ry="22.586" transform="translate(956.788 1250.227)"/><ellipse cx="29.387" cy="29.181" rx="29.387" ry="29.181" transform="translate(1044.194 1243.591)"/><ellipse cx="15.627" cy="15.517" rx="15.627" ry="15.517" transform="translate(1152.146 1257.341)"/><ellipse cx="38.138" cy="37.87" rx="38.138" ry="37.87" transform="translate(1223.485 1234.844)"/><ellipse cx="21.244" cy="21.095" rx="21.244" ry="21.095" transform="translate(1334.664 1251.728)"/><ellipse cx="34.252" cy="34.012" rx="34.252" ry="34.012" transform="translate(1411.269 1238.728)"/><ellipse cx="13.341" cy="13.248" rx="13.341" ry="13.248" transform="translate(1528.334 1259.624)"/><ellipse cx="34.082" cy="33.843" rx="34.082" ry="33.843" transform="translate(1603.747 1238.898)"/><ellipse cx="11.801" cy="11.719" rx="11.801" ry="11.719" transform="translate(27.198 1352.429)"/><ellipse cx="26.207" cy="26.024" rx="26.207" ry="26.024" transform="translate(108.947 1341.827)"/><ellipse cx="35.254" cy="35.007" rx="35.254" ry="35.007" transform="translate(196.053 1332.773)"/><ellipse cx="19.707" cy="19.569" rx="19.707" ry="19.569" transform="translate(301.168 1348.332)"/><ellipse cx="31.99" cy="31.766" rx="31.99" ry="31.766" transform="translate(383.118 1336.04)"/><ellipse cx="31.292" cy="31.073" rx="31.292" ry="31.073" transform="translate(477.875 1336.738)"/><ellipse cx="27.956" cy="27.759" rx="27.956" ry="27.759" transform="translate(575.257 1340.078)"/><ellipse cx="23.608" cy="23.444" rx="23.608" ry="23.444" transform="translate(673.664 1344.427)"/><ellipse cx="16.775" cy="16.657" rx="16.775" ry="16.657" transform="translate(774.575 1351.267)"/><ellipse cx="13.116" cy="13.025" rx="13.116" ry="13.025" transform="translate(872.341 1351.123)"/><ellipse cx="23.273" cy="23.11" rx="23.273" ry="23.11" transform="translate(956.259 1344.764)"/><ellipse cx="32.688" cy="32.459" rx="32.688" ry="32.459" transform="translate(1040.872 1335.341)"/><ellipse cx="20.018" cy="19.878" rx="20.018" ry="19.878" transform="translate(1147.717 1348.02)"/><ellipse cx="26.562" cy="26.376" rx="26.562" ry="26.376" transform="translate(1235.195 1341.473)"/><ellipse cx="24.573" cy="24.401" rx="24.573" ry="24.401" transform="translate(1331.29 1343.463)"/><ellipse cx="25.005" cy="24.829" rx="25.005" ry="24.829" transform="translate(1420.516 1343.032)"/><ellipse cx="38.082" cy="37.815" rx="38.082" ry="37.815" transform="translate(1503.593 1329.942)"/><ellipse cx="36.793" cy="36.534" rx="36.793" ry="36.534" transform="translate(1601.036 1331.233)"/><ellipse cx="30.173" cy="29.962" rx="30.173" ry="29.962" transform="translate(8.826 1430.43)"/><ellipse cx="16.457" cy="16.341" rx="16.457" ry="16.341" transform="translate(118.697 1444.051)"/><ellipse cx="16.184" cy="16.071" rx="16.184" ry="16.071" transform="translate(215.123 1444.321)"/><ellipse cx="27.99" cy="27.794" rx="27.99" ry="27.794" transform="translate(292.997 1432.598)"/><ellipse cx="36.239" cy="35.986" rx="36.239" ry="35.986" transform="translate(378.917 1424.406)"/><ellipse cx="19.861" cy="19.721" rx="19.861" ry="19.721" transform="translate(489.206 1440.671)"/><ellipse cx="17.315" cy="17.194" rx="17.315" ry="17.194" transform="translate(585.832 1443.198)"/><ellipse cx="34.746" cy="34.501" rx="34.746" ry="34.501" transform="translate(662.569 1425.891)"/><ellipse cx="17.309" cy="17.188" rx="17.309" ry="17.188" transform="translate(774.042 1443.204)"/><ellipse cx="36.361" cy="36.106" rx="36.361" ry="36.106" transform="translate(849.068 1424.286)"/><ellipse cx="38.106" cy="37.839" rx="38.106" ry="37.839" transform="translate(941.37 1422.554)"/><ellipse cx="34.346" cy="34.105" rx="34.346" ry="34.105" transform="translate(1039.204 1426.287)"/><ellipse cx="13.853" cy="13.756" rx="13.853" ry="13.756" transform="translate(1153.935 1446.636)"/><ellipse cx="16.946" cy="16.827" rx="16.946" ry="16.827" transform="translate(1244.918 1443.565)"/><ellipse cx="14.415" cy="14.314" rx="14.415" ry="14.314" transform="translate(1334.951 1446.078)"/><ellipse cx="14.379" cy="14.278" rx="14.379" ry="14.278" transform="translate(1431.142 1446.114)"/><ellipse cx="26.789" cy="26.602" rx="26.789" ry="26.602" transform="translate(1514.886 1433.791)"/><ellipse cx="28.047" cy="27.85" rx="28.047" ry="27.85" transform="translate(1609.782 1432.542)"/><ellipse cx="15.553" cy="15.445" rx="15.553" ry="15.445" transform="translate(23.446 1541.191)"/><ellipse cx="29.11" cy="28.907" rx="29.11" ry="28.907" transform="translate(106.043 1527.729)"/><ellipse cx="17.552" cy="17.428" rx="17.552" ry="17.428" transform="translate(213.755 1539.208)"/><ellipse cx="34.792" cy="34.548" rx="34.792" ry="34.548" transform="translate(286.291 1522.088)"/><ellipse cx="33.074" cy="32.841" rx="33.074" ry="32.841" transform="translate(382.047 1523.795)"/><ellipse cx="35.187" cy="34.94" rx="35.187" ry="34.94" transform="translate(474.014 1521.696)"/><ellipse cx="19.194" cy="19.06" rx="19.194" ry="19.06" transform="translate(583.964 1537.576)"/><ellipse cx="35.242" cy="34.995" rx="35.242" ry="34.995" transform="translate(662.074 1521.641)"/><ellipse cx="18.142" cy="18.015" rx="18.142" ry="18.015" transform="translate(773.21 1538.622)"/><ellipse cx="18.136" cy="18.01" rx="18.136" ry="18.01" transform="translate(867.315 1538.626)"/><ellipse cx="34.043" cy="33.805" rx="34.043" ry="33.805" transform="translate(945.448 1522.831)"/><ellipse cx="21.664" cy="21.512" rx="21.664" ry="21.512" transform="translate(1051.966 1535.123)"/><ellipse cx="27.016" cy="26.827" rx="27.016" ry="26.827" transform="translate(1140.658 1529.809)"/><ellipse cx="34.05" cy="33.813" rx="34.05" ry="33.813" transform="translate(1227.621 1522.823)"/><ellipse cx="15.431" cy="15.322" rx="15.431" ry="15.322" transform="translate(1333.935 1541.313)"/><ellipse cx="25.679" cy="25.5" rx="25.679" ry="25.5" transform="translate(1419.842 1531.136)"/><ellipse cx="23.078" cy="22.917" rx="23.078" ry="22.917" transform="translate(1518.596 1533.719)"/><ellipse cx="37.832" cy="37.567" rx="37.832" ry="37.567" transform="translate(1599.997 1519.069)"/><ellipse cx="14.779" cy="14.676" rx="14.779" ry="14.676" transform="translate(24.22 1638.205)"/><ellipse cx="17.368" cy="17.247" rx="17.368" ry="17.247" transform="translate(117.786 1635.634)"/><ellipse cx="21.788" cy="21.635" rx="21.788" ry="21.635" transform="translate(209.52 1631.246)"/><ellipse cx="13.399" cy="13.306" rx="13.399" ry="13.306" transform="translate(314.062 1639.575)"/><ellipse cx="16.904" cy="16.785" rx="16.904" ry="16.785" transform="translate(398.036 1636.096)"/><ellipse cx="30.932" cy="30.715" rx="30.932" ry="30.715" transform="translate(478.232 1622.166)"/><ellipse cx="26.473" cy="26.289" rx="26.473" ry="26.289" transform="translate(576.73 1626.592)"/><ellipse cx="30.059" cy="29.849" rx="30.059" ry="29.849" transform="translate(667.238 1623.032)"/><ellipse cx="28.806" cy="28.603" rx="28.806" ry="28.603" transform="translate(762.559 1624.278)"/><ellipse cx="19.441" cy="19.305" rx="19.441" ry="19.305" transform="translate(866.01 1633.577)"/><ellipse cx="15.745" cy="15.635" rx="15.745" ry="15.635" transform="translate(963.815 1637.246)"/><ellipse cx="38.312" cy="38.044" rx="38.312" ry="38.044" transform="translate(1035.213 1614.837)"/><ellipse cx="21.571" cy="21.421" rx="21.571" ry="21.421" transform="translate(1146.15 1631.46)"/><ellipse cx="23.823" cy="23.656" rx="23.823" ry="23.656" transform="translate(1237.964 1629.224)"/><ellipse cx="16.509" cy="16.393" rx="16.509" ry="16.393" transform="translate(1339.464 1636.488)"/><ellipse cx="30.375" cy="30.163" rx="30.375" ry="30.163" transform="translate(1415.146 1622.718)"/><ellipse cx="20.632" cy="20.488" rx="20.632" ry="20.488" transform="translate(1521.043 1632.393)"/><ellipse cx="31.993" cy="31.769" rx="31.993" ry="31.769" transform="translate(1605.836 1621.112)"/></g></g></g></svg>