<svg xmlns="http://www.w3.org/2000/svg" xmlns:xlink="http://www.w3.org/1999/xlink" width="1702" height="1583" viewBox="0 0 1702 1583"><defs><style>.a{fill:none;}.b{clip-path:url(#a);}</style><clipPath id="a"><rect class="a" width="1702" height="1583" transform="translate(0.5 2451.5)"/></clipPath></defs><g class="b" transform="translate(-0.5 -2451.5)"><path d="M23723,25721.107v-1053h476.287c19.111-74.82,48.736-144.609,88.094-207.527a672.455,672.455,0,0,1,148.145-167.434c59.072-47.658,126.18-85.1,199.439-111.293,18.57-6.629,37.742-12.607,57.006-17.764,19.494-5.217,39.557-9.729,59.633-13.4,20.332-3.73,41.24-6.713,62.131-8.875,21.158-2.187,42.867-3.59,64.525-4.164,9.391-.3,18.887-.457,28.234-.457,20.76,0,41.59.762,61.91,2.252s40.682,3.758,60.518,6.732,39.668,6.752,58.941,11.2c19.295,4.461,38.545,9.723,57.213,15.643,14.338,4.551,28.668,9.592,42.6,14.994,13.854,5.371,27.68,11.238,41.088,17.441,13.361,6.178,26.66,12.846,39.518,19.818,12.826,6.959,25.563,14.4,37.867,22.127,12.258,7.7,24.426,15.893,36.168,24.369,11.723,8.457,23.3,17.383,34.406,26.531,11.121,9.166,22.088,18.8,32.584,28.641,10.477,9.813,20.807,20.135,30.7,30.662s19.578,21.516,28.752,32.625c9.205,11.135,18.2,22.74,26.744,34.508,1.82,2.5,3.686,5.113,5.563,7.766v235.537l-87.072.346v1052.727Z" transform="translate(-23722.996 -21686.109)"/></g></svg>