<svg xmlns="http://www.w3.org/2000/svg" width="381.9" height="131.964" viewBox="0 0 381.9 131.964"><defs><style>.a{fill:#fff;}</style></defs><path class="a" d="M19,25.8H1.4V16.5H33.8v8.7l-19.5,22H35v9.3H0V47.2Z"/><path class="a" d="M39.9,56.7V16.5H51.3V56.6H39.9Z"/><circle class="a" cx="6.7" cy="6.7" r="6.7" transform="translate(38.9 0)"/><path class="a" d="M140.6,21.5a17.1,17.1,0,0,0-12.8-5.7,15.251,15.251,0,0,0-12,5.2V3H104.6V56.6h11.2V51.3a14.585,14.585,0,0,0,11.8,5.9c4.8,0,9-2,12.7-6.1a21.28,21.28,0,0,0,5.6-15C146,30.2,144.2,25.3,140.6,21.5ZM125.3,47.7c-5.9,0-9.9-5-9.9-11.6,0-6.4,4-11.2,9.9-11.2s9.9,4.7,9.9,11.2C135.3,42.8,131.2,47.7,125.3,47.7Z"/><path class="a" d="M169.9,47.9a9.239,9.239,0,0,1-6.7-3.6l28.1-8.9A22.43,22.43,0,0,0,187,23.3c-3.6-4.5-8.4-6.9-14.5-7.4a20.893,20.893,0,0,0-15.6,4.8c-4.5,3.5-6.7,8.4-7.2,14.2a19.907,19.907,0,0,0,4.9,15.2,20.816,20.816,0,0,0,14.7,7.2c10.6.8,17.7-6.2,18.5-7.1l-6.5-6.9C180.7,44,176.1,48.4,169.9,47.9Zm-2.3-22a10.453,10.453,0,0,1,12.7,4.2l-19.9,6.4A10.149,10.149,0,0,1,167.6,25.9Z"/><path class="a" d="M214.9,47.9a9.239,9.239,0,0,1-6.7-3.6l28.1-8.9A22.43,22.43,0,0,0,232,23.3c-3.6-4.5-8.4-6.9-14.5-7.4a20.893,20.893,0,0,0-15.6,4.8c-4.5,3.5-6.7,8.4-7.2,14.2a19.907,19.907,0,0,0,4.9,15.2,20.816,20.816,0,0,0,14.7,7.2c10.6.8,17.7-6.2,18.5-7.1l-6.5-6.9C225.7,44,221.1,48.4,214.9,47.9Zm-2.3-22a10.453,10.453,0,0,1,12.7,4.2l-19.9,6.4A10.26,10.26,0,0,1,212.6,25.9Z"/><path class="a" d="M87.6,51.1v1.4c0,4.5-1,9.9-5.5,12.7-9.5,6-19.5-4.3-19.5-4.3l-7.2,7.4a26.939,26.939,0,0,0,20.4,8.9,22,22,0,0,0,14.8-5.1c4.7-4.2,7.8-11.1,7.8-22V16.5H87.2v6.3a15.57,15.57,0,0,0-12.7-7.1c-11.2,0-18.8,8.5-18.8,20.9,0,12.1,7.3,20.7,18.5,20.7A16.949,16.949,0,0,0,87.6,51.1ZM77.3,47.8c-5.9,0-9.9-5-9.9-11.6,0-6.4,4-11.2,9.9-11.2s9.9,4.7,9.9,11.2C87.2,42.9,83.1,47.8,77.3,47.8Z"/><path class="a" d="M192.6,131.2V91.1H204v40.1Z"/><circle class="a" cx="6.7" cy="6.7" r="6.7" transform="translate(191.6 74.5)"/><path class="a" d="M268.5,108.8v22.4H257.3V91.1h11.2v4.4c3.4-3.4,7.2-5.2,11.4-5.2a13.98,13.98,0,0,1,10.6,4.5c2.9,3,4.3,7,4.3,12v24.4H283.6V108.5c0-6.2-2.3-9.3-6.8-9.3a8.407,8.407,0,0,0-5.9,2.4Q268.5,104,268.5,108.8Z"/><path class="a" d="M360.5,122.5a9.239,9.239,0,0,1-6.7-3.6l28.1-8.9a22.43,22.43,0,0,0-4.3-12.1c-3.6-4.5-8.4-6.9-14.5-7.4a20.893,20.893,0,0,0-15.6,4.8c-4.5,3.5-6.7,8.4-7.2,14.2a19.907,19.907,0,0,0,4.9,15.2,20.816,20.816,0,0,0,14.7,7.2c10.6.8,17.7-6.2,18.5-7.1l-6.5-6.9C371.3,118.5,366.7,122.9,360.5,122.5Zm-2.3-22.1a10.453,10.453,0,0,1,12.7,4.2L351,111A10.409,10.409,0,0,1,358.2,100.4Z"/><path class="a" d="M238.7,91.1v3.3a15.157,15.157,0,0,0-10.5-4A19.547,19.547,0,0,0,214.5,96c-3.9,3.7-5.9,8.7-5.9,15s1.9,11.3,5.8,15.1a18.551,18.551,0,0,0,13.5,5.8,16.753,16.753,0,0,0,10.9-3.9v3.3H250V91.1Zm-9.5,31.2c-5.9,0-9.9-5-9.9-11.6,0-6.4,4-11.2,9.9-11.2s9.9,4.7,9.9,11.2C239.2,117.3,235.1,122.3,229.2,122.3Z"/><path class="a" d="M153,131.2V77.6h12v53.6Z"/><path class="a" d="M172.5,131.2V77.6h12.1v53.6Z"/><path class="a" d="M322,121.8c3.7,0,7.1-1.9,10.1-5.6l6.7,7.5q-7.8,8.1-16.8,8.1a21.991,21.991,0,0,1-15.3-5.7c-4.2-3.8-6.2-8.8-6.2-14.9q0-9.3,6.3-15a21.246,21.246,0,0,1,15-5.8,23.47,23.47,0,0,1,8.8,1.8,22.06,22.06,0,0,1,7.8,5.3l-5.8,7.6a15.117,15.117,0,0,0-4.7-3.6,14.275,14.275,0,0,0-5.6-1.3,11.091,11.091,0,0,0-7.6,2.9,11.6,11.6,0,0,0,0,16A10.64,10.64,0,0,0,322,121.8Z"/><path class="a" d="M134.2,91.1v3.3a15.157,15.157,0,0,0-10.5-4A19.547,19.547,0,0,0,110,96c-3.9,3.7-5.9,8.7-5.9,15s1.9,11.3,5.8,15.1a18.551,18.551,0,0,0,13.5,5.8,16.753,16.753,0,0,0,10.9-3.9v3.3h11.3V91.1Zm-9.5,31.2c-5.9,0-9.9-5-9.9-11.6,0-6.4,4-11.2,9.9-11.2s9.9,4.7,9.9,11.2C134.7,117.3,130.6,122.3,124.7,122.3Z"/></svg>