<svg xmlns="http://www.w3.org/2000/svg" xmlns:xlink="http://www.w3.org/1999/xlink" viewBox="0 0 1920.654 188"><defs><style>.a{fill:#fff;stroke:#000;}.b{clip-path:url(#a);}.c{fill:none;stroke:#00a7d0;stroke-width:7px;}</style><clipPath id="a"><rect class="a" width="187.45" height="407.86" transform="translate(1920.655 159.205) rotate(90)"/></clipPath></defs><g transform="translate(0 -159)"><g class="b"><g transform="translate(1920.655 159.205) rotate(90)"><path d="M319.91,12.64a2.51,2.51,0,1,0-2.51-2.51,2.505,2.505,0,0,0,2.51,2.51"/><path d="M319.91,27.71a2.53,2.53,0,1,0-2.53-2.53,2.527,2.527,0,0,0,2.53,2.53"/><path d="M319.91,42.82a2.58,2.58,0,1,0-2.58-2.58,2.58,2.58,0,0,0,2.58,2.58"/><path d="M319.91,57.92a2.62,2.62,0,1,0-2.62-2.62,2.623,2.623,0,0,0,2.62,2.62"/><path d="M319.91,73.05a2.69,2.69,0,1,0-2.69-2.69,2.691,2.691,0,0,0,2.69,2.69"/><path d="M319.91,88.23a2.81,2.81,0,1,0-2.81-2.81,2.812,2.812,0,0,0,2.81,2.81"/><path d="M319.91,103.36a2.88,2.88,0,1,0-2.88-2.88,2.881,2.881,0,0,0,2.88,2.88"/><path d="M319.91,118.5a2.97,2.97,0,1,0-2.97-2.97,2.97,2.97,0,0,0,2.97,2.97"/><path d="M319.91,133.77a3.18,3.18,0,1,0-3.18-3.18,3.175,3.175,0,0,0,3.18,3.18"/><path d="M319.91,148.95a3.31,3.31,0,1,0-3.31-3.31,3.308,3.308,0,0,0,3.31,3.31"/><path d="M319.91,164.17a3.47,3.47,0,1,0-3.47-3.47,3.472,3.472,0,0,0,3.47,3.47"/><path d="M319.91,179.41a3.64,3.64,0,1,0-3.64-3.64,3.64,3.64,0,0,0,3.64,3.64"/><path d="M319.91,194.61a3.79,3.79,0,1,0-3.78-3.79,3.788,3.788,0,0,0,3.78,3.79"/><path d="M319.91,209.86a3.98,3.98,0,1,0-3.98-3.98,3.978,3.978,0,0,0,3.98,3.98"/><path d="M319.91,225.02a4.09,4.09,0,1,0-4.09-4.09,4.089,4.089,0,0,0,4.09,4.09"/><path d="M319.91,239.92a3.93,3.93,0,1,0-3.93-3.93,3.931,3.931,0,0,0,3.93,3.93"/><path d="M319.91,254.98a3.93,3.93,0,1,0-3.93-3.93,3.931,3.931,0,0,0,3.93,3.93"/><path d="M319.91,270.16a4.05,4.05,0,1,0-4.05-4.05,4.046,4.046,0,0,0,4.05,4.05"/><path d="M319.91,285.2a4.03,4.03,0,1,0-4.03-4.03,4.031,4.031,0,0,0,4.03,4.03"/><path d="M319.91,300.35a4.12,4.12,0,1,0-4.12-4.12,4.121,4.121,0,0,0,4.12,4.12"/><path d="M319.91,315.6a4.32,4.32,0,1,0-4.32-4.32,4.321,4.321,0,0,0,4.32,4.32"/><path d="M319.91,330.69a4.35,4.35,0,1,0-4.35-4.35,4.353,4.353,0,0,0,4.35,4.35"/><path d="M319.91,346.03a4.64,4.64,0,1,0-4.64-4.64,4.643,4.643,0,0,0,4.64,4.64"/><path d="M319.91,361.45a4.99,4.99,0,1,0-4.99-4.99,4.985,4.985,0,0,0,4.99,4.99"/><path d="M319.91,376.79a5.27,5.27,0,1,0-5.27-5.27,5.271,5.271,0,0,0,5.27,5.27"/><path d="M319.91,392a5.43,5.43,0,1,0-5.43-5.43,5.429,5.429,0,0,0,5.43,5.43"/><path d="M319.91,407.17a5.54,5.54,0,1,0-5.54-5.54,5.54,5.54,0,0,0,5.54,5.54"/><path d="M306.85,5.11a2.51,2.51,0,1,0-2.51-2.51,2.505,2.505,0,0,0,2.51,2.51"/><path d="M306.85,20.17a2.51,2.51,0,1,0-2.51-2.51,2.505,2.505,0,0,0,2.51,2.51"/><path d="M306.85,35.22a2.51,2.51,0,1,0-2.51-2.51,2.505,2.505,0,0,0,2.51,2.51"/><path d="M306.85,50.33a2.56,2.56,0,1,0-2.56-2.56,2.559,2.559,0,0,0,2.56,2.56"/><path d="M306.85,65.45a2.62,2.62,0,1,0-2.62-2.62,2.623,2.623,0,0,0,2.62,2.62"/><path d="M306.85,80.59a2.7,2.7,0,1,0-2.7-2.7,2.7,2.7,0,0,0,2.7,2.7"/><path d="M306.85,95.74a2.79,2.79,0,1,0-2.79-2.79,2.791,2.791,0,0,0,2.79,2.79"/><path d="M306.85,110.87a2.86,2.86,0,1,0-2.86-2.86,2.859,2.859,0,0,0,2.86,2.86"/><path d="M306.85,126a2.93,2.93,0,1,0-2.93-2.93,2.928,2.928,0,0,0,2.93,2.93"/><path d="M306.85,141.23a3.11,3.11,0,1,0-3.11-3.11,3.107,3.107,0,0,0,3.11,3.11"/><path d="M306.85,156.45a3.27,3.27,0,1,0-3.27-3.27,3.265,3.265,0,0,0,3.27,3.27"/><path d="M306.85,171.65a3.41,3.41,0,1,0-3.41-3.41,3.408,3.408,0,0,0,3.41,3.41"/><path d="M306.85,186.94a3.64,3.64,0,1,0-3.64-3.64,3.64,3.64,0,0,0,3.64,3.64"/><path d="M306.85,202.1a3.75,3.75,0,1,0-3.75-3.75,3.751,3.751,0,0,0,3.75,3.75"/><path d="M306.85,217.32a3.91,3.91,0,1,0-3.91-3.91,3.909,3.909,0,0,0,3.91,3.91"/><path d="M306.85,232.32a3.86,3.86,0,1,0-3.86-3.86,3.862,3.862,0,0,0,3.86,3.86"/><path d="M306.85,247.38a3.86,3.86,0,1,0-3.86-3.86,3.862,3.862,0,0,0,3.86,3.86"/><path d="M306.85,262.42a3.84,3.84,0,1,0-3.84-3.84,3.841,3.841,0,0,0,3.84,3.84"/><path d="M306.85,277.6a3.96,3.96,0,1,0-3.96-3.96,3.956,3.956,0,0,0,3.96,3.96"/><path d="M306.85,292.82a4.12,4.12,0,1,0-4.12-4.12,4.121,4.121,0,0,0,4.12,4.12"/><path d="M306.85,307.98a4.23,4.23,0,1,0-4.23-4.23,4.232,4.232,0,0,0,4.23,4.23"/><path d="M306.85,323.06a4.25,4.25,0,1,0-4.25-4.25,4.253,4.253,0,0,0,4.25,4.25"/><path d="M306.85,338.19a4.32,4.32,0,1,0-4.32-4.32,4.321,4.321,0,0,0,4.32,4.32"/><path d="M306.85,353.46a4.53,4.53,0,1,0-4.53-4.53,4.532,4.532,0,0,0,4.53,4.53"/><path d="M306.85,369.1a5.11,5.11,0,1,0-5.11-5.11,5.113,5.113,0,0,0,5.11,5.11"/><path d="M306.85,384.37a5.33,5.33,0,1,0-5.33-5.33,5.328,5.328,0,0,0,5.33,5.33"/><path d="M306.85,399.59a5.49,5.49,0,1,0-5.49-5.49,5.493,5.493,0,0,0,5.49,5.49"/><path d="M293.78,12.64a2.51,2.51,0,1,0-2.51-2.51,2.505,2.505,0,0,0,2.51,2.51"/><path d="M293.78,27.69a2.51,2.51,0,1,0-2.51-2.51,2.505,2.505,0,0,0,2.51,2.51"/><path d="M293.78,42.75a2.51,2.51,0,1,0-2.51-2.51,2.505,2.505,0,0,0,2.51,2.51"/><path d="M293.78,57.83a2.53,2.53,0,1,0-2.53-2.53,2.527,2.527,0,0,0,2.53,2.53"/><path d="M293.78,72.96a2.6,2.6,0,1,0-2.6-2.6,2.6,2.6,0,0,0,2.6,2.6"/><path d="M293.78,88.07a2.65,2.65,0,1,0-2.65-2.65,2.655,2.655,0,0,0,2.65,2.65"/><path d="M293.78,103.21a2.74,2.74,0,1,0-2.74-2.74,2.744,2.744,0,0,0,2.74,2.74"/><path d="M293.78,118.36a2.83,2.83,0,1,0-2.83-2.83,2.834,2.834,0,0,0,2.83,2.83"/><path d="M293.78,133.54a2.95,2.95,0,1,0-2.95-2.95,2.949,2.949,0,0,0,2.95,2.95"/><path d="M293.78,148.69a3.04,3.04,0,1,0-3.04-3.04,3.039,3.039,0,0,0,3.04,3.04"/><path d="M293.78,163.99a3.29,3.29,0,1,0-3.29-3.29,3.286,3.286,0,0,0,3.29,3.29"/><path d="M293.78,179.19a3.43,3.43,0,1,0-3.43-3.43,3.436,3.436,0,0,0,3.43,3.43"/><path d="M293.78,194.45a3.63,3.63,0,1,0-3.63-3.63,3.63,3.63,0,0,0,3.63,3.63"/><path d="M293.78,209.66a3.79,3.79,0,1,0-3.79-3.79,3.788,3.788,0,0,0,3.79,3.79"/><path d="M293.78,224.63a3.7,3.7,0,1,0-3.7-3.7,3.7,3.7,0,0,0,3.7,3.7"/><path d="M293.78,239.69a3.7,3.7,0,1,0-3.7-3.7,3.7,3.7,0,0,0,3.7,3.7"/><path d="M293.78,254.91a3.86,3.86,0,1,0-3.86-3.86,3.862,3.862,0,0,0,3.86,3.86"/><path d="M293.78,269.91a3.8,3.8,0,1,0-3.8-3.8,3.8,3.8,0,0,0,3.8,3.8"/><path d="M293.78,285.13a3.96,3.96,0,1,0-3.96-3.96,3.956,3.956,0,0,0,3.96,3.96"/><path d="M293.78,300.31a4.09,4.09,0,1,0-4.09-4.09,4.089,4.089,0,0,0,4.09,4.09"/><path d="M293.78,315.48a4.19,4.19,0,1,0-4.19-4.19,4.189,4.189,0,0,0,4.19,4.19"/><path d="M293.78,330.68a4.33,4.33,0,1,0-4.33-4.33,4.332,4.332,0,0,0,4.33,4.33"/><path d="M293.78,345.84a4.44,4.44,0,1,0-4.44-4.44,4.443,4.443,0,0,0,4.44,4.44"/><path d="M293.78,361.22a4.76,4.76,0,1,0-4.76-4.76,4.759,4.759,0,0,0,4.76,4.76"/><path d="M293.78,376.7a5.18,5.18,0,1,0-5.18-5.18,5.181,5.181,0,0,0,5.18,5.18"/><path d="M293.78,391.81a5.24,5.24,0,1,0-5.24-5.24,5.245,5.245,0,0,0,5.24,5.24"/><path d="M293.78,407.24a5.61,5.61,0,1,0-5.61-5.61,5.608,5.608,0,0,0,5.61,5.61"/><path d="M280.72,5.11a2.51,2.51,0,1,0-2.51-2.51,2.505,2.505,0,0,0,2.51,2.51"/><path d="M280.72,20.17a2.51,2.51,0,1,0-2.51-2.51,2.505,2.505,0,0,0,2.51,2.51"/><path d="M280.72,35.22a2.51,2.51,0,1,0-2.51-2.51,2.505,2.505,0,0,0,2.51,2.51"/><path d="M280.72,50.28a2.51,2.51,0,1,0-2.51-2.51,2.505,2.505,0,0,0,2.51,2.51"/><path d="M280.72,65.34a2.51,2.51,0,1,0-2.51-2.51,2.505,2.505,0,0,0,2.51,2.51"/><path d="M280.72,80.47a2.58,2.58,0,1,0-2.58-2.58,2.58,2.58,0,0,0,2.58,2.58"/><path d="M280.72,95.58a2.63,2.63,0,1,0-2.63-2.63,2.633,2.633,0,0,0,2.63,2.63"/><path d="M280.72,110.76a2.76,2.76,0,1,0-2.76-2.76,2.759,2.759,0,0,0,2.76,2.76"/><path d="M280.72,125.87a2.81,2.81,0,1,0-2.81-2.81,2.812,2.812,0,0,0,2.81,2.81"/><path d="M280.72,141.04a2.92,2.92,0,1,0-2.92-2.92,2.923,2.923,0,0,0,2.92,2.92"/><path d="M280.72,156.23a3.06,3.06,0,1,0-3.06-3.06,3.06,3.06,0,0,0,3.06,3.06"/><path d="M280.72,171.52a3.29,3.29,0,1,0-3.29-3.29,3.286,3.286,0,0,0,3.29,3.29"/><path d="M280.72,186.65a3.36,3.36,0,1,0-3.36-3.36,3.354,3.354,0,0,0,3.36,3.36"/><path d="M280.72,201.9a3.55,3.55,0,1,0-3.55-3.55,3.551,3.551,0,0,0,3.55,3.55"/><path d="M280.72,217.1a3.7,3.7,0,1,0-3.7-3.7,3.7,3.7,0,0,0,3.7,3.7"/><path d="M280.72,231.95a3.48,3.48,0,1,0-3.48-3.48,3.482,3.482,0,0,0,3.48,3.48"/><path d="M280.72,247.13a3.61,3.61,0,1,0-3.61-3.61,3.615,3.615,0,0,0,3.61,3.61"/><path d="M280.72,262.28a3.7,3.7,0,1,0-3.7-3.7,3.7,3.7,0,0,0,3.7,3.7"/><path d="M280.72,277.48a3.84,3.84,0,1,0-3.84-3.84,3.841,3.841,0,0,0,3.84,3.84"/><path d="M280.72,292.69a4,4,0,1,0-4-4,4,4,0,0,0,4,4"/><path d="M280.72,307.77a4.02,4.02,0,1,0-4.02-4.02,4.02,4.02,0,0,0,4.02,4.02"/><path d="M280.72,323.09a4.28,4.28,0,1,0-4.28-4.28,4.285,4.285,0,0,0,4.28,4.28"/><path d="M280.72,338.24a4.37,4.37,0,1,0-4.37-4.37,4.374,4.374,0,0,0,4.37,4.37"/><path d="M280.72,353.4a4.48,4.48,0,1,0-4.48-4.48,4.479,4.479,0,0,0,4.48,4.48"/><path d="M280.72,368.87a4.88,4.88,0,1,0-4.88-4.88,4.88,4.88,0,0,0,4.88,4.88"/><path d="M280.72,384.05a5.01,5.01,0,1,0-5.01-5.01,5.006,5.006,0,0,0,5.01,5.01"/><path d="M280.72,399.37a5.27,5.27,0,1,0-5.27-5.27,5.271,5.271,0,0,0,5.27,5.27"/><path d="M267.66,12.64a2.51,2.51,0,1,0-2.51-2.51,2.505,2.505,0,0,0,2.51,2.51"/><path d="M267.66,27.69a2.51,2.51,0,1,0-2.51-2.51,2.505,2.505,0,0,0,2.51,2.51"/><path d="M267.66,42.75a2.51,2.51,0,1,0-2.51-2.51,2.505,2.505,0,0,0,2.51,2.51"/><path d="M267.66,57.81a2.51,2.51,0,1,0-2.51-2.51,2.505,2.505,0,0,0,2.51,2.51"/><path d="M267.66,72.87a2.51,2.51,0,1,0-2.51-2.51,2.505,2.505,0,0,0,2.51,2.51"/><path d="M267.66,87.94a2.53,2.53,0,1,0-2.53-2.53,2.527,2.527,0,0,0,2.53,2.53"/><path d="M267.66,103.09a2.62,2.62,0,1,0-2.62-2.62,2.623,2.623,0,0,0,2.62,2.62"/><path d="M267.66,118.24a2.7,2.7,0,1,0-2.7-2.7,2.7,2.7,0,0,0,2.7,2.7"/><path d="M267.66,133.38a2.79,2.79,0,1,0-2.79-2.79,2.791,2.791,0,0,0,2.79,2.79"/><path d="M267.66,148.55a2.9,2.9,0,1,0-2.9-2.9,2.9,2.9,0,0,0,2.9,2.9"/><path d="M267.66,163.78a3.08,3.08,0,1,0-3.08-3.08,3.081,3.081,0,0,0,3.08,3.08"/><path d="M267.66,178.93a3.17,3.17,0,1,0-3.17-3.17,3.171,3.171,0,0,0,3.17,3.17"/><path d="M267.66,194.13a3.31,3.31,0,1,0-3.31-3.31,3.308,3.308,0,0,0,3.31,3.31"/><path d="M267.66,209.42a3.54,3.54,0,1,0-3.54-3.54,3.54,3.54,0,0,0,3.54,3.54"/><path d="M267.66,224.4a3.47,3.47,0,1,0-3.47-3.47,3.472,3.472,0,0,0,3.47,3.47"/><path d="M267.66,239.44a3.45,3.45,0,1,0-3.45-3.45,3.45,3.45,0,0,0,3.45,3.45"/><path d="M267.66,254.64a3.59,3.59,0,1,0-3.59-3.59,3.593,3.593,0,0,0,3.59,3.59"/><path d="M267.66,269.75a3.64,3.64,0,1,0-3.64-3.64,3.64,3.64,0,0,0,3.64,3.64"/><path d="M267.66,284.74a3.57,3.57,0,1,0-3.57-3.57,3.572,3.572,0,0,0,3.57,3.57"/><path d="M267.66,300.06a3.84,3.84,0,1,0-3.84-3.84,3.841,3.841,0,0,0,3.84,3.84"/><path d="M267.66,315.42a4.14,4.14,0,1,0-4.14-4.14,4.135,4.135,0,0,0,4.14,4.14"/><path d="M267.66,330.53a4.19,4.19,0,1,0-4.19-4.19,4.189,4.189,0,0,0,4.19,4.19"/><path d="M267.66,345.75a4.35,4.35,0,1,0-4.35-4.35,4.353,4.353,0,0,0,4.35,4.35"/><path d="M267.66,361.13a4.67,4.67,0,1,0-4.67-4.67,4.669,4.669,0,0,0,4.67,4.67"/><path d="M267.66,376.4a4.88,4.88,0,1,0-4.88-4.88,4.88,4.88,0,0,0,4.88,4.88"/><path d="M267.66,391.49a4.92,4.92,0,1,0-4.92-4.92,4.916,4.916,0,0,0,4.92,4.92"/><path d="M267.66,406.76a5.13,5.13,0,1,0-5.13-5.13,5.134,5.134,0,0,0,5.13,5.13"/><path d="M254.6,5.11a2.51,2.51,0,1,0-2.51-2.51,2.505,2.505,0,0,0,2.51,2.51"/><path d="M254.6,20.17a2.51,2.51,0,1,0-2.51-2.51,2.505,2.505,0,0,0,2.51,2.51"/><path d="M254.6,35.22a2.51,2.51,0,1,0-2.51-2.51,2.505,2.505,0,0,0,2.51,2.51"/><path d="M254.6,50.28a2.51,2.51,0,1,0-2.51-2.51,2.505,2.505,0,0,0,2.51,2.51"/><path d="M254.6,65.34a2.51,2.51,0,1,0-2.51-2.51,2.505,2.505,0,0,0,2.51,2.51"/><path d="M254.6,80.4a2.51,2.51,0,1,0-2.51-2.51,2.505,2.505,0,0,0,2.51,2.51"/><path d="M254.6,95.47a2.53,2.53,0,1,0-2.53-2.53,2.527,2.527,0,0,0,2.53,2.53"/><path d="M254.6,110.58a2.58,2.58,0,1,0-2.58-2.58,2.58,2.58,0,0,0,2.58,2.58"/><path d="M254.6,125.71a2.65,2.65,0,1,0-2.65-2.65,2.655,2.655,0,0,0,2.65,2.65"/><path d="M254.6,140.89a2.78,2.78,0,1,0-2.78-2.78,2.78,2.78,0,0,0,2.78,2.78"/><path d="M254.6,156.09a2.92,2.92,0,1,0-2.92-2.92,2.923,2.923,0,0,0,2.92,2.92"/><path d="M254.6,171.2a2.97,2.97,0,1,0-2.97-2.97,2.97,2.97,0,0,0,2.97,2.97"/><path d="M254.6,186.35a3.06,3.06,0,1,0-3.06-3.06,3.06,3.06,0,0,0,3.06,3.06"/><path d="M254.6,201.57a3.22,3.22,0,1,0-3.22-3.22,3.218,3.218,0,0,0,3.22,3.22"/><path d="M254.6,216.78a3.38,3.38,0,1,0-3.38-3.38,3.376,3.376,0,0,0,3.38,3.38"/><path d="M254.6,231.77a3.31,3.31,0,1,0-3.31-3.31,3.308,3.308,0,0,0,3.31,3.31"/><path d="M254.6,246.92a3.4,3.4,0,1,0-3.4-3.4,3.4,3.4,0,0,0,3.4,3.4"/><path d="M254.6,262.01a3.43,3.43,0,1,0-3.43-3.43,3.436,3.436,0,0,0,3.43,3.43"/><path d="M254.6,277.12a3.48,3.48,0,1,0-3.48-3.48,3.483,3.483,0,0,0,3.48,3.48"/><path d="M254.6,292.22a3.52,3.52,0,1,0-3.52-3.52,3.525,3.525,0,0,0,3.52,3.52"/><path d="M254.6,307.59a3.84,3.84,0,1,0-3.84-3.84,3.841,3.841,0,0,0,3.84,3.84"/><path d="M254.6,322.9a4.09,4.09,0,1,0-4.09-4.09,4.089,4.089,0,0,0,4.09,4.09"/><path d="M254.6,338.1a4.23,4.23,0,1,0-4.23-4.23,4.225,4.225,0,0,0,4.23,4.23"/><path d="M254.6,353.3a4.37,4.37,0,1,0-4.37-4.37,4.374,4.374,0,0,0,4.37,4.37"/><path d="M254.6,368.71a4.72,4.72,0,1,0-4.72-4.72,4.722,4.722,0,0,0,4.72,4.72"/><path d="M254.6,383.86a4.81,4.81,0,1,0-4.81-4.81,4.806,4.806,0,0,0,4.81,4.81"/><path d="M254.6,399.18a5.08,5.08,0,1,0-5.08-5.08,5.081,5.081,0,0,0,5.08,5.08"/><path d="M241.53,12.64a2.51,2.51,0,1,0-2.51-2.51,2.505,2.505,0,0,0,2.51,2.51"/><path d="M241.53,27.69a2.51,2.51,0,1,0-2.51-2.51,2.505,2.505,0,0,0,2.51,2.51"/><path d="M241.53,42.75a2.51,2.51,0,1,0-2.51-2.51,2.505,2.505,0,0,0,2.51,2.51"/><path d="M241.53,57.81a2.51,2.51,0,1,0-2.51-2.51,2.505,2.505,0,0,0,2.51,2.51"/><path d="M241.53,72.87a2.51,2.51,0,1,0-2.51-2.51,2.505,2.505,0,0,0,2.51,2.51"/><path d="M241.53,87.93a2.51,2.51,0,1,0-2.51-2.51,2.505,2.505,0,0,0,2.51,2.51"/><path d="M241.53,102.98a2.51,2.51,0,1,0-2.51-2.51,2.505,2.505,0,0,0,2.51,2.51"/><path d="M241.53,118.06a2.53,2.53,0,1,0-2.53-2.53,2.527,2.527,0,0,0,2.53,2.53"/><path d="M241.53,133.26a2.67,2.67,0,1,0-2.67-2.67,2.669,2.669,0,0,0,2.67,2.67"/><path d="M241.53,148.37a2.72,2.72,0,1,0-2.72-2.72,2.723,2.723,0,0,0,2.72,2.72"/><path d="M241.53,163.55a2.85,2.85,0,1,0-2.85-2.85,2.849,2.849,0,0,0,2.85,2.85"/><path d="M241.53,178.73a2.97,2.97,0,1,0-2.97-2.97,2.97,2.97,0,0,0,2.97,2.97"/><path d="M241.53,193.86a3.04,3.04,0,1,0-3.04-3.04,3.039,3.039,0,0,0,3.04,3.04"/><path d="M241.53,209.06a3.18,3.18,0,1,0-3.18-3.18,3.182,3.182,0,0,0,3.18,3.18"/><path d="M241.53,224.19a3.25,3.25,0,1,0-3.25-3.25,3.25,3.25,0,0,0,3.25,3.25"/><path d="M241.53,239.21a3.22,3.22,0,1,0-3.22-3.22,3.218,3.218,0,0,0,3.22,3.22"/><path d="M241.53,254.32a3.27,3.27,0,1,0-3.27-3.27,3.265,3.265,0,0,0,3.27,3.27"/><path d="M241.53,269.45a3.34,3.34,0,1,0-3.34-3.34,3.34,3.34,0,0,0,3.34,3.34"/><path d="M241.53,284.69a3.52,3.52,0,1,0-3.52-3.52,3.525,3.525,0,0,0,3.52,3.52"/><path d="M241.53,299.8a3.57,3.57,0,1,0-3.57-3.57,3.572,3.572,0,0,0,3.57,3.57"/><path d="M241.53,315.16a3.87,3.87,0,1,0-3.87-3.87,3.867,3.867,0,0,0,3.87,3.87"/><path d="M241.53,330.41a4.07,4.07,0,1,0-4.07-4.07,4.067,4.067,0,0,0,4.07,4.07"/><path d="M241.53,345.77a4.37,4.37,0,1,0-4.37-4.37,4.374,4.374,0,0,0,4.37,4.37"/><path d="M241.53,361a4.55,4.55,0,1,0-4.55-4.55,4.554,4.554,0,0,0,4.55,4.55"/><path d="M241.53,376.17a4.65,4.65,0,1,0-4.65-4.65,4.648,4.648,0,0,0,4.65,4.65"/><path d="M241.53,391.37a4.79,4.79,0,1,0-4.79-4.79,4.791,4.791,0,0,0,4.79,4.79"/><path d="M241.53,406.44a4.81,4.81,0,1,0-4.81-4.81,4.806,4.806,0,0,0,4.81,4.81"/><path d="M228.47,5.11a2.51,2.51,0,1,0-2.51-2.51,2.505,2.505,0,0,0,2.51,2.51"/><path d="M228.47,20.17a2.51,2.51,0,1,0-2.51-2.51,2.505,2.505,0,0,0,2.51,2.51"/><path d="M228.47,35.22a2.51,2.51,0,1,0-2.51-2.51,2.505,2.505,0,0,0,2.51,2.51"/><path d="M228.47,50.28a2.51,2.51,0,1,0-2.51-2.51,2.505,2.505,0,0,0,2.51,2.51"/><path d="M228.47,65.34a2.51,2.51,0,1,0-2.51-2.51,2.505,2.505,0,0,0,2.51,2.51"/><path d="M228.47,80.4a2.51,2.51,0,1,0-2.51-2.51,2.505,2.505,0,0,0,2.51,2.51"/><path d="M228.47,95.45a2.51,2.51,0,1,0-2.51-2.51,2.505,2.505,0,0,0,2.51,2.51"/><path d="M228.47,110.51a2.51,2.51,0,1,0-2.51-2.51,2.505,2.505,0,0,0,2.51,2.51"/><path d="M228.47,125.59a2.53,2.53,0,1,0-2.53-2.53,2.527,2.527,0,0,0,2.53,2.53"/><path d="M228.47,140.75a2.63,2.63,0,1,0-2.63-2.63,2.633,2.633,0,0,0,2.63,2.63"/><path d="M228.47,155.92a2.74,2.74,0,1,0-2.74-2.74,2.744,2.744,0,0,0,2.74,2.74"/><path d="M228.47,171.08a2.85,2.85,0,1,0-2.85-2.85,2.849,2.849,0,0,0,2.85,2.85"/><path d="M228.47,186.19a2.9,2.9,0,1,0-2.9-2.9,2.9,2.9,0,0,0,2.9,2.9"/><path d="M228.47,201.36a3.01,3.01,0,1,0-3.01-3.01,3.013,3.013,0,0,0,3.01,3.01"/><path d="M228.47,216.52a3.11,3.11,0,1,0-3.11-3.11,3.107,3.107,0,0,0,3.11,3.11"/><path d="M228.47,231.63a3.17,3.17,0,1,0-3.17-3.17,3.171,3.171,0,0,0,3.17,3.17"/><path d="M228.47,246.74a3.22,3.22,0,1,0-3.22-3.22,3.218,3.218,0,0,0,3.22,3.22"/><path d="M228.47,261.71a3.13,3.13,0,1,0-3.13-3.13,3.128,3.128,0,0,0,3.13,3.13"/><path d="M228.47,276.91a3.27,3.27,0,1,0-3.27-3.27,3.265,3.265,0,0,0,3.27,3.27"/><path d="M228.47,292.06a3.36,3.36,0,1,0-3.36-3.36,3.354,3.354,0,0,0,3.36,3.36"/><path d="M228.47,307.04a3.29,3.29,0,1,0-3.29-3.29,3.286,3.286,0,0,0,3.29,3.29"/><path d="M228.47,322.63a3.82,3.82,0,1,0-3.82-3.82,3.82,3.82,0,0,0,3.82,3.82"/><path d="M228.47,338.08a4.21,4.21,0,1,0-4.21-4.21,4.2,4.2,0,0,0,4.21,4.21"/><path d="M228.47,353.4a4.48,4.48,0,1,0-4.48-4.48,4.479,4.479,0,0,0,4.48,4.48"/><path d="M228.47,368.55a4.56,4.56,0,1,0-4.56-4.56,4.558,4.558,0,0,0,4.56,4.56"/><path d="M228.47,383.7a4.65,4.65,0,1,0-4.65-4.65,4.648,4.648,0,0,0,4.65,4.65"/><path d="M228.47,398.86a4.76,4.76,0,1,0-4.76-4.76,4.759,4.759,0,0,0,4.76,4.76"/><path d="M215.41,12.64a2.51,2.51,0,1,0-2.51-2.51,2.505,2.505,0,0,0,2.51,2.51"/><path d="M215.41,27.69a2.51,2.51,0,1,0-2.51-2.51,2.505,2.505,0,0,0,2.51,2.51"/><path d="M215.41,42.75a2.51,2.51,0,1,0-2.51-2.51,2.505,2.505,0,0,0,2.51,2.51"/><path d="M215.41,57.81a2.51,2.51,0,1,0-2.51-2.51,2.505,2.505,0,0,0,2.51,2.51"/><path d="M215.41,72.87a2.51,2.51,0,1,0-2.51-2.51,2.505,2.505,0,0,0,2.51,2.51"/><path d="M215.41,87.93a2.51,2.51,0,1,0-2.51-2.51,2.505,2.505,0,0,0,2.51,2.51"/><path d="M215.41,102.98a2.51,2.51,0,1,0-2.51-2.51,2.505,2.505,0,0,0,2.51,2.51"/><path d="M215.41,118.04a2.51,2.51,0,1,0-2.51-2.51,2.505,2.505,0,0,0,2.51,2.51"/><path d="M215.41,133.12a2.53,2.53,0,1,0-2.53-2.53,2.527,2.527,0,0,0,2.53,2.53"/><path d="M215.41,148.26a2.62,2.62,0,1,0-2.62-2.62,2.623,2.623,0,0,0,2.62,2.62"/><path d="M215.41,163.44a2.74,2.74,0,1,0-2.74-2.74,2.744,2.744,0,0,0,2.74,2.74"/><path d="M215.41,178.57a2.81,2.81,0,1,0-2.81-2.81,2.812,2.812,0,0,0,2.81,2.81"/><path d="M215.41,193.72a2.9,2.9,0,1,0-2.9-2.9,2.9,2.9,0,0,0,2.9,2.9"/><path d="M215.41,208.87a2.99,2.99,0,1,0-2.99-2.99,2.992,2.992,0,0,0,2.99,2.99"/><path d="M215.41,223.96a3.02,3.02,0,1,0-3.02-3.02,3.017,3.017,0,0,0,3.02,3.02"/><path d="M215.41,239.09a3.09,3.09,0,1,0-3.09-3.09,3.092,3.092,0,0,0,3.09,3.09"/><path d="M215.41,254.29a3.24,3.24,0,1,0-3.24-3.24,3.239,3.239,0,0,0,3.24,3.24"/><path d="M215.41,269.43a3.32,3.32,0,1,0-3.32-3.32,3.318,3.318,0,0,0,3.32,3.32"/><path d="M215.41,284.56a3.4,3.4,0,1,0-3.4-3.4,3.4,3.4,0,0,0,3.4,3.4"/><path d="M215.41,299.69a3.47,3.47,0,1,0-3.47-3.47,3.472,3.472,0,0,0,3.47,3.47"/><path d="M215.41,315.14a3.86,3.86,0,1,0-3.86-3.86,3.862,3.862,0,0,0,3.86,3.86"/><path d="M215.41,330.52a4.17,4.17,0,1,0-4.17-4.17,4.167,4.167,0,0,0,4.17,4.17"/><path d="M215.41,345.7a4.3,4.3,0,1,0-4.3-4.3,4.3,4.3,0,0,0,4.3,4.3"/><path d="M215.41,360.9a4.44,4.44,0,1,0-4.44-4.44,4.443,4.443,0,0,0,4.44,4.44"/><path d="M215.41,376.17a4.65,4.65,0,1,0-4.65-4.65,4.648,4.648,0,0,0,4.65,4.65"/><path d="M215.41,391.19a4.62,4.62,0,1,0-4.62-4.62,4.622,4.622,0,0,0,4.62,4.62"/><path d="M215.41,406.51a4.88,4.88,0,1,0-4.88-4.88,4.88,4.88,0,0,0,4.88,4.88"/><path d="M202.35,5.11a2.51,2.51,0,1,0-2.51-2.51,2.505,2.505,0,0,0,2.51,2.51"/><path d="M202.35,20.17a2.51,2.51,0,1,0-2.51-2.51,2.505,2.505,0,0,0,2.51,2.51"/><path d="M202.35,35.22a2.51,2.51,0,1,0-2.51-2.51,2.505,2.505,0,0,0,2.51,2.51"/><path d="M202.35,50.28a2.51,2.51,0,1,0-2.51-2.51,2.505,2.505,0,0,0,2.51,2.51"/><path d="M202.35,65.34a2.51,2.51,0,1,0-2.51-2.51,2.505,2.505,0,0,0,2.51,2.51"/><path d="M202.35,80.4a2.51,2.51,0,1,0-2.51-2.51,2.505,2.505,0,0,0,2.51,2.51"/><path d="M202.35,95.45a2.51,2.51,0,1,0-2.51-2.51,2.505,2.505,0,0,0,2.51,2.51"/><path d="M202.35,110.51a2.51,2.51,0,1,0-2.51-2.51,2.505,2.505,0,0,0,2.51,2.51"/><path d="M202.35,125.57a2.51,2.51,0,1,0-2.51-2.51,2.505,2.505,0,0,0,2.51,2.51"/><path d="M202.35,140.65a2.53,2.53,0,1,0-2.53-2.53,2.527,2.527,0,0,0,2.53,2.53"/><path d="M202.35,155.83a2.65,2.65,0,1,0-2.65-2.65,2.655,2.655,0,0,0,2.65,2.65"/><path d="M202.35,170.96a2.72,2.72,0,1,0-2.72-2.72,2.723,2.723,0,0,0,2.72,2.72"/><path d="M202.35,186a2.7,2.7,0,1,0-2.7-2.7,2.7,2.7,0,0,0,2.7,2.7"/><path d="M202.35,200.98a2.63,2.63,0,1,0-2.63-2.63,2.633,2.633,0,0,0,2.63,2.63"/><path d="M202.35,216.09a2.69,2.69,0,1,0-2.69-2.69,2.691,2.691,0,0,0,2.69,2.69"/><path d="M202.35,231.35a2.88,2.88,0,1,0-2.88-2.88,2.881,2.881,0,0,0,2.88,2.88"/><path d="M202.35,246.69a3.17,3.17,0,1,0-3.17-3.17,3.171,3.171,0,0,0,3.17,3.17"/><path d="M202.35,261.85a3.27,3.27,0,1,0-3.27-3.27,3.265,3.265,0,0,0,3.27,3.27"/><path d="M202.35,277.07a3.43,3.43,0,1,0-3.43-3.43,3.436,3.436,0,0,0,3.43,3.43"/><path d="M202.35,292.29a3.59,3.59,0,1,0-3.59-3.59,3.593,3.593,0,0,0,3.59,3.59"/><path d="M202.35,307.49a3.73,3.73,0,1,0-3.73-3.73,3.73,3.73,0,0,0,3.73,3.73"/><path d="M202.35,322.93a4.12,4.12,0,1,0-4.12-4.12,4.121,4.121,0,0,0,4.12,4.12"/><path d="M202.35,338.1a4.23,4.23,0,1,0-4.23-4.23,4.225,4.225,0,0,0,4.23,4.23"/><path d="M202.35,353.26a4.33,4.33,0,1,0-4.33-4.33,4.332,4.332,0,0,0,4.33,4.33"/><path d="M202.35,368.43a4.44,4.44,0,1,0-4.44-4.44,4.443,4.443,0,0,0,4.44,4.44"/><path d="M202.35,383.61a4.56,4.56,0,1,0-4.56-4.56,4.558,4.558,0,0,0,4.56,4.56"/><path d="M202.35,398.93a4.83,4.83,0,1,0-4.83-4.83,4.827,4.827,0,0,0,4.83,4.83"/><path d="M189.28,12.64a2.51,2.51,0,1,0-2.51-2.51,2.505,2.505,0,0,0,2.51,2.51"/><path d="M189.28,27.69a2.51,2.51,0,1,0-2.51-2.51,2.505,2.505,0,0,0,2.51,2.51"/><path d="M189.28,42.75a2.51,2.51,0,1,0-2.51-2.51,2.505,2.505,0,0,0,2.51,2.51"/><path d="M189.28,57.81a2.51,2.51,0,1,0-2.51-2.51,2.505,2.505,0,0,0,2.51,2.51"/><path d="M189.28,72.87a2.51,2.51,0,1,0-2.51-2.51,2.505,2.505,0,0,0,2.51,2.51"/><path d="M189.28,87.93a2.51,2.51,0,1,0-2.51-2.51,2.505,2.505,0,0,0,2.51,2.51"/><path d="M189.28,102.98a2.51,2.51,0,1,0-2.51-2.51,2.505,2.505,0,0,0,2.51,2.51"/><path d="M189.28,118.04a2.51,2.51,0,1,0-2.51-2.51,2.505,2.505,0,0,0,2.51,2.51"/><path d="M189.28,133.1a2.51,2.51,0,1,0-2.51-2.51,2.505,2.505,0,0,0,2.51,2.51"/><path d="M189.28,148.25a2.6,2.6,0,1,0-2.6-2.6,2.6,2.6,0,0,0,2.6,2.6"/><path d="M189.28,163.36a2.65,2.65,0,1,0-2.65-2.65,2.655,2.655,0,0,0,2.65,2.65"/><path d="M189.28,178.27a2.51,2.51,0,1,0-2.51-2.51,2.505,2.505,0,0,0,2.51,2.51"/><path d="M189.28,193.35a2.53,2.53,0,1,0-2.53-2.53,2.527,2.527,0,0,0,2.53,2.53"/><path d="M189.28,208.39a2.51,2.51,0,1,0-2.51-2.51,2.505,2.505,0,0,0,2.51,2.51"/><path d="M189.28,223.45a2.51,2.51,0,1,0-2.51-2.51,2.505,2.505,0,0,0,2.51,2.51"/><path d="M189.28,238.5a2.51,2.51,0,1,0-2.51-2.51,2.505,2.505,0,0,0,2.51,2.51"/><path d="M189.28,253.92a2.86,2.86,0,1,0-2.86-2.86,2.859,2.859,0,0,0,2.86,2.86"/><path d="M189.28,269.33a3.22,3.22,0,1,0-3.22-3.22,3.218,3.218,0,0,0,3.22,3.22"/><path d="M189.28,284.63a3.47,3.47,0,1,0-3.47-3.47,3.472,3.472,0,0,0,3.47,3.47"/><path d="M189.28,299.9a3.68,3.68,0,1,0-3.68-3.68,3.683,3.683,0,0,0,3.68,3.68"/><path d="M189.28,315.33a4.05,4.05,0,1,0-4.05-4.05,4.046,4.046,0,0,0,4.05,4.05"/><path d="M189.28,330.55a4.21,4.21,0,1,0-4.21-4.21,4.21,4.21,0,0,0,4.21,4.21"/><path d="M189.28,345.7a4.3,4.3,0,1,0-4.3-4.3,4.3,4.3,0,0,0,4.3,4.3"/><path d="M189.28,360.9a4.44,4.44,0,1,0-4.44-4.44,4.443,4.443,0,0,0,4.44,4.44"/><path d="M189.28,376.04a4.53,4.53,0,1,0-4.53-4.53,4.532,4.532,0,0,0,4.53,4.53"/><path d="M189.28,391.31a4.74,4.74,0,1,0-4.74-4.74,4.737,4.737,0,0,0,4.74,4.74"/><path d="M189.28,406.35a4.72,4.72,0,1,0-4.72-4.72,4.716,4.716,0,0,0,4.72,4.72"/><path d="M176.22,5.11a2.51,2.51,0,1,0-2.51-2.51,2.505,2.505,0,0,0,2.51,2.51"/><path d="M176.22,20.17a2.51,2.51,0,1,0-2.51-2.51,2.505,2.505,0,0,0,2.51,2.51"/><path d="M176.22,35.22a2.51,2.51,0,1,0-2.51-2.51,2.505,2.505,0,0,0,2.51,2.51"/><path d="M176.22,50.28a2.51,2.51,0,1,0-2.51-2.51,2.505,2.505,0,0,0,2.51,2.51"/><path d="M176.22,65.34a2.51,2.51,0,1,0-2.51-2.51,2.505,2.505,0,0,0,2.51,2.51"/><path d="M176.22,80.4a2.51,2.51,0,1,0-2.51-2.51,2.505,2.505,0,0,0,2.51,2.51"/><path d="M176.22,95.45a2.51,2.51,0,1,0-2.51-2.51,2.505,2.505,0,0,0,2.51,2.51"/><path d="M176.22,110.51a2.51,2.51,0,1,0-2.51-2.51,2.505,2.505,0,0,0,2.51,2.51"/><path d="M176.22,125.57a2.51,2.51,0,1,0-2.51-2.51,2.505,2.505,0,0,0,2.51,2.51"/><path d="M176.22,140.63a2.51,2.51,0,1,0-2.51-2.51,2.505,2.505,0,0,0,2.51,2.51"/><path d="M176.22,155.7a2.53,2.53,0,1,0-2.53-2.53,2.527,2.527,0,0,0,2.53,2.53"/><path d="M176.22,170.78a2.545,2.545,0,1,0-2.55-2.54,2.546,2.546,0,0,0,2.55,2.54"/><path d="M176.22,185.8a2.51,2.51,0,1,0-2.51-2.51,2.505,2.505,0,0,0,2.51,2.51"/><path d="M176.22,200.86a2.51,2.51,0,1,0-2.51-2.51,2.505,2.505,0,0,0,2.51,2.51"/><path d="M176.22,215.92a2.51,2.51,0,1,0-2.51-2.51,2.505,2.505,0,0,0,2.51,2.51"/><path d="M176.22,230.97a2.51,2.51,0,1,0-2.51-2.51,2.505,2.505,0,0,0,2.51,2.51"/><path d="M176.22,246.03a2.51,2.51,0,1,0-2.51-2.51,2.505,2.505,0,0,0,2.51,2.51"/><path d="M176.22,261.18a2.6,2.6,0,1,0-2.6-2.6,2.6,2.6,0,0,0,2.6,2.6"/><path d="M176.22,276.89a3.25,3.25,0,1,0-3.25-3.25,3.25,3.25,0,0,0,3.25,3.25"/><path d="M176.22,292.34a3.64,3.64,0,1,0-3.64-3.64,3.64,3.64,0,0,0,3.64,3.64"/><path d="M176.22,307.77a4.02,4.02,0,1,0-4.02-4.02,4.02,4.02,0,0,0,4.02,4.02"/><path d="M176.22,323.04a4.23,4.23,0,1,0-4.23-4.23,4.231,4.231,0,0,0,4.23,4.23"/><path d="M176.22,338.22a4.35,4.35,0,1,0-4.35-4.35,4.353,4.353,0,0,0,4.35,4.35"/><path d="M176.22,353.35a4.42,4.42,0,1,0-4.42-4.42,4.421,4.421,0,0,0,4.42,4.42"/><path d="M176.22,368.6a4.62,4.62,0,1,0-4.62-4.62,4.622,4.622,0,0,0,4.62,4.62"/><path d="M176.22,383.7a4.65,4.65,0,1,0-4.65-4.65,4.648,4.648,0,0,0,4.65,4.65"/><path d="M176.22,398.97a4.87,4.87,0,1,0-4.87-4.87,4.87,4.87,0,0,0,4.87,4.87"/><path d="M163.16,12.64a2.51,2.51,0,1,0-2.51-2.51,2.505,2.505,0,0,0,2.51,2.51"/><path d="M163.16,27.69a2.51,2.51,0,1,0-2.51-2.51,2.505,2.505,0,0,0,2.51,2.51"/><path d="M163.16,42.75a2.51,2.51,0,1,0-2.51-2.51,2.505,2.505,0,0,0,2.51,2.51"/><path d="M163.16,57.81a2.51,2.51,0,1,0-2.51-2.51,2.505,2.505,0,0,0,2.51,2.51"/><path d="M163.16,72.87a2.51,2.51,0,1,0-2.51-2.51,2.505,2.505,0,0,0,2.51,2.51"/><path d="M163.16,87.93a2.51,2.51,0,1,0-2.51-2.51,2.505,2.505,0,0,0,2.51,2.51"/><path d="M163.16,102.98a2.51,2.51,0,1,0-2.51-2.51,2.505,2.505,0,0,0,2.51,2.51"/><path d="M163.16,118.04a2.51,2.51,0,1,0-2.51-2.51,2.505,2.505,0,0,0,2.51,2.51"/><path d="M163.16,133.1a2.51,2.51,0,1,0-2.51-2.51,2.505,2.505,0,0,0,2.51,2.51"/><path d="M163.16,148.16a2.51,2.51,0,1,0-2.51-2.51,2.505,2.505,0,0,0,2.51,2.51"/><path d="M163.16,163.21a2.51,2.51,0,1,0-2.51-2.51,2.505,2.505,0,0,0,2.51,2.51"/><path d="M163.16,178.27a2.51,2.51,0,1,0-2.51-2.51,2.505,2.505,0,0,0,2.51,2.51"/><path d="M163.16,193.33a2.51,2.51,0,1,0-2.51-2.51,2.505,2.505,0,0,0,2.51,2.51"/><path d="M163.16,208.39a2.51,2.51,0,1,0-2.51-2.51,2.505,2.505,0,0,0,2.51,2.51"/><path d="M163.16,223.45a2.51,2.51,0,1,0-2.51-2.51,2.505,2.505,0,0,0,2.51,2.51"/><path d="M163.16,238.5a2.51,2.51,0,1,0-2.51-2.51,2.505,2.505,0,0,0,2.51,2.51"/><path d="M163.16,253.56a2.51,2.51,0,1,0-2.51-2.51,2.505,2.505,0,0,0,2.51,2.51"/><path d="M163.16,268.65a2.545,2.545,0,1,0-2.55-2.55,2.539,2.539,0,0,0,2.55,2.55"/><path d="M163.16,284.63a3.47,3.47,0,1,0-3.47-3.47,3.472,3.472,0,0,0,3.47,3.47"/><path d="M163.16,299.99a3.77,3.77,0,1,0-3.77-3.77,3.773,3.773,0,0,0,3.77,3.77"/><path d="M163.16,315.46a4.17,4.17,0,1,0-4.17-4.17,4.167,4.167,0,0,0,4.17,4.17"/><path d="M163.16,330.62a4.28,4.28,0,1,0-4.28-4.28,4.285,4.285,0,0,0,4.28,4.28"/><path d="M163.16,345.86a4.46,4.46,0,1,0-4.46-4.46,4.464,4.464,0,0,0,4.46,4.46"/><path d="M163.16,360.84a4.39,4.39,0,1,0-4.39-4.39,4.389,4.389,0,0,0,4.39,4.39"/><path d="M163.16,376.29a4.78,4.78,0,1,0-4.78-4.78,4.78,4.78,0,0,0,4.78,4.78"/><path d="M163.16,391.4a4.83,4.83,0,1,0-4.83-4.83,4.827,4.827,0,0,0,4.83,4.83"/><path d="M163.16,406.53a4.9,4.9,0,1,0-4.9-4.9,4.9,4.9,0,0,0,4.9,4.9"/><path d="M150.1,5.11a2.51,2.51,0,1,0-2.51-2.51,2.505,2.505,0,0,0,2.51,2.51"/><path d="M150.1,20.17a2.51,2.51,0,1,0-2.51-2.51,2.505,2.505,0,0,0,2.51,2.51"/><path d="M150.1,35.22a2.51,2.51,0,1,0-2.51-2.51,2.505,2.505,0,0,0,2.51,2.51"/><path d="M150.1,50.28a2.51,2.51,0,1,0-2.51-2.51,2.505,2.505,0,0,0,2.51,2.51"/><path d="M150.1,65.34a2.51,2.51,0,1,0-2.51-2.51,2.505,2.505,0,0,0,2.51,2.51"/><path d="M150.1,80.4a2.51,2.51,0,1,0-2.51-2.51,2.505,2.505,0,0,0,2.51,2.51"/><path d="M150.1,95.45a2.51,2.51,0,1,0-2.51-2.51,2.505,2.505,0,0,0,2.51,2.51"/><path d="M150.1,110.51a2.51,2.51,0,1,0-2.51-2.51,2.505,2.505,0,0,0,2.51,2.51"/><path d="M150.1,125.57a2.51,2.51,0,1,0-2.51-2.51,2.505,2.505,0,0,0,2.51,2.51"/><path d="M150.1,140.63a2.51,2.51,0,1,0-2.51-2.51,2.505,2.505,0,0,0,2.51,2.51"/><path d="M150.1,155.69a2.51,2.51,0,1,0-2.51-2.51,2.505,2.505,0,0,0,2.51,2.51"/><path d="M150.1,170.74a2.51,2.51,0,1,0-2.51-2.51,2.505,2.505,0,0,0,2.51,2.51"/><path d="M150.1,185.8a2.51,2.51,0,1,0-2.51-2.51,2.505,2.505,0,0,0,2.51,2.51"/><path d="M150.1,200.86a2.51,2.51,0,1,0-2.51-2.51,2.505,2.505,0,0,0,2.51,2.51"/><path d="M150.1,215.92a2.51,2.51,0,1,0-2.51-2.51,2.505,2.505,0,0,0,2.51,2.51"/><path d="M150.1,230.97a2.51,2.51,0,1,0-2.51-2.51,2.505,2.505,0,0,0,2.51,2.51"/><path d="M150.1,246.03a2.51,2.51,0,1,0-2.51-2.51,2.505,2.505,0,0,0,2.51,2.51"/><path d="M150.1,261.11a2.53,2.53,0,1,0-2.53-2.53,2.527,2.527,0,0,0,2.53,2.53"/><path d="M150.1,276.48a2.85,2.85,0,1,0-2.85-2.85,2.849,2.849,0,0,0,2.85,2.85"/><path d="M150.1,292.46a3.77,3.77,0,1,0-3.77-3.77,3.773,3.773,0,0,0,3.77,3.77"/><path d="M150.1,307.75a4,4,0,1,0-4-4,4,4,0,0,0,4,4"/><path d="M150.1,323.18a4.37,4.37,0,1,0-4.37-4.37,4.374,4.374,0,0,0,4.37,4.37"/><path d="M150.1,338.22a4.35,4.35,0,1,0-4.35-4.35,4.353,4.353,0,0,0,4.35,4.35"/><path d="M150.1,353.56a4.64,4.64,0,1,0-4.64-4.64,4.643,4.643,0,0,0,4.64,4.64"/><path d="M150.1,368.64a4.65,4.65,0,1,0-4.65-4.65,4.648,4.648,0,0,0,4.65,4.65"/><path d="M150.1,383.96a4.92,4.92,0,1,0-4.92-4.92,4.916,4.916,0,0,0,4.92,4.92"/><path d="M150.1,399.09a4.99,4.99,0,1,0-4.99-4.99,4.985,4.985,0,0,0,4.99,4.99"/><path d="M137.03,12.64a2.51,2.51,0,1,0-2.51-2.51,2.505,2.505,0,0,0,2.51,2.51"/><path d="M137.03,27.69a2.51,2.51,0,1,0-2.51-2.51,2.505,2.505,0,0,0,2.51,2.51"/><path d="M137.03,42.75a2.51,2.51,0,1,0-2.51-2.51,2.505,2.505,0,0,0,2.51,2.51"/><path d="M137.03,57.81a2.51,2.51,0,1,0-2.51-2.51,2.505,2.505,0,0,0,2.51,2.51"/><path d="M137.03,72.87a2.51,2.51,0,1,0-2.51-2.51,2.505,2.505,0,0,0,2.51,2.51"/><path d="M137.03,87.93a2.51,2.51,0,1,0-2.51-2.51,2.505,2.505,0,0,0,2.51,2.51"/><path d="M137.03,102.98a2.51,2.51,0,1,0-2.51-2.51,2.505,2.505,0,0,0,2.51,2.51"/><path d="M137.03,118.04a2.51,2.51,0,1,0-2.51-2.51,2.505,2.505,0,0,0,2.51,2.51"/><path d="M137.03,133.1a2.51,2.51,0,1,0-2.51-2.51,2.505,2.505,0,0,0,2.51,2.51"/><path d="M137.03,148.16a2.51,2.51,0,1,0-2.51-2.51,2.505,2.505,0,0,0,2.51,2.51"/><path d="M137.03,163.21a2.51,2.51,0,1,0-2.51-2.51,2.505,2.505,0,0,0,2.51,2.51"/><path d="M137.03,178.27a2.51,2.51,0,1,0-2.51-2.51,2.505,2.505,0,0,0,2.51,2.51"/><path d="M137.03,193.33a2.51,2.51,0,1,0-2.51-2.51,2.505,2.505,0,0,0,2.51,2.51"/><path d="M137.03,208.39a2.51,2.51,0,1,0-2.51-2.51,2.505,2.505,0,0,0,2.51,2.51"/><path d="M137.03,223.45a2.51,2.51,0,1,0-2.51-2.51,2.505,2.505,0,0,0,2.51,2.51"/><path d="M137.03,238.5a2.51,2.51,0,1,0-2.51-2.51,2.505,2.505,0,0,0,2.51,2.51"/><path d="M137.03,253.56a2.51,2.51,0,1,0-2.51-2.51,2.505,2.505,0,0,0,2.51,2.51"/><path d="M137.03,268.64a2.53,2.53,0,1,0-2.53-2.53,2.527,2.527,0,0,0,2.53,2.53"/><path d="M137.03,284.44a3.27,3.27,0,1,0-3.27-3.27,3.265,3.265,0,0,0,3.27,3.27"/><path d="M137.03,300.22a4,4,0,1,0-4-4,4,4,0,0,0,4,4"/><path d="M137.03,315.46a4.17,4.17,0,1,0-4.17-4.17,4.167,4.167,0,0,0,4.17,4.17"/><path d="M137.03,330.85a4.51,4.51,0,1,0-4.51-4.51,4.511,4.511,0,0,0,4.51,4.51"/><path d="M137.03,346.14a4.74,4.74,0,1,0-4.74-4.74,4.737,4.737,0,0,0,4.74,4.74"/><path d="M137.03,361.29a4.83,4.83,0,1,0-4.83-4.83,4.827,4.827,0,0,0,4.83,4.83"/><path d="M137.03,376.45a4.94,4.94,0,1,0-4.94-4.94,4.938,4.938,0,0,0,4.94,4.94"/><path d="M137.03,391.58a5.01,5.01,0,1,0-5.01-5.01,5.006,5.006,0,0,0,5.01,5.01"/><path d="M137.03,406.74a5.11,5.11,0,1,0-5.11-5.11,5.113,5.113,0,0,0,5.11,5.11"/><path d="M123.97,5.11a2.51,2.51,0,1,0-2.51-2.51,2.505,2.505,0,0,0,2.51,2.51"/><path d="M123.97,20.17a2.51,2.51,0,1,0-2.51-2.51,2.505,2.505,0,0,0,2.51,2.51"/><path d="M123.97,35.22a2.51,2.51,0,1,0-2.51-2.51,2.505,2.505,0,0,0,2.51,2.51"/><path d="M123.97,50.28a2.51,2.51,0,1,0-2.51-2.51,2.505,2.505,0,0,0,2.51,2.51"/><path d="M123.97,65.34a2.51,2.51,0,1,0-2.51-2.51,2.505,2.505,0,0,0,2.51,2.51"/><path d="M123.97,80.4a2.51,2.51,0,1,0-2.51-2.51,2.505,2.505,0,0,0,2.51,2.51"/><path d="M123.97,95.45a2.51,2.51,0,1,0-2.51-2.51,2.505,2.505,0,0,0,2.51,2.51"/><path d="M123.97,110.51a2.51,2.51,0,1,0-2.51-2.51,2.505,2.505,0,0,0,2.51,2.51"/><path d="M123.97,125.62a2.56,2.56,0,1,0-2.56-2.56,2.559,2.559,0,0,0,2.56,2.56"/><path d="M123.97,140.72a2.6,2.6,0,1,0-2.6-2.6,2.595,2.595,0,0,0,2.6,2.6"/><path d="M123.97,155.74a2.56,2.56,0,1,0-2.56-2.56,2.559,2.559,0,0,0,2.56,2.56"/><path d="M123.97,170.78a2.545,2.545,0,1,0-2.54-2.54,2.546,2.546,0,0,0,2.54,2.54"/><path d="M123.97,185.8a2.51,2.51,0,1,0-2.51-2.51,2.505,2.505,0,0,0,2.51,2.51"/><path d="M123.97,200.86a2.51,2.51,0,1,0-2.51-2.51,2.505,2.505,0,0,0,2.51,2.51"/><path d="M123.97,215.92a2.51,2.51,0,1,0-2.51-2.51,2.505,2.505,0,0,0,2.51,2.51"/><path d="M123.97,230.97a2.51,2.51,0,1,0-2.51-2.51,2.505,2.505,0,0,0,2.51,2.51"/><path d="M123.97,246.03a2.51,2.51,0,1,0-2.51-2.51,2.505,2.505,0,0,0,2.51,2.51"/><path d="M123.97,261.09a2.51,2.51,0,1,0-2.51-2.51,2.505,2.505,0,0,0,2.51,2.51"/><path d="M123.97,276.48a2.85,2.85,0,1,0-2.85-2.85,2.849,2.849,0,0,0,2.85,2.85"/><path d="M123.97,292.52a3.82,3.82,0,1,0-3.82-3.82,3.82,3.82,0,0,0,3.82,3.82"/><path d="M123.97,307.72a3.96,3.96,0,1,0-3.96-3.96,3.956,3.956,0,0,0,3.96,3.96"/><path d="M123.97,323.2a4.39,4.39,0,1,0-4.39-4.39,4.389,4.389,0,0,0,4.39,4.39"/><path d="M123.97,338.49a4.62,4.62,0,1,0-4.62-4.62,4.622,4.622,0,0,0,4.62,4.62"/><path d="M123.97,353.88a4.95,4.95,0,1,0-4.95-4.95,4.948,4.948,0,0,0,4.95,4.95"/><path d="M123.97,368.96a4.97,4.97,0,1,0-4.97-4.97,4.97,4.97,0,0,0,4.97,4.97"/><path d="M123.97,384.14a5.1,5.1,0,1,0-5.1-5.1,5.1,5.1,0,0,0,5.1,5.1"/><path d="M123.97,399.23a5.13,5.13,0,1,0-5.13-5.13,5.134,5.134,0,0,0,5.13,5.13"/><path d="M110.91,12.64a2.51,2.51,0,1,0-2.51-2.51,2.505,2.505,0,0,0,2.51,2.51"/><path d="M110.91,27.69a2.51,2.51,0,1,0-2.51-2.51,2.505,2.505,0,0,0,2.51,2.51"/><path d="M110.91,42.75a2.51,2.51,0,1,0-2.51-2.51,2.505,2.505,0,0,0,2.51,2.51"/><path d="M110.91,57.81a2.51,2.51,0,1,0-2.51-2.51,2.505,2.505,0,0,0,2.51,2.51"/><path d="M110.91,72.87a2.51,2.51,0,1,0-2.51-2.51,2.505,2.505,0,0,0,2.51,2.51"/><path d="M110.91,87.93a2.51,2.51,0,1,0-2.51-2.51,2.505,2.505,0,0,0,2.51,2.51"/><path d="M110.91,102.98a2.51,2.51,0,1,0-2.51-2.51,2.505,2.505,0,0,0,2.51,2.51"/><path d="M110.91,118.13a2.6,2.6,0,1,0-2.6-2.6,2.6,2.6,0,0,0,2.6,2.6"/><path d="M110.91,133.33a2.74,2.74,0,1,0-2.74-2.74,2.744,2.744,0,0,0,2.74,2.74"/><path d="M110.91,148.3a2.65,2.65,0,1,0-2.65-2.65,2.655,2.655,0,0,0,2.65,2.65"/><path d="M110.91,163.3a2.6,2.6,0,1,0-2.6-2.6,2.6,2.6,0,0,0,2.6,2.6"/><path d="M110.91,178.34a2.58,2.58,0,1,0-2.58-2.58,2.58,2.58,0,0,0,2.58,2.58"/><path d="M110.91,193.33a2.51,2.51,0,1,0-2.51-2.51,2.505,2.505,0,0,0,2.51,2.51"/><path d="M110.91,208.39a2.51,2.51,0,1,0-2.51-2.51,2.505,2.505,0,0,0,2.51,2.51"/><path d="M110.91,223.45a2.51,2.51,0,1,0-2.51-2.51,2.505,2.505,0,0,0,2.51,2.51"/><path d="M110.91,238.5a2.51,2.51,0,1,0-2.51-2.51,2.505,2.505,0,0,0,2.51,2.51"/><path d="M110.91,253.56a2.51,2.51,0,1,0-2.51-2.51,2.505,2.505,0,0,0,2.51,2.51"/><path d="M110.91,268.64a2.53,2.53,0,1,0-2.53-2.53,2.527,2.527,0,0,0,2.53,2.53"/><path d="M110.91,284.95a3.79,3.79,0,1,0-3.79-3.79,3.779,3.779,0,0,0,3.79,3.79"/><path d="M110.91,300.4a4.17,4.17,0,1,0-4.17-4.17,4.167,4.167,0,0,0,4.17,4.17"/><path d="M110.91,315.67a4.39,4.39,0,1,0-4.39-4.39,4.389,4.389,0,0,0,4.39,4.39"/><path d="M110.91,330.98a4.64,4.64,0,1,0-4.64-4.64,4.643,4.643,0,0,0,4.64,4.64"/><path d="M110.91,346.3a4.9,4.9,0,1,0-4.9-4.9,4.9,4.9,0,0,0,4.9,4.9"/><path d="M110.91,361.71a5.26,5.26,0,1,0-5.26-5.26,5.26,5.26,0,0,0,5.26,5.26"/><path d="M110.91,376.88a5.36,5.36,0,1,0-5.36-5.36,5.36,5.36,0,0,0,5.36,5.36"/><path d="M110.91,391.95a5.38,5.38,0,1,0-5.38-5.38,5.382,5.382,0,0,0,5.38,5.38"/><path d="M110.91,406.99a5.36,5.36,0,1,0-5.36-5.36,5.36,5.36,0,0,0,5.36,5.36"/><path d="M97.85,5.11A2.51,2.51,0,1,0,95.34,2.6a2.505,2.505,0,0,0,2.51,2.51"/><path d="M97.85,20.17a2.51,2.51,0,1,0-2.51-2.51,2.505,2.505,0,0,0,2.51,2.51"/><path d="M97.85,35.22a2.51,2.51,0,1,0-2.51-2.51,2.505,2.505,0,0,0,2.51,2.51"/><path d="M97.85,50.28a2.51,2.51,0,1,0-2.51-2.51,2.505,2.505,0,0,0,2.51,2.51"/><path d="M97.85,65.34a2.51,2.51,0,1,0-2.51-2.51,2.505,2.505,0,0,0,2.51,2.51"/><path d="M97.85,80.4a2.51,2.51,0,1,0-2.51-2.51,2.505,2.505,0,0,0,2.51,2.51"/><path d="M97.85,95.45a2.51,2.51,0,1,0-2.51-2.51,2.505,2.505,0,0,0,2.51,2.51"/><path d="M97.85,110.69A2.69,2.69,0,1,0,95.16,108a2.691,2.691,0,0,0,2.69,2.69"/><path d="M97.85,125.87a2.81,2.81,0,1,0-2.81-2.81,2.812,2.812,0,0,0,2.81,2.81"/><path d="M97.85,141.07a2.95,2.95,0,1,0-2.95-2.95,2.949,2.949,0,0,0,2.95,2.95"/><path d="M97.85,155.85a2.67,2.67,0,1,0-2.67-2.67,2.669,2.669,0,0,0,2.67,2.67"/><path d="M97.85,170.89a2.65,2.65,0,1,0-2.65-2.65,2.655,2.655,0,0,0,2.65,2.65"/><path d="M97.85,186.01a2.72,2.72,0,1,0-2.72-2.72,2.723,2.723,0,0,0,2.72,2.72"/><path d="M97.85,200.86a2.51,2.51,0,1,0-2.51-2.51,2.505,2.505,0,0,0,2.51,2.51"/><path d="M97.85,215.92a2.51,2.51,0,1,0-2.51-2.51,2.505,2.505,0,0,0,2.51,2.51"/><path d="M97.85,230.97a2.51,2.51,0,1,0-2.51-2.51,2.505,2.505,0,0,0,2.51,2.51"/><path d="M97.85,246.03a2.51,2.51,0,1,0-2.51-2.51,2.505,2.505,0,0,0,2.51,2.51"/><path d="M97.85,261.11a2.53,2.53,0,1,0-2.53-2.53,2.527,2.527,0,0,0,2.53,2.53"/><path d="M97.85,277.57a3.93,3.93,0,1,0-3.93-3.93,3.931,3.931,0,0,0,3.93,3.93"/><path d="M97.85,293.01a4.32,4.32,0,1,0-4.32-4.32,4.321,4.321,0,0,0,4.32,4.32"/><path d="M97.85,308.27a4.51,4.51,0,1,0-4.51-4.51,4.511,4.511,0,0,0,4.51,4.51"/><path d="M97.85,323.77a4.95,4.95,0,1,0-4.95-4.95,4.948,4.948,0,0,0,4.95,4.95"/><path d="M97.85,338.97a5.1,5.1,0,1,0-5.1-5.1,5.1,5.1,0,0,0,5.1,5.1"/><path d="M97.85,354.27a5.34,5.34,0,1,0-5.34-5.34,5.339,5.339,0,0,0,5.34,5.34"/><path d="M97.85,369.51a5.52,5.52,0,1,0-5.52-5.52,5.518,5.518,0,0,0,5.52,5.52"/><path d="M97.85,384.58a5.54,5.54,0,1,0-5.54-5.54,5.54,5.54,0,0,0,5.54,5.54"/><path d="M97.85,399.48a5.38,5.38,0,1,0-5.38-5.38,5.382,5.382,0,0,0,5.38,5.38"/><path d="M84.78,12.64a2.51,2.51,0,1,0-2.51-2.51,2.505,2.505,0,0,0,2.51,2.51"/><path d="M84.78,27.69a2.51,2.51,0,1,0-2.51-2.51,2.505,2.505,0,0,0,2.51,2.51"/><path d="M84.78,42.75a2.51,2.51,0,1,0-2.51-2.51,2.505,2.505,0,0,0,2.51,2.51"/><path d="M84.78,57.81a2.51,2.51,0,1,0-2.51-2.51,2.505,2.505,0,0,0,2.51,2.51"/><path d="M84.78,72.9a2.545,2.545,0,1,0-2.55-2.55,2.548,2.548,0,0,0,2.55,2.55"/><path d="M84.78,88.09a2.67,2.67,0,1,0-2.67-2.67,2.669,2.669,0,0,0,2.67,2.67"/><path d="M84.78,103.25A2.78,2.78,0,1,0,82,100.47a2.78,2.78,0,0,0,2.78,2.78"/><path d="M84.78,118.47a2.93,2.93,0,1,0-2.93-2.93,2.928,2.928,0,0,0,2.93,2.93"/><path d="M84.78,133.68a3.09,3.09,0,1,0-3.09-3.09,3.092,3.092,0,0,0,3.09,3.09"/><path d="M84.78,148.88a3.24,3.24,0,1,0-3.24-3.24,3.239,3.239,0,0,0,3.24,3.24"/><path d="M84.78,163.59a2.88,2.88,0,1,0-2.88-2.88,2.881,2.881,0,0,0,2.88,2.88"/><path d="M84.78,178.4a2.63,2.63,0,1,0-2.63-2.63,2.633,2.633,0,0,0,2.63,2.63"/><path d="M84.78,193.38a2.56,2.56,0,1,0-2.56-2.56,2.559,2.559,0,0,0,2.56,2.56"/><path d="M84.78,208.39a2.51,2.51,0,1,0-2.51-2.51,2.505,2.505,0,0,0,2.51,2.51"/><path d="M84.78,223.45a2.51,2.51,0,1,0-2.51-2.51,2.505,2.505,0,0,0,2.51,2.51"/><path d="M84.78,238.5a2.51,2.51,0,1,0-2.51-2.51,2.505,2.505,0,0,0,2.51,2.51"/><path d="M84.78,253.84a2.79,2.79,0,1,0-2.79-2.79,2.791,2.791,0,0,0,2.79,2.79"/><path d="M84.78,270.02a3.91,3.91,0,1,0-3.91-3.91,3.909,3.909,0,0,0,3.91,3.91"/><path d="M84.78,285.63a4.46,4.46,0,1,0-4.46-4.46,4.464,4.464,0,0,0,4.46,4.46"/><path d="M84.78,300.83a4.6,4.6,0,1,0-4.6-4.6,4.6,4.6,0,0,0,4.6,4.6"/><path d="M84.78,316.34a5.06,5.06,0,1,0-5.06-5.06,5.066,5.066,0,0,0,5.06,5.06"/><path d="M84.78,331.84a5.5,5.5,0,1,0-5.5-5.5,5.5,5.5,0,0,0,5.5,5.5"/><path d="M84.78,346.71a5.31,5.31,0,1,0-5.31-5.31,5.313,5.313,0,0,0,5.31,5.31"/><path d="M84.78,362.12a5.66,5.66,0,1,0-5.66-5.66,5.661,5.661,0,0,0,5.66,5.66"/><path d="M84.78,377.32a5.8,5.8,0,1,0-5.8-5.8,5.8,5.8,0,0,0,5.8,5.8"/><path d="M84.78,392.45a5.88,5.88,0,1,0-5.88-5.88,5.883,5.883,0,0,0,5.88,5.88"/><path d="M84.78,407.58a5.95,5.95,0,1,0-5.95-5.95,5.951,5.951,0,0,0,5.95,5.95"/><path d="M71.72,5.11A2.51,2.51,0,1,0,69.21,2.6a2.505,2.505,0,0,0,2.51,2.51"/><path d="M71.72,20.17a2.51,2.51,0,1,0-2.51-2.51,2.505,2.505,0,0,0,2.51,2.51"/><path d="M71.72,35.24a2.53,2.53,0,1,0-2.53-2.53,2.527,2.527,0,0,0,2.53,2.53"/><path d="M71.72,50.3a2.53,2.53,0,1,0-2.53-2.53,2.527,2.527,0,0,0,2.53,2.53"/><path d="M71.72,65.34a2.51,2.51,0,1,0-2.51-2.51,2.505,2.505,0,0,0,2.51,2.51"/><path d="M71.72,80.64a2.76,2.76,0,1,0-2.76-2.76,2.759,2.759,0,0,0,2.76,2.76"/><path d="M71.72,95.95a3.01,3.01,0,1,0-3.01-3.01,3.013,3.013,0,0,0,3.01,3.01"/><path d="M71.72,111.19a3.18,3.18,0,1,0-3.18-3.18,3.175,3.175,0,0,0,3.18,3.18"/><path d="M71.72,126.39a3.32,3.32,0,1,0-3.32-3.32,3.318,3.318,0,0,0,3.32,3.32"/><path d="M71.72,141.67a3.55,3.55,0,1,0-3.55-3.55,3.551,3.551,0,0,0,3.55,3.55"/><path d="M71.72,156.91a3.73,3.73,0,1,0-3.73-3.73,3.73,3.73,0,0,0,3.73,3.73"/><path d="M71.72,171.72a3.48,3.48,0,1,0-3.48-3.48,3.483,3.483,0,0,0,3.48,3.48"/><path d="M71.72,186.12a2.83,2.83,0,1,0-2.83-2.83,2.834,2.834,0,0,0,2.83,2.83"/><path d="M71.72,201.2a2.85,2.85,0,1,0-2.85-2.85,2.849,2.849,0,0,0,2.85,2.85"/><path d="M71.72,215.93a2.53,2.53,0,1,0-2.53-2.53,2.527,2.527,0,0,0,2.53,2.53"/><path d="M71.72,231.1a2.63,2.63,0,1,0-2.63-2.63,2.633,2.633,0,0,0,2.63,2.63"/><path d="M71.72,246.95a3.43,3.43,0,1,0-3.43-3.43,3.436,3.436,0,0,0,3.43,3.43"/><path d="M71.72,262.99a4.41,4.41,0,1,0-4.41-4.41,4.411,4.411,0,0,0,4.41,4.41"/><path d="M71.72,278.19a4.55,4.55,0,1,0-4.55-4.55,4.554,4.554,0,0,0,4.55,4.55"/><path d="M71.72,293.58a4.88,4.88,0,1,0-4.88-4.88,4.88,4.88,0,0,0,4.88,4.88"/><path d="M71.72,309.12a5.36,5.36,0,1,0-5.36-5.36,5.36,5.36,0,0,0,5.36,5.36"/><path d="M71.72,324.74a5.93,5.93,0,1,0-5.93-5.93,5.93,5.93,0,0,0,5.93,5.93"/><path d="M71.72,339.71a5.84,5.84,0,1,0-5.84-5.84,5.834,5.834,0,0,0,5.84,5.84"/><path d="M71.72,354.75a5.82,5.82,0,1,0-5.82-5.82,5.819,5.819,0,0,0,5.82,5.82"/><path d="M71.72,369.84a5.86,5.86,0,1,0-5.86-5.86,5.855,5.855,0,0,0,5.86,5.86"/><path d="M71.72,384.94a5.89,5.89,0,1,0-5.89-5.89,5.894,5.894,0,0,0,5.89,5.89"/><path d="M71.72,400.17a6.07,6.07,0,1,0-6.07-6.07,6.073,6.073,0,0,0,6.07,6.07"/><path d="M58.66,12.65a2.525,2.525,0,1,0-2.53-2.52,2.527,2.527,0,0,0,2.53,2.52"/><path d="M58.66,27.75a2.56,2.56,0,1,0-2.56-2.56,2.559,2.559,0,0,0,2.56,2.56"/><path d="M58.66,42.84a2.6,2.6,0,1,0-2.6-2.6,2.6,2.6,0,0,0,2.6,2.6"/><path d="M58.66,57.97a2.67,2.67,0,1,0-2.67-2.67,2.676,2.676,0,0,0,2.67,2.67"/><path d="M58.66,73.03a2.67,2.67,0,1,0-2.67-2.67,2.669,2.669,0,0,0,2.67,2.67"/><path d="M58.66,88.12a2.7,2.7,0,1,0-2.7-2.7,2.7,2.7,0,0,0,2.7,2.7"/><path d="M58.66,103.87a3.4,3.4,0,1,0-3.4-3.4,3.4,3.4,0,0,0,3.4,3.4"/><path d="M58.66,119.14a3.61,3.61,0,1,0-3.61-3.61,3.615,3.615,0,0,0,3.61,3.61"/><path d="M58.66,134.39a3.8,3.8,0,1,0-3.8-3.8,3.8,3.8,0,0,0,3.8,3.8"/><path d="M58.66,149.5a3.86,3.86,0,1,0-3.86-3.86,3.862,3.862,0,0,0,3.86,3.86"/><path d="M58.66,164.63a3.93,3.93,0,1,0-3.93-3.93,3.931,3.931,0,0,0,3.93,3.93"/><path d="M58.66,179.85a4.09,4.09,0,1,0-4.09-4.09,4.089,4.089,0,0,0,4.09,4.09"/><path d="M58.66,194.94a4.12,4.12,0,1,0-4.12-4.12,4.121,4.121,0,0,0,4.12,4.12"/><path d="M58.66,210.12a4.25,4.25,0,1,0-4.25-4.25,4.253,4.253,0,0,0,4.25,4.25"/><path d="M58.66,225.16a4.23,4.23,0,1,0-4.23-4.23,4.225,4.225,0,0,0,4.23,4.23"/><path d="M58.66,240.38a4.39,4.39,0,1,0-4.39-4.39,4.389,4.389,0,0,0,4.39,4.39"/><path d="M58.66,255.51a4.46,4.46,0,1,0-4.46-4.46,4.464,4.464,0,0,0,4.46,4.46"/><path d="M58.66,270.67a4.56,4.56,0,1,0-4.56-4.56,4.558,4.558,0,0,0,4.56,4.56"/><path d="M58.66,286.28a5.11,5.11,0,1,0-5.11-5.11,5.113,5.113,0,0,0,5.11,5.11"/><path d="M58.66,301.73a5.5,5.5,0,1,0-5.5-5.5,5.5,5.5,0,0,0,5.5,5.5"/><path d="M58.66,317.12a5.84,5.84,0,1,0-5.84-5.84,5.834,5.834,0,0,0,5.84,5.84"/><path d="M58.66,332.43a6.09,6.09,0,1,0-6.09-6.09,6.094,6.094,0,0,0,6.09,6.09"/><path d="M58.66,347.58a6.18,6.18,0,1,0-6.18-6.18,6.184,6.184,0,0,0,6.18,6.18"/><path d="M58.66,362.69a6.23,6.23,0,1,0-6.23-6.23,6.231,6.231,0,0,0,6.23,6.23"/><path d="M58.66,377.62a6.11,6.11,0,1,0-6.11-6.11,6.109,6.109,0,0,0,6.11,6.11"/><path d="M58.66,392.8a6.23,6.23,0,1,0-6.23-6.23,6.231,6.231,0,0,0,6.23,6.23"/><path d="M58.66,407.79a6.16,6.16,0,1,0-6.16-6.16,6.163,6.163,0,0,0,6.16,6.16"/><path d="M45.59,5.16A2.56,2.56,0,1,0,43.03,2.6a2.559,2.559,0,0,0,2.56,2.56"/><path d="M45.59,20.27a2.62,2.62,0,1,0-2.62-2.62,2.623,2.623,0,0,0,2.62,2.62"/><path d="M45.59,35.35a2.63,2.63,0,1,0-2.63-2.63,2.633,2.633,0,0,0,2.63,2.63"/><path d="M45.59,50.44a2.67,2.67,0,1,0-2.67-2.67,2.669,2.669,0,0,0,2.67,2.67"/><path d="M45.59,65.46a2.63,2.63,0,1,0-2.63-2.63,2.633,2.633,0,0,0,2.63,2.63"/><path d="M45.59,80.59a2.7,2.7,0,1,0-2.7-2.7,2.7,2.7,0,0,0,2.7,2.7"/><path d="M45.59,95.58a2.63,2.63,0,1,0-2.63-2.63,2.633,2.633,0,0,0,2.63,2.63"/><path d="M45.59,111.54A3.54,3.54,0,1,0,42.05,108a3.54,3.54,0,0,0,3.54,3.54"/><path d="M45.59,126.83a3.77,3.77,0,1,0-3.77-3.77,3.773,3.773,0,0,0,3.77,3.77"/><path d="M45.59,142.06a3.94,3.94,0,1,0-3.94-3.94,3.941,3.941,0,0,0,3.94,3.94"/><path d="M45.59,157.24a4.07,4.07,0,1,0-4.07-4.07,4.067,4.067,0,0,0,4.07,4.07"/><path d="M45.59,172.41a4.17,4.17,0,1,0-4.17-4.17,4.167,4.167,0,0,0,4.17,4.17"/><path d="M45.59,187.57a4.28,4.28,0,1,0-4.28-4.28,4.285,4.285,0,0,0,4.28,4.28"/><path d="M45.59,202.79a4.44,4.44,0,1,0-4.44-4.44,4.443,4.443,0,0,0,4.44,4.44"/><path d="M45.59,217.85a4.44,4.44,0,1,0-4.44-4.44,4.443,4.443,0,0,0,4.44,4.44"/><path d="M45.59,233.08a4.62,4.62,0,1,0-4.62-4.62,4.622,4.622,0,0,0,4.62,4.62"/><path d="M45.59,248.16a4.64,4.64,0,1,0-4.64-4.64,4.643,4.643,0,0,0,4.64,4.64"/><path d="M45.59,263.75a5.17,5.17,0,1,0-5.17-5.17,5.17,5.17,0,0,0,5.17,5.17"/><path d="M45.59,278.7a5.06,5.06,0,1,0-5.06-5.06,5.066,5.066,0,0,0,5.06,5.06"/><path d="M45.59,293.92a5.22,5.22,0,1,0-5.22-5.22,5.224,5.224,0,0,0,5.22,5.22"/><path d="M45.59,309.63a5.88,5.88,0,1,0-5.88-5.88,5.883,5.883,0,0,0,5.88,5.88"/><path d="M45.59,324.72a5.91,5.91,0,1,0-5.91-5.91,5.915,5.915,0,0,0,5.91,5.91"/><path d="M45.59,339.98a6.11,6.11,0,1,0-6.11-6.11,6.109,6.109,0,0,0,6.11,6.11"/><path d="M45.59,355.07a6.14,6.14,0,1,0-6.14-6.14,6.141,6.141,0,0,0,6.14,6.14"/><path d="M45.59,370.16a6.18,6.18,0,1,0-6.18-6.18,6.184,6.184,0,0,0,6.18,6.18"/><path d="M45.59,385.24a6.19,6.19,0,1,0-6.19-6.19,6.188,6.188,0,0,0,6.19,6.19"/><path d="M45.59,400.24a6.14,6.14,0,1,0-6.14-6.14,6.141,6.141,0,0,0,6.14,6.14"/><path d="M32.53,12.73a2.6,2.6,0,1,0-2.6-2.6,2.6,2.6,0,0,0,2.6,2.6"/><path d="M32.53,27.8a2.62,2.62,0,1,0-2.62-2.62,2.623,2.623,0,0,0,2.62,2.62"/><path d="M32.53,42.84a2.6,2.6,0,1,0-2.6-2.6,2.6,2.6,0,0,0,2.6,2.6"/><path d="M32.53,57.93A2.63,2.63,0,1,0,29.9,55.3a2.633,2.633,0,0,0,2.63,2.63"/><path d="M32.53,72.99a2.63,2.63,0,1,0-2.63-2.63,2.633,2.633,0,0,0,2.63,2.63"/><path d="M32.53,88.1a2.69,2.69,0,1,0-2.69-2.69,2.691,2.691,0,0,0,2.69,2.69"/><path d="M32.53,103.25a2.78,2.78,0,1,0-2.78-2.78,2.78,2.78,0,0,0,2.78,2.78"/><path d="M32.53,119.35a3.82,3.82,0,1,0-3.82-3.82,3.82,3.82,0,0,0,3.82,3.82"/><path d="M32.53,134.6a4.02,4.02,0,1,0-4.02-4.02,4.02,4.02,0,0,0,4.02,4.02"/><path d="M32.53,149.75a4.1,4.1,0,1,0-4.1-4.1,4.1,4.1,0,0,0,4.1,4.1"/><path d="M32.53,164.93a4.23,4.23,0,1,0-4.23-4.23,4.225,4.225,0,0,0,4.23,4.23"/><path d="M32.53,180.11a4.35,4.35,0,1,0-4.35-4.35,4.353,4.353,0,0,0,4.35,4.35"/><path d="M32.53,195.37a4.55,4.55,0,1,0-4.55-4.55,4.554,4.554,0,0,0,4.55,4.55"/><path d="M32.53,210.43a4.55,4.55,0,1,0-4.55-4.55,4.554,4.554,0,0,0,4.55,4.55"/><path d="M32.53,225.59a4.65,4.65,0,1,0-4.65-4.65,4.648,4.648,0,0,0,4.65,4.65"/><path d="M32.53,240.68a4.69,4.69,0,1,0-4.69-4.69,4.69,4.69,0,0,0,4.69,4.69"/><path d="M32.53,255.83a4.78,4.78,0,1,0-4.78-4.78,4.78,4.78,0,0,0,4.78,4.78"/><path d="M32.53,271.06a4.95,4.95,0,1,0-4.95-4.95,4.948,4.948,0,0,0,4.95,4.95"/><path d="M32.53,286.42a5.26,5.26,0,1,0-5.26-5.26,5.26,5.26,0,0,0,5.26,5.26"/><path d="M32.53,301.59a5.36,5.36,0,1,0-5.36-5.36,5.36,5.36,0,0,0,5.36,5.36"/><path d="M32.53,317.14a5.86,5.86,0,1,0-5.86-5.86,5.855,5.855,0,0,0,5.86,5.86"/><path d="M32.53,332.54a6.19,6.19,0,1,0-6.19-6.19,6.188,6.188,0,0,0,6.19,6.19"/><path d="M32.53,347.66a6.27,6.27,0,1,0-6.27-6.27,6.274,6.274,0,0,0,6.27,6.27"/><path d="M32.53,362.31a5.86,5.86,0,1,0-5.86-5.86,5.855,5.855,0,0,0,5.86,5.86"/><path d="M32.53,377.8a6.28,6.28,0,1,0-6.28-6.28,6.278,6.278,0,0,0,6.28,6.28"/><path d="M32.53,392.84a6.27,6.27,0,1,0-6.27-6.27,6.267,6.267,0,0,0,6.27,6.27"/><path d="M32.53,407.86a6.23,6.23,0,1,0-6.23-6.23,6.231,6.231,0,0,0,6.23,6.23"/><path d="M19.47,5.2a2.6,2.6,0,1,0-2.6-2.6,2.6,2.6,0,0,0,2.6,2.6"/><path d="M19.47,20.24a2.58,2.58,0,1,0-2.58-2.58,2.58,2.58,0,0,0,2.58,2.58"/><path d="M19.47,35.33a2.62,2.62,0,1,0-2.62-2.62,2.623,2.623,0,0,0,2.62,2.62"/><path d="M19.47,50.32a2.55,2.55,0,1,0-2.55-2.55,2.539,2.539,0,0,0,2.55,2.55"/><path d="M19.47,65.37a2.55,2.55,0,1,0-2.55-2.55,2.539,2.539,0,0,0,2.55,2.55"/><path d="M19.47,80.59a2.7,2.7,0,1,0-2.7-2.7,2.7,2.7,0,0,0,2.7,2.7"/><path d="M19.47,95.63a2.69,2.69,0,1,0-2.69-2.69,2.691,2.691,0,0,0,2.69,2.69"/><path d="M19.47,111.24A3.24,3.24,0,1,0,16.23,108a3.239,3.239,0,0,0,3.24,3.24"/><path d="M19.47,127.04a3.98,3.98,0,1,0-3.98-3.98,3.978,3.978,0,0,0,3.98,3.98"/><path d="M19.47,142.24a4.12,4.12,0,1,0-4.12-4.12,4.121,4.121,0,0,0,4.12,4.12"/><path d="M19.47,157.46a4.28,4.28,0,1,0-4.28-4.28,4.285,4.285,0,0,0,4.28,4.28"/><path d="M19.47,172.6a4.37,4.37,0,1,0-4.37-4.37,4.374,4.374,0,0,0,4.37,4.37"/><path d="M19.47,187.77a4.48,4.48,0,1,0-4.48-4.48,4.479,4.479,0,0,0,4.48,4.48"/><path d="M19.47,202.98a4.64,4.64,0,1,0-4.64-4.64,4.643,4.643,0,0,0,4.64,4.64"/><path d="M19.47,217.97a4.56,4.56,0,1,0-4.56-4.56,4.558,4.558,0,0,0,4.56,4.56"/><path d="M19.47,233.22a4.76,4.76,0,1,0-4.76-4.76,4.759,4.759,0,0,0,4.76,4.76"/><path d="M19.47,248.32a4.79,4.79,0,1,0-4.79-4.79,4.791,4.791,0,0,0,4.79,4.79"/><path d="M19.47,263.52a4.94,4.94,0,1,0-4.94-4.94,4.938,4.938,0,0,0,4.94,4.94"/><path d="M19.47,278.81a5.17,5.17,0,1,0-5.17-5.17,5.17,5.17,0,0,0,5.17,5.17"/><path d="M19.47,294.08a5.38,5.38,0,1,0-5.38-5.38,5.382,5.382,0,0,0,5.38,5.38"/><path d="M19.47,309.43a5.68,5.68,0,1,0-5.68-5.68,5.676,5.676,0,0,0,5.68,5.68"/><path d="M19.47,324.79a5.98,5.98,0,1,0-5.98-5.98,5.983,5.983,0,0,0,5.98,5.98"/><path d="M19.47,340.03a6.16,6.16,0,1,0-6.16-6.16,6.163,6.163,0,0,0,6.16,6.16"/><path d="M19.47,355.21a6.28,6.28,0,1,0-6.28-6.28,6.278,6.278,0,0,0,6.28,6.28"/><path d="M19.47,370.27a6.28,6.28,0,1,0-6.28-6.28,6.278,6.278,0,0,0,6.28,6.28"/><path d="M19.47,385.22a6.18,6.18,0,1,0-6.18-6.18,6.184,6.184,0,0,0,6.18,6.18"/><path d="M19.47,400.45a6.35,6.35,0,1,0-6.35-6.35,6.346,6.346,0,0,0,6.35,6.35"/><path d="M6.41,12.69a2.565,2.565,0,1,0-2.56-2.57,2.559,2.559,0,0,0,2.56,2.57"/><path d="M6.41,27.73a2.55,2.55,0,1,0-2.55-2.55,2.539,2.539,0,0,0,2.55,2.55"/><path d="M6.41,42.77a2.53,2.53,0,1,0-2.53-2.53,2.527,2.527,0,0,0,2.53,2.53"/><path d="M6.41,57.88A2.58,2.58,0,1,0,3.83,55.3a2.58,2.58,0,0,0,2.58,2.58"/><path d="M6.41,72.94a2.58,2.58,0,1,0-2.58-2.58,2.58,2.58,0,0,0,2.58,2.58"/><path d="M6.41,88.1a2.69,2.69,0,1,0-2.69-2.69A2.691,2.691,0,0,0,6.41,88.1"/><path d="M6.41,103.14a2.67,2.67,0,1,0-2.67-2.67,2.676,2.676,0,0,0,2.67,2.67"/><path d="M6.41,119.35a3.82,3.82,0,1,0-3.82-3.82,3.82,3.82,0,0,0,3.82,3.82"/><path d="M6.41,134.68a4.09,4.09,0,1,0-4.09-4.09,4.089,4.089,0,0,0,4.09,4.09"/><path d="M6.41,150.05A4.41,4.41,0,1,0,2,145.64a4.4,4.4,0,0,0,4.41,4.41"/><path d="M6.41,165.04a4.33,4.33,0,1,0-4.33-4.33,4.332,4.332,0,0,0,4.33,4.33"/><path d="M6.41,180.26a4.49,4.49,0,1,0-4.49-4.49,4.49,4.49,0,0,0,4.49,4.49"/><path d="M6.41,195.37a4.55,4.55,0,1,0-4.55-4.55,4.554,4.554,0,0,0,4.55,4.55"/><path d="M6.41,210.69a4.81,4.81,0,1,0-4.81-4.81,4.806,4.806,0,0,0,4.81,4.81"/><path d="M6.41,225.75a4.81,4.81,0,1,0-4.81-4.81,4.806,4.806,0,0,0,4.81,4.81"/><path d="M6.41,240.77a4.78,4.78,0,1,0-4.78-4.78,4.78,4.78,0,0,0,4.78,4.78"/><path d="M6.41,256.02a4.97,4.97,0,1,0-4.97-4.97,4.97,4.97,0,0,0,4.97,4.97"/><path d="M6.41,271.44a5.33,5.33,0,1,0-5.33-5.33,5.328,5.328,0,0,0,5.33,5.33"/><path d="M6.41,286.37a5.2,5.2,0,1,0-5.2-5.2,5.2,5.2,0,0,0,5.2,5.2"/><path d="M6.41,301.78a5.56,5.56,0,1,0-5.56-5.56,5.561,5.561,0,0,0,5.56,5.56"/><path d="M6.41,317.16a5.88,5.88,0,1,0-5.88-5.88,5.883,5.883,0,0,0,5.88,5.88"/><path d="M6.41,332.43a6.09,6.09,0,1,0-6.09-6.09,6.094,6.094,0,0,0,6.09,6.09"/><path d="M6.41,347.77A6.37,6.37,0,1,0,.04,341.4a6.368,6.368,0,0,0,6.37,6.37"/><path d="M6.41,362.63a6.18,6.18,0,1,0-6.18-6.18,6.184,6.184,0,0,0,6.18,6.18"/><path d="M6.41,377.92A6.41,6.41,0,1,0,0,371.51a6.41,6.41,0,0,0,6.41,6.41"/><path d="M6.41,392.94a6.37,6.37,0,1,0-6.37-6.37,6.368,6.368,0,0,0,6.37,6.37"/><path d="M6.41,407.84A6.21,6.21,0,1,0,.2,401.63a6.21,6.21,0,0,0,6.21,6.21"/></g></g><rect width="1514" height="188" transform="translate(0 159)"/><line class="c" x2="1920" transform="translate(0.5 343.5)"/></g></svg>