<svg xmlns="http://www.w3.org/2000/svg" xmlns:xlink="http://www.w3.org/1999/xlink" viewBox="0 0 1920.5 188"><defs><style>.a,.c{fill:none;}.a{stroke:#000;}.b{clip-path:url(#a);}.c{stroke:#76bc21;stroke-width:7px;}</style><clipPath id="a"><rect class="a" width="418" height="188" transform="translate(1502 159)"/></clipPath></defs><g transform="translate(0 -159)"><g class="b"><g transform="translate(1919.645 27.005) rotate(90)"><path d="M8.24,6.41a3.715,3.715,0,1,0-3.72,3.71A3.709,3.709,0,0,0,8.24,6.41"/><path d="M23.09,6.41a3.5,3.5,0,1,0-3.5,3.5,3.5,3.5,0,0,0,3.5-3.5"/><path d="M37.99,6.41a3.34,3.34,0,1,0-3.34,3.34,3.34,3.34,0,0,0,3.34-3.34"/><path d="M52.34,6.41a2.63,2.63,0,1,0-2.63,2.63,2.633,2.633,0,0,0,2.63-2.63"/><path d="M67.27,6.41a2.51,2.51,0,1,0-2.51,2.51,2.505,2.505,0,0,0,2.51-2.51"/><path d="M82.33,6.41a2.51,2.51,0,1,0-2.51,2.51,2.505,2.505,0,0,0,2.51-2.51"/><path d="M97.39,6.41a2.51,2.51,0,1,0-2.51,2.51,2.505,2.505,0,0,0,2.51-2.51"/><path d="M112.44,6.41a2.51,2.51,0,1,0-2.51,2.51,2.505,2.505,0,0,0,2.51-2.51"/><path d="M127.5,6.41a2.51,2.51,0,1,0-2.51,2.51,2.505,2.505,0,0,0,2.51-2.51"/><path d="M142.56,6.41a2.51,2.51,0,1,0-2.51,2.51,2.505,2.505,0,0,0,2.51-2.51"/><path d="M157.62,6.41a2.51,2.51,0,1,0-2.51,2.51,2.505,2.505,0,0,0,2.51-2.51"/><path d="M172.76,6.41a2.6,2.6,0,1,0-2.6,2.6,2.595,2.595,0,0,0,2.6-2.6"/><path d="M188.67,6.41a3.45,3.45,0,1,0-3.45,3.45,3.45,3.45,0,0,0,3.45-3.45"/><path d="M204.85,6.41a4.56,4.56,0,1,0-4.56,4.56,4.558,4.558,0,0,0,4.56-4.56"/><path d="M221.04,6.41a5.7,5.7,0,1,0-5.7,5.7,5.7,5.7,0,0,0,5.7-5.7"/><path d="M236.55,6.41a6.16,6.16,0,1,0-6.16,6.16,6.163,6.163,0,0,0,6.16-6.16"/><path d="M251.81,6.41a6.35,6.35,0,1,0-6.35,6.35,6.346,6.346,0,0,0,6.35-6.35"/><path d="M266.87,6.41a6.35,6.35,0,1,0-6.35,6.35,6.346,6.346,0,0,0,6.35-6.35"/><path d="M281.94,6.41a6.37,6.37,0,1,0-6.37,6.37,6.368,6.368,0,0,0,6.37-6.37"/><path d="M297.03,6.41a6.41,6.41,0,1,0-6.41,6.41,6.41,6.41,0,0,0,6.41-6.41"/><path d="M312.06,6.41a6.37,6.37,0,1,0-6.37,6.37,6.368,6.368,0,0,0,6.37-6.37"/><path d="M15.51,19.47a3.45,3.45,0,1,0-3.45,3.45,3.45,3.45,0,0,0,3.45-3.45"/><path d="M30.71,19.47a3.59,3.59,0,1,0-3.59,3.59,3.593,3.593,0,0,0,3.59-3.59"/><path d="M44.84,19.47a2.67,2.67,0,1,0-2.67,2.67,2.669,2.669,0,0,0,2.67-2.67"/><path d="M59.74,19.47a2.51,2.51,0,1,0-2.51,2.51,2.505,2.505,0,0,0,2.51-2.51"/><path d="M74.8,19.47a2.51,2.51,0,1,0-2.51,2.51,2.505,2.505,0,0,0,2.51-2.51"/><path d="M89.86,19.47a2.51,2.51,0,1,0-2.51,2.51,2.505,2.505,0,0,0,2.51-2.51"/><path d="M104.91,19.47a2.51,2.51,0,1,0-2.51,2.51,2.505,2.505,0,0,0,2.51-2.51"/><path d="M119.97,19.47a2.51,2.51,0,1,0-2.51,2.51,2.505,2.505,0,0,0,2.51-2.51"/><path d="M135.03,19.47a2.51,2.51,0,1,0-2.51,2.51,2.505,2.505,0,0,0,2.51-2.51"/><path d="M150.09,19.47a2.51,2.51,0,1,0-2.51,2.51,2.505,2.505,0,0,0,2.51-2.51"/><path d="M165.15,19.47a2.51,2.51,0,1,0-2.51,2.51,2.505,2.505,0,0,0,2.51-2.51"/><path d="M180.49,19.47a2.79,2.79,0,1,0-2.79,2.79,2.791,2.791,0,0,0,2.79-2.79"/><path d="M196.39,19.47a3.64,3.64,0,1,0-3.64,3.64,3.64,3.64,0,0,0,3.64-3.64"/><path d="M212.43,19.47a4.62,4.62,0,1,0-4.62,4.62,4.622,4.622,0,0,0,4.62-4.62"/><path d="M228.28,19.47a5.415,5.415,0,1,0-5.41,5.41,5.407,5.407,0,0,0,5.41-5.41"/><path d="M243.73,19.47a5.8,5.8,0,1,0-5.8,5.8,5.8,5.8,0,0,0,5.8-5.8"/><path d="M259.25,19.47a6.27,6.27,0,1,0-6.27,6.27,6.274,6.274,0,0,0,6.27-6.27"/><path d="M274.38,19.47a6.34,6.34,0,1,0-6.34,6.34,6.342,6.342,0,0,0,6.34-6.34"/><path d="M289.42,19.47a6.32,6.32,0,1,0-6.32,6.32,6.321,6.321,0,0,0,6.32-6.32"/><path d="M304.39,19.47a6.23,6.23,0,1,0-6.23,6.23,6.231,6.231,0,0,0,6.23-6.23"/><path d="M319.64,19.47a6.42,6.42,0,1,0-6.42,6.42,6.421,6.421,0,0,0,6.42-6.42"/><path d="M7.45,32.53a2.92,2.92,0,1,0-2.92,2.92,2.923,2.923,0,0,0,2.92-2.92"/><path d="M23.09,32.53a3.5,3.5,0,1,0-3.5,3.5,3.5,3.5,0,0,0,3.5-3.5"/><path d="M37.47,32.53a2.83,2.83,0,1,0-2.83,2.83,2.834,2.834,0,0,0,2.83-2.83"/><path d="M52.21,32.53a2.51,2.51,0,1,0-2.51,2.51,2.505,2.505,0,0,0,2.51-2.51"/><path d="M67.27,32.53a2.51,2.51,0,1,0-2.51,2.51,2.505,2.505,0,0,0,2.51-2.51"/><path d="M82.33,32.53a2.51,2.51,0,1,0-2.51,2.51,2.505,2.505,0,0,0,2.51-2.51"/><path d="M97.39,32.53a2.51,2.51,0,1,0-2.51,2.51,2.505,2.505,0,0,0,2.51-2.51"/><path d="M112.44,32.53a2.51,2.51,0,1,0-2.51,2.51,2.505,2.505,0,0,0,2.51-2.51"/><path d="M127.5,32.53a2.51,2.51,0,1,0-2.51,2.51,2.505,2.505,0,0,0,2.51-2.51"/><path d="M142.56,32.53a2.51,2.51,0,1,0-2.51,2.51,2.505,2.505,0,0,0,2.51-2.51"/><path d="M157.62,32.53a2.51,2.51,0,1,0-2.51,2.51,2.505,2.505,0,0,0,2.51-2.51"/><path d="M172.71,32.53a2.55,2.55,0,1,0-2.55,2.55,2.548,2.548,0,0,0,2.55-2.55"/><path d="M188.35,32.53a3.13,3.13,0,1,0-3.13,3.13,3.128,3.128,0,0,0,3.13-3.13"/><path d="M204.19,32.53a3.91,3.91,0,1,0-3.91,3.91,3.909,3.909,0,0,0,3.91-3.91"/><path d="M219.9,32.53a4.56,4.56,0,1,0-4.56,4.56,4.558,4.558,0,0,0,4.56-4.56"/><path d="M235.56,32.53a5.17,5.17,0,1,0-5.17,5.17,5.17,5.17,0,0,0,5.17-5.17"/><path d="M251.28,32.53a5.82,5.82,0,1,0-5.82,5.82,5.819,5.819,0,0,0,5.82-5.82"/><path d="M266.71,32.53a6.19,6.19,0,1,0-6.19,6.19,6.188,6.188,0,0,0,6.19-6.19"/><path d="M281.99,32.53a6.42,6.42,0,1,0-6.42,6.42,6.421,6.421,0,0,0,6.42-6.42"/><path d="M296.95,32.53a6.32,6.32,0,1,0-6.32,6.32,6.321,6.321,0,0,0,6.32-6.32"/><path d="M312,32.53a6.32,6.32,0,1,0-6.32,6.32A6.321,6.321,0,0,0,312,32.53"/><path d="M14.98,45.59a2.92,2.92,0,1,0-2.92,2.92,2.923,2.923,0,0,0,2.92-2.92"/><path d="M30.23,45.59a3.11,3.11,0,1,0-3.11,3.11,3.107,3.107,0,0,0,3.11-3.11"/><path d="M44.7,45.59a2.53,2.53,0,1,0-2.53,2.53,2.527,2.527,0,0,0,2.53-2.53"/><path d="M59.74,45.59a2.51,2.51,0,1,0-2.51,2.51,2.505,2.505,0,0,0,2.51-2.51"/><path d="M74.8,45.59a2.51,2.51,0,1,0-2.51,2.51,2.505,2.505,0,0,0,2.51-2.51"/><path d="M89.86,45.59a2.51,2.51,0,1,0-2.51,2.51,2.505,2.505,0,0,0,2.51-2.51"/><path d="M104.91,45.59a2.51,2.51,0,1,0-2.51,2.51,2.505,2.505,0,0,0,2.51-2.51"/><path d="M119.97,45.59a2.51,2.51,0,1,0-2.51,2.51,2.505,2.505,0,0,0,2.51-2.51"/><path d="M135.03,45.59a2.51,2.51,0,1,0-2.51,2.51,2.505,2.505,0,0,0,2.51-2.51"/><path d="M150.09,45.59a2.51,2.51,0,1,0-2.51,2.51,2.505,2.505,0,0,0,2.51-2.51"/><path d="M165.15,45.59a2.51,2.51,0,1,0-2.51,2.51,2.505,2.505,0,0,0,2.51-2.51"/><path d="M180.56,45.59a2.86,2.86,0,1,0-2.86,2.86,2.859,2.859,0,0,0,2.86-2.86"/><path d="M196.11,45.59a3.36,3.36,0,1,0-3.36,3.36,3.354,3.354,0,0,0,3.36-3.36"/><path d="M211.9,45.59a4.09,4.09,0,1,0-4.09,4.09,4.089,4.089,0,0,0,4.09-4.09"/><path d="M227.54,45.59a4.67,4.67,0,1,0-4.67,4.67,4.669,4.669,0,0,0,4.67-4.67"/><path d="M243.18,45.59a5.26,5.26,0,1,0-5.26,5.26,5.26,5.26,0,0,0,5.26-5.26"/><path d="M258.77,45.59a5.79,5.79,0,1,0-5.79,5.79,5.787,5.787,0,0,0,5.79-5.79"/><path d="M273.74,45.59a5.7,5.7,0,1,0-5.7,5.7,5.7,5.7,0,0,0,5.7-5.7"/><path d="M289.38,45.59a6.28,6.28,0,1,0-6.28,6.28,6.278,6.278,0,0,0,6.28-6.28"/><path d="M304.28,45.59a6.12,6.12,0,1,0-6.12,6.12,6.12,6.12,0,0,0,6.12-6.12"/><path d="M319.48,45.59a6.27,6.27,0,1,0-6.27,6.27,6.274,6.274,0,0,0,6.27-6.27"/><path d="M7.39,58.66a2.86,2.86,0,1,0-2.86,2.86,2.859,2.859,0,0,0,2.86-2.86"/><path d="M22.54,58.66a2.95,2.95,0,1,0-2.95,2.95,2.949,2.949,0,0,0,2.95-2.95"/><path d="M37.3,58.66a2.65,2.65,0,1,0-2.65,2.65,2.655,2.655,0,0,0,2.65-2.65"/><path d="M52.21,58.66a2.51,2.51,0,1,0-2.51,2.51,2.505,2.505,0,0,0,2.51-2.51"/><path d="M67.27,58.66a2.51,2.51,0,1,0-2.51,2.51,2.505,2.505,0,0,0,2.51-2.51"/><path d="M82.33,58.66a2.51,2.51,0,1,0-2.51,2.51,2.505,2.505,0,0,0,2.51-2.51"/><path d="M97.39,58.66a2.51,2.51,0,1,0-2.51,2.51,2.505,2.505,0,0,0,2.51-2.51"/><path d="M112.44,58.66a2.51,2.51,0,1,0-2.51,2.51,2.505,2.505,0,0,0,2.51-2.51"/><path d="M127.5,58.66a2.51,2.51,0,1,0-2.51,2.51,2.505,2.505,0,0,0,2.51-2.51"/><path d="M142.56,58.66a2.51,2.51,0,1,0-2.51,2.51,2.505,2.505,0,0,0,2.51-2.51"/><path d="M157.62,58.66a2.51,2.51,0,1,0-2.51,2.51,2.505,2.505,0,0,0,2.51-2.51"/><path d="M172.89,58.66a2.72,2.72,0,1,0-2.72,2.72,2.723,2.723,0,0,0,2.72-2.72"/><path d="M188.33,58.66a3.11,3.11,0,1,0-3.11,3.11,3.107,3.107,0,0,0,3.11-3.11"/><path d="M203.99,58.66a3.71,3.71,0,1,0-3.71,3.71,3.709,3.709,0,0,0,3.71-3.71"/><path d="M219.57,58.66a4.23,4.23,0,1,0-4.23,4.23,4.225,4.225,0,0,0,4.23-4.23"/><path d="M235.14,58.66a4.74,4.74,0,1,0-4.74,4.74,4.737,4.737,0,0,0,4.74-4.74"/><path d="M250.92,58.66a5.47,5.47,0,1,0-5.47,5.47,5.471,5.471,0,0,0,5.47-5.47"/><path d="M266.32,58.66a5.8,5.8,0,1,0-5.8,5.8,5.8,5.8,0,0,0,5.8-5.8"/><path d="M281.68,58.66a6.11,6.11,0,1,0-6.11,6.11,6.109,6.109,0,0,0,6.11-6.11"/><path d="M296.93,58.66a6.3,6.3,0,1,0-6.3,6.3,6.3,6.3,0,0,0,6.3-6.3"/><path d="M312,58.66a6.32,6.32,0,1,0-6.32,6.32A6.321,6.321,0,0,0,312,58.66"/><path d="M14.78,71.72a2.72,2.72,0,1,0-2.72,2.72,2.723,2.723,0,0,0,2.72-2.72"/><path d="M29.98,71.72a2.86,2.86,0,1,0-2.86,2.86,2.859,2.859,0,0,0,2.86-2.86"/><path d="M44.68,71.72a2.51,2.51,0,1,0-2.51,2.51,2.505,2.505,0,0,0,2.51-2.51"/><path d="M59.74,71.72a2.51,2.51,0,1,0-2.51,2.51,2.505,2.505,0,0,0,2.51-2.51"/><path d="M74.8,71.72a2.51,2.51,0,1,0-2.51,2.51,2.505,2.505,0,0,0,2.51-2.51"/><path d="M89.86,71.72a2.51,2.51,0,1,0-2.51,2.51,2.505,2.505,0,0,0,2.51-2.51"/><path d="M104.91,71.72a2.51,2.51,0,1,0-2.51,2.51,2.505,2.505,0,0,0,2.51-2.51"/><path d="M119.97,71.72a2.51,2.51,0,1,0-2.51,2.51,2.505,2.505,0,0,0,2.51-2.51"/><path d="M135.03,71.72a2.51,2.51,0,1,0-2.51,2.51,2.505,2.505,0,0,0,2.51-2.51"/><path d="M150.09,71.72a2.51,2.51,0,1,0-2.51,2.51,2.505,2.505,0,0,0,2.51-2.51"/><path d="M165.32,71.72a2.69,2.69,0,1,0-2.69,2.69,2.691,2.691,0,0,0,2.69-2.69"/><path d="M180.75,71.72a3.06,3.06,0,1,0-3.06,3.06,3.06,3.06,0,0,0,3.06-3.06"/><path d="M196.22,71.72a3.47,3.47,0,1,0-3.47,3.47,3.472,3.472,0,0,0,3.47-3.47"/><path d="M211.79,71.72a3.98,3.98,0,1,0-3.98,3.98,3.978,3.978,0,0,0,3.98-3.98"/><path d="M227.2,71.72a4.33,4.33,0,1,0-4.33,4.33,4.332,4.332,0,0,0,4.33-4.33"/><path d="M242.79,71.72a4.87,4.87,0,1,0-4.87,4.87,4.87,4.87,0,0,0,4.87-4.87"/><path d="M258.4,71.72a5.41,5.41,0,1,0-5.41,5.41,5.416,5.416,0,0,0,5.41-5.41"/><path d="M273.7,71.72a5.66,5.66,0,1,0-5.66,5.66,5.661,5.661,0,0,0,5.66-5.66"/><path d="M289.27,71.72a6.18,6.18,0,1,0-6.18,6.18,6.184,6.184,0,0,0,6.18-6.18"/><path d="M304.23,71.72a6.07,6.07,0,1,0-6.07,6.07,6.073,6.073,0,0,0,6.07-6.07"/><path d="M319.57,71.72a6.35,6.35,0,1,0-6.35,6.35,6.346,6.346,0,0,0,6.35-6.35"/><path d="M7.3,84.78a2.78,2.78,0,1,0-2.78,2.78A2.78,2.78,0,0,0,7.3,84.78"/><path d="M22.4,84.78a2.81,2.81,0,1,0-2.81,2.81,2.812,2.812,0,0,0,2.81-2.81"/><path d="M37.21,84.78a2.56,2.56,0,1,0-2.56,2.56,2.559,2.559,0,0,0,2.56-2.56"/><path d="M52.21,84.78a2.51,2.51,0,1,0-2.51,2.51,2.505,2.505,0,0,0,2.51-2.51"/><path d="M67.27,84.78a2.51,2.51,0,1,0-2.51,2.51,2.505,2.505,0,0,0,2.51-2.51"/><path d="M82.33,84.78a2.51,2.51,0,1,0-2.51,2.51,2.505,2.505,0,0,0,2.51-2.51"/><path d="M97.39,84.78a2.51,2.51,0,1,0-2.51,2.51,2.505,2.505,0,0,0,2.51-2.51"/><path d="M112.44,84.78a2.51,2.51,0,1,0-2.51,2.51,2.505,2.505,0,0,0,2.51-2.51"/><path d="M127.5,84.78a2.51,2.51,0,1,0-2.51,2.51,2.505,2.505,0,0,0,2.51-2.51"/><path d="M142.56,84.78a2.51,2.51,0,1,0-2.51,2.51,2.505,2.505,0,0,0,2.51-2.51"/><path d="M157.78,84.78a2.67,2.67,0,1,0-2.67,2.67,2.676,2.676,0,0,0,2.67-2.67"/><path d="M173.21,84.78a3.04,3.04,0,1,0-3.04,3.04,3.039,3.039,0,0,0,3.04-3.04"/><path d="M188.53,84.78a3.31,3.31,0,1,0-3.31,3.31,3.308,3.308,0,0,0,3.31-3.31"/><path d="M204.07,84.78a3.79,3.79,0,1,0-3.79,3.79,3.788,3.788,0,0,0,3.79-3.79"/><path d="M219.44,84.78a4.1,4.1,0,1,0-4.1,4.1,4.1,4.1,0,0,0,4.1-4.1"/><path d="M234.82,84.78a4.42,4.42,0,1,0-4.42,4.42,4.421,4.421,0,0,0,4.42-4.42"/><path d="M250.32,84.78a4.87,4.87,0,1,0-4.87,4.87,4.87,4.87,0,0,0,4.87-4.87"/><path d="M265.8,84.78a5.29,5.29,0,1,0-5.29,5.29,5.292,5.292,0,0,0,5.29-5.29"/><path d="M281.43,84.78a5.86,5.86,0,1,0-5.86,5.86,5.855,5.855,0,0,0,5.86-5.86"/><path d="M296.59,84.78a5.96,5.96,0,1,0-5.96,5.96,5.962,5.962,0,0,0,5.96-5.96"/><path d="M311.9,84.78a6.21,6.21,0,1,0-6.21,6.21,6.21,6.21,0,0,0,6.21-6.21"/><path d="M14.64,97.85a2.58,2.58,0,1,0-2.58,2.58,2.58,2.58,0,0,0,2.58-2.58"/><path d="M29.64,97.85a2.53,2.53,0,1,0-2.53,2.53,2.527,2.527,0,0,0,2.53-2.53"/><path d="M44.68,97.85a2.51,2.51,0,1,0-2.51,2.51,2.505,2.505,0,0,0,2.51-2.51"/><path d="M59.74,97.85a2.51,2.51,0,1,0-2.51,2.51,2.505,2.505,0,0,0,2.51-2.51"/><path d="M74.8,97.85a2.51,2.51,0,1,0-2.51,2.51,2.505,2.505,0,0,0,2.51-2.51"/><path d="M89.86,97.85a2.51,2.51,0,1,0-2.51,2.51,2.505,2.505,0,0,0,2.51-2.51"/><path d="M104.91,97.85a2.51,2.51,0,1,0-2.51,2.51,2.505,2.505,0,0,0,2.51-2.51"/><path d="M119.97,97.85a2.51,2.51,0,1,0-2.51,2.51,2.505,2.505,0,0,0,2.51-2.51"/><path d="M135.03,97.85a2.51,2.51,0,1,0-2.51,2.51,2.505,2.505,0,0,0,2.51-2.51"/><path d="M150.3,97.85a2.72,2.72,0,1,0-2.72,2.72,2.723,2.723,0,0,0,2.72-2.72"/><path d="M165.66,97.85a3.02,3.02,0,1,0-3.02,3.02,3.017,3.017,0,0,0,3.02-3.02"/><path d="M180.95,97.85a3.25,3.25,0,1,0-3.25,3.25,3.25,3.25,0,0,0,3.25-3.25"/><path d="M196.38,97.85a3.63,3.63,0,1,0-3.63,3.63,3.63,3.63,0,0,0,3.63-3.63"/><path d="M211.86,97.85a4.05,4.05,0,1,0-4.05,4.05,4.046,4.046,0,0,0,4.05-4.05"/><path d="M227.11,97.85a4.25,4.25,0,1,0-4.25,4.25,4.253,4.253,0,0,0,4.25-4.25"/><path d="M242.61,97.85a4.69,4.69,0,1,0-4.69,4.69,4.69,4.69,0,0,0,4.69-4.69"/><path d="M258.06,97.85a5.08,5.08,0,1,0-5.08,5.08,5.081,5.081,0,0,0,5.08-5.08"/><path d="M273.56,97.85a5.52,5.52,0,1,0-5.52,5.52,5.518,5.518,0,0,0,5.52-5.52"/><path d="M288.83,97.85a5.73,5.73,0,1,0-5.73,5.73,5.729,5.729,0,0,0,5.73-5.73"/><path d="M304.3,97.85a6.14,6.14,0,1,0-6.14,6.14,6.141,6.141,0,0,0,6.14-6.14"/><path d="M319.2,97.85a5.98,5.98,0,1,0-5.98,5.98,5.983,5.983,0,0,0,5.98-5.98"/><path d="M7.04,110.91a2.51,2.51,0,1,0-2.51,2.51,2.505,2.505,0,0,0,2.51-2.51"/><path d="M22.1,110.91a2.51,2.51,0,1,0-2.51,2.51,2.505,2.505,0,0,0,2.51-2.51"/><path d="M37.15,110.91a2.51,2.51,0,1,0-2.51,2.51,2.505,2.505,0,0,0,2.51-2.51"/><path d="M52.21,110.91a2.51,2.51,0,1,0-2.51,2.51,2.505,2.505,0,0,0,2.51-2.51"/><path d="M67.27,110.91a2.51,2.51,0,1,0-2.51,2.51,2.505,2.505,0,0,0,2.51-2.51"/><path d="M82.33,110.91a2.51,2.51,0,1,0-2.51,2.51,2.505,2.505,0,0,0,2.51-2.51"/><path d="M97.39,110.91a2.51,2.51,0,1,0-2.51,2.51,2.505,2.505,0,0,0,2.51-2.51"/><path d="M112.44,110.91a2.51,2.51,0,1,0-2.51,2.51,2.505,2.505,0,0,0,2.51-2.51"/><path d="M127.59,110.91a2.6,2.6,0,1,0-2.6,2.6,2.6,2.6,0,0,0,2.6-2.6"/><path d="M142.88,110.91a2.83,2.83,0,1,0-2.83,2.83,2.834,2.834,0,0,0,2.83-2.83"/><path d="M158.13,110.91a3.02,3.02,0,1,0-3.02,3.02,3.017,3.017,0,0,0,3.02-3.02"/><path d="M173.35,110.91a3.18,3.18,0,1,0-3.18,3.18,3.182,3.182,0,0,0,3.18-3.18"/><path d="M188.72,110.91a3.5,3.5,0,1,0-3.5,3.5,3.5,3.5,0,0,0,3.5-3.5"/><path d="M204.08,110.91a3.8,3.8,0,1,0-3.8,3.8,3.8,3.8,0,0,0,3.8-3.8"/><path d="M219.44,110.91a4.1,4.1,0,1,0-4.1,4.1,4.1,4.1,0,0,0,4.1-4.1"/><path d="M234.68,110.91a4.28,4.28,0,1,0-4.28,4.28,4.285,4.285,0,0,0,4.28-4.28"/><path d="M250.11,110.91a4.65,4.65,0,1,0-4.65,4.65,4.648,4.648,0,0,0,4.65-4.65"/><path d="M265.5,110.91a4.99,4.99,0,1,0-4.99,4.99,4.985,4.985,0,0,0,4.99-4.99"/><path d="M280.98,110.91a5.41,5.41,0,1,0-5.41,5.42,5.407,5.407,0,0,0,5.41-5.42"/><path d="M296.15,110.91a5.52,5.52,0,1,0-5.52,5.52,5.518,5.518,0,0,0,5.52-5.52"/><path d="M311.63,110.91a5.95,5.95,0,1,0-5.95,5.95,5.951,5.951,0,0,0,5.95-5.95"/><path d="M14.57,123.97a2.51,2.51,0,1,0-2.51,2.51,2.505,2.505,0,0,0,2.51-2.51"/><path d="M29.63,123.97a2.51,2.51,0,1,0-2.51,2.51,2.505,2.505,0,0,0,2.51-2.51"/><path d="M44.68,123.97a2.51,2.51,0,1,0-2.51,2.51,2.505,2.505,0,0,0,2.51-2.51"/><path d="M59.74,123.97a2.51,2.51,0,1,0-2.51,2.51,2.505,2.505,0,0,0,2.51-2.51"/><path d="M74.8,123.97a2.51,2.51,0,1,0-2.51,2.51,2.505,2.505,0,0,0,2.51-2.51"/><path d="M89.86,123.97a2.51,2.51,0,1,0-2.51,2.51,2.505,2.505,0,0,0,2.51-2.51"/><path d="M104.91,123.97a2.51,2.51,0,1,0-2.51,2.51,2.505,2.505,0,0,0,2.51-2.51"/><path d="M120.06,123.97a2.6,2.6,0,1,0-2.6,2.6,2.595,2.595,0,0,0,2.6-2.6"/><path d="M135.38,123.97a2.86,2.86,0,1,0-2.86,2.86,2.859,2.859,0,0,0,2.86-2.86"/><path d="M150.6,123.97a3.02,3.02,0,1,0-3.02,3.02,3.017,3.017,0,0,0,3.02-3.02"/><path d="M165.84,123.97a3.2,3.2,0,1,0-3.2,3.2,3.2,3.2,0,0,0,3.2-3.2"/><path d="M181.07,123.97a3.38,3.38,0,1,0-3.38,3.38,3.376,3.376,0,0,0,3.38-3.38"/><path d="M196.39,123.97a3.64,3.64,0,1,0-3.64,3.64,3.64,3.64,0,0,0,3.64-3.64"/><path d="M211.82,123.97a4.02,4.02,0,1,0-4.02,4.02,4.02,4.02,0,0,0,4.02-4.02"/><path d="M226.99,123.97a4.12,4.12,0,1,0-4.12,4.12,4.121,4.121,0,0,0,4.12-4.12"/><path d="M242.31,123.97a4.39,4.39,0,1,0-4.39,4.39,4.389,4.389,0,0,0,4.39-4.39"/><path d="M257.57,123.97a4.58,4.58,0,1,0-4.58,4.58,4.579,4.579,0,0,0,4.58-4.58"/><path d="M273.1,123.97a5.06,5.06,0,1,0-5.06,5.06,5.066,5.066,0,0,0,5.06-5.06"/><path d="M288.55,123.97a5.45,5.45,0,1,0-5.45,5.45,5.45,5.45,0,0,0,5.45-5.45"/><path d="M303.98,123.97a5.82,5.82,0,1,0-5.82,5.82,5.819,5.819,0,0,0,5.82-5.82"/><path d="M319.04,123.97a5.82,5.82,0,1,0-5.82,5.82,5.819,5.819,0,0,0,5.82-5.82"/><path d="M7.04,137.03a2.51,2.51,0,1,0-2.51,2.51,2.505,2.505,0,0,0,2.51-2.51"/><path d="M22.1,137.03a2.51,2.51,0,1,0-2.51,2.51,2.505,2.505,0,0,0,2.51-2.51"/><path d="M37.15,137.03a2.51,2.51,0,1,0-2.51,2.51,2.505,2.505,0,0,0,2.51-2.51"/><path d="M52.21,137.03a2.51,2.51,0,1,0-2.51,2.51,2.505,2.505,0,0,0,2.51-2.51"/><path d="M67.27,137.03a2.51,2.51,0,1,0-2.51,2.51,2.505,2.505,0,0,0,2.51-2.51"/><path d="M82.33,137.03a2.51,2.51,0,1,0-2.51,2.51,2.505,2.505,0,0,0,2.51-2.51"/><path d="M97.39,137.03a2.51,2.51,0,1,0-2.51,2.51,2.505,2.505,0,0,0,2.51-2.51"/><path d="M112.44,137.03a2.51,2.51,0,1,0-2.51,2.51,2.505,2.505,0,0,0,2.51-2.51"/><path d="M127.75,137.03a2.76,2.76,0,1,0-2.76,2.76,2.759,2.759,0,0,0,2.76-2.76"/><path d="M142.98,137.03a2.93,2.93,0,1,0-2.93,2.93,2.928,2.928,0,0,0,2.93-2.93"/><path d="M158.13,137.03a3.02,3.02,0,1,0-3.02,3.02,3.017,3.017,0,0,0,3.02-3.02"/><path d="M173.44,137.03a3.27,3.27,0,1,0-3.27,3.27,3.265,3.265,0,0,0,3.27-3.27"/><path d="M188.8,137.03a3.57,3.57,0,1,0-3.57,3.57,3.572,3.572,0,0,0,3.57-3.57"/><path d="M204.12,137.03a3.84,3.84,0,1,0-3.84,3.84,3.841,3.841,0,0,0,3.84-3.84"/><path d="M219.42,137.03a4.09,4.09,0,1,0-4.09,4.09,4.089,4.089,0,0,0,4.09-4.09"/><path d="M234.66,137.03a4.26,4.26,0,1,0-4.26,4.26,4.263,4.263,0,0,0,4.26-4.26"/><path d="M249.93,137.03a4.48,4.48,0,1,0-4.48,4.48,4.479,4.479,0,0,0,4.48-4.48"/><path d="M265.2,137.03a4.69,4.69,0,1,0-4.69,4.69,4.69,4.69,0,0,0,4.69-4.69"/><path d="M280.56,137.03a4.99,4.99,0,1,0-4.99,4.99,4.985,4.985,0,0,0,4.99-4.99"/><path d="M295.94,137.03a5.31,5.31,0,1,0-5.31,5.31,5.313,5.313,0,0,0,5.31-5.31"/><path d="M311.38,137.03a5.7,5.7,0,1,0-5.7,5.7,5.7,5.7,0,0,0,5.7-5.7"/><path d="M14.57,150.1a2.51,2.51,0,1,0-2.51,2.51,2.505,2.505,0,0,0,2.51-2.51"/><path d="M29.63,150.1a2.51,2.51,0,1,0-2.51,2.51,2.505,2.505,0,0,0,2.51-2.51"/><path d="M44.68,150.1a2.51,2.51,0,1,0-2.51,2.51,2.505,2.505,0,0,0,2.51-2.51"/><path d="M59.74,150.1a2.51,2.51,0,1,0-2.51,2.51,2.505,2.505,0,0,0,2.51-2.51"/><path d="M74.8,150.1a2.51,2.51,0,1,0-2.51,2.51,2.505,2.505,0,0,0,2.51-2.51"/><path d="M89.86,150.1a2.51,2.51,0,1,0-2.51,2.51,2.505,2.505,0,0,0,2.51-2.51"/><path d="M104.91,150.1a2.51,2.51,0,1,0-2.51,2.51,2.505,2.505,0,0,0,2.51-2.51"/><path d="M119.97,150.1a2.51,2.51,0,1,0-2.51,2.51,2.505,2.505,0,0,0,2.51-2.51"/><path d="M135.24,150.1a2.72,2.72,0,1,0-2.72,2.72,2.723,2.723,0,0,0,2.72-2.72"/><path d="M150.48,150.1a2.9,2.9,0,1,0-2.9,2.9,2.9,2.9,0,0,0,2.9-2.9"/><path d="M165.71,150.1a3.08,3.08,0,1,0-3.08,3.08,3.081,3.081,0,0,0,3.08-3.08"/><path d="M181.05,150.1a3.36,3.36,0,1,0-3.36,3.36,3.354,3.354,0,0,0,3.36-3.36"/><path d="M196.32,150.1a3.57,3.57,0,1,0-3.57,3.57,3.572,3.572,0,0,0,3.57-3.57"/><path d="M211.67,150.1a3.86,3.86,0,1,0-3.86,3.86,3.862,3.862,0,0,0,3.86-3.86"/><path d="M226.97,150.1a4.1,4.1,0,1,0-4.1,4.1,4.1,4.1,0,0,0,4.1-4.1"/><path d="M242.19,150.1a4.26,4.26,0,1,0-4.26,4.26,4.263,4.263,0,0,0,4.26-4.26"/><path d="M257.48,150.1a4.49,4.49,0,1,0-4.49,4.49,4.49,4.49,0,0,0,4.49-4.49"/><path d="M272.73,150.1a4.69,4.69,0,1,0-4.69,4.69,4.69,4.69,0,0,0,4.69-4.69"/><path d="M288.09,150.1a4.99,4.99,0,1,0-4.99,4.99,4.985,4.985,0,0,0,4.99-4.99"/><path d="M303.66,150.1a5.5,5.5,0,1,0-5.5,5.5,5.5,5.5,0,0,0,5.5-5.5"/><path d="M318.93,150.1a5.72,5.72,0,1,0-5.72,5.72,5.719,5.719,0,0,0,5.72-5.72"/><path d="M7.04,163.16a2.51,2.51,0,1,0-2.51,2.51,2.505,2.505,0,0,0,2.51-2.51"/><path d="M22.1,163.16a2.51,2.51,0,1,0-2.51,2.51,2.505,2.505,0,0,0,2.51-2.51"/><path d="M37.15,163.16a2.51,2.51,0,1,0-2.51,2.51,2.505,2.505,0,0,0,2.51-2.51"/><path d="M52.21,163.16a2.51,2.51,0,1,0-2.51,2.51,2.505,2.505,0,0,0,2.51-2.51"/><path d="M67.27,163.16a2.51,2.51,0,1,0-2.51,2.51,2.505,2.505,0,0,0,2.51-2.51"/><path d="M82.33,163.16a2.51,2.51,0,1,0-2.51,2.51,2.505,2.505,0,0,0,2.51-2.51"/><path d="M97.39,163.16a2.51,2.51,0,1,0-2.51,2.51,2.505,2.505,0,0,0,2.51-2.51"/><path d="M112.44,163.16a2.51,2.51,0,1,0-2.51,2.51,2.505,2.505,0,0,0,2.51-2.51"/><path d="M127.57,163.16a2.58,2.58,0,1,0-2.58,2.58,2.58,2.58,0,0,0,2.58-2.58"/><path d="M142.79,163.16a2.74,2.74,0,1,0-2.74,2.74,2.744,2.744,0,0,0,2.74-2.74"/><path d="M157.97,163.16a2.86,2.86,0,1,0-2.86,2.86,2.859,2.859,0,0,0,2.86-2.86"/><path d="M173.35,163.16a3.18,3.18,0,1,0-3.18,3.18,3.182,3.182,0,0,0,3.18-3.18"/><path d="M188.72,163.16a3.5,3.5,0,1,0-3.5,3.5,3.5,3.5,0,0,0,3.5-3.5"/><path d="M204.12,163.16a3.84,3.84,0,1,0-3.84,3.84,3.841,3.841,0,0,0,3.84-3.84"/><path d="M219.39,163.16a4.05,4.05,0,1,0-4.05,4.05,4.046,4.046,0,0,0,4.05-4.05"/><path d="M234.62,163.16a4.23,4.23,0,1,0-4.23,4.23,4.225,4.225,0,0,0,4.23-4.23"/><path d="M249.75,163.16a4.3,4.3,0,1,0-4.3,4.3,4.3,4.3,0,0,0,4.3-4.3"/><path d="M265.11,163.16a4.6,4.6,0,1,0-4.6,4.6,4.6,4.6,0,0,0,4.6-4.6"/><path d="M280.35,163.16a4.78,4.78,0,1,0-4.78,4.78,4.78,4.78,0,0,0,4.78-4.78"/><path d="M295.76,163.16a5.13,5.13,0,1,0-5.13,5.13,5.134,5.134,0,0,0,5.13-5.13"/><path d="M311.01,163.16a5.33,5.33,0,1,0-5.33,5.33,5.328,5.328,0,0,0,5.33-5.33"/><path d="M14.57,176.22a2.51,2.51,0,1,0-2.51,2.51,2.505,2.505,0,0,0,2.51-2.51"/><path d="M29.63,176.22a2.51,2.51,0,1,0-2.51,2.51,2.505,2.505,0,0,0,2.51-2.51"/><path d="M44.68,176.22a2.51,2.51,0,1,0-2.51,2.51,2.505,2.505,0,0,0,2.51-2.51"/><path d="M59.74,176.22a2.51,2.51,0,1,0-2.51,2.51,2.505,2.505,0,0,0,2.51-2.51"/><path d="M74.8,176.22a2.51,2.51,0,1,0-2.51,2.51,2.505,2.505,0,0,0,2.51-2.51"/><path d="M89.86,176.22a2.51,2.51,0,1,0-2.51,2.51,2.505,2.505,0,0,0,2.51-2.51"/><path d="M104.91,176.22a2.51,2.51,0,1,0-2.51,2.51,2.505,2.505,0,0,0,2.51-2.51"/><path d="M119.97,176.22a2.51,2.51,0,1,0-2.51,2.51,2.505,2.505,0,0,0,2.51-2.51"/><path d="M135.1,176.22a2.58,2.58,0,1,0-2.58,2.58,2.58,2.58,0,0,0,2.58-2.58"/><path d="M150.28,176.22a2.7,2.7,0,1,0-2.7,2.7,2.7,2.7,0,0,0,2.7-2.7"/><path d="M165.55,176.22a2.92,2.92,0,1,0-2.92,2.92,2.923,2.923,0,0,0,2.92-2.92"/><path d="M180.93,176.22a3.24,3.24,0,1,0-3.24,3.24,3.239,3.239,0,0,0,3.24-3.24"/><path d="M196.34,176.22a3.59,3.59,0,1,0-3.59,3.59,3.593,3.593,0,0,0,3.59-3.59"/><path d="M211.74,176.22a3.93,3.93,0,1,0-3.93,3.93,3.931,3.931,0,0,0,3.93-3.93"/><path d="M226.94,176.22a4.07,4.07,0,1,0-4.07,4.07,4.067,4.067,0,0,0,4.07-4.07"/><path d="M242.03,176.22a4.1,4.1,0,1,0-4.1,4.1,4.1,4.1,0,0,0,4.1-4.1"/><path d="M257.39,176.22a4.41,4.41,0,1,0-4.41,4.4,4.411,4.411,0,0,0,4.41-4.4"/><path d="M272.61,176.22a4.56,4.56,0,1,0-4.56,4.56,4.558,4.558,0,0,0,4.56-4.56"/><path d="M288.07,176.22a4.97,4.97,0,1,0-4.97,4.97,4.97,4.97,0,0,0,4.97-4.97"/><path d="M303.25,176.22a5.1,5.1,0,1,0-5.1,5.1,5.1,5.1,0,0,0,5.1-5.1"/><path d="M318.7,176.22a5.49,5.49,0,1,0-5.49,5.49,5.493,5.493,0,0,0,5.49-5.49"/><path d="M7.04,189.28a2.51,2.51,0,1,0-2.51,2.51,2.505,2.505,0,0,0,2.51-2.51"/><path d="M22.1,189.28a2.51,2.51,0,1,0-2.51,2.51,2.505,2.505,0,0,0,2.51-2.51"/><path d="M37.15,189.28a2.51,2.51,0,1,0-2.51,2.51,2.505,2.505,0,0,0,2.51-2.51"/><path d="M52.21,189.28a2.51,2.51,0,1,0-2.51,2.51,2.505,2.505,0,0,0,2.51-2.51"/><path d="M67.27,189.28a2.51,2.51,0,1,0-2.51,2.51,2.505,2.505,0,0,0,2.51-2.51"/><path d="M82.33,189.28a2.51,2.51,0,1,0-2.51,2.51,2.505,2.505,0,0,0,2.51-2.51"/><path d="M97.39,189.28a2.51,2.51,0,1,0-2.51,2.51,2.505,2.505,0,0,0,2.51-2.51"/><path d="M112.44,189.28a2.51,2.51,0,1,0-2.51,2.51,2.505,2.505,0,0,0,2.51-2.51"/><path d="M127.5,189.28a2.51,2.51,0,1,0-2.51,2.51,2.505,2.505,0,0,0,2.51-2.51"/><path d="M142.67,189.28a2.62,2.62,0,1,0-2.62,2.62,2.623,2.623,0,0,0,2.62-2.62"/><path d="M157.88,189.28a2.78,2.78,0,1,0-2.78,2.78,2.78,2.78,0,0,0,2.78-2.78"/><path d="M173.14,189.28a2.97,2.97,0,1,0-2.97,2.97,2.97,2.97,0,0,0,2.97-2.97"/><path d="M188.51,189.28a3.29,3.29,0,1,0-3.29,3.29,3.286,3.286,0,0,0,3.29-3.29"/><path d="M203.98,189.28a3.7,3.7,0,1,0-3.7,3.7,3.7,3.7,0,0,0,3.7-3.7"/><path d="M219.23,189.28a3.89,3.89,0,1,0-3.89,3.89,3.888,3.888,0,0,0,3.89-3.89"/><path d="M234.48,189.28a4.09,4.09,0,1,0-4.09,4.09,4.089,4.089,0,0,0,4.09-4.09"/><path d="M249.75,189.28a4.3,4.3,0,1,0-4.3,4.3,4.3,4.3,0,0,0,4.3-4.3"/><path d="M264.97,189.28a4.46,4.46,0,1,0-4.46,4.46,4.464,4.464,0,0,0,4.46-4.46"/><path d="M280.15,189.28a4.58,4.58,0,1,0-4.58,4.58,4.579,4.579,0,0,0,4.58-4.58"/><path d="M295.56,189.28a4.94,4.94,0,1,0-4.94,4.94,4.938,4.938,0,0,0,4.94-4.94"/><path d="M310.87,189.28a5.18,5.18,0,1,0-5.18,5.18,5.181,5.181,0,0,0,5.18-5.18"/><path d="M14.57,202.35a2.51,2.51,0,1,0-2.51,2.51,2.505,2.505,0,0,0,2.51-2.51"/><path d="M29.63,202.35a2.51,2.51,0,1,0-2.51,2.51,2.505,2.505,0,0,0,2.51-2.51"/><path d="M44.68,202.35a2.51,2.51,0,1,0-2.51,2.51,2.505,2.505,0,0,0,2.51-2.51"/><path d="M59.74,202.35a2.51,2.51,0,1,0-2.51,2.51,2.505,2.505,0,0,0,2.51-2.51"/><path d="M74.8,202.35a2.51,2.51,0,1,0-2.51,2.51,2.505,2.505,0,0,0,2.51-2.51"/><path d="M89.86,202.35a2.51,2.51,0,1,0-2.51,2.51,2.505,2.505,0,0,0,2.51-2.51"/><path d="M104.91,202.35a2.51,2.51,0,1,0-2.51,2.51,2.505,2.505,0,0,0,2.51-2.51"/><path d="M119.97,202.35a2.51,2.51,0,1,0-2.51,2.51,2.505,2.505,0,0,0,2.51-2.51"/><path d="M135.03,202.35a2.51,2.51,0,1,0-2.51,2.51,2.505,2.505,0,0,0,2.51-2.51"/><path d="M150.23,202.35a2.65,2.65,0,1,0-2.65,2.65,2.655,2.655,0,0,0,2.65-2.65"/><path d="M165.46,202.35a2.83,2.83,0,1,0-2.83,2.83,2.834,2.834,0,0,0,2.83-2.83"/><path d="M180.77,202.35a3.08,3.08,0,1,0-3.08,3.08,3.081,3.081,0,0,0,3.08-3.08"/><path d="M196.15,202.35a3.4,3.4,0,1,0-3.4,3.4,3.4,3.4,0,0,0,3.4-3.4"/><path d="M211.51,202.35a3.7,3.7,0,1,0-3.7,3.7,3.7,3.7,0,0,0,3.7-3.7"/><path d="M226.81,202.35a3.94,3.94,0,1,0-3.94,3.94,3.941,3.941,0,0,0,3.94-3.94"/><path d="M242.14,202.35a4.21,4.21,0,1,0-4.21,4.21,4.21,4.21,0,0,0,4.21-4.21"/><path d="M257.28,202.35a4.3,4.3,0,1,0-4.3,4.3,4.3,4.3,0,0,0,4.3-4.3"/><path d="M272.5,202.35a4.46,4.46,0,1,0-4.46,4.46,4.464,4.464,0,0,0,4.46-4.46"/><path d="M287.96,202.35a4.87,4.87,0,1,0-4.87,4.87,4.87,4.87,0,0,0,4.87-4.87"/><path d="M303.02,202.35a4.87,4.87,0,1,0-4.87,4.87,4.87,4.87,0,0,0,4.87-4.87"/><path d="M318.33,202.35a5.11,5.11,0,1,0-5.11,5.11,5.113,5.113,0,0,0,5.11-5.11"/><path d="M7.04,215.41a2.51,2.51,0,1,0-2.51,2.51,2.505,2.505,0,0,0,2.51-2.51"/><path d="M22.1,215.41a2.51,2.51,0,1,0-2.51,2.51,2.505,2.505,0,0,0,2.51-2.51"/><path d="M37.15,215.41a2.51,2.51,0,1,0-2.51,2.51,2.505,2.505,0,0,0,2.51-2.51"/><path d="M52.21,215.41a2.51,2.51,0,1,0-2.51,2.51,2.505,2.505,0,0,0,2.51-2.51"/><path d="M67.27,215.41a2.51,2.51,0,1,0-2.51,2.51,2.505,2.505,0,0,0,2.51-2.51"/><path d="M82.33,215.41a2.51,2.51,0,1,0-2.51,2.51,2.505,2.505,0,0,0,2.51-2.51"/><path d="M97.39,215.41a2.51,2.51,0,1,0-2.51,2.51,2.505,2.505,0,0,0,2.51-2.51"/><path d="M112.44,215.41a2.51,2.51,0,1,0-2.51,2.51,2.505,2.505,0,0,0,2.51-2.51"/><path d="M127.5,215.41a2.51,2.51,0,1,0-2.51,2.51,2.505,2.505,0,0,0,2.51-2.51"/><path d="M142.59,215.41a2.55,2.55,0,1,0-2.55,2.55,2.548,2.548,0,0,0,2.55-2.55"/><path d="M157.81,215.41a2.7,2.7,0,1,0-2.7,2.7,2.7,2.7,0,0,0,2.7-2.7"/><path d="M173.06,215.41a2.9,2.9,0,1,0-2.9,2.9,2.9,2.9,0,0,0,2.9-2.9"/><path d="M188.42,215.41a3.2,3.2,0,1,0-3.2,3.2,3.2,3.2,0,0,0,3.2-3.2"/><path d="M203.84,215.41a3.55,3.55,0,1,0-3.55,3.55,3.551,3.551,0,0,0,3.55-3.55"/><path d="M219.19,215.41a3.86,3.86,0,1,0-3.86,3.86,3.862,3.862,0,0,0,3.86-3.86"/><path d="M234.45,215.41a4.05,4.05,0,1,0-4.05,4.05,4.046,4.046,0,0,0,4.05-4.05"/><path d="M249.68,215.41a4.23,4.23,0,1,0-4.23,4.23,4.225,4.225,0,0,0,4.23-4.23"/><path d="M264.93,215.41a4.42,4.42,0,1,0-4.42,4.42,4.421,4.421,0,0,0,4.42-4.42"/><path d="M280.31,215.41a4.74,4.74,0,1,0-4.74,4.74,4.737,4.737,0,0,0,4.74-4.74"/><path d="M295.62,215.41a4.99,4.99,0,1,0-4.99,4.99,4.985,4.985,0,0,0,4.99-4.99"/><path d="M310.82,215.41a5.13,5.13,0,1,0-5.13,5.13,5.134,5.134,0,0,0,5.13-5.13"/><path d="M14.57,228.47a2.51,2.51,0,1,0-2.51,2.51,2.505,2.505,0,0,0,2.51-2.51"/><path d="M29.63,228.47a2.51,2.51,0,1,0-2.51,2.51,2.505,2.505,0,0,0,2.51-2.51"/><path d="M44.68,228.47a2.51,2.51,0,1,0-2.51,2.51,2.505,2.505,0,0,0,2.51-2.51"/><path d="M59.74,228.47a2.51,2.51,0,1,0-2.51,2.51,2.505,2.505,0,0,0,2.51-2.51"/><path d="M74.8,228.47a2.51,2.51,0,1,0-2.51,2.51,2.505,2.505,0,0,0,2.51-2.51"/><path d="M89.86,228.47a2.51,2.51,0,1,0-2.51,2.51,2.505,2.505,0,0,0,2.51-2.51"/><path d="M104.91,228.47a2.51,2.51,0,1,0-2.51,2.51,2.505,2.505,0,0,0,2.51-2.51"/><path d="M119.97,228.47a2.51,2.51,0,1,0-2.51,2.51,2.505,2.505,0,0,0,2.51-2.51"/><path d="M135.03,228.47a2.51,2.51,0,1,0-2.51,2.51,2.505,2.505,0,0,0,2.51-2.51"/><path d="M150.18,228.47a2.6,2.6,0,1,0-2.6,2.6,2.595,2.595,0,0,0,2.6-2.6"/><path d="M165.41,228.47a2.78,2.78,0,1,0-2.78,2.78,2.78,2.78,0,0,0,2.78-2.78"/><path d="M180.7,228.47a3.01,3.01,0,1,0-3.01,3.01,3.013,3.013,0,0,0,3.01-3.01"/><path d="M196.08,228.47a3.32,3.32,0,1,0-3.32,3.32,3.318,3.318,0,0,0,3.32-3.32"/><path d="M211.43,228.47a3.63,3.63,0,1,0-3.63,3.63,3.63,3.63,0,0,0,3.63-3.63"/><path d="M226.83,228.47a3.96,3.96,0,1,0-3.96,3.96,3.956,3.956,0,0,0,3.96-3.96"/><path d="M241.9,228.47a3.98,3.98,0,1,0-3.98,3.98,3.978,3.978,0,0,0,3.98-3.98"/><path d="M256.96,228.47a3.98,3.98,0,1,0-3.98,3.98,3.978,3.978,0,0,0,3.98-3.98"/><path d="M272.27,228.47a4.23,4.23,0,1,0-4.23,4.23,4.225,4.225,0,0,0,4.23-4.23"/><path d="M287.68,228.47a4.58,4.58,0,1,0-4.58,4.58,4.579,4.579,0,0,0,4.58-4.58"/><path d="M303.04,228.47a4.88,4.88,0,1,0-4.88,4.88,4.88,4.88,0,0,0,4.88-4.88"/><path d="M318.52,228.47a5.31,5.31,0,1,0-5.31,5.31,5.313,5.313,0,0,0,5.31-5.31"/><path d="M7.04,241.53a2.51,2.51,0,1,0-2.51,2.51,2.505,2.505,0,0,0,2.51-2.51"/><path d="M22.1,241.53a2.51,2.51,0,1,0-2.51,2.51,2.505,2.505,0,0,0,2.51-2.51"/><path d="M37.15,241.53a2.51,2.51,0,1,0-2.51,2.51,2.505,2.505,0,0,0,2.51-2.51"/><path d="M52.21,241.53a2.51,2.51,0,1,0-2.51,2.51,2.505,2.505,0,0,0,2.51-2.51"/><path d="M67.27,241.53a2.51,2.51,0,1,0-2.51,2.51,2.505,2.505,0,0,0,2.51-2.51"/><path d="M82.33,241.53a2.51,2.51,0,1,0-2.51,2.51,2.505,2.505,0,0,0,2.51-2.51"/><path d="M97.39,241.53a2.51,2.51,0,1,0-2.51,2.51,2.505,2.505,0,0,0,2.51-2.51"/><path d="M112.44,241.53a2.51,2.51,0,1,0-2.51,2.51,2.505,2.505,0,0,0,2.51-2.51"/><path d="M127.5,241.53a2.51,2.51,0,1,0-2.51,2.51,2.505,2.505,0,0,0,2.51-2.51"/><path d="M142.56,241.53a2.51,2.51,0,1,0-2.51,2.51,2.505,2.505,0,0,0,2.51-2.51"/><path d="M157.76,241.53a2.65,2.65,0,1,0-2.65,2.65,2.655,2.655,0,0,0,2.65-2.65"/><path d="M173.05,241.53a2.88,2.88,0,1,0-2.88,2.88,2.881,2.881,0,0,0,2.88-2.88"/><path d="M188.3,241.53a3.08,3.08,0,1,0-3.08,3.08,3.081,3.081,0,0,0,3.08-3.08"/><path d="M203.64,241.53a3.36,3.36,0,1,0-3.36,3.36,3.354,3.354,0,0,0,3.36-3.36"/><path d="M219.05,241.53a3.71,3.71,0,1,0-3.71,3.71,3.709,3.709,0,0,0,3.71-3.71"/><path d="M234.18,241.53a3.79,3.79,0,1,0-3.79,3.79,3.788,3.788,0,0,0,3.79-3.79"/><path d="M249.33,241.53a3.87,3.87,0,1,0-3.87,3.87,3.867,3.867,0,0,0,3.87-3.87"/><path d="M264.51,241.53a4,4,0,1,0-4,4,4,4,0,0,0,4-4"/><path d="M279.76,241.53a4.19,4.19,0,1,0-4.19,4.19,4.189,4.189,0,0,0,4.19-4.19"/><path d="M294.93,241.53a4.3,4.3,0,1,0-4.3,4.3,4.3,4.3,0,0,0,4.3-4.3"/><path d="M310.66,241.53a4.97,4.97,0,1,0-4.97,4.97,4.97,4.97,0,0,0,4.97-4.97"/><path d="M14.57,254.6a2.51,2.51,0,1,0-2.51,2.51,2.505,2.505,0,0,0,2.51-2.51"/><path d="M29.63,254.6a2.51,2.51,0,1,0-2.51,2.51,2.505,2.505,0,0,0,2.51-2.51"/><path d="M44.68,254.6a2.51,2.51,0,1,0-2.51,2.51,2.505,2.505,0,0,0,2.51-2.51"/><path d="M59.74,254.6a2.51,2.51,0,1,0-2.51,2.51,2.505,2.505,0,0,0,2.51-2.51"/><path d="M74.8,254.6a2.51,2.51,0,1,0-2.51,2.51,2.505,2.505,0,0,0,2.51-2.51"/><path d="M89.86,254.6a2.51,2.51,0,1,0-2.51,2.51,2.505,2.505,0,0,0,2.51-2.51"/><path d="M104.91,254.6a2.51,2.51,0,1,0-2.51,2.51,2.505,2.505,0,0,0,2.51-2.51"/><path d="M119.97,254.6a2.51,2.51,0,1,0-2.51,2.51,2.505,2.505,0,0,0,2.51-2.51"/><path d="M135.03,254.6a2.51,2.51,0,1,0-2.51,2.51,2.505,2.505,0,0,0,2.51-2.51"/><path d="M150.09,254.6a2.51,2.51,0,1,0-2.51,2.51,2.505,2.505,0,0,0,2.51-2.51"/><path d="M165.36,254.6a2.72,2.72,0,1,0-2.72,2.72,2.723,2.723,0,0,0,2.72-2.72"/><path d="M180.61,254.6a2.92,2.92,0,1,0-2.92,2.92,2.923,2.923,0,0,0,2.92-2.92"/><path d="M195.88,254.6a3.13,3.13,0,1,0-3.13,3.13,3.128,3.128,0,0,0,3.13-3.13"/><path d="M211.26,254.6a3.45,3.45,0,1,0-3.45,3.45,3.45,3.45,0,0,0,3.45-3.45"/><path d="M226.39,254.6a3.52,3.52,0,1,0-3.52,3.52,3.525,3.525,0,0,0,3.52-3.52"/><path d="M241.62,254.6a3.7,3.7,0,1,0-3.7,3.7,3.7,3.7,0,0,0,3.7-3.7"/><path d="M256.86,254.6a3.87,3.87,0,1,0-3.87,3.87,3.867,3.867,0,0,0,3.87-3.87"/><path d="M272.13,254.6a4.09,4.09,0,1,0-4.09,4.09,4.089,4.089,0,0,0,4.09-4.09"/><path d="M287.36,254.6a4.26,4.26,0,1,0-4.26,4.26,4.263,4.263,0,0,0,4.26-4.26"/><path d="M302.61,254.6a4.46,4.46,0,1,0-4.46,4.46,4.464,4.464,0,0,0,4.46-4.46"/><path d="M318.13,254.6a4.92,4.92,0,1,0-4.92,4.92,4.916,4.916,0,0,0,4.92-4.92"/><path d="M7.04,267.66a2.51,2.51,0,1,0-2.51,2.51,2.505,2.505,0,0,0,2.51-2.51"/><path d="M22.1,267.66a2.51,2.51,0,1,0-2.51,2.51,2.505,2.505,0,0,0,2.51-2.51"/><path d="M37.15,267.66a2.51,2.51,0,1,0-2.51,2.51,2.505,2.505,0,0,0,2.51-2.51"/><path d="M52.21,267.66a2.51,2.51,0,1,0-2.51,2.51,2.505,2.505,0,0,0,2.51-2.51"/><path d="M67.27,267.66a2.51,2.51,0,1,0-2.51,2.51,2.505,2.505,0,0,0,2.51-2.51"/><path d="M82.33,267.66a2.51,2.51,0,1,0-2.51,2.51,2.505,2.505,0,0,0,2.51-2.51"/><path d="M97.39,267.66a2.51,2.51,0,1,0-2.51,2.51,2.505,2.505,0,0,0,2.51-2.51"/><path d="M112.44,267.66a2.51,2.51,0,1,0-2.51,2.51,2.505,2.505,0,0,0,2.51-2.51"/><path d="M127.5,267.66a2.51,2.51,0,1,0-2.51,2.51,2.505,2.505,0,0,0,2.51-2.51"/><path d="M142.56,267.66a2.51,2.51,0,1,0-2.51,2.51,2.505,2.505,0,0,0,2.51-2.51"/><path d="M157.74,267.66a2.63,2.63,0,1,0-2.63,2.63,2.633,2.633,0,0,0,2.63-2.63"/><path d="M172.96,267.66a2.79,2.79,0,1,0-2.79,2.79,2.791,2.791,0,0,0,2.79-2.79"/><path d="M188.18,267.66a2.95,2.95,0,1,0-2.95,2.95,2.949,2.949,0,0,0,2.95-2.95"/><path d="M203.45,267.66a3.17,3.17,0,1,0-3.17,3.16,3.171,3.171,0,0,0,3.17-3.16"/><path d="M218.63,267.66a3.29,3.29,0,1,0-3.29,3.29,3.286,3.286,0,0,0,3.29-3.29"/><path d="M233.92,267.66a3.52,3.52,0,1,0-3.52,3.52,3.525,3.525,0,0,0,3.52-3.52"/><path d="M249.11,267.66a3.66,3.66,0,1,0-3.66,3.66,3.662,3.662,0,0,0,3.66-3.66"/><path d="M264.51,267.66a4,4,0,1,0-4,4,4,4,0,0,0,4-4"/><path d="M279.76,267.66a4.19,4.19,0,1,0-4.19,4.19,4.189,4.189,0,0,0,4.19-4.19"/><path d="M295,267.66a4.37,4.37,0,1,0-4.37,4.37,4.374,4.374,0,0,0,4.37-4.37"/><path d="M310.57,267.66a4.88,4.88,0,1,0-4.88,4.88,4.88,4.88,0,0,0,4.88-4.88"/><path d="M14.57,280.72a2.51,2.51,0,1,0-2.51,2.51,2.505,2.505,0,0,0,2.51-2.51"/><path d="M29.63,280.72a2.51,2.51,0,1,0-2.51,2.51,2.505,2.505,0,0,0,2.51-2.51"/><path d="M44.68,280.72a2.51,2.51,0,1,0-2.51,2.51,2.505,2.505,0,0,0,2.51-2.51"/><path d="M59.74,280.72a2.51,2.51,0,1,0-2.51,2.51,2.505,2.505,0,0,0,2.51-2.51"/><path d="M74.8,280.72a2.51,2.51,0,1,0-2.51,2.51,2.505,2.505,0,0,0,2.51-2.51"/><path d="M89.86,280.72a2.51,2.51,0,1,0-2.51,2.51,2.505,2.505,0,0,0,2.51-2.51"/><path d="M104.91,280.72a2.51,2.51,0,1,0-2.51,2.51,2.505,2.505,0,0,0,2.51-2.51"/><path d="M119.97,280.72a2.51,2.51,0,1,0-2.51,2.51,2.505,2.505,0,0,0,2.51-2.51"/><path d="M135.03,280.72a2.51,2.51,0,1,0-2.51,2.51,2.505,2.505,0,0,0,2.51-2.51"/><path d="M150.12,280.72a2.55,2.55,0,1,0-2.55,2.55,2.548,2.548,0,0,0,2.55-2.55"/><path d="M165.27,280.72a2.63,2.63,0,1,0-2.63,2.63,2.633,2.633,0,0,0,2.63-2.63"/><path d="M180.43,280.72a2.74,2.74,0,1,0-2.74,2.74,2.744,2.744,0,0,0,2.74-2.74"/><path d="M195.77,280.72a3.02,3.02,0,1,0-3.02,3.02,3.017,3.017,0,0,0,3.02-3.02"/><path d="M211.01,280.72a3.2,3.2,0,1,0-3.2,3.2,3.2,3.2,0,0,0,3.2-3.2"/><path d="M226.03,280.72a3.17,3.17,0,1,0-3.17,3.17,3.171,3.171,0,0,0,3.17-3.17"/><path d="M241.41,280.72a3.48,3.48,0,1,0-3.48,3.48,3.482,3.482,0,0,0,3.48-3.48"/><path d="M256.63,280.72a3.64,3.64,0,1,0-3.64,3.64,3.64,3.64,0,0,0,3.64-3.64"/><path d="M272.2,280.72a4.16,4.16,0,1,0-4.16,4.16,4.157,4.157,0,0,0,4.16-4.16"/><path d="M287.47,280.72a4.37,4.37,0,1,0-4.37,4.37,4.374,4.374,0,0,0,4.37-4.37"/><path d="M302.79,280.72a4.64,4.64,0,1,0-4.64,4.64,4.643,4.643,0,0,0,4.64-4.64"/><path d="M318.43,280.72a5.22,5.22,0,1,0-5.22,5.22,5.224,5.224,0,0,0,5.22-5.22"/><path d="M7.04,293.78a2.51,2.51,0,1,0-2.51,2.51,2.505,2.505,0,0,0,2.51-2.51"/><path d="M22.1,293.78a2.51,2.51,0,1,0-2.51,2.51,2.505,2.505,0,0,0,2.51-2.51"/><path d="M37.15,293.78a2.51,2.51,0,1,0-2.51,2.51,2.505,2.505,0,0,0,2.51-2.51"/><path d="M52.21,293.78a2.51,2.51,0,1,0-2.51,2.51,2.505,2.505,0,0,0,2.51-2.51"/><path d="M67.27,293.78a2.51,2.51,0,1,0-2.51,2.51,2.505,2.505,0,0,0,2.51-2.51"/><path d="M82.33,293.78a2.51,2.51,0,1,0-2.51,2.51,2.505,2.505,0,0,0,2.51-2.51"/><path d="M97.39,293.78a2.51,2.51,0,1,0-2.51,2.51,2.505,2.505,0,0,0,2.51-2.51"/><path d="M112.44,293.78a2.51,2.51,0,1,0-2.51,2.51,2.505,2.505,0,0,0,2.51-2.51"/><path d="M127.5,293.78a2.51,2.51,0,1,0-2.51,2.51,2.505,2.505,0,0,0,2.51-2.51"/><path d="M142.56,293.78a2.51,2.51,0,1,0-2.51,2.51,2.505,2.505,0,0,0,2.51-2.51"/><path d="M157.62,293.78a2.51,2.51,0,1,0-2.51,2.51,2.505,2.505,0,0,0,2.51-2.51"/><path d="M172.67,293.78a2.51,2.51,0,1,0-2.51,2.51,2.505,2.505,0,0,0,2.51-2.51"/><path d="M187.73,293.78a2.51,2.51,0,1,0-2.51,2.51,2.505,2.505,0,0,0,2.51-2.51"/><path d="M203.18,293.78a2.9,2.9,0,1,0-2.9,2.9,2.9,2.9,0,0,0,2.9-2.9"/><path d="M218.63,293.78a3.29,3.29,0,1,0-3.29,3.29,3.286,3.286,0,0,0,3.29-3.29"/><path d="M233.53,293.78a3.13,3.13,0,1,0-3.13,3.13,3.128,3.128,0,0,0,3.13-3.13"/><path d="M248.85,293.78a3.4,3.4,0,1,0-3.4,3.4,3.4,3.4,0,0,0,3.4-3.4"/><path d="M264.47,293.78a3.96,3.96,0,1,0-3.96,3.96,3.956,3.956,0,0,0,3.96-3.96"/><path d="M279.82,293.78a4.25,4.25,0,1,0-4.25,4.25,4.253,4.253,0,0,0,4.25-4.25"/><path d="M295.16,293.78a4.53,4.53,0,1,0-4.53,4.53,4.532,4.532,0,0,0,4.53-4.53"/><path d="M310.78,293.78a5.1,5.1,0,1,0-5.1,5.1,5.1,5.1,0,0,0,5.1-5.1"/><path d="M14.57,306.85a2.51,2.51,0,1,0-2.51,2.51,2.505,2.505,0,0,0,2.51-2.51"/><path d="M29.63,306.85a2.51,2.51,0,1,0-2.51,2.51,2.505,2.505,0,0,0,2.51-2.51"/><path d="M44.68,306.85a2.51,2.51,0,1,0-2.51,2.51,2.505,2.505,0,0,0,2.51-2.51"/><path d="M59.74,306.85a2.51,2.51,0,1,0-2.51,2.51,2.505,2.505,0,0,0,2.51-2.51"/><path d="M74.8,306.85a2.51,2.51,0,1,0-2.51,2.51,2.505,2.505,0,0,0,2.51-2.51"/><path d="M89.86,306.85a2.51,2.51,0,1,0-2.51,2.51,2.505,2.505,0,0,0,2.51-2.51"/><path d="M104.91,306.85a2.51,2.51,0,1,0-2.51,2.51,2.505,2.505,0,0,0,2.51-2.51"/><path d="M120.03,306.85a2.56,2.56,0,1,0-2.56,2.56,2.559,2.559,0,0,0,2.56-2.56"/><path d="M135.03,306.85a2.51,2.51,0,1,0-2.51,2.51,2.505,2.505,0,0,0,2.51-2.51"/><path d="M150.09,306.85a2.51,2.51,0,1,0-2.51,2.51,2.505,2.505,0,0,0,2.51-2.51"/><path d="M165.15,306.85a2.51,2.51,0,1,0-2.51,2.51,2.505,2.505,0,0,0,2.51-2.51"/><path d="M180.2,306.85a2.51,2.51,0,1,0-2.51,2.51,2.505,2.505,0,0,0,2.51-2.51"/><path d="M195.26,306.85a2.51,2.51,0,1,0-2.51,2.51,2.505,2.505,0,0,0,2.51-2.51"/><path d="M210.67,306.85a2.86,2.86,0,1,0-2.86,2.86,2.859,2.859,0,0,0,2.86-2.86"/><path d="M226.26,306.85a3.4,3.4,0,1,0-3.4,3.4,3.4,3.4,0,0,0,3.4-3.4"/><path d="M241.41,306.85a3.48,3.48,0,1,0-3.48,3.48,3.482,3.482,0,0,0,3.48-3.48"/><path d="M256.59,306.85a3.61,3.61,0,1,0-3.61,3.61,3.615,3.615,0,0,0,3.61-3.61"/><path d="M272.16,306.85a4.12,4.12,0,1,0-4.12,4.12,4.121,4.121,0,0,0,4.12-4.12"/><path d="M287.72,306.85a4.62,4.62,0,1,0-4.62,4.62,4.622,4.622,0,0,0,4.62-4.62"/><path d="M303.08,306.85a4.92,4.92,0,1,0-4.92,4.92,4.916,4.916,0,0,0,4.92-4.92"/><path d="M318.42,306.85a5.2,5.2,0,1,0-5.2,5.2,5.2,5.2,0,0,0,5.2-5.2"/><path d="M7.15,319.91a2.62,2.62,0,1,0-2.62,2.62,2.623,2.623,0,0,0,2.62-2.62"/><path d="M22.19,319.91a2.6,2.6,0,1,0-2.6,2.6,2.6,2.6,0,0,0,2.6-2.6"/><path d="M37.26,319.91a2.62,2.62,0,1,0-2.62,2.62,2.623,2.623,0,0,0,2.62-2.62"/><path d="M52.35,319.91a2.65,2.65,0,1,0-2.65,2.65,2.655,2.655,0,0,0,2.65-2.65"/><path d="M67.31,319.91a2.55,2.55,0,1,0-2.55,2.55,2.548,2.548,0,0,0,2.55-2.55"/><path d="M82.58,319.91a2.76,2.76,0,1,0-2.76,2.76,2.759,2.759,0,0,0,2.76-2.76"/><path d="M97.63,319.91a2.76,2.76,0,1,0-2.76,2.76,2.759,2.759,0,0,0,2.76-2.76"/><path d="M112.73,319.91a2.79,2.79,0,1,0-2.79,2.79,2.791,2.791,0,0,0,2.79-2.79"/><path d="M127.59,319.91a2.6,2.6,0,1,0-2.6,2.6,2.6,2.6,0,0,0,2.6-2.6"/><path d="M142.61,319.91a2.56,2.56,0,1,0-2.56,2.56,2.559,2.559,0,0,0,2.56-2.56"/><path d="M157.62,319.91a2.51,2.51,0,1,0-2.51,2.51,2.505,2.505,0,0,0,2.51-2.51"/><path d="M172.67,319.91a2.51,2.51,0,1,0-2.51,2.51,2.505,2.505,0,0,0,2.51-2.51"/><path d="M187.73,319.91a2.51,2.51,0,1,0-2.51,2.51,2.505,2.505,0,0,0,2.51-2.51"/><path d="M202.79,319.91a2.51,2.51,0,1,0-2.51,2.51,2.505,2.505,0,0,0,2.51-2.51"/><path d="M218.57,319.91a3.24,3.24,0,1,0-3.24,3.24,3.239,3.239,0,0,0,3.24-3.24"/><path d="M233.97,319.91a3.57,3.57,0,1,0-3.57,3.57,3.572,3.572,0,0,0,3.57-3.57"/><path d="M249.52,319.91a4.07,4.07,0,1,0-4.07,4.07,4.067,4.067,0,0,0,4.07-4.07"/><path d="M264.78,319.91a4.26,4.26,0,1,0-4.26,4.26,4.264,4.264,0,0,0,4.26-4.26"/><path d="M280.1,319.91a4.53,4.53,0,1,0-4.53,4.53,4.532,4.532,0,0,0,4.53-4.53"/><path d="M295.35,319.91a4.72,4.72,0,1,0-4.72,4.72,4.722,4.722,0,0,0,4.72-4.72"/><path d="M310.62,319.91a4.94,4.94,0,1,0-4.94,4.94,4.938,4.938,0,0,0,4.94-4.94"/><path d="M14.66,332.97a2.6,2.6,0,1,0-2.6,2.6,2.6,2.6,0,0,0,2.6-2.6"/><path d="M29.7,332.97a2.58,2.58,0,1,0-2.58,2.58,2.58,2.58,0,0,0,2.58-2.58"/><path d="M44.77,332.97a2.6,2.6,0,1,0-2.6,2.6,2.6,2.6,0,0,0,2.6-2.6"/><path d="M59.88,332.97a2.65,2.65,0,1,0-2.65,2.65,2.655,2.655,0,0,0,2.65-2.65"/><path d="M74.92,332.97a2.63,2.63,0,1,0-2.63,2.63,2.633,2.633,0,0,0,2.63-2.63"/><path d="M90.62,332.97a3.27,3.27,0,1,0-3.27,3.27,3.265,3.265,0,0,0,3.27-3.27"/><path d="M105.64,332.97a3.24,3.24,0,1,0-3.24,3.24,3.239,3.239,0,0,0,3.24-3.24"/><path d="M120.63,332.97a3.17,3.17,0,1,0-3.17,3.17,3.171,3.171,0,0,0,3.17-3.17"/><path d="M135.15,332.97a2.63,2.63,0,1,0-2.63,2.63,2.633,2.633,0,0,0,2.63-2.63"/><path d="M150.11,332.97a2.53,2.53,0,1,0-2.53,2.53,2.527,2.527,0,0,0,2.53-2.53"/><path d="M165.15,332.97a2.51,2.51,0,1,0-2.51,2.51,2.505,2.505,0,0,0,2.51-2.51"/><path d="M180.2,332.97a2.51,2.51,0,1,0-2.51,2.51,2.505,2.505,0,0,0,2.51-2.51"/><path d="M195.26,332.97a2.51,2.51,0,1,0-2.51,2.51,2.505,2.505,0,0,0,2.51-2.51"/><path d="M210.37,332.97a2.56,2.56,0,1,0-2.56,2.56,2.559,2.559,0,0,0,2.56-2.56"/><path d="M226.55,332.97a3.68,3.68,0,1,0-3.68,3.68,3.683,3.683,0,0,0,3.68-3.68"/><path d="M241.98,332.97a4.05,4.05,0,1,0-4.05,4.05,4.046,4.046,0,0,0,4.05-4.05"/><path d="M257.33,332.97a4.35,4.35,0,1,0-4.35,4.35,4.353,4.353,0,0,0,4.35-4.35"/><path d="M272.5,332.97a4.46,4.46,0,1,0-4.46,4.46,4.464,4.464,0,0,0,4.46-4.46"/><path d="M287.7,332.97a4.6,4.6,0,1,0-4.6,4.6,4.6,4.6,0,0,0,4.6-4.6"/><path d="M303.18,332.97a5.03,5.03,0,1,0-5.03,5.03,5.027,5.027,0,0,0,5.03-5.03"/><path d="M318.5,332.97a5.29,5.29,0,1,0-5.29,5.29,5.292,5.292,0,0,0,5.29-5.29"/><path d="M7.07,346.04a2.55,2.55,0,1,0-2.55,2.54,2.548,2.548,0,0,0,2.55-2.54"/><path d="M22.13,346.04a2.55,2.55,0,1,0-2.55,2.54,2.548,2.548,0,0,0,2.55-2.54"/><path d="M37.21,346.04a2.56,2.56,0,1,0-2.56,2.56,2.559,2.559,0,0,0,2.56-2.56"/><path d="M52.3,346.04a2.6,2.6,0,1,0-2.6,2.6,2.595,2.595,0,0,0,2.6-2.6"/><path d="M67.43,346.04a2.67,2.67,0,1,0-2.67,2.67,2.669,2.669,0,0,0,2.67-2.67"/><path d="M83.28,346.04a3.47,3.47,0,1,0-3.47,3.47,3.472,3.472,0,0,0,3.47-3.47"/><path d="M98.63,346.04a3.75,3.75,0,1,0-3.75,3.75,3.751,3.751,0,0,0,3.75-3.75"/><path d="M113.68,346.04a3.75,3.75,0,1,0-3.75,3.75,3.751,3.751,0,0,0,3.75-3.75"/><path d="M128.07,346.04a3.08,3.08,0,1,0-3.08,3.08,3.081,3.081,0,0,0,3.08-3.08"/><path d="M142.65,346.04a2.6,2.6,0,1,0-2.6,2.6,2.595,2.595,0,0,0,2.6-2.6"/><path d="M157.62,346.04a2.51,2.51,0,1,0-2.51,2.51,2.505,2.505,0,0,0,2.51-2.51"/><path d="M172.67,346.04a2.51,2.51,0,1,0-2.51,2.51,2.505,2.505,0,0,0,2.51-2.51"/><path d="M187.73,346.04a2.51,2.51,0,1,0-2.51,2.51,2.505,2.505,0,0,0,2.51-2.51"/><path d="M202.81,346.04a2.53,2.53,0,1,0-2.53,2.53,2.527,2.527,0,0,0,2.53-2.53"/><path d="M219.02,346.04a3.68,3.68,0,1,0-3.68,3.68,3.683,3.683,0,0,0,3.68-3.68"/><path d="M234.52,346.04a4.12,4.12,0,1,0-4.12,4.12,4.121,4.121,0,0,0,4.12-4.12"/><path d="M249.79,346.04a4.33,4.33,0,1,0-4.33,4.33,4.332,4.332,0,0,0,4.33-4.33"/><path d="M264.99,346.04a4.48,4.48,0,1,0-4.48,4.48,4.479,4.479,0,0,0,4.48-4.48"/><path d="M280.22,346.04a4.65,4.65,0,1,0-4.65,4.65,4.648,4.648,0,0,0,4.65-4.65"/><path d="M295.49,346.04a4.87,4.87,0,1,0-4.87,4.87,4.87,4.87,0,0,0,4.87-4.87"/><path d="M310.85,346.04a5.17,5.17,0,1,0-5.17,5.17,5.17,5.17,0,0,0,5.17-5.17"/><path d="M14.6,359.1a2.55,2.55,0,1,0-2.55,2.55,2.548,2.548,0,0,0,2.55-2.55"/><path d="M29.68,359.1a2.56,2.56,0,1,0-2.56,2.56,2.559,2.559,0,0,0,2.56-2.56"/><path d="M44.74,359.1a2.56,2.56,0,1,0-2.56,2.56,2.559,2.559,0,0,0,2.56-2.56"/><path d="M59.9,359.1a2.67,2.67,0,1,0-2.67,2.67,2.676,2.676,0,0,0,2.67-2.67"/><path d="M75.12,359.1a2.83,2.83,0,1,0-2.83,2.83,2.834,2.834,0,0,0,2.83-2.83"/><path d="M91.33,359.1a3.98,3.98,0,1,0-3.98,3.98,3.978,3.978,0,0,0,3.98-3.98"/><path d="M106.4,359.1a4,4,0,1,0-4,4,4,4,0,0,0,4-4"/><path d="M121.6,359.1a4.14,4.14,0,1,0-4.14,4.14,4.135,4.135,0,0,0,4.14-4.14"/><path d="M136.13,359.1a3.61,3.61,0,1,0-3.61,3.61,3.615,3.615,0,0,0,3.61-3.61"/><path d="M150.12,359.1a2.55,2.55,0,1,0-2.55,2.55,2.548,2.548,0,0,0,2.55-2.55"/><path d="M165.15,359.1a2.51,2.51,0,1,0-2.51,2.51,2.505,2.505,0,0,0,2.51-2.51"/><path d="M180.2,359.1a2.51,2.51,0,1,0-2.51,2.51,2.505,2.505,0,0,0,2.51-2.51"/><path d="M195.46,359.1a2.7,2.7,0,1,0-2.7,2.7,2.7,2.7,0,0,0,2.7-2.7"/><path d="M211.74,359.1a3.93,3.93,0,1,0-3.93,3.93,3.931,3.931,0,0,0,3.93-3.93"/><path d="M227.04,359.1a4.17,4.17,0,1,0-4.17,4.17,4.167,4.167,0,0,0,4.17-4.17"/><path d="M242.38,359.1a4.46,4.46,0,1,0-4.46,4.46,4.464,4.464,0,0,0,4.46-4.46"/><path d="M257.74,359.1a4.76,4.76,0,1,0-4.76,4.76,4.759,4.759,0,0,0,4.76-4.76"/><path d="M272.8,359.1a4.76,4.76,0,1,0-4.76,4.76,4.759,4.759,0,0,0,4.76-4.76"/><path d="M287.96,359.1a4.87,4.87,0,1,0-4.87,4.87,4.87,4.87,0,0,0,4.87-4.87"/><path d="M303.36,359.1a5.2,5.2,0,1,0-5.2,5.2,5.2,5.2,0,0,0,5.2-5.2"/><path d="M318.66,359.1a5.45,5.45,0,1,0-5.45,5.45,5.45,5.45,0,0,0,5.45-5.45"/><path d="M7.29,372.16a2.76,2.76,0,1,0-2.76,2.76,2.759,2.759,0,0,0,2.76-2.76"/><path d="M22.2,372.16a2.62,2.62,0,1,0-2.62,2.62,2.623,2.623,0,0,0,2.62-2.62"/><path d="M37.28,372.16a2.63,2.63,0,1,0-2.63,2.63,2.633,2.633,0,0,0,2.63-2.63"/><path d="M52.92,372.16a3.22,3.22,0,1,0-3.22,3.22,3.218,3.218,0,0,0,3.22-3.22"/><path d="M67.75,372.16a2.99,2.99,0,1,0-2.99,2.99,2.992,2.992,0,0,0,2.99-2.99"/><path d="M83.87,372.16a4.05,4.05,0,1,0-4.05,4.05,4.046,4.046,0,0,0,4.05-4.05"/><path d="M99.09,372.16a4.21,4.21,0,1,0-4.21,4.21,4.21,4.21,0,0,0,4.21-4.21"/><path d="M114.2,372.16a4.26,4.26,0,1,0-4.26,4.26,4.264,4.264,0,0,0,4.26-4.26"/><path d="M129.38,372.16a4.39,4.39,0,1,0-4.39,4.39,4.389,4.389,0,0,0,4.39-4.39"/><path d="M144.44,372.16a4.39,4.39,0,1,0-4.39,4.39,4.389,4.389,0,0,0,4.39-4.39"/><path d="M158.84,372.16a3.73,3.73,0,1,0-3.73,3.73,3.73,3.73,0,0,0,3.73-3.73"/><path d="M173.51,372.16a3.34,3.34,0,1,0-3.34,3.34,3.34,3.34,0,0,0,3.34-3.34"/><path d="M189.18,372.16a3.96,3.96,0,1,0-3.96,3.96,3.956,3.956,0,0,0,3.96-3.96"/><path d="M204.69,372.16a4.41,4.41,0,1,0-4.41,4.41,4.411,4.411,0,0,0,4.41-4.41"/><path d="M219.69,372.16a4.35,4.35,0,1,0-4.35,4.35,4.353,4.353,0,0,0,4.35-4.35"/><path d="M235.05,372.16a4.65,4.65,0,1,0-4.65,4.65,4.648,4.648,0,0,0,4.65-4.65"/><path d="M250.32,372.16a4.87,4.87,0,1,0-4.87,4.87,4.87,4.87,0,0,0,4.87-4.87"/><path d="M265.48,372.16a4.97,4.97,0,1,0-4.97,4.97,4.97,4.97,0,0,0,4.97-4.97"/><path d="M280.67,372.16a5.1,5.1,0,1,0-5.1,5.1,5.1,5.1,0,0,0,5.1-5.1"/><path d="M295.95,372.16a5.33,5.33,0,1,0-5.33,5.33,5.328,5.328,0,0,0,5.33-5.33"/><path d="M311.28,372.16a5.59,5.59,0,1,0-5.59,5.59,5.587,5.587,0,0,0,5.59-5.59"/><path d="M16.09,385.22a4.03,4.03,0,1,0-4.03,4.03,4.031,4.031,0,0,0,4.03-4.03"/><path d="M30.35,385.22a3.24,3.24,0,1,0-3.24,3.24,3.239,3.239,0,0,0,3.24-3.24"/><path d="M45.96,385.22a3.79,3.79,0,1,0-3.79,3.79,3.788,3.788,0,0,0,3.79-3.79"/><path d="M61.42,385.22a4.19,4.19,0,1,0-4.19,4.19,4.189,4.189,0,0,0,4.19-4.19"/><path d="M76.57,385.22a4.28,4.28,0,1,0-4.28,4.28,4.285,4.285,0,0,0,4.28-4.28"/><path d="M91.81,385.22a4.46,4.46,0,1,0-4.46,4.46,4.464,4.464,0,0,0,4.46-4.46"/><path d="M106.85,385.22a4.44,4.44,0,1,0-4.44,4.44,4.443,4.443,0,0,0,4.44-4.44"/><path d="M122.19,385.22a4.72,4.72,0,1,0-4.72,4.72,4.722,4.722,0,0,0,4.72-4.72"/><path d="M137.19,385.22a4.67,4.67,0,1,0-4.67,4.67,4.669,4.669,0,0,0,4.67-4.67"/><path d="M152.21,385.22a4.64,4.64,0,1,0-4.64,4.64,4.643,4.643,0,0,0,4.64-4.64"/><path d="M167.27,385.22a4.64,4.64,0,1,0-4.64,4.64,4.643,4.643,0,0,0,4.64-4.64"/><path d="M182.28,385.22a4.58,4.58,0,1,0-4.58,4.58,4.579,4.579,0,0,0,4.58-4.58"/><path d="M197.56,385.22a4.81,4.81,0,1,0-4.81,4.81,4.806,4.806,0,0,0,4.81-4.81"/><path d="M212.91,385.22a5.1,5.1,0,1,0-5.1,5.1,5.1,5.1,0,0,0,5.1-5.1"/><path d="M228,385.22a5.13,5.13,0,1,0-5.13,5.13,5.134,5.134,0,0,0,5.13-5.13"/><path d="M242.9,385.22a4.97,4.97,0,1,0-4.97,4.97,4.97,4.97,0,0,0,4.97-4.97"/><path d="M258.2,385.22a5.22,5.22,0,1,0-5.22,5.22,5.224,5.224,0,0,0,5.22-5.22"/><path d="M273.31,385.22a5.27,5.27,0,1,0-5.27,5.27,5.271,5.271,0,0,0,5.27-5.27"/><path d="M288.58,385.22a5.49,5.49,0,1,0-5.49,5.49,5.493,5.493,0,0,0,5.49-5.49"/><path d="M303.84,385.22a5.68,5.68,0,1,0-5.68,5.68,5.676,5.676,0,0,0,5.68-5.68"/><path d="M319.16,385.22a5.95,5.95,0,1,0-5.95,5.95,5.951,5.951,0,0,0,5.95-5.95"/><path d="M9.06,398.29a4.53,4.53,0,1,0-4.53,4.53,4.532,4.532,0,0,0,4.53-4.53"/><path d="M23.92,398.29a4.33,4.33,0,1,0-4.33,4.33,4.332,4.332,0,0,0,4.33-4.33"/><path d="M39.24,398.29a4.6,4.6,0,1,0-4.6,4.6,4.6,4.6,0,0,0,4.6-4.6"/><path d="M54.16,398.29a4.46,4.46,0,1,0-4.46,4.46,4.464,4.464,0,0,0,4.46-4.46"/><path d="M69.2,398.29a4.44,4.44,0,1,0-4.44,4.44,4.443,4.443,0,0,0,4.44-4.44"/><path d="M84.35,398.29a4.53,4.53,0,1,0-4.53,4.53,4.532,4.532,0,0,0,4.53-4.53"/><path d="M99.46,398.29a4.58,4.58,0,1,0-4.58,4.58,4.579,4.579,0,0,0,4.58-4.58"/><path d="M114.45,398.29a4.51,4.51,0,1,0-4.51,4.51,4.511,4.511,0,0,0,4.51-4.51"/><path d="M129.8,398.29a4.81,4.81,0,1,0-4.81,4.81,4.806,4.806,0,0,0,4.81-4.81"/><path d="M144.81,398.29a4.76,4.76,0,1,0-4.76,4.76,4.759,4.759,0,0,0,4.76-4.76"/><path d="M159.83,398.29a4.72,4.72,0,1,0-4.72,4.72,4.722,4.722,0,0,0,4.72-4.72"/><path d="M175.17,398.29a5.01,5.01,0,1,0-5.01,5.01,5.006,5.006,0,0,0,5.01-5.01"/><path d="M190.44,398.29a5.22,5.22,0,1,0-5.22,5.22,5.224,5.224,0,0,0,5.22-5.22"/><path d="M205.84,398.29a5.56,5.56,0,1,0-5.56,5.56,5.561,5.561,0,0,0,5.56-5.56"/><path d="M220.86,398.29a5.52,5.52,0,1,0-5.52,5.52,5.518,5.518,0,0,0,5.52-5.52"/><path d="M236.15,398.29a5.75,5.75,0,1,0-5.75,5.75,5.751,5.751,0,0,0,5.75-5.75"/><path d="M250.99,398.29a5.54,5.54,0,1,0-5.54,5.54,5.54,5.54,0,0,0,5.54-5.54"/><path d="M266.07,398.29a5.56,5.56,0,1,0-5.56,5.56,5.561,5.561,0,0,0,5.56-5.56"/><path d="M281.18,398.29a5.61,5.61,0,1,0-5.61,5.61,5.608,5.608,0,0,0,5.61-5.61"/><path d="M296.52,398.29a5.89,5.89,0,1,0-5.89,5.89,5.894,5.894,0,0,0,5.89-5.89"/><path d="M311.6,398.29a5.91,5.91,0,1,0-5.91,5.91,5.915,5.915,0,0,0,5.91-5.91"/><path d="M16.8,411.35a4.74,4.74,0,1,0-4.74,4.74,4.737,4.737,0,0,0,4.74-4.74"/><path d="M31.96,411.35a4.85,4.85,0,1,0-4.85,4.85,4.848,4.848,0,0,0,4.85-4.85"/><path d="M46.79,411.35a4.62,4.62,0,1,0-4.62,4.62,4.622,4.622,0,0,0,4.62-4.62"/><path d="M61.88,411.35A4.65,4.65,0,1,0,57.23,416a4.648,4.648,0,0,0,4.65-4.65"/><path d="M76.94,411.35A4.65,4.65,0,1,0,72.29,416a4.648,4.648,0,0,0,4.65-4.65"/><path d="M92.09,411.35a4.74,4.74,0,1,0-4.74,4.74,4.737,4.737,0,0,0,4.74-4.74"/><path d="M107.08,411.35a4.67,4.67,0,1,0-4.67,4.67,4.669,4.669,0,0,0,4.67-4.67"/><path d="M122.26,411.35a4.79,4.79,0,1,0-4.79,4.79,4.791,4.791,0,0,0,4.79-4.79"/><path d="M137.33,411.35a4.81,4.81,0,1,0-4.81,4.81,4.806,4.806,0,0,0,4.81-4.81"/><path d="M152.37,411.35a4.79,4.79,0,1,0-4.79,4.79,4.791,4.791,0,0,0,4.79-4.79"/><path d="M167.59,411.35a4.95,4.95,0,1,0-4.95,4.95,4.948,4.948,0,0,0,4.95-4.95"/><path d="M183.06,411.35a5.36,5.36,0,1,0-5.36,5.36,5.36,5.36,0,0,0,5.36-5.36"/><path d="M198.64,411.35a5.89,5.89,0,1,0-5.89,5.89,5.894,5.894,0,0,0,5.89-5.89"/><path d="M213.79,411.35a5.98,5.98,0,1,0-5.98,5.98,5.983,5.983,0,0,0,5.98-5.98"/><path d="M228.97,411.35a6.11,6.11,0,1,0-6.11,6.11,6.109,6.109,0,0,0,6.11-6.11"/><path d="M244.1,411.35a6.18,6.18,0,1,0-6.18,6.18,6.184,6.184,0,0,0,6.18-6.18"/><path d="M258.88,411.35a5.89,5.89,0,1,0-5.89,5.89,5.894,5.894,0,0,0,5.89-5.89"/><path d="M273.95,411.35a5.91,5.91,0,1,0-5.91,5.91,5.915,5.915,0,0,0,5.91-5.91"/><path d="M289.06,411.35a5.96,5.96,0,1,0-5.96,5.96,5.962,5.962,0,0,0,5.96-5.96"/><path d="M304.32,411.35a6.16,6.16,0,1,0-6.16,6.16,6.163,6.163,0,0,0,6.16-6.16"/><path d="M319.51,411.35a6.3,6.3,0,1,0-6.3,6.3,6.3,6.3,0,0,0,6.3-6.3"/></g></g><rect width="1504" height="188" transform="translate(0 159)"/><line class="c" x2="1920" transform="translate(0.5 343.5)"/></g></svg>