<svg xmlns="http://www.w3.org/2000/svg" xmlns:xlink="http://www.w3.org/1999/xlink" width="1690" height="188" viewBox="0 0 1690 188"><defs><style>.a,.b{fill:none;}.b{stroke:#ed0544;stroke-width:7px;}.c{clip-path:url(#a);}</style><clipPath id="a"><rect class="a" width="411" height="182" transform="translate(1509 159)"/></clipPath></defs><g transform="translate(0 -159)"><rect width="1284" height="188" transform="translate(0 159)"/><line class="b" x2="1680" transform="translate(0.5 343.5)"/><g class="c" transform="translate(-230)"><g transform="translate(1920.365 160.665) rotate(90)"><path d="M319.31,12.78a6.39,6.39,0,1,0-6.39-6.39,6.389,6.389,0,0,0,6.39,6.39"/><path d="M319.31,27.55a6.11,6.11,0,1,0-6.11-6.11,6.109,6.109,0,0,0,6.11,6.11"/><path d="M319.31,40.18a3.68,3.68,0,1,0-3.68-3.68,3.683,3.683,0,0,0,3.68,3.68"/><path d="M319.31,54.75a3.18,3.18,0,1,0-3.18-3.18,3.175,3.175,0,0,0,3.18,3.18"/><path d="M319.31,69.61a2.99,2.99,0,1,0-2.99-2.99,2.992,2.992,0,0,0,2.99,2.99"/><path d="M319.31,84.52a2.85,2.85,0,1,0-2.85-2.85,2.849,2.849,0,0,0,2.85,2.85"/><path d="M319.31,99.49a2.76,2.76,0,1,0-2.76-2.76,2.759,2.759,0,0,0,2.76,2.76"/><path d="M319.31,117.47a5.68,5.68,0,1,0-5.68-5.68,5.676,5.676,0,0,0,5.68,5.68"/><path d="M319.31,132.46a5.61,5.61,0,1,0-5.61-5.61,5.608,5.608,0,0,0,5.61,5.61"/><path d="M319.31,147.18a5.27,5.27,0,1,0-5.27-5.27,5.271,5.271,0,0,0,5.27,5.27"/><path d="M319.31,161.69a4.72,4.72,0,1,0-4.72-4.72,4.722,4.722,0,0,0,4.72,4.72"/><path d="M319.31,176.31a4.28,4.28,0,1,0-4.28-4.28,4.285,4.285,0,0,0,4.28,4.28"/><path d="M319.31,191.08a4,4,0,1,0-4-4,4,4,0,0,0,4,4"/><path d="M319.31,205.7a3.55,3.55,0,1,0-3.55-3.55,3.551,3.551,0,0,0,3.55,3.55"/><path d="M319.31,220.38a3.18,3.18,0,1,0-3.18-3.18,3.175,3.175,0,0,0,3.18,3.18"/><path d="M319.31,235.14a2.88,2.88,0,1,0-2.88-2.88,2.881,2.881,0,0,0,2.88,2.88"/><path d="M319.31,249.91a2.6,2.6,0,1,0-2.6-2.6,2.6,2.6,0,0,0,2.6,2.6"/><path d="M319.31,264.88a2.51,2.51,0,1,0-2.51-2.51,2.505,2.505,0,0,0,2.51,2.51"/><path d="M319.31,279.94a2.51,2.51,0,1,0-2.51-2.51,2.505,2.505,0,0,0,2.51,2.51"/><path d="M319.31,295a2.51,2.51,0,1,0-2.51-2.51,2.505,2.505,0,0,0,2.51,2.51"/><path d="M319.31,310.05a2.51,2.51,0,1,0-2.51-2.51,2.505,2.505,0,0,0,2.51,2.51"/><path d="M319.31,325.11a2.51,2.51,0,1,0-2.51-2.51,2.505,2.505,0,0,0,2.51,2.51"/><path d="M319.31,340.17a2.51,2.51,0,1,0-2.51-2.51,2.505,2.505,0,0,0,2.51,2.51"/><path d="M319.31,355.23a2.51,2.51,0,1,0-2.51-2.51,2.505,2.505,0,0,0,2.51,2.51"/><path d="M319.31,370.29a2.51,2.51,0,1,0-2.51-2.51,2.505,2.505,0,0,0,2.51,2.51"/><path d="M319.31,385.34a2.51,2.51,0,1,0-2.51-2.51,2.505,2.505,0,0,0,2.51,2.51"/><path d="M319.31,400.4a2.51,2.51,0,1,0-2.51-2.51,2.505,2.505,0,0,0,2.51,2.51"/><path d="M306.25,20.2a6.28,6.28,0,1,0-6.28-6.28,6.278,6.278,0,0,0,6.28,6.28"/><path d="M306.25,35.06a6.09,6.09,0,1,0-6.09-6.09,6.094,6.094,0,0,0,6.09,6.09"/><path d="M306.25,47.46a3.43,3.43,0,1,0-3.43-3.43,3.436,3.436,0,0,0,3.43,3.43"/><path d="M306.25,62.19a3.09,3.09,0,1,0-3.09-3.09,3.092,3.092,0,0,0,3.09,3.09"/><path d="M306.25,77.07a2.92,2.92,0,1,0-2.92-2.92,2.923,2.923,0,0,0,2.92,2.92"/><path d="M306.25,93.01a3.8,3.8,0,1,0-3.8-3.8,3.8,3.8,0,0,0,3.8,3.8"/><path d="M306.25,110.14a5.88,5.88,0,1,0-5.88-5.88,5.883,5.883,0,0,0,5.88,5.88"/><path d="M306.25,125a5.68,5.68,0,1,0-5.68-5.68,5.676,5.676,0,0,0,5.68,5.68"/><path d="M306.25,139.94a5.56,5.56,0,1,0-5.56-5.56,5.561,5.561,0,0,0,5.56,5.56"/><path d="M306.25,154.34a4.9,4.9,0,1,0-4.9-4.9,4.9,4.9,0,0,0,4.9,4.9"/><path d="M306.25,168.79a4.3,4.3,0,1,0-4.3-4.3,4.3,4.3,0,0,0,4.3,4.3"/><path d="M306.25,183.53a3.98,3.98,0,1,0-3.98-3.98,3.978,3.978,0,0,0,3.98,3.98"/><path d="M306.25,198.29a3.68,3.68,0,1,0-3.68-3.68,3.683,3.683,0,0,0,3.68,3.68"/><path d="M306.25,212.99a3.32,3.32,0,1,0-3.32-3.32,3.318,3.318,0,0,0,3.32,3.32"/><path d="M306.25,227.73a3.01,3.01,0,1,0-3.01-3.01,3.013,3.013,0,0,0,3.01,3.01"/><path d="M306.25,242.52a2.74,2.74,0,1,0-2.74-2.74,2.744,2.744,0,0,0,2.74,2.74"/><path d="M306.25,257.37a2.53,2.53,0,1,0-2.53-2.53,2.527,2.527,0,0,0,2.53,2.53"/><path d="M306.25,272.41a2.51,2.51,0,1,0-2.51-2.51,2.505,2.505,0,0,0,2.51,2.51"/><path d="M306.25,287.47a2.51,2.51,0,1,0-2.51-2.51,2.505,2.505,0,0,0,2.51,2.51"/><path d="M306.25,302.53a2.51,2.51,0,1,0-2.51-2.51,2.505,2.505,0,0,0,2.51,2.51"/><path d="M306.25,317.58a2.51,2.51,0,1,0-2.51-2.51,2.505,2.505,0,0,0,2.51,2.51"/><path d="M306.25,332.64a2.51,2.51,0,1,0-2.51-2.51,2.505,2.505,0,0,0,2.51,2.51"/><path d="M306.25,347.7a2.51,2.51,0,1,0-2.51-2.51,2.505,2.505,0,0,0,2.51,2.51"/><path d="M306.25,362.76a2.51,2.51,0,1,0-2.51-2.51,2.505,2.505,0,0,0,2.51,2.51"/><path d="M306.25,377.81a2.51,2.51,0,1,0-2.51-2.51,2.505,2.505,0,0,0,2.51,2.51"/><path d="M306.25,392.87a2.51,2.51,0,1,0-2.51-2.51,2.505,2.505,0,0,0,2.51,2.51"/><path d="M306.25,407.93a2.51,2.51,0,1,0-2.51-2.51,2.505,2.505,0,0,0,2.51,2.51"/><path d="M293.18,12.55a6.16,6.16,0,1,0-6.16-6.16,6.163,6.163,0,0,0,6.16,6.16"/><path d="M293.18,27.48a6.03,6.03,0,1,0-6.03-6.03,6.03,6.03,0,0,0,6.03,6.03"/><path d="M293.18,42.52a6.02,6.02,0,1,0-6.02-6.02,6.02,6.02,0,0,0,6.02,6.02"/><path d="M293.18,57.51a5.95,5.95,0,1,0-5.95-5.95,5.951,5.951,0,0,0,5.95,5.95"/><path d="M293.18,72.46a5.84,5.84,0,1,0-5.84-5.84,5.834,5.834,0,0,0,5.84,5.84"/><path d="M293.18,87.62a5.95,5.95,0,1,0-5.95-5.95,5.951,5.951,0,0,0,5.95,5.95"/><path d="M293.18,102.88a6.14,6.14,0,1,0-6.14-6.14,6.141,6.141,0,0,0,6.14,6.14"/><path d="M293.18,117.63a5.84,5.84,0,1,0-5.84-5.84,5.834,5.834,0,0,0,5.84,5.84"/><path d="M293.18,132.27a5.41,5.41,0,1,0-5.41-5.41,5.407,5.407,0,0,0,5.41,5.41"/><path d="M293.18,146.47a4.56,4.56,0,1,0-4.56-4.56,4.558,4.558,0,0,0,4.56,4.56"/><path d="M293.18,160.66a3.7,3.7,0,1,0-3.7-3.7,3.7,3.7,0,0,0,3.7,3.7"/><path d="M293.18,175.58a3.55,3.55,0,1,0-3.55-3.55,3.551,3.551,0,0,0,3.55,3.55"/><path d="M293.18,190.37a3.29,3.29,0,1,0-3.29-3.29,3.286,3.286,0,0,0,3.29,3.29"/><path d="M293.18,205.47a3.32,3.32,0,1,0-3.32-3.32,3.318,3.318,0,0,0,3.32,3.32"/><path d="M293.18,220.22a3.02,3.02,0,1,0-3.02-3.02,3.017,3.017,0,0,0,3.02,3.02"/><path d="M293.18,235.16a2.9,2.9,0,1,0-2.9-2.9,2.9,2.9,0,0,0,2.9,2.9"/><path d="M293.18,249.95a2.63,2.63,0,1,0-2.63-2.63,2.633,2.633,0,0,0,2.63,2.63"/><path d="M293.18,264.88a2.51,2.51,0,1,0-2.51-2.51,2.505,2.505,0,0,0,2.51,2.51"/><path d="M293.18,279.94a2.51,2.51,0,1,0-2.51-2.51,2.505,2.505,0,0,0,2.51,2.51"/><path d="M293.18,295a2.51,2.51,0,1,0-2.51-2.51,2.505,2.505,0,0,0,2.51,2.51"/><path d="M293.18,310.05a2.51,2.51,0,1,0-2.51-2.51,2.505,2.505,0,0,0,2.51,2.51"/><path d="M293.18,325.11a2.51,2.51,0,1,0-2.51-2.51,2.505,2.505,0,0,0,2.51,2.51"/><path d="M293.18,340.17a2.51,2.51,0,1,0-2.51-2.51,2.505,2.505,0,0,0,2.51,2.51"/><path d="M293.18,355.23a2.51,2.51,0,1,0-2.51-2.51,2.505,2.505,0,0,0,2.51,2.51"/><path d="M293.18,370.29a2.51,2.51,0,1,0-2.51-2.51,2.505,2.505,0,0,0,2.51,2.51"/><path d="M293.18,385.34a2.51,2.51,0,1,0-2.51-2.51,2.505,2.505,0,0,0,2.51,2.51"/><path d="M293.18,400.4a2.51,2.51,0,1,0-2.51-2.51,2.505,2.505,0,0,0,2.51,2.51"/><path d="M280.12,20.02a6.11,6.11,0,1,0-6.11-6.11,6.109,6.109,0,0,0,6.11,6.11"/><path d="M280.12,35.19a6.21,6.21,0,1,0-6.21-6.21,6.21,6.21,0,0,0,6.21,6.21"/><path d="M280.12,50.09a6.05,6.05,0,1,0-6.05-6.05,6.052,6.052,0,0,0,6.05,6.05"/><path d="M280.12,65.14a6.05,6.05,0,1,0-6.05-6.05,6.052,6.052,0,0,0,6.05,6.05"/><path d="M280.12,80.18a6.03,6.03,0,1,0-6.03-6.03,6.03,6.03,0,0,0,6.03,6.03"/><path d="M280.12,95.37a6.16,6.16,0,1,0-6.16-6.16,6.163,6.163,0,0,0,6.16,6.16"/><path d="M280.12,110.09a5.82,5.82,0,1,0-5.82-5.82,5.819,5.819,0,0,0,5.82,5.82"/><path d="M280.12,125a5.68,5.68,0,1,0-5.68-5.68,5.676,5.676,0,0,0,5.68,5.68"/><path d="M280.12,138.61a4.23,4.23,0,1,0-4.23-4.23,4.225,4.225,0,0,0,4.23,4.23"/><path d="M280.12,153.24a3.8,3.8,0,1,0-3.8-3.8,3.8,3.8,0,0,0,3.8,3.8"/><path d="M280.12,167.96a3.47,3.47,0,1,0-3.47-3.47,3.472,3.472,0,0,0,3.47,3.47"/><path d="M280.12,182.83a3.27,3.27,0,1,0-3.27-3.27,3.265,3.265,0,0,0,3.27,3.27"/><path d="M280.12,197.35a2.74,2.74,0,1,0-2.74-2.74,2.744,2.744,0,0,0,2.74,2.74"/><path d="M280.12,212.39a2.72,2.72,0,1,0-2.72-2.72,2.723,2.723,0,0,0,2.72,2.72"/><path d="M280.12,227.4a2.67,2.67,0,1,0-2.67-2.67,2.669,2.669,0,0,0,2.67,2.67"/><path d="M280.12,242.49a2.7,2.7,0,1,0-2.7-2.7,2.7,2.7,0,0,0,2.7,2.7"/><path d="M280.12,257.35a2.51,2.51,0,1,0-2.51-2.51,2.505,2.505,0,0,0,2.51,2.51"/><path d="M280.12,272.41a2.51,2.51,0,1,0-2.51-2.51,2.505,2.505,0,0,0,2.51,2.51"/><path d="M280.12,287.47a2.51,2.51,0,1,0-2.51-2.51,2.505,2.505,0,0,0,2.51,2.51"/><path d="M280.12,302.53a2.51,2.51,0,1,0-2.51-2.51,2.505,2.505,0,0,0,2.51,2.51"/><path d="M280.12,317.58a2.51,2.51,0,1,0-2.51-2.51,2.505,2.505,0,0,0,2.51,2.51"/><path d="M280.12,332.64a2.51,2.51,0,1,0-2.51-2.51,2.505,2.505,0,0,0,2.51,2.51"/><path d="M280.12,347.7a2.51,2.51,0,1,0-2.51-2.51,2.505,2.505,0,0,0,2.51,2.51"/><path d="M280.12,362.76a2.51,2.51,0,1,0-2.51-2.51,2.505,2.505,0,0,0,2.51,2.51"/><path d="M280.12,377.81a2.51,2.51,0,1,0-2.51-2.51,2.505,2.505,0,0,0,2.51,2.51"/><path d="M280.12,392.87a2.51,2.51,0,1,0-2.51-2.51,2.505,2.505,0,0,0,2.51,2.51"/><path d="M280.12,407.93a2.51,2.51,0,1,0-2.51-2.51,2.505,2.505,0,0,0,2.51,2.51"/><path d="M267.06,12.5a6.11,6.11,0,1,0-6.11-6.11,6.109,6.109,0,0,0,6.11,6.11"/><path d="M267.06,27.55a6.11,6.11,0,1,0-6.11-6.11,6.109,6.109,0,0,0,6.11,6.11"/><path d="M267.06,42.58a6.07,6.07,0,1,0-6.07-6.07,6.073,6.073,0,0,0,6.07,6.07"/><path d="M267.06,57.6a6.035,6.035,0,1,0-6.03-6.03,6.03,6.03,0,0,0,6.03,6.03"/><path d="M267.06,72.41a5.79,5.79,0,1,0-5.79-5.79,5.787,5.787,0,0,0,5.79,5.79"/><path d="M267.06,87.43a5.75,5.75,0,1,0-5.75-5.75,5.751,5.751,0,0,0,5.75,5.75"/><path d="M267.06,102.56a5.82,5.82,0,1,0-5.82-5.82,5.819,5.819,0,0,0,5.82,5.82"/><path d="M267.06,117.51a5.72,5.72,0,1,0-5.72-5.72,5.719,5.719,0,0,0,5.72,5.72"/><path d="M267.06,131.95a5.1,5.1,0,1,0-5.1-5.1,5.1,5.1,0,0,0,5.1,5.1"/><path d="M267.06,145.71a3.8,3.8,0,1,0-3.8-3.8,3.8,3.8,0,0,0,3.8,3.8"/><path d="M267.06,160.43a3.47,3.47,0,1,0-3.47-3.47,3.472,3.472,0,0,0,3.47,3.47"/><path d="M267.06,175.23a3.2,3.2,0,1,0-3.2-3.2,3.2,3.2,0,0,0,3.2,3.2"/><path d="M267.06,189.93a2.85,2.85,0,1,0-2.85-2.85,2.849,2.849,0,0,0,2.85,2.85"/><path d="M267.06,204.88a2.74,2.74,0,1,0-2.74-2.74,2.744,2.744,0,0,0,2.74,2.74"/><path d="M267.06,219.97a2.78,2.78,0,1,0-2.78-2.78,2.78,2.78,0,0,0,2.78,2.78"/><path d="M267.06,234.93a2.67,2.67,0,1,0-2.67-2.67,2.669,2.669,0,0,0,2.67,2.67"/><path d="M267.06,249.91a2.6,2.6,0,1,0-2.6-2.6,2.6,2.6,0,0,0,2.6,2.6"/><path d="M267.06,264.88a2.51,2.51,0,1,0-2.51-2.51,2.505,2.505,0,0,0,2.51,2.51"/><path d="M267.06,279.94a2.51,2.51,0,1,0-2.51-2.51,2.505,2.505,0,0,0,2.51,2.51"/><path d="M267.06,295a2.51,2.51,0,1,0-2.51-2.51,2.505,2.505,0,0,0,2.51,2.51"/><path d="M267.06,310.05a2.51,2.51,0,1,0-2.51-2.51,2.505,2.505,0,0,0,2.51,2.51"/><path d="M267.06,325.11a2.51,2.51,0,1,0-2.51-2.51,2.505,2.505,0,0,0,2.51,2.51"/><path d="M267.06,340.17a2.51,2.51,0,1,0-2.51-2.51,2.505,2.505,0,0,0,2.51,2.51"/><path d="M267.06,355.23a2.51,2.51,0,1,0-2.51-2.51,2.505,2.505,0,0,0,2.51,2.51"/><path d="M267.06,370.29a2.51,2.51,0,1,0-2.51-2.51,2.505,2.505,0,0,0,2.51,2.51"/><path d="M267.06,385.34a2.51,2.51,0,1,0-2.51-2.51,2.505,2.505,0,0,0,2.51,2.51"/><path d="M267.06,400.4a2.51,2.51,0,1,0-2.51-2.51,2.505,2.505,0,0,0,2.51,2.51"/><path d="M253.99,19.94a6.02,6.02,0,1,0-6.02-6.02,6.02,6.02,0,0,0,6.02,6.02"/><path d="M253.99,35.1a6.12,6.12,0,1,0-6.12-6.12,6.12,6.12,0,0,0,6.12,6.12"/><path d="M253.99,49.55a5.52,5.52,0,1,0-5.52-5.52,5.518,5.518,0,0,0,5.52,5.52"/><path d="M253.99,64.49a5.4,5.4,0,1,0-5.4-5.4,5.4,5.4,0,0,0,5.4,5.4"/><path d="M253.99,79.71a5.56,5.56,0,1,0-5.56-5.56,5.561,5.561,0,0,0,5.56,5.56"/><path d="M253.99,94.89a5.68,5.68,0,1,0-5.68-5.68,5.676,5.676,0,0,0,5.68,5.68"/><path d="M253.99,109.98a5.72,5.72,0,1,0-5.72-5.72,5.719,5.719,0,0,0,5.72,5.72"/><path d="M253.99,124.91a5.59,5.59,0,1,0-5.59-5.59,5.587,5.587,0,0,0,5.59,5.59"/><path d="M253.99,138.11a3.73,3.73,0,1,0-3.73-3.73,3.73,3.73,0,0,0,3.73,3.73"/><path d="M253.99,152.71a3.27,3.27,0,1,0-3.27-3.27,3.265,3.265,0,0,0,3.27,3.27"/><path d="M253.99,167.06a2.56,2.56,0,1,0-2.56-2.56,2.559,2.559,0,0,0,2.56,2.56"/><path d="M253.99,182.08a2.53,2.53,0,1,0-2.53-2.53,2.527,2.527,0,0,0,2.53,2.53"/><path d="M253.99,197.32a2.7,2.7,0,1,0-2.7-2.7,2.7,2.7,0,0,0,2.7,2.7"/><path d="M253.99,212.39a2.72,2.72,0,1,0-2.72-2.72,2.723,2.723,0,0,0,2.72,2.72"/><path d="M253.99,227.4a2.67,2.67,0,1,0-2.67-2.67,2.669,2.669,0,0,0,2.67,2.67"/><path d="M253.99,242.45a2.67,2.67,0,1,0-2.67-2.67,2.669,2.669,0,0,0,2.67,2.67"/><path d="M253.99,257.44a2.6,2.6,0,1,0-2.6-2.6,2.595,2.595,0,0,0,2.6,2.6"/><path d="M253.99,272.41a2.51,2.51,0,1,0-2.51-2.51,2.505,2.505,0,0,0,2.51,2.51"/><path d="M253.99,287.47a2.51,2.51,0,1,0-2.51-2.51,2.505,2.505,0,0,0,2.51,2.51"/><path d="M253.99,302.53a2.51,2.51,0,1,0-2.51-2.51,2.505,2.505,0,0,0,2.51,2.51"/><path d="M253.99,317.58a2.51,2.51,0,1,0-2.51-2.51,2.505,2.505,0,0,0,2.51,2.51"/><path d="M253.99,332.64a2.51,2.51,0,1,0-2.51-2.51,2.505,2.505,0,0,0,2.51,2.51"/><path d="M253.99,347.7a2.51,2.51,0,1,0-2.51-2.51,2.505,2.505,0,0,0,2.51,2.51"/><path d="M253.99,362.76a2.51,2.51,0,1,0-2.51-2.51,2.505,2.505,0,0,0,2.51,2.51"/><path d="M253.99,377.81a2.51,2.51,0,1,0-2.51-2.51,2.505,2.505,0,0,0,2.51,2.51"/><path d="M253.99,392.87a2.51,2.51,0,1,0-2.51-2.51,2.505,2.505,0,0,0,2.51,2.51"/><path d="M253.99,407.93a2.51,2.51,0,1,0-2.51-2.51,2.505,2.505,0,0,0,2.51,2.51"/><path d="M240.93,12.25a5.86,5.86,0,1,0-5.86-5.86,5.855,5.855,0,0,0,5.86,5.86"/><path d="M240.93,27.39a5.95,5.95,0,1,0-5.95-5.95,5.951,5.951,0,0,0,5.95,5.95"/><path d="M240.93,41.74a5.24,5.24,0,1,0-5.24-5.24,5.245,5.245,0,0,0,5.24,5.24"/><path d="M240.93,56.78a5.22,5.22,0,1,0-5.22-5.22,5.224,5.224,0,0,0,5.22,5.22"/><path d="M240.93,71.95a5.33,5.33,0,1,0-5.33-5.33,5.328,5.328,0,0,0,5.33,5.33"/><path d="M240.93,87.13a5.45,5.45,0,1,0-5.45-5.45,5.45,5.45,0,0,0,5.45,5.45"/><path d="M240.93,102.15a5.41,5.41,0,1,0-5.41-5.41,5.407,5.407,0,0,0,5.41,5.41"/><path d="M240.93,117.23a5.43,5.43,0,1,0-5.43-5.43,5.429,5.429,0,0,0,5.43,5.43"/><path d="M240.93,131.81a4.95,4.95,0,1,0-4.95-4.95,4.948,4.948,0,0,0,4.95,4.95"/><path d="M240.93,144.54a2.63,2.63,0,1,0-2.63-2.63,2.633,2.633,0,0,0,2.63,2.63"/><path d="M240.93,159.48a2.51,2.51,0,1,0-2.51-2.51,2.505,2.505,0,0,0,2.51,2.51"/><path d="M240.93,174.53a2.51,2.51,0,1,0-2.51-2.51,2.505,2.505,0,0,0,2.51,2.51"/><path d="M240.93,189.59a2.51,2.51,0,1,0-2.51-2.51,2.505,2.505,0,0,0,2.51,2.51"/><path d="M240.93,204.69a2.55,2.55,0,1,0-2.54-2.55,2.548,2.548,0,0,0,2.54,2.55"/><path d="M240.93,220.01a2.81,2.81,0,1,0-2.81-2.81,2.812,2.812,0,0,0,2.81,2.81"/><path d="M240.93,234.85a2.6,2.6,0,1,0-2.6-2.6,2.6,2.6,0,0,0,2.6,2.6"/><path d="M240.93,249.89a2.58,2.58,0,1,0-2.58-2.58,2.58,2.58,0,0,0,2.58,2.58"/><path d="M240.93,264.92a2.55,2.55,0,1,0-2.54-2.55,2.548,2.548,0,0,0,2.54,2.55"/><path d="M240.93,279.94a2.51,2.51,0,1,0-2.51-2.51,2.505,2.505,0,0,0,2.51,2.51"/><path d="M240.93,295a2.51,2.51,0,1,0-2.51-2.51,2.505,2.505,0,0,0,2.51,2.51"/><path d="M240.93,310.05a2.51,2.51,0,1,0-2.51-2.51,2.505,2.505,0,0,0,2.51,2.51"/><path d="M240.93,325.11a2.51,2.51,0,1,0-2.51-2.51,2.505,2.505,0,0,0,2.51,2.51"/><path d="M240.93,340.17a2.51,2.51,0,1,0-2.51-2.51,2.505,2.505,0,0,0,2.51,2.51"/><path d="M240.93,355.23a2.51,2.51,0,1,0-2.51-2.51,2.505,2.505,0,0,0,2.51,2.51"/><path d="M240.93,370.29a2.51,2.51,0,1,0-2.51-2.51,2.505,2.505,0,0,0,2.51,2.51"/><path d="M240.93,385.34a2.51,2.51,0,1,0-2.51-2.51,2.505,2.505,0,0,0,2.51,2.51"/><path d="M240.93,400.4a2.51,2.51,0,1,0-2.51-2.51,2.505,2.505,0,0,0,2.51,2.51"/><path d="M227.87,19.83a5.91,5.91,0,1,0-5.91-5.91,5.915,5.915,0,0,0,5.91,5.91"/><path d="M227.87,34.73a5.75,5.75,0,1,0-5.75-5.75,5.751,5.751,0,0,0,5.75,5.75"/><path d="M227.87,49.01a4.97,4.97,0,1,0-4.97-4.97,4.97,4.97,0,0,0,4.97,4.97"/><path d="M227.87,64.1a5.01,5.01,0,1,0-5.01-5.01,5.006,5.006,0,0,0,5.01,5.01"/><path d="M227.87,79.4a5.26,5.26,0,1,0-5.26-5.26,5.26,5.26,0,0,0,5.26,5.26"/><path d="M227.87,94.6a5.4,5.4,0,1,0-5.4-5.4,5.4,5.4,0,0,0,5.4,5.4"/><path d="M227.87,109.64a5.38,5.38,0,1,0-5.38-5.38,5.382,5.382,0,0,0,5.38,5.38"/><path d="M227.87,124.44a5.11,5.11,0,1,0-5.11-5.11,5.113,5.113,0,0,0,5.11,5.11"/><path d="M227.87,137.21a2.83,2.83,0,1,0-2.83-2.83,2.834,2.834,0,0,0,2.83,2.83"/><path d="M227.87,152a2.56,2.56,0,1,0-2.56-2.56,2.559,2.559,0,0,0,2.56,2.56"/><path d="M227.87,167.01a2.51,2.51,0,1,0-2.51-2.51,2.505,2.505,0,0,0,2.51,2.51"/><path d="M227.87,182.06a2.51,2.51,0,1,0-2.51-2.51,2.505,2.505,0,0,0,2.51,2.51"/><path d="M227.87,197.14a2.53,2.53,0,1,0-2.53-2.53,2.527,2.527,0,0,0,2.53,2.53"/><path d="M227.87,212.36a2.69,2.69,0,1,0-2.69-2.69,2.691,2.691,0,0,0,2.69,2.69"/><path d="M227.87,227.5a2.78,2.78,0,1,0-2.78-2.78,2.78,2.78,0,0,0,2.78,2.78"/><path d="M227.87,242.31a2.53,2.53,0,1,0-2.53-2.53,2.527,2.527,0,0,0,2.53,2.53"/><path d="M227.87,257.39a2.55,2.55,0,1,0-2.55-2.55,2.548,2.548,0,0,0,2.55,2.55"/><path d="M227.87,272.41a2.51,2.51,0,1,0-2.51-2.51,2.505,2.505,0,0,0,2.51,2.51"/><path d="M227.87,287.47a2.51,2.51,0,1,0-2.51-2.51,2.505,2.505,0,0,0,2.51,2.51"/><path d="M227.87,302.53a2.51,2.51,0,1,0-2.51-2.51,2.505,2.505,0,0,0,2.51,2.51"/><path d="M227.87,317.58a2.51,2.51,0,1,0-2.51-2.51,2.505,2.505,0,0,0,2.51,2.51"/><path d="M227.87,332.64a2.51,2.51,0,1,0-2.51-2.51,2.505,2.505,0,0,0,2.51,2.51"/><path d="M227.87,347.7a2.51,2.51,0,1,0-2.51-2.51,2.505,2.505,0,0,0,2.51,2.51"/><path d="M227.87,362.76a2.51,2.51,0,1,0-2.51-2.51,2.505,2.505,0,0,0,2.51,2.51"/><path d="M227.87,377.81a2.51,2.51,0,1,0-2.51-2.51,2.505,2.505,0,0,0,2.51,2.51"/><path d="M227.87,392.87a2.51,2.51,0,1,0-2.51-2.51,2.505,2.505,0,0,0,2.51,2.51"/><path d="M227.87,407.93a2.51,2.51,0,1,0-2.51-2.51,2.505,2.505,0,0,0,2.51,2.51"/><path d="M214.81,11.82a5.43,5.43,0,1,0-5.43-5.43,5.429,5.429,0,0,0,5.43,5.43"/><path d="M214.81,27.16a5.72,5.72,0,1,0-5.72-5.72,5.719,5.719,0,0,0,5.72,5.72"/><path d="M214.81,41.19a4.69,4.69,0,1,0-4.69-4.69,4.69,4.69,0,0,0,4.69,4.69"/><path d="M214.81,56.32a4.76,4.76,0,1,0-4.76-4.76,4.759,4.759,0,0,0,4.76,4.76"/><path d="M214.81,71.08a4.46,4.46,0,1,0-4.46-4.46,4.464,4.464,0,0,0,4.46,4.46"/><path d="M214.81,86.4a4.72,4.72,0,1,0-4.72-4.72,4.722,4.722,0,0,0,4.72,4.72"/><path d="M214.81,101.67a4.94,4.94,0,1,0-4.94-4.94,4.938,4.938,0,0,0,4.94,4.94"/><path d="M214.81,115.58a3.79,3.79,0,1,0-3.79-3.79,3.779,3.779,0,0,0,3.79,3.79"/><path d="M214.81,129.8a2.95,2.95,0,1,0-2.95-2.95,2.949,2.949,0,0,0,2.95,2.95"/><path d="M214.81,144.47a2.56,2.56,0,1,0-2.56-2.56,2.559,2.559,0,0,0,2.56,2.56"/><path d="M214.81,159.48a2.51,2.51,0,1,0-2.51-2.51,2.505,2.505,0,0,0,2.51,2.51"/><path d="M214.81,174.64a2.62,2.62,0,1,0-2.62-2.62,2.623,2.623,0,0,0,2.62,2.62"/><path d="M214.81,189.61a2.53,2.53,0,1,0-2.53-2.53,2.527,2.527,0,0,0,2.53,2.53"/><path d="M214.81,204.79a2.65,2.65,0,1,0-2.65-2.65,2.655,2.655,0,0,0,2.65,2.65"/><path d="M214.81,220.08a2.88,2.88,0,1,0-2.88-2.88,2.881,2.881,0,0,0,2.88,2.88"/><path d="M214.81,235.17a2.92,2.92,0,1,0-2.92-2.92,2.923,2.923,0,0,0,2.92,2.92"/><path d="M214.81,249.82a2.51,2.51,0,1,0-2.51-2.51,2.505,2.505,0,0,0,2.51,2.51"/><path d="M214.81,264.88a2.51,2.51,0,1,0-2.51-2.51,2.505,2.505,0,0,0,2.51,2.51"/><path d="M214.81,279.94a2.51,2.51,0,1,0-2.51-2.51,2.505,2.505,0,0,0,2.51,2.51"/><path d="M214.81,295.01a2.53,2.53,0,1,0-2.53-2.53,2.527,2.527,0,0,0,2.53,2.53"/><path d="M214.81,310.05a2.51,2.51,0,1,0-2.51-2.51,2.505,2.505,0,0,0,2.51,2.51"/><path d="M214.81,325.11a2.51,2.51,0,1,0-2.51-2.51,2.505,2.505,0,0,0,2.51,2.51"/><path d="M214.81,340.17a2.51,2.51,0,1,0-2.51-2.51,2.505,2.505,0,0,0,2.51,2.51"/><path d="M214.81,355.23a2.51,2.51,0,1,0-2.51-2.51,2.505,2.505,0,0,0,2.51,2.51"/><path d="M214.81,370.29a2.51,2.51,0,1,0-2.51-2.51,2.505,2.505,0,0,0,2.51,2.51"/><path d="M214.81,385.34a2.51,2.51,0,1,0-2.51-2.51,2.505,2.505,0,0,0,2.51,2.51"/><path d="M214.81,400.4a2.51,2.51,0,1,0-2.51-2.51,2.505,2.505,0,0,0,2.51,2.51"/><path d="M201.74,19.05a5.13,5.13,0,1,0-5.13-5.13,5.134,5.134,0,0,0,5.13,5.13"/><path d="M201.74,34.11a5.13,5.13,0,1,0-5.13-5.13,5.134,5.134,0,0,0,5.13,5.13"/><path d="M201.74,47.78a3.75,3.75,0,1,0-3.75-3.75,3.751,3.751,0,0,0,3.75,3.75"/><path d="M201.74,63.11a4.02,4.02,0,1,0-4.02-4.02,4.02,4.02,0,0,0,4.02,4.02"/><path d="M201.74,78.47a4.32,4.32,0,1,0-4.32-4.32,4.321,4.321,0,0,0,4.32,4.32"/><path d="M201.74,93.54a4.33,4.33,0,1,0-4.33-4.33,4.332,4.332,0,0,0,4.33,4.33"/><path d="M201.74,107.2a2.93,2.93,0,1,0-2.93-2.93,2.928,2.928,0,0,0,2.93,2.93"/><path d="M201.74,122.45a3.13,3.13,0,1,0-3.13-3.13,3.128,3.128,0,0,0,3.13,3.13"/><path d="M201.74,136.98a2.6,2.6,0,1,0-2.6-2.6,2.595,2.595,0,0,0,2.6,2.6"/><path d="M201.74,151.95a2.51,2.51,0,1,0-2.51-2.51,2.505,2.505,0,0,0,2.51,2.51"/><path d="M201.74,167.01a2.51,2.51,0,1,0-2.51-2.51,2.505,2.505,0,0,0,2.51,2.51"/><path d="M201.74,182.1a2.55,2.55,0,1,0-2.55-2.55,2.548,2.548,0,0,0,2.55,2.55"/><path d="M201.74,197.17a2.56,2.56,0,1,0-2.56-2.56,2.559,2.559,0,0,0,2.56,2.56"/><path d="M201.74,212.25a2.58,2.58,0,1,0-2.58-2.58,2.58,2.58,0,0,0,2.58,2.58"/><path d="M201.74,227.95a3.22,3.22,0,1,0-3.22-3.22,3.218,3.218,0,0,0,3.22,3.22"/><path d="M201.74,242.42a2.63,2.63,0,1,0-2.63-2.63,2.633,2.633,0,0,0,2.63,2.63"/><path d="M201.74,257.44a2.6,2.6,0,1,0-2.6-2.6,2.595,2.595,0,0,0,2.6,2.6"/><path d="M201.74,272.45a2.55,2.55,0,1,0-2.55-2.55,2.548,2.548,0,0,0,2.55,2.55"/><path d="M201.74,287.5a2.55,2.55,0,1,0-2.55-2.55,2.548,2.548,0,0,0,2.55,2.55"/><path d="M201.74,302.56a2.545,2.545,0,1,0-2.55-2.55,2.548,2.548,0,0,0,2.55,2.55"/><path d="M201.74,317.74a2.67,2.67,0,1,0-2.67-2.67,2.669,2.669,0,0,0,2.67,2.67"/><path d="M201.74,332.64a2.51,2.51,0,1,0-2.51-2.51,2.505,2.505,0,0,0,2.51,2.51"/><path d="M201.74,347.7a2.51,2.51,0,1,0-2.51-2.51,2.505,2.505,0,0,0,2.51,2.51"/><path d="M201.74,362.76a2.51,2.51,0,1,0-2.51-2.51,2.505,2.505,0,0,0,2.51,2.51"/><path d="M201.74,377.81a2.51,2.51,0,1,0-2.51-2.51,2.505,2.505,0,0,0,2.51,2.51"/><path d="M201.74,392.87a2.51,2.51,0,1,0-2.51-2.51,2.505,2.505,0,0,0,2.51,2.51"/><path d="M201.74,407.93a2.51,2.51,0,1,0-2.51-2.51,2.505,2.505,0,0,0,2.51,2.51"/><path d="M188.68,11.02a4.64,4.64,0,1,0-4.64-4.64,4.643,4.643,0,0,0,4.64,4.64"/><path d="M188.68,26.01a4.56,4.56,0,1,0-4.56-4.56,4.558,4.558,0,0,0,4.56,4.56"/><path d="M188.68,39.92a3.41,3.41,0,1,0-3.41-3.41,3.414,3.414,0,0,0,3.41,3.41"/><path d="M188.68,55.19a3.63,3.63,0,1,0-3.63-3.63,3.63,3.63,0,0,0,3.63,3.63"/><path d="M188.68,70.42a3.8,3.8,0,1,0-3.8-3.8,3.8,3.8,0,0,0,3.8,3.8"/><path d="M188.68,85.71a4.03,4.03,0,1,0-4.03-4.03,4.031,4.031,0,0,0,4.03,4.03"/><path d="M188.68,99.65a2.92,2.92,0,1,0-2.92-2.92,2.923,2.923,0,0,0,2.92,2.92"/><path d="M188.68,114.69a2.9,2.9,0,1,0-2.9-2.9,2.9,2.9,0,0,0,2.9,2.9"/><path d="M188.68,129.8a2.95,2.95,0,1,0-2.95-2.95,2.949,2.949,0,0,0,2.95,2.95"/><path d="M188.68,144.44a2.53,2.53,0,1,0-2.53-2.53,2.527,2.527,0,0,0,2.53,2.53"/><path d="M188.68,159.48a2.51,2.51,0,1,0-2.51-2.51,2.505,2.505,0,0,0,2.51,2.51"/><path d="M188.68,174.53a2.51,2.51,0,1,0-2.51-2.51,2.505,2.505,0,0,0,2.51,2.51"/><path d="M188.68,189.63a2.55,2.55,0,1,0-2.55-2.55,2.548,2.548,0,0,0,2.55,2.55"/><path d="M188.68,204.7a2.56,2.56,0,1,0-2.56-2.56,2.559,2.559,0,0,0,2.56,2.56"/><path d="M188.68,220.61a3.41,3.41,0,1,0-3.41-3.41,3.414,3.414,0,0,0,3.41,3.41"/><path d="M188.68,234.87a2.62,2.62,0,1,0-2.62-2.62,2.623,2.623,0,0,0,2.62,2.62"/><path d="M188.68,249.86a2.55,2.55,0,1,0-2.55-2.55,2.548,2.548,0,0,0,2.55,2.55"/><path d="M188.68,264.88a2.51,2.51,0,1,0-2.51-2.51,2.505,2.505,0,0,0,2.51,2.51"/><path d="M188.68,279.94a2.51,2.51,0,1,0-2.51-2.51,2.505,2.505,0,0,0,2.51,2.51"/><path d="M188.68,295a2.51,2.51,0,1,0-2.51-2.51,2.505,2.505,0,0,0,2.51,2.51"/><path d="M188.68,310.14a2.6,2.6,0,1,0-2.6-2.6,2.6,2.6,0,0,0,2.6,2.6"/><path d="M188.68,325.22a2.62,2.62,0,1,0-2.62-2.62,2.623,2.623,0,0,0,2.62,2.62"/><path d="M188.68,340.26a2.6,2.6,0,1,0-2.6-2.6,2.6,2.6,0,0,0,2.6,2.6"/><path d="M188.68,355.33a2.62,2.62,0,1,0-2.62-2.62,2.623,2.623,0,0,0,2.62,2.62"/><path d="M188.68,370.43a2.65,2.65,0,1,0-2.65-2.65,2.655,2.655,0,0,0,2.65,2.65"/><path d="M188.68,385.38a2.55,2.55,0,1,0-2.55-2.55,2.548,2.548,0,0,0,2.55,2.55"/><path d="M188.68,400.65a2.76,2.76,0,1,0-2.76-2.76,2.759,2.759,0,0,0,2.76,2.76"/><path d="M175.62,18.06a4.14,4.14,0,1,0-4.14-4.14,4.135,4.135,0,0,0,4.14,4.14"/><path d="M175.62,32.89a3.91,3.91,0,1,0-3.91-3.91,3.909,3.909,0,0,0,3.91,3.91"/><path d="M175.62,46.95a2.92,2.92,0,1,0-2.92-2.92,2.923,2.923,0,0,0,2.92,2.92"/><path d="M175.62,62.42a3.32,3.32,0,1,0-3.32-3.32,3.318,3.318,0,0,0,3.32,3.32"/><path d="M175.62,77.9a3.75,3.75,0,1,0-3.75-3.75,3.751,3.751,0,0,0,3.75,3.75"/><path d="M175.62,92.78a3.57,3.57,0,1,0-3.57-3.57,3.572,3.572,0,0,0,3.57,3.57"/><path d="M175.62,107.25a2.99,2.99,0,1,0-2.99-2.99,2.992,2.992,0,0,0,2.99,2.99"/><path d="M175.62,122.33a3.01,3.01,0,1,0-3.01-3.01,3.013,3.013,0,0,0,3.01,3.01"/><path d="M175.62,137.17a2.79,2.79,0,1,0-2.79-2.79,2.791,2.791,0,0,0,2.79,2.79"/><path d="M175.62,152.09a2.65,2.65,0,1,0-2.65-2.65,2.655,2.655,0,0,0,2.65,2.65"/><path d="M175.62,167.01a2.51,2.51,0,1,0-2.51-2.51,2.505,2.505,0,0,0,2.51,2.51"/><path d="M175.62,182.06a2.51,2.51,0,1,0-2.51-2.51,2.505,2.505,0,0,0,2.51,2.51"/><path d="M175.62,197.48a2.86,2.86,0,1,0-2.86-2.86,2.859,2.859,0,0,0,2.86,2.86"/><path d="M175.62,213.24a3.57,3.57,0,1,0-3.57-3.57,3.572,3.572,0,0,0,3.57,3.57"/><path d="M175.62,228.12a3.4,3.4,0,1,0-3.4-3.4,3.4,3.4,0,0,0,3.4,3.4"/><path d="M175.62,242.29a2.51,2.51,0,1,0-2.51-2.51,2.505,2.505,0,0,0,2.51,2.51"/><path d="M175.62,257.35a2.51,2.51,0,1,0-2.51-2.51,2.505,2.505,0,0,0,2.51,2.51"/><path d="M175.62,272.41a2.51,2.51,0,1,0-2.51-2.51,2.505,2.505,0,0,0,2.51,2.51"/><path d="M175.62,287.47a2.51,2.51,0,1,0-2.51-2.51,2.505,2.505,0,0,0,2.51,2.51"/><path d="M175.62,302.56a2.545,2.545,0,1,0-2.55-2.55,2.548,2.548,0,0,0,2.55,2.55"/><path d="M175.62,317.58a2.51,2.51,0,1,0-2.51-2.51,2.505,2.505,0,0,0,2.51,2.51"/><path d="M175.62,332.73a2.6,2.6,0,1,0-2.6-2.6,2.595,2.595,0,0,0,2.6,2.6"/><path d="M175.62,347.77a2.58,2.58,0,1,0-2.58-2.58,2.58,2.58,0,0,0,2.58,2.58"/><path d="M175.62,362.85a2.6,2.6,0,1,0-2.6-2.6,2.595,2.595,0,0,0,2.6,2.6"/><path d="M175.62,377.96a2.65,2.65,0,1,0-2.65-2.65,2.655,2.655,0,0,0,2.65,2.65"/><path d="M175.62,393a2.63,2.63,0,1,0-2.63-2.63,2.633,2.633,0,0,0,2.63,2.63"/><path d="M175.62,408.69a3.27,3.27,0,1,0-3.27-3.27,3.265,3.265,0,0,0,3.27,3.27"/><path d="M162.56,10.35a3.96,3.96,0,1,0-3.96-3.96,3.956,3.956,0,0,0,3.96,3.96"/><path d="M162.56,25.34a3.89,3.89,0,1,0-3.89-3.89,3.888,3.888,0,0,0,3.89,3.89"/><path d="M162.56,39.28a2.78,2.78,0,1,0-2.78-2.78,2.78,2.78,0,0,0,2.78,2.78"/><path d="M162.56,54.43a2.86,2.86,0,1,0-2.86-2.86,2.859,2.859,0,0,0,2.86,2.86"/><path d="M162.56,69.82a3.2,3.2,0,1,0-3.2-3.2,3.2,3.2,0,0,0,3.2,3.2"/><path d="M162.56,85.11a3.43,3.43,0,1,0-3.43-3.43,3.436,3.436,0,0,0,3.43,3.43"/><path d="M162.56,99.6a2.86,2.86,0,1,0-2.86-2.86,2.859,2.859,0,0,0,2.86,2.86"/><path d="M162.56,114.64a2.85,2.85,0,1,0-2.85-2.85,2.849,2.849,0,0,0,2.85,2.85"/><path d="M162.56,129.79a2.93,2.93,0,1,0-2.93-2.93,2.928,2.928,0,0,0,2.93,2.93"/><path d="M162.56,144.67a2.76,2.76,0,1,0-2.76-2.76,2.759,2.759,0,0,0,2.76,2.76"/><path d="M162.56,159.83a2.86,2.86,0,1,0-2.86-2.86,2.859,2.859,0,0,0,2.86,2.86"/><path d="M162.56,174.84a2.81,2.81,0,1,0-2.81-2.81,2.812,2.812,0,0,0,2.81,2.81"/><path d="M162.56,190.8a3.71,3.71,0,1,0-3.71-3.71,3.709,3.709,0,0,0,3.71,3.71"/><path d="M162.56,205.75a3.61,3.61,0,1,0-3.61-3.61,3.615,3.615,0,0,0,3.61,3.61"/><path d="M162.56,220.84a3.64,3.64,0,1,0-3.64-3.64,3.64,3.64,0,0,0,3.64,3.64"/><path d="M162.56,235a2.74,2.74,0,1,0-2.74-2.74,2.744,2.744,0,0,0,2.74,2.74"/><path d="M162.56,249.89a2.58,2.58,0,1,0-2.58-2.58,2.58,2.58,0,0,0,2.58,2.58"/><path d="M162.56,264.9a2.53,2.53,0,1,0-2.53-2.53,2.527,2.527,0,0,0,2.53,2.53"/><path d="M162.56,279.96a2.53,2.53,0,1,0-2.53-2.53,2.527,2.527,0,0,0,2.53,2.53"/><path d="M162.56,295.05a2.56,2.56,0,1,0-2.56-2.56,2.559,2.559,0,0,0,2.56,2.56"/><path d="M162.56,310.07a2.53,2.53,0,1,0-2.53-2.53,2.527,2.527,0,0,0,2.53,2.53"/><path d="M162.56,325.15a2.55,2.55,0,1,0-2.54-2.55,2.548,2.548,0,0,0,2.54,2.55"/><path d="M162.56,340.21a2.55,2.55,0,1,0-2.54-2.55,2.548,2.548,0,0,0,2.54,2.55"/><path d="M162.56,355.28a2.56,2.56,0,1,0-2.56-2.56,2.559,2.559,0,0,0,2.56,2.56"/><path d="M162.56,370.37a2.6,2.6,0,1,0-2.6-2.6,2.595,2.595,0,0,0,2.6,2.6"/><path d="M162.56,385.5a2.67,2.67,0,1,0-2.67-2.67,2.669,2.669,0,0,0,2.67,2.67"/><path d="M162.56,401.36a3.47,3.47,0,1,0-3.47-3.47,3.472,3.472,0,0,0,3.47,3.47"/><path d="M149.49,17.72a3.8,3.8,0,1,0-3.8-3.8,3.8,3.8,0,0,0,3.8,3.8"/><path d="M149.49,32.64a3.66,3.66,0,1,0-3.66-3.66,3.662,3.662,0,0,0,3.66,3.66"/><path d="M149.49,46.72a2.69,2.69,0,1,0-2.69-2.69,2.691,2.691,0,0,0,2.69,2.69"/><path d="M149.49,61.9a2.81,2.81,0,1,0-2.81-2.81,2.812,2.812,0,0,0,2.81,2.81"/><path d="M149.49,77.17a3.02,3.02,0,1,0-3.02-3.02,3.017,3.017,0,0,0,3.02,3.02"/><path d="M149.49,92.43a3.22,3.22,0,1,0-3.22-3.22,3.218,3.218,0,0,0,3.22,3.22"/><path d="M149.49,107.06a2.79,2.79,0,1,0-2.79-2.79,2.791,2.791,0,0,0,2.79,2.79"/><path d="M149.49,122.24a2.92,2.92,0,1,0-2.92-2.92,2.923,2.923,0,0,0,2.92,2.92"/><path d="M149.49,137.16a2.78,2.78,0,1,0-2.78-2.78,2.78,2.78,0,0,0,2.78,2.78"/><path d="M149.49,152.23a2.79,2.79,0,1,0-2.79-2.79,2.791,2.791,0,0,0,2.79,2.79"/><path d="M149.49,167.27a2.78,2.78,0,1,0-2.78-2.78,2.78,2.78,0,0,0,2.78,2.78"/><path d="M149.49,183.22a3.66,3.66,0,1,0-3.66-3.66,3.662,3.662,0,0,0,3.66,3.66"/><path d="M149.49,198.38a3.77,3.77,0,1,0-3.77-3.77,3.773,3.773,0,0,0,3.77,3.77"/><path d="M149.49,213.49a3.82,3.82,0,1,0-3.82-3.82,3.82,3.82,0,0,0,3.82,3.82"/><path d="M149.49,228.58a3.86,3.86,0,1,0-3.86-3.86,3.862,3.862,0,0,0,3.86,3.86"/><path d="M149.49,242.56a2.78,2.78,0,1,0-2.78-2.78,2.78,2.78,0,0,0,2.78,2.78"/><path d="M149.49,257.39a2.55,2.55,0,1,0-2.55-2.55,2.548,2.548,0,0,0,2.55,2.55"/><path d="M149.49,272.46a2.56,2.56,0,1,0-2.56-2.56,2.559,2.559,0,0,0,2.56,2.56"/><path d="M149.49,287.54a2.58,2.58,0,1,0-2.58-2.58,2.58,2.58,0,0,0,2.58,2.58"/><path d="M149.49,302.79a2.78,2.78,0,1,0-2.78-2.78,2.78,2.78,0,0,0,2.78,2.78"/><path d="M149.49,317.62a2.55,2.55,0,1,0-2.55-2.55,2.548,2.548,0,0,0,2.55,2.55"/><path d="M149.49,332.68a2.55,2.55,0,1,0-2.55-2.55,2.548,2.548,0,0,0,2.55,2.55"/><path d="M149.49,347.75a2.56,2.56,0,1,0-2.56-2.56,2.559,2.559,0,0,0,2.56,2.56"/><path d="M149.49,362.81a2.56,2.56,0,1,0-2.56-2.56,2.559,2.559,0,0,0,2.56,2.56"/><path d="M149.49,377.97a2.67,2.67,0,1,0-2.67-2.67,2.676,2.676,0,0,0,2.67,2.67"/><path d="M149.49,393.19a2.83,2.83,0,1,0-2.83-2.83,2.834,2.834,0,0,0,2.83,2.83"/><path d="M149.49,409.4a3.98,3.98,0,1,0-3.98-3.98,3.978,3.978,0,0,0,3.98,3.98"/><path d="M136.43,10.12a3.73,3.73,0,1,0-3.73-3.73,3.73,3.73,0,0,0,3.73,3.73"/><path d="M136.43,24.95a3.5,3.5,0,1,0-3.5-3.5,3.5,3.5,0,0,0,3.5,3.5"/><path d="M136.43,39.81a3.31,3.31,0,1,0-3.31-3.31,3.308,3.308,0,0,0,3.31,3.31"/><path d="M136.43,54.39a2.83,2.83,0,1,0-2.83-2.83,2.834,2.834,0,0,0,2.83,2.83"/><path d="M136.43,69.31a2.69,2.69,0,1,0-2.69-2.69,2.691,2.691,0,0,0,2.69,2.69"/><path d="M136.43,84.52a2.85,2.85,0,1,0-2.85-2.85,2.849,2.849,0,0,0,2.85,2.85"/><path d="M136.43,99.88a3.15,3.15,0,1,0-3.15-3.15,3.15,3.15,0,0,0,3.15,3.15"/><path d="M136.43,114.87a3.08,3.08,0,1,0-3.08-3.08,3.081,3.081,0,0,0,3.08,3.08"/><path d="M136.43,129.61a2.76,2.76,0,1,0-2.76-2.76,2.759,2.759,0,0,0,2.76,2.76"/><path d="M136.43,144.63a2.72,2.72,0,1,0-2.72-2.72,2.723,2.723,0,0,0,2.72,2.72"/><path d="M136.43,160.2a3.24,3.24,0,1,0-3.24-3.24,3.239,3.239,0,0,0,3.24,3.24"/><path d="M136.43,175.58a3.55,3.55,0,1,0-3.55-3.55,3.551,3.551,0,0,0,3.55,3.55"/><path d="M136.43,190.78a3.7,3.7,0,1,0-3.7-3.7,3.7,3.7,0,0,0,3.7,3.7"/><path d="M136.43,206.12a3.98,3.98,0,1,0-3.98-3.98,3.978,3.978,0,0,0,3.98,3.98"/><path d="M136.43,221.21a4.02,4.02,0,1,0-4.02-4.02,4.02,4.02,0,0,0,4.02,4.02"/><path d="M136.43,236.06a3.8,3.8,0,1,0-3.8-3.8,3.8,3.8,0,0,0,3.8,3.8"/><path d="M136.43,250.3a2.99,2.99,0,1,0-2.99-2.99,2.992,2.992,0,0,0,2.99,2.99"/><path d="M136.43,265.25a2.88,2.88,0,1,0-2.88-2.88,2.881,2.881,0,0,0,2.88,2.88"/><path d="M136.43,280.35a2.92,2.92,0,1,0-2.92-2.92,2.923,2.923,0,0,0,2.92,2.92"/><path d="M136.43,295.58a3.09,3.09,0,1,0-3.09-3.09,3.092,3.092,0,0,0,3.09,3.09"/><path d="M136.43,310.59a3.04,3.04,0,1,0-3.04-3.04,3.039,3.039,0,0,0,3.04,3.04"/><path d="M136.43,325.36a2.76,2.76,0,1,0-2.76-2.76,2.759,2.759,0,0,0,2.76,2.76"/><path d="M136.43,340.28a2.62,2.62,0,1,0-2.62-2.62,2.623,2.623,0,0,0,2.62,2.62"/><path d="M136.43,355.35a2.63,2.63,0,1,0-2.63-2.63,2.633,2.633,0,0,0,2.63,2.63"/><path d="M136.43,370.99a3.22,3.22,0,1,0-3.22-3.22,3.218,3.218,0,0,0,3.22,3.22"/><path d="M136.43,385.82a2.99,2.99,0,1,0-2.99-2.99,2.992,2.992,0,0,0,2.99,2.99"/><path d="M136.43,401.94a4.05,4.05,0,1,0-4.05-4.05,4.046,4.046,0,0,0,4.05,4.05"/><path d="M123.37,17.4a3.48,3.48,0,1,0-3.48-3.48,3.483,3.483,0,0,0,3.48,3.48"/><path d="M123.37,31.98a3.01,3.01,0,1,0-3.01-3.01,3.013,3.013,0,0,0,3.01,3.01"/><path d="M123.37,46.93a2.9,2.9,0,1,0-2.9-2.9,2.9,2.9,0,0,0,2.9,2.9"/><path d="M123.37,61.96a2.86,2.86,0,1,0-2.86-2.86,2.859,2.859,0,0,0,2.86,2.86"/><path d="M123.37,77.14a2.99,2.99,0,1,0-2.99-2.99,2.992,2.992,0,0,0,2.99,2.99"/><path d="M123.37,92.14a2.93,2.93,0,1,0-2.93-2.93,2.928,2.928,0,0,0,2.93,2.93"/><path d="M123.37,107.15a2.88,2.88,0,1,0-2.88-2.88,2.881,2.881,0,0,0,2.88,2.88"/><path d="M123.37,122.31a2.99,2.99,0,1,0-2.99-2.99,2.992,2.992,0,0,0,2.99,2.99"/><path d="M123.37,137.49a3.11,3.11,0,1,0-3.11-3.11,3.107,3.107,0,0,0,3.11,3.11"/><path d="M123.37,152.67a3.24,3.24,0,1,0-3.24-3.24,3.239,3.239,0,0,0,3.24,3.24"/><path d="M123.37,167.82a3.32,3.32,0,1,0-3.32-3.32,3.318,3.318,0,0,0,3.32,3.32"/><path d="M123.37,183.14a3.59,3.59,0,1,0-3.59-3.59,3.593,3.593,0,0,0,3.59,3.59"/><path d="M123.37,198.45a3.84,3.84,0,1,0-3.84-3.84,3.841,3.841,0,0,0,3.84,3.84"/><path d="M123.37,213.83a4.16,4.16,0,1,0-4.16-4.16,4.157,4.157,0,0,0,4.16,4.16"/><path d="M123.37,228.97a4.25,4.25,0,1,0-4.25-4.25,4.253,4.253,0,0,0,4.25,4.25"/><path d="M123.37,243.76a3.98,3.98,0,1,0-3.98-3.98,3.978,3.978,0,0,0,3.98,3.98"/><path d="M123.37,258.03a3.18,3.18,0,1,0-3.18-3.18,3.182,3.182,0,0,0,3.18,3.18"/><path d="M123.37,273.01a3.11,3.11,0,1,0-3.11-3.11,3.107,3.107,0,0,0,3.11,3.11"/><path d="M123.37,288.21a3.25,3.25,0,1,0-3.25-3.25,3.25,3.25,0,0,0,3.25,3.25"/><path d="M123.37,303.27a3.25,3.25,0,1,0-3.25-3.25,3.25,3.25,0,0,0,3.25,3.25"/><path d="M123.37,319.27a4.19,4.19,0,1,0-4.19-4.19,4.189,4.189,0,0,0,4.19,4.19"/><path d="M123.37,334.16a4.03,4.03,0,1,0-4.03-4.03,4.031,4.031,0,0,0,4.03,4.03"/><path d="M123.37,348.43a3.24,3.24,0,1,0-3.24-3.24,3.239,3.239,0,0,0,3.24,3.24"/><path d="M123.37,364.03a3.79,3.79,0,1,0-3.79-3.79,3.788,3.788,0,0,0,3.79,3.79"/><path d="M123.37,379.5a4.19,4.19,0,1,0-4.19-4.19,4.189,4.189,0,0,0,4.19,4.19"/><path d="M123.37,394.64a4.28,4.28,0,1,0-4.28-4.28,4.285,4.285,0,0,0,4.28,4.28"/><path d="M123.37,409.88a4.46,4.46,0,1,0-4.46-4.46,4.464,4.464,0,0,0,4.46,4.46"/><path d="M110.31,9.75a3.36,3.36,0,1,0-3.36-3.36,3.354,3.354,0,0,0,3.36,3.36"/><path d="M110.31,24.42a2.97,2.97,0,1,0-2.97-2.97,2.97,2.97,0,0,0,2.97,2.97"/><path d="M110.31,39.4a2.9,2.9,0,1,0-2.9-2.9,2.9,2.9,0,0,0,2.9,2.9"/><path d="M110.31,54.39a2.83,2.83,0,1,0-2.83-2.83,2.834,2.834,0,0,0,2.83,2.83"/><path d="M110.31,69.47a2.85,2.85,0,1,0-2.85-2.85,2.849,2.849,0,0,0,2.85,2.85"/><path d="M110.31,84.42a2.74,2.74,0,1,0-2.74-2.74,2.744,2.744,0,0,0,2.74,2.74"/><path d="M110.31,99.39a2.65,2.65,0,1,0-2.65-2.65,2.655,2.655,0,0,0,2.65,2.65"/><path d="M110.31,114.53a2.74,2.74,0,1,0-2.74-2.74,2.744,2.744,0,0,0,2.74,2.74"/><path d="M110.31,129.68a2.83,2.83,0,1,0-2.83-2.83,2.834,2.834,0,0,0,2.83,2.83"/><path d="M110.31,144.84a2.93,2.93,0,1,0-2.93-2.93,2.928,2.928,0,0,0,2.93,2.93"/><path d="M110.31,160.08a3.11,3.11,0,1,0-3.11-3.11,3.107,3.107,0,0,0,3.11,3.11"/><path d="M110.31,175.33a3.31,3.31,0,1,0-3.31-3.31,3.308,3.308,0,0,0,3.31,3.31"/><path d="M110.31,190.62a3.54,3.54,0,1,0-3.54-3.54,3.54,3.54,0,0,0,3.54,3.54"/><path d="M110.31,206.12a3.98,3.98,0,1,0-3.98-3.98,3.978,3.978,0,0,0,3.98,3.98"/><path d="M110.31,221.44a4.25,4.25,0,1,0-4.25-4.25,4.253,4.253,0,0,0,4.25,4.25"/><path d="M110.31,236.82a4.56,4.56,0,1,0-4.56-4.56,4.558,4.558,0,0,0,4.56,4.56"/><path d="M110.31,251.97a4.65,4.65,0,1,0-4.65-4.65,4.648,4.648,0,0,0,4.65,4.65"/><path d="M110.31,266.44a4.07,4.07,0,1,0-4.07-4.07,4.067,4.067,0,0,0,4.07,4.07"/><path d="M110.31,281.48a4.05,4.05,0,1,0-4.05-4.05,4.046,4.046,0,0,0,4.05,4.05"/><path d="M110.31,296.98a4.49,4.49,0,1,0-4.49-4.49,4.49,4.49,0,0,0,4.49,4.49"/><path d="M110.31,312.13a4.58,4.58,0,1,0-4.58-4.58,4.579,4.579,0,0,0,4.58,4.58"/><path d="M110.31,327.13a4.53,4.53,0,1,0-4.53-4.53,4.532,4.532,0,0,0,4.53,4.53"/><path d="M110.31,341.99a4.33,4.33,0,1,0-4.33-4.33,4.332,4.332,0,0,0,4.33,4.33"/><path d="M110.31,357.32a4.6,4.6,0,1,0-4.6-4.6,4.6,4.6,0,0,0,4.6,4.6"/><path d="M110.31,372.23a4.46,4.46,0,1,0-4.46-4.46,4.464,4.464,0,0,0,4.46,4.46"/><path d="M110.31,387.27a4.44,4.44,0,1,0-4.44-4.44,4.443,4.443,0,0,0,4.44,4.44"/><path d="M110.31,402.42a4.53,4.53,0,1,0-4.53-4.53,4.532,4.532,0,0,0,4.53,4.53"/><path d="M97.24,16.92a3.01,3.01,0,1,0-3.01-3.01,3.013,3.013,0,0,0,3.01,3.01"/><path d="M97.24,31.86a2.88,2.88,0,1,0-2.88-2.88,2.881,2.881,0,0,0,2.88,2.88"/><path d="M97.24,46.83a2.79,2.79,0,1,0-2.79-2.79,2.791,2.791,0,0,0,2.79,2.79"/><path d="M97.24,61.8a2.7,2.7,0,1,0-2.7-2.7,2.7,2.7,0,0,0,2.7,2.7"/><path d="M97.24,76.75a2.6,2.6,0,1,0-2.6-2.6,2.595,2.595,0,0,0,2.6,2.6"/><path d="M97.24,91.75a2.55,2.55,0,1,0-2.55-2.55,2.548,2.548,0,0,0,2.55,2.55"/><path d="M97.24,106.86a2.6,2.6,0,1,0-2.6-2.6,2.595,2.595,0,0,0,2.6,2.6"/><path d="M97.24,121.96a2.63,2.63,0,1,0-2.63-2.63,2.633,2.633,0,0,0,2.63,2.63"/><path d="M97.24,137.09a2.7,2.7,0,1,0-2.7-2.7,2.7,2.7,0,0,0,2.7,2.7"/><path d="M97.24,152.27a2.83,2.83,0,1,0-2.83-2.83,2.834,2.834,0,0,0,2.83,2.83"/><path d="M97.24,167.52a3.02,3.02,0,1,0-3.02-3.02,3.017,3.017,0,0,0,3.02,3.02"/><path d="M97.24,182.86a3.31,3.31,0,1,0-3.31-3.31,3.308,3.308,0,0,0,3.31,3.31"/><path d="M97.24,198.26a3.64,3.64,0,1,0-3.64-3.64,3.64,3.64,0,0,0,3.64,3.64"/><path d="M97.24,213.58a3.91,3.91,0,1,0-3.91-3.91,3.909,3.909,0,0,0,3.91,3.91"/><path d="M97.24,229.04a4.32,4.32,0,1,0-4.32-4.32,4.321,4.321,0,0,0,4.32,4.32"/><path d="M97.24,244.37a4.58,4.58,0,1,0-4.58-4.58,4.579,4.579,0,0,0,4.58,4.58"/><path d="M97.24,259.57a4.72,4.72,0,1,0-4.72-4.72,4.722,4.722,0,0,0,4.72,4.72"/><path d="M97.24,274.82a4.92,4.92,0,1,0-4.92-4.92,4.916,4.916,0,0,0,4.92,4.92"/><path d="M97.24,290.07a5.11,5.11,0,1,0-5.11-5.11,5.113,5.113,0,0,0,5.11,5.11"/><path d="M97.24,305.25A5.24,5.24,0,1,0,92,300.01a5.245,5.245,0,0,0,5.24,5.24"/><path d="M97.24,319.96a4.88,4.88,0,1,0-4.88-4.88,4.88,4.88,0,0,0,4.88,4.88"/><path d="M97.24,334.87a4.74,4.74,0,1,0-4.74-4.74,4.737,4.737,0,0,0,4.74,4.74"/><path d="M97.24,350.04a4.85,4.85,0,1,0-4.85-4.85,4.848,4.848,0,0,0,4.85,4.85"/><path d="M97.24,364.87a4.62,4.62,0,1,0-4.62-4.62,4.622,4.622,0,0,0,4.62,4.62"/><path d="M97.24,379.96a4.65,4.65,0,1,0-4.65-4.65,4.648,4.648,0,0,0,4.65,4.65"/><path d="M97.24,395.02a4.65,4.65,0,1,0-4.65-4.65,4.648,4.648,0,0,0,4.65,4.65"/><path d="M97.24,410.16a4.74,4.74,0,1,0-4.74-4.74,4.737,4.737,0,0,0,4.74,4.74"/><path d="M84.18,9.71a3.32,3.32,0,1,0-3.32-3.32,3.318,3.318,0,0,0,3.32,3.32"/><path d="M84.18,24.35a2.9,2.9,0,1,0-2.9-2.9,2.9,2.9,0,0,0,2.9,2.9"/><path d="M84.18,39.3a2.79,2.79,0,1,0-2.79-2.79,2.791,2.791,0,0,0,2.79,2.79"/><path d="M84.18,54.21a2.65,2.65,0,1,0-2.65-2.65,2.655,2.655,0,0,0,2.65,2.65"/><path d="M84.18,69.15a2.53,2.53,0,1,0-2.53-2.53,2.527,2.527,0,0,0,2.53,2.53"/><path d="M84.18,84.19a2.51,2.51,0,1,0-2.51-2.51,2.505,2.505,0,0,0,2.51,2.51"/><path d="M84.18,99.26a2.53,2.53,0,1,0-2.53-2.53,2.527,2.527,0,0,0,2.53,2.53"/><path d="M84.18,114.34a2.55,2.55,0,1,0-2.54-2.55,2.548,2.548,0,0,0,2.54,2.55"/><path d="M84.18,129.45a2.6,2.6,0,1,0-2.6-2.6,2.595,2.595,0,0,0,2.6,2.6"/><path d="M84.18,144.56a2.65,2.65,0,1,0-2.65-2.65,2.655,2.655,0,0,0,2.65,2.65"/><path d="M84.18,159.76a2.79,2.79,0,1,0-2.79-2.79,2.791,2.791,0,0,0,2.79,2.79"/><path d="M84.18,175a2.97,2.97,0,1,0-2.97-2.97A2.97,2.97,0,0,0,84.18,175"/><path d="M84.18,190.3a3.22,3.22,0,1,0-3.22-3.22,3.218,3.218,0,0,0,3.22,3.22"/><path d="M84.18,205.59a3.45,3.45,0,1,0-3.45-3.45,3.45,3.45,0,0,0,3.45,3.45"/><path d="M84.18,221.09a3.89,3.89,0,1,0-3.89-3.89,3.888,3.888,0,0,0,3.89,3.89"/><path d="M84.18,236.43a4.17,4.17,0,1,0-4.17-4.17,4.167,4.167,0,0,0,4.17,4.17"/><path d="M84.18,252.02a4.71,4.71,0,1,0-4.71-4.71,4.712,4.712,0,0,0,4.71,4.71"/><path d="M84.18,267.18a4.81,4.81,0,1,0-4.81-4.81,4.806,4.806,0,0,0,4.81,4.81"/><path d="M84.18,282.51a5.08,5.08,0,1,0-5.08-5.08,5.081,5.081,0,0,0,5.08,5.08"/><path d="M84.18,297.71a5.22,5.22,0,1,0-5.22-5.22,5.224,5.224,0,0,0,5.22,5.22"/><path d="M84.18,312.69a5.15,5.15,0,1,0-5.15-5.15,5.155,5.155,0,0,0,5.15,5.15"/><path d="M84.18,327.66a5.06,5.06,0,1,0-5.06-5.06,5.066,5.066,0,0,0,5.06,5.06"/><path d="M84.18,342.47a4.81,4.81,0,1,0-4.81-4.81,4.806,4.806,0,0,0,4.81,4.81"/><path d="M84.18,357.5a4.78,4.78,0,1,0-4.78-4.78,4.78,4.78,0,0,0,4.78,4.78"/><path d="M84.18,372.61a4.83,4.83,0,1,0-4.83-4.83,4.827,4.827,0,0,0,4.83,4.83"/><path d="M84.18,387.74a4.9,4.9,0,1,0-4.9-4.9,4.9,4.9,0,0,0,4.9,4.9"/><path d="M84.18,402.79a4.9,4.9,0,1,0-4.9-4.9,4.9,4.9,0,0,0,4.9,4.9"/><path d="M71.12,16.99a3.08,3.08,0,1,0-3.08-3.08,3.081,3.081,0,0,0,3.08,3.08"/><path d="M71.12,31.79a2.81,2.81,0,1,0-2.81-2.81,2.812,2.812,0,0,0,2.81,2.81"/><path d="M71.12,46.65a2.62,2.62,0,1,0-2.62-2.62,2.623,2.623,0,0,0,2.62,2.62"/><path d="M71.12,61.62a2.53,2.53,0,1,0-2.53-2.53,2.527,2.527,0,0,0,2.53,2.53"/><path d="M71.12,76.66a2.51,2.51,0,1,0-2.51-2.51,2.505,2.505,0,0,0,2.51,2.51"/><path d="M71.12,91.72a2.51,2.51,0,1,0-2.51-2.51,2.505,2.505,0,0,0,2.51,2.51"/><path d="M71.12,106.79a2.53,2.53,0,1,0-2.53-2.53,2.527,2.527,0,0,0,2.53,2.53"/><path d="M71.12,121.87a2.545,2.545,0,1,0-2.55-2.54,2.546,2.546,0,0,0,2.55,2.54"/><path d="M71.12,136.96a2.58,2.58,0,1,0-2.58-2.58,2.58,2.58,0,0,0,2.58,2.58"/><path d="M71.12,152.09a2.65,2.65,0,1,0-2.65-2.65,2.655,2.655,0,0,0,2.65,2.65"/><path d="M71.12,167.22a2.72,2.72,0,1,0-2.72-2.72,2.723,2.723,0,0,0,2.72,2.72"/><path d="M71.12,182.44a2.88,2.88,0,1,0-2.88-2.88,2.881,2.881,0,0,0,2.88,2.88"/><path d="M71.12,197.67a3.06,3.06,0,1,0-3.06-3.06,3.06,3.06,0,0,0,3.06,3.06"/><path d="M71.12,212.98a3.31,3.31,0,1,0-3.31-3.31,3.308,3.308,0,0,0,3.31,3.31"/><path d="M71.12,228.49a3.77,3.77,0,1,0-3.77-3.77,3.773,3.773,0,0,0,3.77,3.77"/><path d="M71.12,243.92a4.14,4.14,0,1,0-4.14-4.14,4.135,4.135,0,0,0,4.14,4.14"/><path d="M71.12,259.32a4.48,4.48,0,1,0-4.48-4.48,4.479,4.479,0,0,0,4.48,4.48"/><path d="M71.12,274.71a4.81,4.81,0,1,0-4.81-4.81,4.806,4.806,0,0,0,4.81,4.81"/><path d="M71.12,290a5.04,5.04,0,1,0-5.04-5.04A5.038,5.038,0,0,0,71.12,290"/><path d="M71.12,305.4a5.38,5.38,0,1,0-5.38-5.38,5.382,5.382,0,0,0,5.38,5.38"/><path d="M71.12,320.22a5.15,5.15,0,1,0-5.15-5.15,5.155,5.155,0,0,0,5.15,5.15"/><path d="M71.12,335.14a5.01,5.01,0,1,0-5.01-5.01,5.006,5.006,0,0,0,5.01,5.01"/><path d="M71.12,350.18a4.99,4.99,0,1,0-4.99-4.99,4.985,4.985,0,0,0,4.99,4.99"/><path d="M71.12,365.36a5.11,5.11,0,1,0-5.11-5.11,5.113,5.113,0,0,0,5.11,5.11"/><path d="M71.12,380.29a4.99,4.99,0,1,0-4.99-4.99,4.985,4.985,0,0,0,4.99,4.99"/><path d="M71.12,395.39a5.03,5.03,0,1,0-5.03-5.03,5.027,5.027,0,0,0,5.03,5.03"/><path d="M71.12,410.59a5.17,5.17,0,1,0-5.17-5.17,5.17,5.17,0,0,0,5.17,5.17"/><path d="M58.06,9.52a3.13,3.13,0,1,0-3.13-3.13,3.128,3.128,0,0,0,3.13,3.13"/><path d="M58.06,24.38a2.93,2.93,0,1,0-2.93-2.93,2.928,2.928,0,0,0,2.93,2.93"/><path d="M58.06,39.16a2.65,2.65,0,1,0-2.65-2.65,2.655,2.655,0,0,0,2.65,2.65"/><path d="M58.06,54.11a2.55,2.55,0,1,0-2.55-2.55,2.548,2.548,0,0,0,2.55,2.55"/><path d="M58.06,69.15a2.53,2.53,0,1,0-2.53-2.53,2.527,2.527,0,0,0,2.53,2.53"/><path d="M58.06,84.21a2.53,2.53,0,1,0-2.53-2.53,2.527,2.527,0,0,0,2.53,2.53"/><path d="M58.06,99.26a2.53,2.53,0,1,0-2.53-2.53,2.527,2.527,0,0,0,2.53,2.53"/><path d="M58.06,114.32a2.53,2.53,0,1,0-2.53-2.53,2.527,2.527,0,0,0,2.53,2.53"/><path d="M58.06,129.4a2.55,2.55,0,1,0-2.55-2.55,2.548,2.548,0,0,0,2.55,2.55"/><path d="M58.06,144.45a2.545,2.545,0,1,0-2.55-2.54,2.546,2.546,0,0,0,2.55,2.54"/><path d="M58.06,159.55a2.58,2.58,0,1,0-2.58-2.58,2.58,2.58,0,0,0,2.58,2.58"/><path d="M58.06,174.68a2.65,2.65,0,1,0-2.65-2.65,2.655,2.655,0,0,0,2.65,2.65"/><path d="M58.06,189.84a2.76,2.76,0,1,0-2.76-2.76,2.759,2.759,0,0,0,2.76,2.76"/><path d="M58.06,205.06a2.92,2.92,0,1,0-2.92-2.92,2.923,2.923,0,0,0,2.92,2.92"/><path d="M58.06,220.36a3.17,3.17,0,1,0-3.17-3.17,3.171,3.171,0,0,0,3.17,3.17"/><path d="M58.06,235.79a3.54,3.54,0,1,0-3.54-3.54,3.54,3.54,0,0,0,3.54,3.54"/><path d="M58.06,251.24a3.93,3.93,0,1,0-3.93-3.93,3.931,3.931,0,0,0,3.93,3.93"/><path d="M58.06,266.74a4.37,4.37,0,1,0-4.37-4.37,4.374,4.374,0,0,0,4.37,4.37"/><path d="M58.06,282.15a4.72,4.72,0,1,0-4.72-4.72,4.716,4.716,0,0,0,4.72,4.72"/><path d="M58.06,297.49a5.01,5.01,0,1,0-5.01-5.01,5.006,5.006,0,0,0,5.01,5.01"/><path d="M58.06,312.66a5.11,5.11,0,1,0-5.11-5.11,5.113,5.113,0,0,0,5.11,5.11"/><path d="M58.06,327.61a5.01,5.01,0,1,0-5.01-5.01,5.006,5.006,0,0,0,5.01,5.01"/><path d="M58.06,342.81a5.15,5.15,0,1,0-5.15-5.15,5.155,5.155,0,0,0,5.15,5.15"/><path d="M58.06,357.9a5.18,5.18,0,1,0-5.18-5.18,5.181,5.181,0,0,0,5.18,5.18"/><path d="M58.06,372.98a5.2,5.2,0,1,0-5.2-5.2,5.2,5.2,0,0,0,5.2,5.2"/><path d="M58.06,388.16a5.33,5.33,0,1,0-5.33-5.33,5.328,5.328,0,0,0,5.33,5.33"/><path d="M58.06,403.34a5.45,5.45,0,1,0-5.45-5.45,5.45,5.45,0,0,0,5.45,5.45"/><path d="M44.99,16.89a2.97,2.97,0,1,0-2.97-2.97,2.97,2.97,0,0,0,2.97,2.97"/><path d="M44.99,31.66a2.69,2.69,0,1,0-2.69-2.69,2.691,2.691,0,0,0,2.69,2.69"/><path d="M44.99,46.6a2.56,2.56,0,1,0-2.56-2.56,2.559,2.559,0,0,0,2.56,2.56"/><path d="M44.99,61.62a2.53,2.53,0,1,0-2.53-2.53,2.527,2.527,0,0,0,2.53,2.53"/><path d="M44.99,76.68a2.53,2.53,0,1,0-2.53-2.53,2.527,2.527,0,0,0,2.53,2.53"/><path d="M44.99,91.73a2.53,2.53,0,1,0-2.53-2.53,2.527,2.527,0,0,0,2.53,2.53"/><path d="M44.99,106.79a2.53,2.53,0,1,0-2.53-2.53,2.527,2.527,0,0,0,2.53,2.53"/><path d="M44.99,121.83a2.51,2.51,0,1,0-2.51-2.51,2.505,2.505,0,0,0,2.51,2.51"/><path d="M44.99,136.91a2.53,2.53,0,1,0-2.53-2.53,2.527,2.527,0,0,0,2.53,2.53"/><path d="M44.99,151.97a2.53,2.53,0,1,0-2.53-2.53,2.527,2.527,0,0,0,2.53,2.53"/><path d="M44.99,167.08a2.58,2.58,0,1,0-2.58-2.58,2.58,2.58,0,0,0,2.58,2.58"/><path d="M44.99,182.17a2.62,2.62,0,1,0-2.62-2.62,2.623,2.623,0,0,0,2.62,2.62"/><path d="M44.99,197.3a2.69,2.69,0,1,0-2.69-2.69,2.691,2.691,0,0,0,2.69,2.69"/><path d="M44.99,212.5a2.83,2.83,0,1,0-2.83-2.83,2.834,2.834,0,0,0,2.83,2.83"/><path d="M44.99,227.77a3.04,3.04,0,1,0-3.04-3.04,3.039,3.039,0,0,0,3.04,3.04"/><path d="M44.99,243.18a3.4,3.4,0,1,0-3.4-3.4,3.4,3.4,0,0,0,3.4,3.4"/><path d="M44.99,258.61a3.77,3.77,0,1,0-3.77-3.77,3.773,3.773,0,0,0,3.77,3.77"/><path d="M44.99,274.08a4.17,4.17,0,1,0-4.17-4.17,4.167,4.167,0,0,0,4.17,4.17"/><path d="M44.99,289.52a4.56,4.56,0,1,0-4.56-4.56,4.558,4.558,0,0,0,4.56,4.56"/><path d="M44.99,304.92a4.9,4.9,0,1,0-4.9-4.9,4.9,4.9,0,0,0,4.9,4.9"/><path d="M44.99,320.1a5.03,5.03,0,1,0-5.03-5.03,5.027,5.027,0,0,0,5.03,5.03"/><path d="M44.99,335.21a5.08,5.08,0,1,0-5.08-5.08,5.081,5.081,0,0,0,5.08,5.08"/><path d="M44.99,350.64a5.45,5.45,0,1,0-5.45-5.45,5.45,5.45,0,0,0,5.45,5.45"/><path d="M44.99,365.47a5.22,5.22,0,1,0-5.22-5.22,5.224,5.224,0,0,0,5.22,5.22"/><path d="M44.99,380.7a5.4,5.4,0,1,0-5.4-5.4,5.4,5.4,0,0,0,5.4,5.4"/><path d="M44.99,395.87a5.5,5.5,0,1,0-5.5-5.5,5.5,5.5,0,0,0,5.5,5.5"/><path d="M44.99,411.03a5.61,5.61,0,1,0-5.61-5.61,5.608,5.608,0,0,0,5.61,5.61"/><path d="M31.93,9.45a3.06,3.06,0,1,0-3.06-3.06,3.06,3.06,0,0,0,3.06,3.06"/><path d="M31.93,24.2a2.76,2.76,0,1,0-2.76-2.76,2.759,2.759,0,0,0,2.76,2.76"/><path d="M31.93,39.05a2.55,2.55,0,1,0-2.54-2.55,2.548,2.548,0,0,0,2.54,2.55"/><path d="M31.93,54.09a2.53,2.53,0,1,0-2.53-2.53,2.527,2.527,0,0,0,2.53,2.53"/><path d="M31.93,69.15a2.53,2.53,0,1,0-2.53-2.53,2.527,2.527,0,0,0,2.53,2.53"/><path d="M31.93,84.21a2.53,2.53,0,1,0-2.53-2.53,2.527,2.527,0,0,0,2.53,2.53"/><path d="M31.93,99.26a2.53,2.53,0,1,0-2.53-2.53,2.527,2.527,0,0,0,2.53,2.53"/><path d="M31.93,114.3a2.51,2.51,0,1,0-2.51-2.51,2.505,2.505,0,0,0,2.51,2.51"/><path d="M31.93,129.36a2.51,2.51,0,1,0-2.51-2.51,2.505,2.505,0,0,0,2.51,2.51"/><path d="M31.93,144.42a2.51,2.51,0,1,0-2.51-2.51,2.505,2.505,0,0,0,2.51,2.51"/><path d="M31.93,159.49a2.53,2.53,0,1,0-2.53-2.53,2.527,2.527,0,0,0,2.53,2.53"/><path d="M31.93,174.57a2.55,2.55,0,1,0-2.54-2.55,2.548,2.548,0,0,0,2.54,2.55"/><path d="M31.93,189.66a2.58,2.58,0,1,0-2.58-2.58,2.58,2.58,0,0,0,2.58,2.58"/><path d="M31.93,204.76a2.62,2.62,0,1,0-2.62-2.62,2.623,2.623,0,0,0,2.62,2.62"/><path d="M31.93,219.94a2.74,2.74,0,1,0-2.74-2.74,2.744,2.744,0,0,0,2.74,2.74"/><path d="M31.93,235.19A2.93,2.93,0,1,0,29,232.26a2.928,2.928,0,0,0,2.93,2.93"/><path d="M31.93,250.59a3.27,3.27,0,1,0-3.27-3.27,3.265,3.265,0,0,0,3.27,3.27"/><path d="M31.93,265.98a3.61,3.61,0,1,0-3.61-3.61,3.615,3.615,0,0,0,3.61,3.61"/><path d="M31.93,281.48a4.05,4.05,0,1,0-4.05-4.05,4.046,4.046,0,0,0,4.05,4.05"/><path d="M31.93,297.11a4.62,4.62,0,1,0-4.62-4.62,4.622,4.622,0,0,0,4.62,4.62"/><path d="M31.93,312.32a4.78,4.78,0,1,0-4.78-4.78,4.78,4.78,0,0,0,4.78,4.78"/><path d="M31.93,327.45a4.85,4.85,0,1,0-4.85-4.85,4.848,4.848,0,0,0,4.85,4.85"/><path d="M31.93,342.76a5.1,5.1,0,1,0-5.1-5.1,5.1,5.1,0,0,0,5.1,5.1"/><path d="M31.93,357.92a5.2,5.2,0,1,0-5.2-5.2,5.2,5.2,0,0,0,5.2,5.2"/><path d="M31.93,373.28a5.5,5.5,0,1,0-5.5-5.5,5.5,5.5,0,0,0,5.5,5.5"/><path d="M31.93,388.46a5.63,5.63,0,1,0-5.63-5.63,5.629,5.629,0,0,0,5.63,5.63"/><path d="M31.93,403.66a5.77,5.77,0,1,0-5.77-5.77,5.766,5.766,0,0,0,5.77,5.77"/><path d="M18.87,16.8a2.88,2.88,0,1,0-2.88-2.88,2.881,2.881,0,0,0,2.88,2.88"/><path d="M18.87,31.57a2.6,2.6,0,1,0-2.6-2.6,2.6,2.6,0,0,0,2.6,2.6"/><path d="M18.87,46.56a2.53,2.53,0,1,0-2.53-2.53,2.527,2.527,0,0,0,2.53,2.53"/><path d="M18.87,61.62a2.53,2.53,0,1,0-2.53-2.53,2.527,2.527,0,0,0,2.53,2.53"/><path d="M18.87,76.68a2.53,2.53,0,1,0-2.53-2.53,2.527,2.527,0,0,0,2.53,2.53"/><path d="M18.87,91.72a2.51,2.51,0,1,0-2.51-2.51,2.505,2.505,0,0,0,2.51,2.51"/><path d="M18.87,106.77a2.51,2.51,0,1,0-2.51-2.51,2.505,2.505,0,0,0,2.51,2.51"/><path d="M18.87,121.83a2.51,2.51,0,1,0-2.51-2.51,2.505,2.505,0,0,0,2.51,2.51"/><path d="M18.87,136.89a2.51,2.51,0,1,0-2.51-2.51,2.505,2.505,0,0,0,2.51,2.51"/><path d="M18.87,151.95a2.51,2.51,0,1,0-2.51-2.51,2.505,2.505,0,0,0,2.51,2.51"/><path d="M18.87,167.02a2.53,2.53,0,1,0-2.53-2.53,2.527,2.527,0,0,0,2.53,2.53"/><path d="M18.87,182.1a2.55,2.55,0,1,0-2.55-2.55,2.548,2.548,0,0,0,2.55,2.55"/><path d="M18.87,197.17a2.56,2.56,0,1,0-2.56-2.56,2.559,2.559,0,0,0,2.56,2.56"/><path d="M18.87,212.25a2.58,2.58,0,1,0-2.58-2.58,2.58,2.58,0,0,0,2.58,2.58"/><path d="M18.87,227.4a2.67,2.67,0,1,0-2.67-2.67,2.669,2.669,0,0,0,2.67,2.67"/><path d="M18.87,242.65a2.86,2.86,0,1,0-2.86-2.86,2.859,2.859,0,0,0,2.86,2.86"/><path d="M18.87,257.97a3.13,3.13,0,1,0-3.13-3.13,3.128,3.128,0,0,0,3.13,3.13"/><path d="M18.87,273.46a3.55,3.55,0,1,0-3.55-3.55,3.551,3.551,0,0,0,3.55,3.55"/><path d="M18.87,288.97a4.02,4.02,0,1,0-4.02-4.02,4.02,4.02,0,0,0,4.02,4.02"/><path d="M18.87,304.35a4.33,4.33,0,1,0-4.33-4.33,4.332,4.332,0,0,0,4.33,4.33"/><path d="M18.87,319.73a4.65,4.65,0,1,0-4.65-4.65,4.648,4.648,0,0,0,4.65,4.65"/><path d="M18.87,335.03a4.9,4.9,0,1,0-4.9-4.9,4.9,4.9,0,0,0,4.9,4.9"/><path d="M18.87,350.25a5.06,5.06,0,1,0-5.06-5.06,5.066,5.066,0,0,0,5.06,5.06"/><path d="M18.87,365.54a5.29,5.29,0,1,0-5.29-5.29,5.292,5.292,0,0,0,5.29,5.29"/><path d="M18.87,380.81a5.5,5.5,0,1,0-5.5-5.5,5.5,5.5,0,0,0,5.5,5.5"/><path d="M18.87,396.01a5.65,5.65,0,1,0-5.65-5.65,5.651,5.651,0,0,0,5.65,5.65"/><path d="M18.87,410.96a5.54,5.54,0,1,0-5.54-5.54,5.54,5.54,0,0,0,5.54,5.54"/><path d="M5.8,9.34A2.95,2.95,0,1,0,2.85,6.39,2.949,2.949,0,0,0,5.8,9.34"/><path d="M5.8,24.15a2.7,2.7,0,1,0-2.7-2.7,2.7,2.7,0,0,0,2.7,2.7"/><path d="M5.8,39.01A2.505,2.505,0,1,0,3.3,36.5a2.505,2.505,0,0,0,2.5,2.51"/><path d="M5.8,54.07a2.51,2.51,0,1,0-2.51-2.51A2.505,2.505,0,0,0,5.8,54.07"/><path d="M5.8,69.13a2.51,2.51,0,1,0-2.51-2.51A2.505,2.505,0,0,0,5.8,69.13"/><path d="M5.8,84.19a2.51,2.51,0,1,0-2.51-2.51A2.505,2.505,0,0,0,5.8,84.19"/><path d="M5.8,99.25a2.51,2.51,0,1,0-2.51-2.51A2.505,2.505,0,0,0,5.8,99.25"/><path d="M5.8,114.3a2.51,2.51,0,1,0-2.51-2.51A2.505,2.505,0,0,0,5.8,114.3"/><path d="M5.8,129.36a2.51,2.51,0,1,0-2.51-2.51,2.505,2.505,0,0,0,2.51,2.51"/><path d="M5.8,144.42a2.51,2.51,0,1,0-2.51-2.51,2.505,2.505,0,0,0,2.51,2.51"/><path d="M5.8,159.49a2.53,2.53,0,1,0-2.53-2.53,2.527,2.527,0,0,0,2.53,2.53"/><path d="M5.8,174.55a2.53,2.53,0,1,0-2.53-2.53,2.527,2.527,0,0,0,2.53,2.53"/><path d="M5.8,189.61a2.53,2.53,0,1,0-2.53-2.53,2.527,2.527,0,0,0,2.53,2.53"/><path d="M5.8,204.67a2.53,2.53,0,1,0-2.53-2.53,2.527,2.527,0,0,0,2.53,2.53"/><path d="M5.8,219.76a2.56,2.56,0,1,0-2.56-2.56,2.559,2.559,0,0,0,2.56,2.56"/><path d="M5.8,234.85a2.6,2.6,0,1,0-2.6-2.6,2.6,2.6,0,0,0,2.6,2.6"/><path d="M5.8,250.12a2.81,2.81,0,1,0-2.81-2.81,2.812,2.812,0,0,0,2.81,2.81"/><path d="M5.8,265.47a3.09,3.09,0,1,0-3.09-3.09,3.092,3.092,0,0,0,3.09,3.09"/><path d="M5.8,280.88a3.45,3.45,0,1,0-3.45-3.45,3.45,3.45,0,0,0,3.45,3.45"/><path d="M5.8,296.41a3.93,3.93,0,1,0-3.93-3.93,3.931,3.931,0,0,0,3.93,3.93"/><path d="M5.8,311.88a4.33,4.33,0,1,0-4.33-4.33,4.332,4.332,0,0,0,4.33,4.33"/><path d="M5.8,327.26a4.65,4.65,0,1,0-4.65-4.65,4.648,4.648,0,0,0,4.65,4.65"/><path d="M5.8,342.6a4.94,4.94,0,1,0-4.94-4.94A4.938,4.938,0,0,0,5.8,342.6"/><path d="M5.8,357.8a5.08,5.08,0,1,0-5.08-5.08A5.081,5.081,0,0,0,5.8,357.8"/><path d="M5.8,373.1a5.33,5.33,0,1,0-5.33-5.33A5.328,5.328,0,0,0,5.8,373.1"/><path d="M5.8,388.48a5.65,5.65,0,1,0-5.65-5.65,5.651,5.651,0,0,0,5.65,5.65"/><path d="M5.8,403.7A5.8,5.8,0,1,0,0,397.9a5.8,5.8,0,0,0,5.8,5.8"/></g></g></g></svg>