<svg xmlns="http://www.w3.org/2000/svg" width="110.088" height="19.8" viewBox="0 0 110.088 19.8"><path d="M6.482,24.062a5.886,5.886,0,0,1-4.5-2.161A7.537,7.537,0,0,1,0,16.589a7.139,7.139,0,0,1,1.948-5.207A6.059,6.059,0,0,1,6.482,9.363a5.4,5.4,0,0,1,4.25,1.842V6.6H14.7V23.46h-4V21.972A5.088,5.088,0,0,1,6.482,24.062ZM4,16.766A4.1,4.1,0,0,0,5.03,19.6a3.14,3.14,0,0,0,2.409,1.1,2.949,2.949,0,0,0,2.338-1.1,4.158,4.158,0,0,0,.956-2.834A4.253,4.253,0,0,0,9.776,13.9,2.934,2.934,0,0,0,7.4,12.728,3.1,3.1,0,0,0,4.994,13.9,4.224,4.224,0,0,0,4,16.766Z" transform="translate(0 -4.262)"/><path d="M124.882,24.062a5.886,5.886,0,0,1-4.5-2.161,7.537,7.537,0,0,1-1.984-5.313,7.139,7.139,0,0,1,1.948-5.207,6.058,6.058,0,0,1,4.534-2.019,5.4,5.4,0,0,1,4.25,1.842V6.6H133.1V23.46h-3.967V21.972A5.294,5.294,0,0,1,124.882,24.062Zm-2.515-7.3a4.1,4.1,0,0,0,1.027,2.834,3.14,3.14,0,0,0,2.409,1.1,2.95,2.95,0,0,0,2.338-1.1,4.158,4.158,0,0,0,.956-2.834,4.253,4.253,0,0,0-.956-2.869,2.934,2.934,0,0,0-2.373-1.169,3.1,3.1,0,0,0-2.409,1.169A4.224,4.224,0,0,0,122.367,16.766Z" transform="translate(-76.462 -4.262)"/><path d="M61.489,21.767a6.978,6.978,0,0,1-2.161,5.207,7.882,7.882,0,0,1-10.768,0A7.112,7.112,0,0,1,46.4,21.767a7.111,7.111,0,0,1,2.161-5.242,7.882,7.882,0,0,1,10.768,0A7.111,7.111,0,0,1,61.489,21.767Zm-11.087,0a3.954,3.954,0,0,0,.992,2.834,3.511,3.511,0,0,0,5.1,0,4.012,4.012,0,0,0,.992-2.834,4.1,4.1,0,0,0-.992-2.869,3.4,3.4,0,0,0-2.55-1.1,3.276,3.276,0,0,0-2.55,1.1A4.339,4.339,0,0,0,50.4,21.767Z" transform="translate(-29.965 -9.299)"/><path d="M179.789,21.767a6.978,6.978,0,0,1-2.161,5.207,7.882,7.882,0,0,1-10.768,0,7.112,7.112,0,0,1-2.161-5.207,7.111,7.111,0,0,1,2.161-5.242,7.882,7.882,0,0,1,10.768,0A7.111,7.111,0,0,1,179.789,21.767Zm-11.051,0a3.954,3.954,0,0,0,.992,2.834,3.511,3.511,0,0,0,5.1,0,4.012,4.012,0,0,0,.992-2.834,4.1,4.1,0,0,0-.992-2.869,3.511,3.511,0,0,0-5.1,0A4.162,4.162,0,0,0,168.738,21.767Z" transform="translate(-106.363 -9.299)"/><path d="M100.711,19.989a2.1,2.1,0,0,1-1.027.248,1.142,1.142,0,0,1-.956-.46,1.778,1.778,0,0,1-.39-1.275v-5.03h2.9V9.965h-2.9V6.6H94.3V19.033a4.831,4.831,0,0,0,1.417,3.684,4.9,4.9,0,0,0,3.471,1.346,5.172,5.172,0,0,0,2.621-.744Z" transform="translate(-60.899 -4.262)"/><path d="M219.111,19.989a2.1,2.1,0,0,1-1.027.248,1.142,1.142,0,0,1-.956-.46,1.778,1.778,0,0,1-.39-1.275v-5.03h2.9V9.965H216.7V6.6h-4V19.033a4.831,4.831,0,0,0,1.417,3.684,4.9,4.9,0,0,0,3.471,1.346,5.171,5.171,0,0,0,2.621-.744Z" transform="translate(-137.361 -4.262)"/><g transform="translate(89.259)"><g transform="translate(2.586)"><path d="M260.044.744A2.539,2.539,0,0,1,261.886,0a2.483,2.483,0,0,1,1.842.744,2.54,2.54,0,0,1,.744,1.842,2.483,2.483,0,0,1-.744,1.842,2.539,2.539,0,0,1-1.842.744,2.483,2.483,0,0,1-1.842-.744,2.539,2.539,0,0,1-.744-1.842A2.6,2.6,0,0,1,260.044.744Z" transform="translate(-259.3)"/><path d="M289.444.744A2.539,2.539,0,0,1,291.286,0a2.483,2.483,0,0,1,1.842.744,2.54,2.54,0,0,1,.744,1.842,2.483,2.483,0,0,1-.744,1.842,2.54,2.54,0,0,1-1.842.744,2.483,2.483,0,0,1-1.842-.744,2.54,2.54,0,0,1-.744-1.842A2.6,2.6,0,0,1,289.444.744Z" transform="translate(-278.286)"/></g><rect width="20.827" height="3.613" transform="translate(0 7.615)"/><rect width="20.827" height="3.613" transform="translate(0 13.637)"/></g></svg>