<svg xmlns="http://www.w3.org/2000/svg" width="158" height="22.933" viewBox="0 0 158 22.933"><defs><style>.a{fill:#00a7d0;}</style></defs><g transform="translate(28.475 0.913)"><path d="M132.61,30.272A4.987,4.987,0,0,1,129.2,31.8c-4.6,0-4.6-4.995-4.6-4.995V19.4h3.441v6.578c0,.853.152,2.924,2.071,2.924,2.345,0,2.528-2.284,2.528-3.045V19.4h3.441V31.612H132.64v-1.34Z" transform="translate(-115.129 -14.405)"/><path d="M484.711,18.288v6.578H481.3V9.7h3.411v4.325a4.805,4.805,0,0,1,3.472-1.553,4.3,4.3,0,0,1,3.228,1.37,5,5,0,0,1,1.31,3.624v7.461H489.31V18.2c0-1.888-.7-2.8-2.071-2.8a2.439,2.439,0,0,0-1.766.731A2.839,2.839,0,0,0,484.711,18.288Z" transform="translate(-363.196 -7.659)"/><g transform="translate(73.701 0.884)"><path d="M348.474,5.9l-4.111,8.741L340.281,5.9H335.5V22.224h3.533V11.778l3.746,7.614h3.167l3.776-7.614V22.224h3.533V5.9Z" transform="translate(-335.5 -5.9)"/></g><g transform="translate(36.942)"><g transform="translate(0.274 4.995)"><path d="M215.7,31.612V19.4h3.472V31.612Z" transform="translate(-215.7 -19.4)"/></g><path d="M218.82,5.008A2.01,2.01,0,1,1,216.81,3,2.008,2.008,0,0,1,218.82,5.008Z" transform="translate(-214.8 -2.998)"/></g><path d="M264.223,28.483a2.814,2.814,0,0,1-2.04-1.1l8.527-2.71a6.831,6.831,0,0,0-1.31-3.685,5.991,5.991,0,0,0-4.416-2.254,6.363,6.363,0,0,0-4.751,1.462,5.847,5.847,0,0,0-2.193,4.325,5.993,5.993,0,0,0,1.492,4.6,6.339,6.339,0,0,0,4.477,2.193,7.421,7.421,0,0,0,5.634-2.162l-1.98-2.1A4.435,4.435,0,0,1,264.223,28.483Zm-.7-6.7a3.183,3.183,0,0,1,3.868,1.279l-6.061,1.949A3.091,3.091,0,0,1,263.522,21.783Z" transform="translate(-207.912 -13.925)"/><path d="M405.023,28.483a2.813,2.813,0,0,1-2.04-1.1l8.527-2.71a6.831,6.831,0,0,0-1.31-3.685,5.991,5.991,0,0,0-4.416-2.254,6.363,6.363,0,0,0-4.751,1.462,5.847,5.847,0,0,0-2.193,4.325,5.993,5.993,0,0,0,1.492,4.6,6.34,6.34,0,0,0,4.477,2.193,7.421,7.421,0,0,0,5.634-2.162l-1.98-2.1A4.435,4.435,0,0,1,405.023,28.483Zm-.7-6.7a3.183,3.183,0,0,1,3.868,1.279l-6.061,1.949A3.125,3.125,0,0,1,404.322,21.783Z" transform="translate(-305.831 -13.925)"/><path d="M308.541,20.1a4.33,4.33,0,0,1,3.655-1.37v3.167h-.64a2.672,2.672,0,0,0-2.284,1.066,5.052,5.052,0,0,0-.761,2.863v5.3H305.1V18.909h3.411V20.1Z" transform="translate(-240.657 -13.914)"/><g transform="translate(42.911 2.041)"><path d="M239.882,21.516a1.8,1.8,0,0,1-.883.213.982.982,0,0,1-.822-.4,1.528,1.528,0,0,1-.335-1.1V15.669h2.5V12.654h-2.5V9.7H234.4V20.755a4.153,4.153,0,0,0,1.218,3.167A4.214,4.214,0,0,0,238.6,25.08a4.446,4.446,0,0,0,2.254-.64Z" transform="translate(-234.4 -9.7)"/></g><path d="M452.9,27.249a3.6,3.6,0,0,1-1.34,2.893,5.126,5.126,0,0,1-3.381,1.1A9.1,9.1,0,0,1,442.7,29.32l1.492-2.132a6.558,6.558,0,0,0,4.05,1.462,1.74,1.74,0,0,0,1.035-.274.844.844,0,0,0,.4-.7,1.015,1.015,0,0,0-.548-.792,6.358,6.358,0,0,0-1.553-.67q-1.005-.32-1.553-.548A7.173,7.173,0,0,1,444.8,25a2.837,2.837,0,0,1-1.37-2.558,3.39,3.39,0,0,1,1.37-2.771,5.609,5.609,0,0,1,3.533-1.066,7.753,7.753,0,0,1,4.325,1.462l-1.279,2.284a5.536,5.536,0,0,0-3.167-1.1c-1.066,0-1.584.274-1.584.853a.846.846,0,0,0,.487.761,10.3,10.3,0,0,0,1.645.64q1.142.365,1.645.548a7.245,7.245,0,0,1,1.157.609A2.766,2.766,0,0,1,452.9,27.249Z" transform="translate(-336.352 -13.848)"/><path d="M97.642,31.856V19.4h3.411V32.1a4.153,4.153,0,0,1-1.218,3.167,4.214,4.214,0,0,1-2.985,1.157,4.89,4.89,0,0,1-3.35-1.462l1.553-2.528a2.044,2.044,0,0,0,1.523.792.966.966,0,0,0,.761-.365A1.325,1.325,0,0,0,97.642,31.856Z" transform="translate(-93.5 -14.405)"/><path d="M179.8,20.566A5.089,5.089,0,0,0,176,18.8a5.019,5.019,0,0,0-3.685,1.553v-1.37H168.9V35.611h3.411v-6.03a4.321,4.321,0,0,0,3.594,1.8,5.1,5.1,0,0,0,3.9-1.827,6.36,6.36,0,0,0,1.675-4.507A6.236,6.236,0,0,0,179.8,20.566Zm-4.538,7.918c-1.8,0-3.015-1.523-3.015-3.533a3.111,3.111,0,0,1,3.015-3.411c1.8,0,3.015,1.431,3.015,3.411C178.28,26.992,177.062,28.485,175.265,28.485Z" transform="translate(-145.937 -13.987)"/><path d="M110.22,5.008A2.01,2.01,0,1,1,108.21,3,2.008,2.008,0,0,1,110.22,5.008Z" transform="translate(-102.332 -2.998)"/></g><path class="a" d="M46.982,54.668a31.025,31.025,0,0,0-.548-3.959A2.666,2.666,0,0,1,44.79,50.1,24.03,24.03,0,0,1,41.9,51.288a6.017,6.017,0,0,1-.792.244,2.829,2.829,0,0,1-.3,1.157,21.941,21.941,0,0,0,4.842,2.954A8.362,8.362,0,0,0,46.982,54.668Z" transform="translate(-28.374 -34.842)"/><path class="a" d="M4.876,37.735A2.671,2.671,0,0,1,3.6,37.4a34.156,34.156,0,0,0-2.5,2.71,11.3,11.3,0,0,0,.731,2.01A40.5,40.5,0,0,0,6.978,42a2.94,2.94,0,0,1,.457-1.249c-.183-.213-.335-.426-.518-.67-.579-.761-1.157-1.584-1.705-2.436A.547.547,0,0,1,4.876,37.735Z" transform="translate(-0.765 -26.01)"/><path class="a" d="M35.792,1.614a2.225,2.225,0,0,1,.914-.183,2.351,2.351,0,0,1,1.888.944,22.043,22.043,0,0,1,2.68-.548A11.155,11.155,0,0,0,35.122,0,7.422,7.422,0,0,0,34.3.03C34.818.548,35.305,1.066,35.792,1.614Z" transform="translate(-23.854)"/><path class="a" d="M48.926,10.809v.03a2.336,2.336,0,0,1-.426,1.34,27.374,27.374,0,0,1,3.076,5.482h.244a2.782,2.782,0,0,1,1.492.457,24.361,24.361,0,0,0,2.619-2.436,11.128,11.128,0,0,0-3.2-5.482A18.037,18.037,0,0,0,48.926,10.809Z" transform="translate(-33.729 -7.094)"/><path class="a" d="M23.38,25.318a3.252,3.252,0,0,1,2.832,1.645,20.766,20.766,0,0,0,3.167-1.249,1.737,1.737,0,0,1-.03-.4,2.667,2.667,0,0,1,1.066-2.132,27.821,27.821,0,0,0-2.893-5.116,2,2,0,0,1-.761.122,2.282,2.282,0,0,1-1.736-.792,28.909,28.909,0,0,0-4.69,2.954,2.482,2.482,0,0,1,.183.944A2.423,2.423,0,0,1,20,22.821a33.971,33.971,0,0,0,2.01,2.8A3.465,3.465,0,0,1,23.38,25.318Z" transform="translate(-13.909 -12.101)"/><path class="a" d="M10.157,7.465h.213a2.361,2.361,0,0,1,1.431.457q.914-.685,1.919-1.37A26.486,26.486,0,0,1,16.8,4.785V4.541a2.058,2.058,0,0,1,.365-1.218C16.461,2.562,15.731,1.8,15,1.1A10.9,10.9,0,0,0,9,4.694,21.419,21.419,0,0,0,10.157,7.465Z" transform="translate(-6.259 -0.765)"/><path class="a" d="M65.049,37.614a2.318,2.318,0,0,1,.091.64,2.7,2.7,0,0,1-1.34,2.315,29.072,29.072,0,0,1,.487,2.985A11.18,11.18,0,0,0,66.906,36.3V36C66.3,36.579,65.688,37.1,65.049,37.614Z" transform="translate(-44.37 -25.036)"/><path class="a" d="M16.254,60.1a3.194,3.194,0,0,1-1.705.487A3.287,3.287,0,0,1,11.594,58.7c-1.218.122-2.467.152-3.807.152H7.3A11.328,11.328,0,0,0,20.182,62.69,25.681,25.681,0,0,1,16.254,60.1Z" transform="translate(-5.077 -40.823)"/><path class="a" d="M1.888,23.468a2.371,2.371,0,0,1-.274-1.127A2.6,2.6,0,0,1,2.223,20.7c-.274-.609-.548-1.188-.792-1.8A11.343,11.343,0,0,0,0,24.412c0,.335.03.67.061,1.005C.579,24.808,1.188,24.169,1.888,23.468Z" transform="translate(0 -13.144)"/></svg>