<svg xmlns="http://www.w3.org/2000/svg" width="59.396" height="22" viewBox="0 0 59.396 22"><path d="M141.383,23.522a3.113,3.113,0,0,1-2.257-1.213l9.467-3a7.557,7.557,0,0,0-1.449-4.077,6.516,6.516,0,0,0-4.885-2.493,7.162,7.162,0,0,0-5.289,1.617,6.357,6.357,0,0,0-2.426,4.784,6.707,6.707,0,0,0,1.651,5.121,7.013,7.013,0,0,0,4.953,2.426,7.994,7.994,0,0,0,6.233-2.426l-2.19-2.325A4.906,4.906,0,0,1,141.383,23.522Zm-.775-7.446a3.522,3.522,0,0,1,4.279,1.415l-6.738,2.156A3.536,3.536,0,0,1,140.608,16.076Z" transform="translate(-89.196 -8.428)"/><path d="M102.143,23.313a4.393,4.393,0,0,0,3.4-1.887l2.257,2.527a7.8,7.8,0,0,1-5.66,2.729,7.409,7.409,0,0,1-5.155-1.92A6.464,6.464,0,0,1,94.9,19.708a6.49,6.49,0,0,1,2.123-5.054,7.158,7.158,0,0,1,5.054-1.954,7.907,7.907,0,0,1,2.965.606,7.432,7.432,0,0,1,2.628,1.786l-1.954,2.56A4.865,4.865,0,0,0,104.1,16.44,4.809,4.809,0,0,0,102.211,16a3.737,3.737,0,0,0-2.56.977,3.476,3.476,0,0,0-1.078,2.7,3.476,3.476,0,0,0,1.078,2.7A3.637,3.637,0,0,0,102.143,23.313Z" transform="translate(-62.928 -8.421)"/><path d="M3.773,14.146A4.79,4.79,0,0,1,7.816,12.63v3.538H7.109a2.9,2.9,0,0,0-2.527,1.213,5.588,5.588,0,0,0-.842,3.167V26.41H0V12.832H3.773Z" transform="translate(0 -8.351)"/><path d="M51.5,23.448,57.969,12.6h4.312L56.116,22.943h3.335V19.675h3.807v3.268h2.021v3.436H63.258v3.975H59.485V26.379H51.5Z" transform="translate(-34.149 -8.355)"/><g transform="translate(10.208 0)"><path d="M35.556,0A5.629,5.629,0,0,0,31.85,1.28,4.579,4.579,0,0,0,30.3,5.054V18.025h3.807V10.208h3.268V6.873H34.107V5.323a1.834,1.834,0,0,1,.539-1.449,1.913,1.913,0,0,1,1.348-.505,2.464,2.464,0,0,1,1.516.472l1.348-2.7A5.116,5.116,0,0,0,35.556,0Z" transform="translate(-30.3 0)"/></g></svg>