<svg xmlns="http://www.w3.org/2000/svg" width="190.357" height="33.608" viewBox="0 0 190.357 33.608"><defs><style>.a{fill:#9d9d9c;}.b{fill:#76bc21;}</style></defs><g transform="translate(0.002 0.001)"><g transform="translate(31.686 26.247)"><path class="a" d="M110.629,91.544a1.686,1.686,0,0,0-1.212-.532,1.5,1.5,0,0,0-1.153.5V89.8H107.2v5.114h1.064v-.5a1.359,1.359,0,0,0,1.123.562,1.646,1.646,0,0,0,1.212-.591,2.037,2.037,0,0,0,.532-1.448A1.8,1.8,0,0,0,110.629,91.544Zm-1.448,2.512a.993.993,0,0,1-.946-1.094.952.952,0,1,1,1.892,0A.993.993,0,0,1,109.18,94.056Z" transform="translate(-107.2 -89.504)"/><path class="a" d="M123.474,97.192v.148a1.341,1.341,0,0,1-.532,1.212c-.916.562-1.862-.414-1.862-.414l-.68.709a2.6,2.6,0,0,0,1.951.857,1.992,1.992,0,0,0,1.419-.5,2.662,2.662,0,0,0,.739-2.1V94.03h-1.094v1.6a.8.8,0,0,1-.8.916.609.609,0,0,1-.5-.177,1.535,1.535,0,0,1-.236-.857V94h-1.064v1.833a1.441,1.441,0,0,0,1.6,1.655A1.663,1.663,0,0,0,123.474,97.192Z" transform="translate(-116.498 -92.463)"/><g transform="translate(37.037)"><g transform="translate(8.365)"><g transform="translate(0.089 1.567)"><path class="a" d="M261.1,97.943V94.1h1.094v3.843Z" transform="translate(-261.1 -94.1)"/></g><path class="a" d="M262.041,89.421a.621.621,0,1,1-.621-.621A.606.606,0,0,1,262.041,89.421Z" transform="translate(-260.8 -88.8)"/></g><path class="a" d="M283.064,95.5v2.128H282V93.789h1.064V94.2a1.513,1.513,0,0,1,1.094-.5,1.359,1.359,0,0,1,1.005.414,1.666,1.666,0,0,1,.414,1.153V97.6h-1.064V95.444c0-.591-.207-.887-.65-.887a.807.807,0,0,0-.562.236A.986.986,0,0,0,283.064,95.5Z" transform="translate(-267.369 -92.252)"/><path class="a" d="M310.624,96.947a.909.909,0,0,1-.65-.355l2.69-.857a2.01,2.01,0,0,0-.414-1.153,1.887,1.887,0,0,0-1.389-.709,2.123,2.123,0,0,0-1.507.443,1.708,1.708,0,0,0-.68,1.36,1.844,1.844,0,0,0,.473,1.448,1.91,1.91,0,0,0,1.389.68,2.31,2.31,0,0,0,1.774-.68l-.621-.65A1.3,1.3,0,0,1,310.624,96.947Zm-.207-2.1a.979.979,0,0,1,1.212.414l-1.892.621A.936.936,0,0,1,310.417,94.849Z" transform="translate(-286.15 -92.366)"/><path class="a" d="M269.167,93.959v.325a1.43,1.43,0,0,0-1.005-.384,1.87,1.87,0,0,0-1.862,1.951,1.893,1.893,0,0,0,.562,1.448,1.8,1.8,0,0,0,1.271.562,1.5,1.5,0,0,0,1.035-.384V97.8h1.064V93.959Zm-.916,2.985a.993.993,0,0,1-.946-1.094.952.952,0,1,1,1.892,0A.993.993,0,0,1,268.251,96.945Z" transform="translate(-256.309 -92.393)"/><path class="a" d="M248.3,94.914V89.8h1.153v5.114Z" transform="translate(-243.63 -89.504)"/><path class="a" d="M254.6,94.914V89.8h1.153v5.114Z" transform="translate(-248.068 -89.504)"/><path class="a" d="M298.04,96.915a1.268,1.268,0,0,0,.975-.532l.621.709a2.267,2.267,0,0,1-1.6.769,2.087,2.087,0,0,1-1.448-.532A1.849,1.849,0,0,1,296,95.91a1.96,1.96,0,0,1,.591-1.448,2.149,2.149,0,0,1,1.419-.562,2.086,2.086,0,0,1,.828.177,2.183,2.183,0,0,1,.739.5l-.562.739a1.309,1.309,0,0,0-.443-.355,1.159,1.159,0,0,0-.532-.118,1.081,1.081,0,0,0-.739.266,1.147,1.147,0,0,0,0,1.537A1.2,1.2,0,0,0,298.04,96.915Z" transform="translate(-277.23 -92.393)"/><path class="a" d="M235.367,93.959v.325a1.43,1.43,0,0,0-1-.384,1.87,1.87,0,0,0-1.862,1.951,1.893,1.893,0,0,0,.562,1.448,1.8,1.8,0,0,0,1.271.562,1.5,1.5,0,0,0,1.035-.384V97.8h1.064V93.959Zm-.916,2.985a.993.993,0,0,1-.946-1.094.952.952,0,1,1,1.892,0A.993.993,0,0,1,234.451,96.945Z" transform="translate(-232.5 -92.393)"/></g><path class="a" d="M149.6,94.987h-1.685V94.1h3.1v.857l-1.862,2.1h1.98v.887H147.8v-.887Z" transform="translate(-135.799 -92.533)"/><g transform="translate(15.725)"><g transform="translate(0.089 1.567)"><path class="a" d="M160.7,97.943V94.1h1.094v3.843Z" transform="translate(-160.7 -94.1)"/></g><circle class="a" cx="0.621" cy="0.621" r="0.621"/></g><path class="a" d="M185.029,91.544a1.686,1.686,0,0,0-1.212-.532,1.5,1.5,0,0,0-1.153.5V89.8H181.6v5.114h1.064v-.5a1.359,1.359,0,0,0,1.123.562A1.646,1.646,0,0,0,185,94.382a2.037,2.037,0,0,0,.532-1.448A1.8,1.8,0,0,0,185.029,91.544Zm-1.448,2.512a.993.993,0,0,1-.946-1.094.952.952,0,1,1,1.892,0A.993.993,0,0,1,183.58,94.056Z" transform="translate(-159.609 -89.504)"/><path class="a" d="M198.024,96.947a.909.909,0,0,1-.65-.355l2.69-.857a2.01,2.01,0,0,0-.414-1.153,1.887,1.887,0,0,0-1.389-.709,2.123,2.123,0,0,0-1.507.443,1.708,1.708,0,0,0-.68,1.36,1.844,1.844,0,0,0,.473,1.448,1.91,1.91,0,0,0,1.389.68,2.31,2.31,0,0,0,1.774-.68l-.621-.65A1.3,1.3,0,0,1,198.024,96.947Zm-.207-2.1a.979.979,0,0,1,1.212.414l-1.892.621A.936.936,0,0,1,197.817,94.849Z" transform="translate(-169.796 -92.366)"/><path class="a" d="M212.624,96.947a.909.909,0,0,1-.65-.355l2.69-.857a2.01,2.01,0,0,0-.414-1.153,1.887,1.887,0,0,0-1.389-.709,2.123,2.123,0,0,0-1.507.443,1.708,1.708,0,0,0-.68,1.36,1.844,1.844,0,0,0,.473,1.448,1.91,1.91,0,0,0,1.389.68,2.31,2.31,0,0,0,1.774-.68l-.621-.65A1.354,1.354,0,0,1,212.624,96.947Zm-.236-2.1a.979.979,0,0,1,1.212.414l-1.892.621A.966.966,0,0,1,212.388,94.849Z" transform="translate(-180.08 -92.366)"/><path class="a" d="M168.774,97.2v.118a1.341,1.341,0,0,1-.532,1.212c-.916.562-1.862-.414-1.862-.414l-.68.709a2.6,2.6,0,0,0,1.951.857,1.992,1.992,0,0,0,1.419-.5,2.662,2.662,0,0,0,.739-2.1V93.889h-1.064v.591a1.47,1.47,0,0,0-1.212-.68,1.821,1.821,0,0,0-1.8,1.98,1.8,1.8,0,0,0,1.773,1.98A1.479,1.479,0,0,0,168.774,97.2Zm-.975-.325a.993.993,0,0,1-.946-1.094.952.952,0,1,1,1.892,0A.993.993,0,0,1,167.8,96.874Z" transform="translate(-148.408 -92.322)"/></g><g transform="translate(-0.002 -0.002)"><path class="b" d="M12.147,0A12.045,12.045,0,1,0,24.119,12.118,12.054,12.054,0,0,0,12.147,0ZM15.1,15.369a3.628,3.628,0,0,1-1.507-.325v.118a20.619,20.619,0,0,0,.118,2.276,6.03,6.03,0,0,0,.473,1.892h0a.627.627,0,0,1-.266.828.109.109,0,0,1-.089.03.557.557,0,0,1-.236.059h-.118a6.825,6.825,0,0,0-1.3-.148c-.443,0-.8.089-1.507.089h-.148c-.03,0-.059-.03-.118-.03h0a.029.029,0,0,1-.03-.03.1.1,0,0,1-.059-.03.029.029,0,0,1-.03-.03c-.03,0-.03-.03-.059-.03a.1.1,0,0,1-.03-.059c0-.03-.03-.03-.03-.059s-.03-.03-.03-.059-.03-.03-.03-.059,0-.03-.03-.059c0-.03,0-.03-.03-.059v-.118h0v-.177c0-.03,0-.059.03-.059h0a6.445,6.445,0,0,0,.414-2.01c.059-.68.089-1.419.089-1.98a4.716,4.716,0,0,1-.68.3,3.029,3.029,0,0,1-1.094.177,3.269,3.269,0,0,1-1.921-.562,2.539,2.539,0,0,1-1.064-2.217,2.567,2.567,0,0,1,.621-1.685,4.961,4.961,0,0,1-.769-2.6,4.875,4.875,0,0,1,8.483-3.281,2.6,2.6,0,0,1,.975-.177,2.637,2.637,0,0,1,2.631,2.631,2.268,2.268,0,0,1-.207,1A3.668,3.668,0,0,1,15.1,15.369Z" transform="translate(0.002 0.002)"/><path class="b" d="M27.088,22.9a4.69,4.69,0,0,1,1.36,3.222v.03c0,.089.03.473.03,1,0,.65-.03,1.507-.089,2.394a11.856,11.856,0,0,1-.236,1.478A4.576,4.576,0,0,1,28.8,31a3.769,3.769,0,0,1,.562.03,9.191,9.191,0,0,1-.236-1.3,24.085,24.085,0,0,1-.118-2.424c0-.828.03-1.448.03-1.448V25.8a3.422,3.422,0,0,1,.8-1.6.627.627,0,0,1,.887.887,1.692,1.692,0,0,0-.414.739c.03,0,.03.03.059.03a2.41,2.41,0,0,0,1.389.414,2.447,2.447,0,0,0,2.453-2.453,2.512,2.512,0,0,0-1.153-2.1.575.575,0,0,1-.266-.414.531.531,0,0,1,.118-.473,1.321,1.321,0,0,0,.266-.828,1.388,1.388,0,0,0-1.389-1.389,1.317,1.317,0,0,0-.769.236.648.648,0,0,1-.857-.148A3.57,3.57,0,0,0,27.236,17.2,3.633,3.633,0,0,0,23.6,20.836a3.553,3.553,0,0,0,.828,2.306.608.608,0,0,1-.089.887,1.518,1.518,0,0,0-.03,2.335,2.135,2.135,0,0,0,1.212.325,2.9,2.9,0,0,0,.68-.089,3.425,3.425,0,0,0,1.094-.591,3.512,3.512,0,0,0-.975-2.158.643.643,0,0,1,0-.887A.469.469,0,0,1,27.088,22.9Z" transform="translate(-16.624 -12.115)"/></g><path d="M118.007,30.052a3.831,3.831,0,0,1-1.419,3.1,5.552,5.552,0,0,1-3.606,1.153,9.579,9.579,0,0,1-3.045-.532,8.784,8.784,0,0,1-2.838-1.537l1.6-2.276a6.894,6.894,0,0,0,4.345,1.567,2.106,2.106,0,0,0,1.123-.266.879.879,0,0,0,.414-.739,1.083,1.083,0,0,0-.562-.857,6.311,6.311,0,0,0-1.655-.739c-.709-.236-1.271-.414-1.655-.591a7.335,7.335,0,0,1-1.3-.709,3.049,3.049,0,0,1-1.478-2.719,3.573,3.573,0,0,1,1.448-2.956A5.864,5.864,0,0,1,113.13,20.8a8.234,8.234,0,0,1,4.611,1.567l-1.36,2.424a5.951,5.951,0,0,0-3.4-1.153c-1.123,0-1.685.3-1.685.916a.882.882,0,0,0,.532.8,10.211,10.211,0,0,0,1.774.68c.828.266,1.419.443,1.773.591a8.548,8.548,0,0,1,1.241.65A3.008,3.008,0,0,1,118.007,30.052Z" transform="translate(-75.444 -14.653)"/><path d="M161.63,27.066v7.064h-3.665V26.978a4.148,4.148,0,0,0-.473-2.276,1.741,1.741,0,0,0-1.537-.739,2.552,2.552,0,0,0-1.862.8,3.16,3.16,0,0,0-.828,2.335V34.16H149.6V21.066h3.665v1.448a4.571,4.571,0,0,1,3.458-1.714,3.659,3.659,0,0,1,2.246.739,4.541,4.541,0,0,1,1.507,1.774,5.167,5.167,0,0,1,2.04-1.862,5.532,5.532,0,0,1,2.572-.65,5.136,5.136,0,0,1,3.724,1.389,5.3,5.3,0,0,1,1.419,3.99v7.951h-3.665V26.978q0-3.015-2.217-3.015a2.569,2.569,0,0,0-1.892.8A2.933,2.933,0,0,0,161.63,27.066Z" transform="translate(-105.382 -14.653)"/><path d="M235.113,21.136V22.2a4.924,4.924,0,0,0-3.429-1.3,6.361,6.361,0,0,0-4.463,1.833A6.432,6.432,0,0,0,225.3,27.61a6.735,6.735,0,0,0,1.862,4.936,6.02,6.02,0,0,0,4.375,1.862,5.39,5.39,0,0,0,3.547-1.271V34.2h3.665V21.136ZM232.039,31.3c-1.921,0-3.222-1.626-3.222-3.754,0-2.069,1.3-3.636,3.222-3.636a3.328,3.328,0,0,1,3.251,3.636C235.291,29.679,233.961,31.3,232.039,31.3Z" transform="translate(-158.706 -14.723)"/><path d="M282.936,22.3a4.685,4.685,0,0,1,3.931-1.478v3.4h-.68a2.737,2.737,0,0,0-2.424,1.153,5.293,5.293,0,0,0-.8,3.045v5.675H279.3V21.058h3.665V22.3Z" transform="translate(-196.744 -14.645)"/><g transform="translate(92.517 3.25)"><path d="M318.853,23.651a2.133,2.133,0,0,1-.946.236,1.151,1.151,0,0,1-.887-.414,1.59,1.59,0,0,1-.355-1.153V17.385h2.66V14.163h-2.66V11H313V22.794a4.475,4.475,0,0,0,1.3,3.37,4.416,4.416,0,0,0,3.192,1.241,4.746,4.746,0,0,0,2.394-.68Z" transform="translate(-313 -11)"/></g><g transform="translate(107.213 6.058)"><path d="M369.334,31.174a2.932,2.932,0,0,1-2.187-1.182l9.134-2.9a7.265,7.265,0,0,0-1.389-3.931,6.371,6.371,0,0,0-4.729-2.424,6.865,6.865,0,0,0-5.084,1.567,6.153,6.153,0,0,0-2.335,4.641,6.465,6.465,0,0,0,1.6,4.936,6.782,6.782,0,0,0,4.788,2.335,7.787,7.787,0,0,0,6.03-2.335l-2.128-2.246A4.853,4.853,0,0,1,369.334,31.174Zm-.769-7.183a3.413,3.413,0,0,1,4.138,1.36l-6.5,2.069A3.387,3.387,0,0,1,368.566,23.992Z" transform="translate(-362.718 -20.651)"/><path d="M468.334,31.174a2.932,2.932,0,0,1-2.187-1.182l9.134-2.9a7.265,7.265,0,0,0-1.389-3.931,6.371,6.371,0,0,0-4.729-2.424,6.865,6.865,0,0,0-5.084,1.567,6.153,6.153,0,0,0-2.335,4.641,6.465,6.465,0,0,0,1.6,4.936,6.782,6.782,0,0,0,4.788,2.335,7.787,7.787,0,0,0,6.03-2.335l-2.128-2.246A4.793,4.793,0,0,1,468.334,31.174Zm-.739-7.183a3.413,3.413,0,0,1,4.138,1.36l-6.5,2.069A3.387,3.387,0,0,1,467.6,23.992Z" transform="translate(-432.456 -20.651)"/><path d="M417.836,26.63v7.3H414.2V20.866h3.636v1.419A5.073,5.073,0,0,1,421.56,20.6a4.532,4.532,0,0,1,3.458,1.448,5.349,5.349,0,0,1,1.389,3.9V33.9h-3.636v-7.39q0-3.015-2.217-3.015a2.684,2.684,0,0,0-1.921.8A3.2,3.2,0,0,0,417.836,26.63Z" transform="translate(-398.983 -20.57)"/><g transform="translate(44.717 0.026)"><path d="M517.636,22.1a4.686,4.686,0,0,1,3.931-1.478v3.4h-.68a2.738,2.738,0,0,0-2.424,1.153,5.293,5.293,0,0,0-.8,3.045v5.675H514V20.858h3.665V22.1Z" transform="translate(-514 -20.589)"/></g><g transform="translate(53.614)"><path d="M554.593,32.028v.443c0,1.448-.325,3.222-1.8,4.138-3.1,1.951-6.355-1.389-6.355-1.389L544.1,37.644a8.772,8.772,0,0,0,6.651,2.9,7.079,7.079,0,0,0,4.848-1.685c1.537-1.36,2.542-3.606,2.542-7.183V20.766h-3.665v2.04a5.022,5.022,0,0,0-4.138-2.306c-3.665,0-6.119,2.778-6.119,6.8,0,3.931,2.394,6.739,6.03,6.739A5.439,5.439,0,0,0,554.593,32.028Zm-3.37-1.064c-1.921,0-3.222-1.626-3.222-3.754,0-2.069,1.3-3.636,3.222-3.636a3.328,3.328,0,0,1,3.251,3.636C554.475,29.338,553.145,30.964,551.224,30.964Z" transform="translate(-544.1 -20.5)"/></g><path d="M606.993,32.218v.473c0,1.448-.325,3.222-1.8,4.138-3.1,1.951-6.355-1.389-6.355-1.389L596.5,37.864a8.772,8.772,0,0,0,6.651,2.9A7.079,7.079,0,0,0,608,39.076c1.537-1.36,2.542-3.606,2.542-7.183V21.4h-3.695v5.439c0,.887-.148,3.163-2.66,3.163a2.39,2.39,0,0,1-1.744-.591c-.828-.828-.8-2.926-.8-2.926V21.4h-3.665v6.207c0,3.754,1.8,5.646,5.409,5.646A6.2,6.2,0,0,0,606.993,32.218Z" transform="translate(-527.398 -21.134)"/></g></g></svg>