<svg xmlns="http://www.w3.org/2000/svg" width="118.775" height="28.519" viewBox="0 0 118.775 28.519"><defs><style>.a{fill:#ec0444;}</style></defs><path class="a" d="M24.969,3.7h0c4.166.641,3.916,3.738,3.916,3.738L15.676,21.007a68.712,68.712,0,0,0,15.2-.676A13.177,13.177,0,0,0,10.3,4.059,59.54,59.54,0,0,1,24.969,3.7Z" transform="translate(-6.633)"/><path class="a" d="M8.011,30.807h0c-4.166-.641-3.916-3.738-3.916-3.738L17.3,13.5a66.663,66.663,0,0,0-14.811.641A12.606,12.606,0,0,0,0,21.763,13.189,13.189,0,0,0,13.174,34.937a13.053,13.053,0,0,0,9.969-4.593A61.662,61.662,0,0,1,8.011,30.807Z" transform="translate(0 -8.59)"/><g transform="translate(34.607 0.997)"><path d="M104,22.711H97.734V19.4H109.27v3.1l-6.943,7.833h7.334v3.311H97.2V30.331Z" transform="translate(-97.2 -13.49)"/><g transform="translate(13.886)"><g transform="translate(0.356 5.91)"><path d="M137.2,33.677V19.4h4.059V33.677Z" transform="translate(-137.2 -19.4)"/></g><circle cx="2.385" cy="2.385" r="2.385"/></g><path d="M214.782,12.487a6.09,6.09,0,0,0-4.557-2.029,5.43,5.43,0,0,0-4.273,1.851V5.9H202V24.984h3.988V23.1a5.193,5.193,0,0,0,4.2,2.1,5.916,5.916,0,0,0,4.522-2.172,7.577,7.577,0,0,0,1.994-5.341A7.123,7.123,0,0,0,214.782,12.487Zm-5.447,9.328c-2.1,0-3.525-1.78-3.525-4.13,0-2.279,1.424-3.988,3.525-3.988s3.525,1.673,3.525,3.988C212.895,20.071,211.435,21.815,209.335,21.815Z" transform="translate(-164.687 -4.796)"/><path d="M254.137,30.136a3.289,3.289,0,0,1-2.386-1.282l10-3.169a7.986,7.986,0,0,0-1.531-4.308,7,7,0,0,0-5.163-2.635,7.439,7.439,0,0,0-5.554,1.709,6.836,6.836,0,0,0-2.564,5.056,7.088,7.088,0,0,0,1.745,5.412,7.411,7.411,0,0,0,5.234,2.564,8.6,8.6,0,0,0,6.587-2.528L258.2,28.5A5.512,5.512,0,0,1,254.137,30.136Zm-.819-7.833a3.722,3.722,0,0,1,4.522,1.5l-7.085,2.279A3.653,3.653,0,0,1,253.318,22.3Z" transform="translate(-193.61 -13.046)"/><path d="M299.137,30.136a3.289,3.289,0,0,1-2.385-1.282l10-3.169a7.986,7.986,0,0,0-1.531-4.308,7,7,0,0,0-5.163-2.635,7.439,7.439,0,0,0-5.554,1.709,6.836,6.836,0,0,0-2.564,5.056,7.088,7.088,0,0,0,1.745,5.412,7.412,7.412,0,0,0,5.234,2.564,8.6,8.6,0,0,0,6.587-2.528L303.2,28.5A5.512,5.512,0,0,1,299.137,30.136Zm-.819-7.833a3.722,3.722,0,0,1,4.522,1.5l-7.085,2.279A3.653,3.653,0,0,1,298.318,22.3Z" transform="translate(-222.588 -13.046)"/><path d="M164.165,31.2v.5c0,1.6-.356,3.525-1.958,4.522-3.382,2.136-6.943-1.531-6.943-1.531L152.7,37.328a9.591,9.591,0,0,0,7.263,3.169,7.835,7.835,0,0,0,5.269-1.816c1.673-1.5,2.777-3.952,2.777-7.833V18.885h-4.023v2.243a5.544,5.544,0,0,0-4.522-2.528c-3.988,0-6.694,3.026-6.694,7.441,0,4.308,2.6,7.37,6.587,7.37A6.055,6.055,0,0,0,164.165,31.2ZM160.5,30.029c-2.1,0-3.525-1.78-3.525-4.13,0-2.279,1.424-3.988,3.525-3.988s3.525,1.673,3.525,3.988C164.022,28.284,162.562,30.029,160.5,30.029Z" transform="translate(-132.94 -12.975)"/></g></svg>