<svg xmlns="http://www.w3.org/2000/svg" width="35.965" height="35.965" viewBox="0 0 35.965 35.965"><defs><style>.a{fill:#4267b2;}.b{fill:#fff;}</style></defs><g transform="translate(0)"><path class="a" d="M33.967,0H2A2,2,0,0,0,0,2V33.967a2,2,0,0,0,2,2H19.211V22.059h-4.67V16.614h4.67v-4c0-4.645,2.837-7.178,6.993-7.178a38.692,38.692,0,0,1,4.186.215V10.49H27.523c-2.253,0-2.692,1.074-2.692,2.647V16.6h5.39l-.7,5.445h-4.69V35.965h9.136a2,2,0,0,0,2-2V2A2,2,0,0,0,33.967,0Z" transform="translate(0)"/><path class="b" d="M40.348,44.218V29.031H45.47l.764-5.946H40.348V19.3c0-1.718.48-2.891,2.94-2.891h3.12V11.1a42.254,42.254,0,0,0-4.572-.235c-4.528,0-7.637,2.766-7.637,7.839v4.364H29.11V29.02h5.1v15.2Z" transform="translate(-15.623 -8.253)"/></g></svg>