<svg xmlns="http://www.w3.org/2000/svg" width="35.967" height="35.965" viewBox="0 0 35.967 35.965"><defs><style>.a{fill:#006998;}.b{fill:#fff;}</style></defs><g transform="translate(-0.001)"><path class="a" d="M33.3,0H2.655A2.625,2.625,0,0,0,0,2.592V33.37a2.627,2.627,0,0,0,2.655,2.595h30.65a2.633,2.633,0,0,0,2.662-2.595V2.592A2.634,2.634,0,0,0,33.3,0Z"/><path class="b" d="M20.075,28.362h5.335V45.525H20.075Zm2.67-8.532a3.093,3.093,0,1,1-3.094,3.092,3.094,3.094,0,0,1,3.094-3.092" transform="translate(-14.742 -14.877)"/><path class="b" d="M56.11,52.707h5.118v2.345H61.3a5.607,5.607,0,0,1,5.048-2.772c5.4,0,6.4,3.554,6.4,8.177V69.87h-5.33V61.524c0-1.991-.037-4.551-2.772-4.551-2.775,0-3.2,2.168-3.2,4.406V69.87H56.11Z" transform="translate(-42.096 -39.223)"/></g></svg>