<svg xmlns="http://www.w3.org/2000/svg" width="339.885" height="48.763" viewBox="0 0 339.885 48.763"><defs><style>.a{fill:#fff;}</style></defs><g transform="translate(164.416 0.063)"><g transform="translate(55.332)"><g transform="translate(0.568 10.359)"><path class="a" d="M348.8,41.892V16.5H356V41.829h-7.2Z" transform="translate(-348.8 -16.5)"/></g><path class="a" d="M356.238,4.269a4.169,4.169,0,1,1-8.338,0,4.169,4.169,0,1,1,8.338,0Z" transform="translate(-347.9 -0.1)"/></g><path class="a" d="M420.574,27.385V41.534H413.5V16.205h7.074v2.779a10.041,10.041,0,0,1,7.2-3.285,8.83,8.83,0,0,1,6.7,2.842,10.425,10.425,0,0,1,2.716,7.58V41.534h-7.074V27.2c0-3.916-1.453-5.874-4.3-5.874a5.31,5.31,0,0,0-3.727,1.516A6.38,6.38,0,0,0,420.574,27.385Z" transform="translate(-316.733 -5.846)"/><path class="a" d="M509.228,36.08A5.835,5.835,0,0,1,505,33.806l17.749-5.622a14.167,14.167,0,0,0-2.716-7.643,12.426,12.426,0,0,0-9.159-4.674,13.2,13.2,0,0,0-9.854,3.032,12.127,12.127,0,0,0-4.548,8.969,12.574,12.574,0,0,0,3.1,9.6,13.148,13.148,0,0,0,9.285,4.548,15.26,15.26,0,0,0,11.685-4.485l-4.106-4.358A9.533,9.533,0,0,1,509.228,36.08Zm-1.453-13.9a6.6,6.6,0,0,1,8.022,2.653l-12.57,4.043A6.48,6.48,0,0,1,507.775,22.184Z" transform="translate(-347.275 -5.887)"/><path class="a" d="M383.812,16.242v2.084A9.573,9.573,0,0,0,377.18,15.8,12.422,12.422,0,0,0,364.8,28.812a12.659,12.659,0,0,0,3.664,9.538,11.718,11.718,0,0,0,8.527,3.664,10.582,10.582,0,0,0,6.885-2.463v2.084h7.138V16.242Zm-6,19.707c-3.727,0-6.253-3.158-6.253-7.327,0-4.043,2.527-7.074,6.253-7.074s6.253,2.969,6.253,7.074C384.128,32.854,381.538,35.949,377.812,35.949Z" transform="translate(-298.793 -5.883)"/><path class="a" d="M309.2,36.919V3h7.643V36.856H309.2Z" transform="translate(-278.313 -1.168)"/><path class="a" d="M328.8,36.919V3h7.643V36.856H328.8Z" transform="translate(-285.533 -1.168)"/><path class="a" d="M470.28,35.734c2.337,0,4.485-1.2,6.38-3.537l4.232,4.737q-4.927,5.116-10.612,5.116a13.891,13.891,0,0,1-9.664-3.6,12.075,12.075,0,0,1-3.916-9.411,12.167,12.167,0,0,1,3.979-9.475,13.42,13.42,0,0,1,9.475-3.664,14.825,14.825,0,0,1,5.558,1.137,13.934,13.934,0,0,1,4.927,3.348l-3.664,4.8a9.548,9.548,0,0,0-2.969-2.274,9.017,9.017,0,0,0-3.537-.821,7.006,7.006,0,0,0-4.8,1.832,6.516,6.516,0,0,0-2.021,5.053,6.516,6.516,0,0,0,2.021,5.053A6.721,6.721,0,0,0,470.28,35.734Z" transform="translate(-332.646 -5.92)"/><path class="a" d="M279.312,16.242v2.084A9.573,9.573,0,0,0,272.68,15.8,12.422,12.422,0,0,0,260.3,28.812a12.659,12.659,0,0,0,3.664,9.538,11.718,11.718,0,0,0,8.527,3.664,10.582,10.582,0,0,0,6.885-2.463v2.084h7.138V16.242Zm-6,19.707c-3.727,0-6.253-3.158-6.253-7.327,0-4.043,2.527-7.074,6.253-7.074s6.253,2.969,6.253,7.074C279.628,32.854,277.038,35.949,273.312,35.949Z" transform="translate(-260.3 -5.883)"/></g><g transform="translate(0 0)"><path class="a" d="M12,22.374H.884V16.5H21.349V22L9.032,35.891H22.107v5.874H0V35.891Z" transform="translate(0 -6.078)"/><g transform="translate(24.571)"><g transform="translate(0.632 10.422)"><path class="a" d="M39.9,41.892V16.5h7.2V41.829H39.9Z" transform="translate(-39.9 -16.5)"/></g><ellipse class="a" cx="4.232" cy="4.232" rx="4.232" ry="4.232"/></g><path class="a" d="M127.339,14.685a10.8,10.8,0,0,0-8.085-3.6,9.633,9.633,0,0,0-7.58,3.285V3H104.6V36.856h7.074V33.508a9.213,9.213,0,0,0,7.453,3.727,10.5,10.5,0,0,0,8.022-3.853,13.441,13.441,0,0,0,3.537-9.475A12.593,12.593,0,0,0,127.339,14.685Zm-9.664,16.549c-3.727,0-6.253-3.158-6.253-7.327,0-4.043,2.527-7.074,6.253-7.074s6.253,2.969,6.253,7.074C123.991,28.139,121.4,31.234,117.675,31.234Z" transform="translate(-38.53 -1.105)"/><path class="a" d="M162.428,36.08a5.835,5.835,0,0,1-4.232-2.274l17.749-5.622a14.168,14.168,0,0,0-2.716-7.643,12.426,12.426,0,0,0-9.159-4.674,13.2,13.2,0,0,0-9.854,3.032,12.127,12.127,0,0,0-4.548,8.969,12.574,12.574,0,0,0,3.1,9.6,13.148,13.148,0,0,0,9.285,4.548,15.26,15.26,0,0,0,11.685-4.485l-4.106-4.358A9.533,9.533,0,0,1,162.428,36.08Zm-1.453-13.9A6.6,6.6,0,0,1,169,24.836l-12.57,4.043A6.411,6.411,0,0,1,160.975,22.184Z" transform="translate(-55.112 -5.824)"/><path class="a" d="M207.428,36.08a5.835,5.835,0,0,1-4.232-2.274l17.749-5.622a14.168,14.168,0,0,0-2.716-7.643,12.426,12.426,0,0,0-9.159-4.674,13.2,13.2,0,0,0-9.854,3.032,12.127,12.127,0,0,0-4.548,8.969,12.574,12.574,0,0,0,3.1,9.6,13.148,13.148,0,0,0,9.285,4.548,15.26,15.26,0,0,0,11.685-4.485l-4.106-4.358A9.533,9.533,0,0,1,207.428,36.08Zm-1.453-13.9A6.6,6.6,0,0,1,214,24.836l-12.57,4.043A6.48,6.48,0,0,1,205.975,22.184Z" transform="translate(-71.688 -5.824)"/><path class="a" d="M75.739,38.06v.884c0,2.842-.632,6.253-3.474,8.022-6,3.79-12.317-2.716-12.317-2.716L55.4,48.924a17.016,17.016,0,0,0,12.885,5.622,13.9,13.9,0,0,0,9.348-3.221c2.969-2.653,4.927-7.011,4.927-13.9V16.205H75.486v3.979A9.835,9.835,0,0,0,67.464,15.7c-7.074,0-11.875,5.369-11.875,13.2,0,7.643,4.611,13.075,11.685,13.075A10.706,10.706,0,0,0,75.739,38.06Zm-6.506-2.084c-3.727,0-6.253-3.158-6.253-7.327,0-4.043,2.527-7.074,6.253-7.074s6.253,2.969,6.253,7.074C75.486,32.881,72.9,35.976,69.233,35.976Z" transform="translate(-20.407 -5.783)"/></g></svg>