<svg xmlns="http://www.w3.org/2000/svg" width="35.965" height="35.965" viewBox="0 0 35.965 35.965"><defs><style>.a{fill:#00a7d0;}.b{fill:#fff;}</style></defs><rect class="a" width="35.965" height="35.965"/><g transform="translate(5.217 7.6)"><path class="b" d="M83.122,119.166a14.813,14.813,0,0,0,14.91-14.91c0-.225,0-.45-.01-.674a10.676,10.676,0,0,0,2.616-2.718,10.62,10.62,0,0,1-3.015.828,5.272,5.272,0,0,0,2.31-2.9,10.423,10.423,0,0,1-3.331,1.267,5.242,5.242,0,0,0-9.064,3.587,5.791,5.791,0,0,0,.133,1.2,14.88,14.88,0,0,1-10.8-5.478,5.261,5.261,0,0,0,1.625,7,5.3,5.3,0,0,1-2.371-.654v.072a5.251,5.251,0,0,0,4.2,5.14,5.271,5.271,0,0,1-2.361.092,5.24,5.24,0,0,0,4.9,3.638,10.51,10.51,0,0,1-6.51,2.248,10.085,10.085,0,0,1-1.247-.072,14.906,14.906,0,0,0,8.022,2.34" transform="translate(-75.1 -98.4)"/></g></svg>